<?xml version="1.0" encoding="UTF-8" standalone="no"?>
<!-- Created with Inkscape (http://www.inkscape.org/) -->
<svg
   xmlns:dc="http://purl.org/dc/elements/1.1/"
   xmlns:cc="http://web.resource.org/cc/"
   xmlns:rdf="http://www.w3.org/1999/02/22-rdf-syntax-ns#"
   xmlns:svg="http://www.w3.org/2000/svg"
   xmlns="http://www.w3.org/2000/svg"
   xmlns:sodipodi="http://sodipodi.sourceforge.net/DTD/sodipodi-0.dtd"
   xmlns:inkscape="http://www.inkscape.org/namespaces/inkscape"
   width="581.28992"
   height="181.37662"
   id="svg2084"
   sodipodi:version="0.32"
   inkscape:version="0.44"
   version="1.0"
   sodipodi:docbase="E:\Logos"
   sodipodi:docname="Burr-Brown-Logo.svg">
  <defs
     id="defs2086" />
  <sodipodi:namedview
     id="base"
     pagecolor="#ffffff"
     bordercolor="#666666"
     borderopacity="1.0"
     inkscape:pageopacity="0.0"
     inkscape:pageshadow="2"
     inkscape:zoom="0.35919193"
     inkscape:cx="372.04724"
     inkscape:cy="526.18109"
     inkscape:document-units="px"
     inkscape:current-layer="layer1"
     inkscape:window-width="925"
     inkscape:window-height="573"
     inkscape:window-x="220"
     inkscape:window-y="220" />
  <metadata
     id="metadata2089">
    <rdf:RDF>
      <cc:Work
         rdf:about="">
        <dc:format>image/svg+xml</dc:format>
        <dc:type
           rdf:resource="http://purl.org/dc/dcmitype/StillImage" />
      </cc:Work>
    </rdf:RDF>
  </metadata>
  <g
     inkscape:label="Ebene 1"
     inkscape:groupmode="layer"
     id="layer1"
     transform="translate(-96.18022,-721.9118)">
    <path
       id="path1973"
       class="ps00"
       d="M 96.354145,903.2884 L 631.3832,903.2884 L 631.3832,769.734 L 96.354145,769.734 L 96.354145,903.2884 z "
       style="fill:black;fill-rule:nonzero;stroke:none" />
    <path
       id="path1975"
       class="ps01"
       d="M 154.32045,885.49275 L 573.41688,885.49275 L 573.41688,787.52965 L 154.32045,787.52965 L 154.32045,885.49275 z "
       style="fill:white;fill-rule:nonzero;stroke:none" />
    <path
       id="path1977"
       class="ps00"
       d="M 337.84177,799.29682 C 347.34825,799.29682 354.9998,807.00635 354.9998,816.45486 C 354.9998,825.96134 347.34825,833.55491 337.84177,833.55491 C 347.34825,833.55491 354.9998,841.14849 354.9998,850.65497 C 354.9998,860.10348 347.34825,867.81301 337.84177,867.81301 L 181.04288,867.87098 L 181.04288,799.29682 L 337.84177,799.29682"
       style="fill:black;fill-rule:nonzero;stroke:none" />
    <path
       id="path1979"
       class="ps01"
       d="M 312.22065,825.96134 C 315.40883,825.96134 318.01732,823.41082 318.01732,820.22268 C 318.01732,816.97657 315.40883,814.42606 312.22065,814.42606 L 218.08339,814.42606 L 218.08339,825.96134 L 312.22065,825.96134"
       style="fill:white;fill-rule:nonzero;stroke:none" />
    <path
       id="path1981"
       class="ps01"
       d="M 312.22065,852.68382 C 315.40883,852.68382 318.01732,850.1333 318.01732,846.94512 C 318.01732,843.69901 315.40883,841.14849 312.22065,841.14849 L 218.08339,841.14849 L 218.08339,852.68382 L 312.22065,852.68382"
       style="fill:white;fill-rule:nonzero;stroke:none" />
    <path
       id="path1983"
       class="ps00"
       d="M 532.55063,799.29682 C 542.05711,799.29682 549.70866,807.00635 549.70866,816.45486 C 549.70866,825.96134 542.05711,833.55491 532.55063,833.55491 C 542.05711,833.55491 549.70866,841.14849 549.70866,850.65497 C 549.70866,860.10348 542.05711,867.81301 532.55063,867.81301 L 375.75174,867.87098 L 375.75174,799.29682 L 532.55063,799.29682"
       style="fill:black;fill-rule:nonzero;stroke:none" />
    <path
       id="path1985"
       class="ps01"
       d="M 506.9295,825.96134 C 510.11769,825.96134 512.72613,823.41082 512.72613,820.22268 C 512.72613,816.97657 510.11769,814.42606 506.9295,814.42606 L 412.79224,814.42606 L 412.79224,825.96134 L 506.9295,825.96134"
       style="fill:white;fill-rule:nonzero;stroke:none" />
    <path
       id="path1987"
       class="ps01"
       d="M 506.9295,852.68382 C 510.11769,852.68382 512.72613,850.1333 512.72613,846.94512 C 512.72613,843.69901 510.11769,841.14849 506.9295,841.14849 L 412.79224,841.14849 L 412.79224,852.68382 L 506.9295,852.68382"
       style="fill:white;fill-rule:nonzero;stroke:none" />
    <path
       id="path1989"
       class="ps00"
       d="M 130.32235,722.25958 C 135.65528,722.25958 140.06073,726.60705 140.06073,731.99795 C 140.06073,737.33083 135.65528,741.6783 130.32235,741.6783 C 135.65528,741.6783 140.06073,745.9678 140.06073,751.3587 C 140.06073,756.69159 135.65528,760.98108 130.32235,760.98108 L 96.180223,760.98108 L 96.180223,722.20165 L 130.32235,722.25958"
       style="fill:black;fill-rule:nonzero;stroke:none" />
    <path
       id="path1991"
       class="ps00"
       d="M 289.72973,744.51864 C 295.81618,744.51864 300.80131,739.53356 300.80131,733.44711 C 300.80131,727.30268 295.52636,722.25958 289.43991,722.25958 L 255.0079,722.25958 L 255.0079,760.98108 L 266.31133,760.98108 L 266.31133,744.86644 L 276.97714,744.86644 L 287.99075,760.98108 L 300.74334,760.98108 L 289.72973,744.51864"
       style="fill:black;fill-rule:nonzero;stroke:none" />
    <path
       id="path1993"
       class="ps01"
       d="M 282.368,736.75119 C 284.16495,736.75119 285.67208,735.24406 285.67208,733.44711 C 285.67208,731.65015 284.16495,730.14302 282.368,730.14302 L 266.3693,730.14302 L 266.3693,736.75119 L 282.368,736.75119"
       style="fill:white;fill-rule:nonzero;stroke:none" />
    <path
       id="path1995"
       class="ps00"
       d="M 190.72328,722.25958 C 190.72328,722.25958 190.72328,734.20067 190.72328,747.8807 C 190.72328,761.5028 174.37679,761.21298 168.81201,761.21298 C 163.18926,761.21298 146.84277,761.5028 146.84277,747.8807 C 146.84277,734.20067 146.84277,722.25958 146.84277,722.25958 L 156.98686,722.25958 C 156.98686,722.25958 156.98686,731.65015 156.98686,742.43187 C 156.98686,753.15566 165.5659,752.92376 168.46422,752.92376 C 171.4205,752.92376 179.94152,753.15566 179.94152,742.43187 C 179.94152,731.65015 179.94152,722.25958 179.94152,722.25958 L 190.72328,722.25958"
       style="fill:black;fill-rule:nonzero;stroke:none" />
    <path
       id="path1997"
       class="ps00"
       d="M 392.7359,722.25958 C 398.06878,722.25958 402.41625,726.60705 402.41625,731.93998 C 402.41625,737.33083 398.06878,741.62033 392.7359,741.62033 C 398.06878,741.62033 402.41625,745.90983 402.41625,751.24276 C 402.41625,756.57564 398.06878,760.98108 392.7359,760.98108 L 358.70966,760.98108 L 358.70966,722.25958 L 392.7359,722.25958"
       style="fill:black;fill-rule:nonzero;stroke:none" />
    <path
       id="path1999"
       class="ps01"
       d="M 385.95381,737.33083 C 387.75076,737.33083 389.25789,735.88168 389.25789,734.08472 C 389.25789,732.28777 387.75076,730.78064 385.95381,730.78064 L 370.01309,730.78064 L 370.01309,737.33083 L 385.95381,737.33083"
       style="fill:white;fill-rule:nonzero;stroke:none" />
    <path
       id="path2001"
       class="ps01"
       d="M 385.95381,752.46007 C 387.75076,752.46007 389.25789,750.95294 389.25789,749.15598 C 389.25789,747.35903 387.75076,745.90983 385.95381,745.90983 L 370.01309,745.90983 L 370.01309,752.46007 L 385.95381,752.46007"
       style="fill:white;fill-rule:nonzero;stroke:none" />
    <path
       id="path2003"
       class="ps00"
       d="M 443.9781,744.51864 C 450.06455,744.51864 455.04968,739.53356 455.04968,733.38913 C 455.04968,727.30268 449.8327,722.25958 443.68828,722.25958 L 409.19829,722.25958 L 409.19829,760.98108 L 420.50172,760.98108 L 420.50172,744.86644 L 431.22551,744.86644 L 442.23912,760.92311 L 454.99171,760.92311 L 443.9781,744.51864"
       style="fill:black;fill-rule:nonzero;stroke:none" />
    <path
       id="path2005"
       class="ps01"
       d="M 436.50047,736.57727 C 438.29742,736.57727 439.8045,735.12811 439.8045,733.33116 C 439.8045,731.53421 438.29742,730.02708 436.50047,730.02708 L 420.4438,730.02708 L 420.4438,736.57727 L 436.50047,736.57727"
       style="fill:white;fill-rule:nonzero;stroke:none" />
    <path
       id="path2007"
       class="ps00"
       d="M 460.20865,742.0261 C 460.20865,726.31722 468.96156,721.91178 483.62705,721.91178 C 498.40848,721.91178 505.30647,726.72299 505.30647,742.0261 C 505.30647,757.27123 497.94474,761.6187 483.16335,761.6187 C 468.49786,761.6187 460.20865,757.677 460.20865,742.0261"
       style="fill:black;fill-rule:nonzero;stroke:none" />
    <path
       id="path2009"
       class="ps01"
       d="M 494.29286,742.0261 C 494.29286,752.51799 485.71387,753.79327 482.87348,753.79327 C 480.03314,753.79327 471.22226,752.46007 471.22226,742.0261 C 471.22226,731.53421 480.78671,729.73725 483.62705,729.73725 C 486.46739,729.73725 494.29286,731.59218 494.29286,742.0261"
       style="fill:white;fill-rule:nonzero;stroke:none" />
    <path
       id="path2011"
       class="ps00"
       d="M 546.40458,722.25958 L 557.88193,747.47493 L 569.47518,722.25958 L 580.141,722.25958 L 562.63517,760.98108 L 551.79543,760.98108 L 542.86865,741.09866 L 533.94181,760.98108 L 523.10212,760.98108 L 505.65427,722.25958 L 516.32008,722.25958 L 527.85536,747.47493 L 539.33267,722.25958 L 546.40458,722.25958"
       style="fill:black;fill-rule:nonzero;stroke:none" />
    <path
       id="path2013"
       class="ps00"
       d="M 619.73197,722.25958 L 619.73197,746.14172 L 598.92206,722.25958 L 585.64775,722.25958 L 585.64775,760.98108 L 597.12511,760.98108 L 597.12511,737.15691 L 617.87705,760.98108 L 631.3832,760.98108 L 631.3832,722.25958 L 619.73197,722.25958"
       style="fill:black;fill-rule:nonzero;stroke:none" />
    <path
       id="path2015"
       class="ps00"
       d="M 235.12547,744.51864 C 241.21192,744.51864 246.19706,739.53356 246.19706,733.44711 C 246.19706,727.30268 240.9221,722.25958 234.83565,722.25958 L 200.40364,722.25958 L 200.40364,760.98108 L 211.70707,760.98108 L 211.70707,744.86644 L 222.37288,744.86644 L 233.38649,760.98108 L 246.13908,760.98108 L 235.12547,744.51864"
       style="fill:black;fill-rule:nonzero;stroke:none" />
    <path
       id="path2017"
       class="ps01"
       d="M 227.76374,736.75119 C 229.56069,736.75119 231.06782,735.24406 231.06782,733.44711 C 231.06782,731.65015 229.56069,730.14302 227.76374,730.14302 L 211.76504,730.14302 L 211.76504,736.75119 L 227.76374,736.75119"
       style="fill:white;fill-rule:nonzero;stroke:none" />
    <path
       id="path2019"
       class="ps00"
       d="M 319.93017,741.15663 L 338.71128,741.15663 L 338.71128,747.82273 L 319.93017,747.82273 L 319.93017,741.15663 z "
       style="fill:black;fill-rule:nonzero;stroke:none" />
    <text
       id="text2021"
       transform="scale(1.000651,0.99935)"
       x="644.14539"
       y="756.76831"
       style="font-size:69.60487366px">
      <tspan
         id="tspan2023"
         class="ps00 ps20"
         y="756.76831"
         x="644.14539"
         style="font-size:44.54131699px;letter-spacing:0;word-spacing:-0.08908264;fill:black;fill-rule:nonzero;stroke:none;font-family:Arial">®</tspan>
    </text>
    <path
       id="path2025"
       class="ps01 ps20"
       d="M 123.54031,737.38881 C 125.33726,737.38881 126.84439,735.88168 126.84439,734.08472 C 126.84439,732.28777 125.33726,730.78064 123.54031,730.78064 L 107.54163,730.78064 L 107.54163,737.38881 L 123.54031,737.38881"
       style="font-size:7.6789999px;letter-spacing:0;word-spacing:-0.015358;fill:white;fill-rule:nonzero;stroke:none;font-family:Arial" />
    <path
       id="path2027"
       class="ps01 ps20"
       d="M 123.54031,752.51799 C 125.33726,752.51799 126.84439,751.06884 126.84439,749.21391 C 126.84439,747.41696 125.33726,745.9678 123.54031,745.9678 L 107.54163,745.9678 L 107.54163,752.51799 L 123.54031,752.51799"
       style="font-size:7.6789999px;letter-spacing:0;word-spacing:-0.015358;fill:white;fill-rule:nonzero;stroke:none;font-family:Arial" />
  </g>
</svg>
