%FSLAX25Y25*%
%MOIN*%
G70*
G01*
G75*
G04 Layer_Color=16711935*
%ADD10R,0.03150X0.03150*%
%ADD11R,0.06299X0.03937*%
%ADD12R,0.09843X0.04331*%
%ADD13C,0.04000*%
%ADD14C,0.02000*%
%ADD15C,0.01575*%
G04:AMPARAMS|DCode=16|XSize=59.06mil|YSize=59.06mil|CornerRadius=14.76mil|HoleSize=0mil|Usage=FLASHONLY|Rotation=270.000|XOffset=0mil|YOffset=0mil|HoleType=Round|Shape=RoundedRectangle|*
%AMROUNDEDRECTD16*
21,1,0.05906,0.02953,0,0,270.0*
21,1,0.02953,0.05906,0,0,270.0*
1,1,0.02953,-0.01476,-0.01476*
1,1,0.02953,-0.01476,0.01476*
1,1,0.02953,0.01476,0.01476*
1,1,0.02953,0.01476,-0.01476*
%
%ADD16ROUNDEDRECTD16*%
%ADD17C,0.05906*%
%ADD18C,0.03937*%
G04:AMPARAMS|DCode=19|XSize=98.43mil|YSize=98.43mil|CornerRadius=24.61mil|HoleSize=0mil|Usage=FLASHONLY|Rotation=270.000|XOffset=0mil|YOffset=0mil|HoleType=Round|Shape=RoundedRectangle|*
%AMROUNDEDRECTD19*
21,1,0.09843,0.04921,0,0,270.0*
21,1,0.04921,0.09843,0,0,270.0*
1,1,0.04921,-0.02461,-0.02461*
1,1,0.04921,-0.02461,0.02461*
1,1,0.04921,0.02461,0.02461*
1,1,0.04921,0.02461,-0.02461*
%
%ADD19ROUNDEDRECTD19*%
%ADD20O,0.08000X0.11811*%
%ADD21R,0.07500X0.07500*%
%ADD22O,0.17716X0.07874*%
%ADD23C,0.03150*%
%ADD24C,0.02400*%
%ADD25C,0.01201*%
%ADD26O,0.02165X0.05118*%
G04:AMPARAMS|DCode=27|XSize=31.5mil|YSize=51.18mil|CornerRadius=7.87mil|HoleSize=0mil|Usage=FLASHONLY|Rotation=270.000|XOffset=0mil|YOffset=0mil|HoleType=Round|Shape=RoundedRectangle|*
%AMROUNDEDRECTD27*
21,1,0.03150,0.03543,0,0,270.0*
21,1,0.01575,0.05118,0,0,270.0*
1,1,0.01575,-0.01772,-0.00787*
1,1,0.01575,-0.01772,0.00787*
1,1,0.01575,0.01772,0.00787*
1,1,0.01575,0.01772,-0.00787*
%
%ADD27ROUNDEDRECTD27*%
G04:AMPARAMS|DCode=28|XSize=31.5mil|YSize=51.18mil|CornerRadius=7.87mil|HoleSize=0mil|Usage=FLASHONLY|Rotation=180.000|XOffset=0mil|YOffset=0mil|HoleType=Round|Shape=RoundedRectangle|*
%AMROUNDEDRECTD28*
21,1,0.03150,0.03543,0,0,180.0*
21,1,0.01575,0.05118,0,0,180.0*
1,1,0.01575,-0.00787,0.01772*
1,1,0.01575,0.00787,0.01772*
1,1,0.01575,0.00787,-0.01772*
1,1,0.01575,-0.00787,-0.01772*
%
%ADD28ROUNDEDRECTD28*%
%ADD29O,0.05118X0.02165*%
%ADD30C,0.01201*%
%ADD31C,0.00394*%
%ADD32R,0.03543X0.03937*%
%ADD33R,0.03937X0.03543*%
G04:AMPARAMS|DCode=34|XSize=23.62mil|YSize=39.37mil|CornerRadius=2.95mil|HoleSize=0mil|Usage=FLASHONLY|Rotation=0.000|XOffset=0mil|YOffset=0mil|HoleType=Round|Shape=RoundedRectangle|*
%AMROUNDEDRECTD34*
21,1,0.02362,0.03347,0,0,0.0*
21,1,0.01772,0.03937,0,0,0.0*
1,1,0.00591,0.00886,-0.01673*
1,1,0.00591,-0.00886,-0.01673*
1,1,0.00591,-0.00886,0.01673*
1,1,0.00591,0.00886,0.01673*
%
%ADD34ROUNDEDRECTD34*%
%ADD35R,0.07874X0.09449*%
%ADD36C,0.02306*%
%ADD37C,0.01153*%
%ADD38C,0.01000*%
%ADD39C,0.00500*%
%ADD40C,0.00029*%
%ADD41C,0.00710*%
%ADD42C,0.00787*%
%ADD43C,0.00152*%
%ADD44C,0.00089*%
%ADD45R,0.02950X0.02950*%
%ADD46R,0.06099X0.03737*%
%ADD47R,0.09643X0.04131*%
%ADD48C,0.01375*%
G04:AMPARAMS|DCode=49|XSize=57.06mil|YSize=57.06mil|CornerRadius=13.76mil|HoleSize=0mil|Usage=FLASHONLY|Rotation=270.000|XOffset=0mil|YOffset=0mil|HoleType=Round|Shape=RoundedRectangle|*
%AMROUNDEDRECTD49*
21,1,0.05706,0.02953,0,0,270.0*
21,1,0.02953,0.05706,0,0,270.0*
1,1,0.02753,-0.01476,-0.01476*
1,1,0.02753,-0.01476,0.01476*
1,1,0.02753,0.01476,0.01476*
1,1,0.02753,0.01476,-0.01476*
%
%ADD49ROUNDEDRECTD49*%
%ADD50C,0.05706*%
%ADD51C,0.03737*%
G04:AMPARAMS|DCode=52|XSize=96.43mil|YSize=96.43mil|CornerRadius=23.61mil|HoleSize=0mil|Usage=FLASHONLY|Rotation=270.000|XOffset=0mil|YOffset=0mil|HoleType=Round|Shape=RoundedRectangle|*
%AMROUNDEDRECTD52*
21,1,0.09643,0.04921,0,0,270.0*
21,1,0.04921,0.09643,0,0,270.0*
1,1,0.04721,-0.02461,-0.02461*
1,1,0.04721,-0.02461,0.02461*
1,1,0.04721,0.02461,0.02461*
1,1,0.04721,0.02461,-0.02461*
%
%ADD52ROUNDEDRECTD52*%
%ADD53O,0.07800X0.11611*%
%ADD54R,0.07300X0.07300*%
%ADD55O,0.17516X0.07674*%
%ADD56C,0.02950*%
%ADD57O,0.01965X0.04918*%
G04:AMPARAMS|DCode=58|XSize=29.5mil|YSize=49.18mil|CornerRadius=6.87mil|HoleSize=0mil|Usage=FLASHONLY|Rotation=270.000|XOffset=0mil|YOffset=0mil|HoleType=Round|Shape=RoundedRectangle|*
%AMROUNDEDRECTD58*
21,1,0.02950,0.03543,0,0,270.0*
21,1,0.01575,0.04918,0,0,270.0*
1,1,0.01375,-0.01772,-0.00787*
1,1,0.01375,-0.01772,0.00787*
1,1,0.01375,0.01772,0.00787*
1,1,0.01375,0.01772,-0.00787*
%
%ADD58ROUNDEDRECTD58*%
G04:AMPARAMS|DCode=59|XSize=29.5mil|YSize=49.18mil|CornerRadius=6.87mil|HoleSize=0mil|Usage=FLASHONLY|Rotation=180.000|XOffset=0mil|YOffset=0mil|HoleType=Round|Shape=RoundedRectangle|*
%AMROUNDEDRECTD59*
21,1,0.02950,0.03543,0,0,180.0*
21,1,0.01575,0.04918,0,0,180.0*
1,1,0.01375,-0.00787,0.01772*
1,1,0.01375,0.00787,0.01772*
1,1,0.01375,0.00787,-0.01772*
1,1,0.01375,-0.00787,-0.01772*
%
%ADD59ROUNDEDRECTD59*%
%ADD60O,0.04918X0.01965*%
%ADD61R,0.03343X0.03737*%
%ADD62R,0.03737X0.03343*%
G04:AMPARAMS|DCode=63|XSize=21.62mil|YSize=37.37mil|CornerRadius=1.95mil|HoleSize=0mil|Usage=FLASHONLY|Rotation=0.000|XOffset=0mil|YOffset=0mil|HoleType=Round|Shape=RoundedRectangle|*
%AMROUNDEDRECTD63*
21,1,0.02162,0.03347,0,0,0.0*
21,1,0.01772,0.03737,0,0,0.0*
1,1,0.00391,0.00886,-0.01673*
1,1,0.00391,-0.00886,-0.01673*
1,1,0.00391,-0.00886,0.01673*
1,1,0.00391,0.00886,0.01673*
%
%ADD63ROUNDEDRECTD63*%
%ADD64R,0.07674X0.09249*%
G36*
X139357Y115713D02*
X138569Y114925D01*
X135813D01*
Y117602D01*
X139357D01*
Y115713D01*
D02*
G37*
G36*
Y121618D02*
Y119728D01*
X135813D01*
Y122406D01*
X138569D01*
X139357Y121618D01*
D02*
G37*
G36*
X257887Y74445D02*
X255132D01*
X254344Y75232D01*
Y77122D01*
X257887D01*
Y74445D01*
D02*
G37*
G36*
Y79248D02*
X254344D01*
Y81138D01*
X255132Y81925D01*
X257887D01*
Y79248D01*
D02*
G37*
G36*
X139357Y312563D02*
X138569Y311776D01*
X135813D01*
Y314453D01*
X139357D01*
Y312563D01*
D02*
G37*
G36*
Y318468D02*
Y316579D01*
X135813D01*
Y319256D01*
X138569D01*
X139357Y318468D01*
D02*
G37*
G36*
X257887Y271295D02*
X255132D01*
X254344Y272083D01*
Y273972D01*
X257887D01*
Y271295D01*
D02*
G37*
G36*
Y276098D02*
X254344D01*
Y277988D01*
X255132Y278776D01*
X257887D01*
Y276098D01*
D02*
G37*
D25*
X264572Y78185D02*
G03*
X264572Y78185I-2472J0D01*
G01*
X134073Y118665D02*
G03*
X134073Y118665I-2472J0D01*
G01*
X264572Y275035D02*
G03*
X264572Y275035I-2472J0D01*
G01*
X134073Y315516D02*
G03*
X134073Y315516I-2472J0D01*
G01*
D30*
X264572Y78185D02*
D03*
X262100Y75713D02*
D03*
X259628Y78185D02*
D03*
X262100Y80658D02*
D03*
X129128Y118665D02*
D03*
X131601Y121138D02*
D03*
X134073Y118665D02*
D03*
X131601Y116193D02*
D03*
X264572Y275035D02*
D03*
X262100Y272563D02*
D03*
X259628Y275035D02*
D03*
X262100Y277508D02*
D03*
X129128Y315516D02*
D03*
X131601Y317988D02*
D03*
X134073Y315516D02*
D03*
X131601Y313043D02*
D03*
D31*
X256116Y80587D02*
D03*
Y75783D02*
D03*
X137585Y116264D02*
D03*
Y121067D02*
D03*
X256116Y277437D02*
D03*
Y272634D02*
D03*
X137585Y313114D02*
D03*
Y317917D02*
D03*
D48*
X262100Y78185D02*
D03*
X131601Y118665D02*
D03*
X262100Y275035D02*
D03*
X131601Y315516D02*
D03*
D49*
X354716Y67106D02*
D03*
Y32305D02*
D03*
X38985Y129745D02*
D03*
Y164545D02*
D03*
X354716Y263956D02*
D03*
Y229156D02*
D03*
X38985Y326595D02*
D03*
Y361395D02*
D03*
D50*
X354716Y80885D02*
D03*
Y46085D02*
D03*
X38985Y115965D02*
D03*
Y150765D02*
D03*
X354716Y277735D02*
D03*
Y242935D02*
D03*
X38985Y312816D02*
D03*
Y347616D02*
D03*
D51*
X329301Y30285D02*
D03*
X289931D02*
D03*
X309616Y49970D02*
D03*
X275701Y30285D02*
D03*
X236331D02*
D03*
X256016Y49970D02*
D03*
X64400Y166565D02*
D03*
X103770D02*
D03*
X84085Y146880D02*
D03*
X118000Y166565D02*
D03*
X157370D02*
D03*
X137685Y146880D02*
D03*
X329301Y227135D02*
D03*
X289931D02*
D03*
X309616Y246820D02*
D03*
X275701Y227135D02*
D03*
X236331D02*
D03*
X256016Y246820D02*
D03*
X64400Y363416D02*
D03*
X103770D02*
D03*
X84085Y343731D02*
D03*
X118000Y363416D02*
D03*
X157370D02*
D03*
X137685Y343731D02*
D03*
D52*
X309616Y30285D02*
D03*
X256016D02*
D03*
X84085Y166565D02*
D03*
X137685D02*
D03*
X309616Y227135D02*
D03*
X256016D02*
D03*
X84085Y363416D02*
D03*
X137685D02*
D03*
D53*
X319458Y49970D02*
D03*
X289931D02*
D03*
X329301D02*
D03*
X299773D02*
D03*
X265858D02*
D03*
X236331D02*
D03*
X275701D02*
D03*
X246173D02*
D03*
X74243Y146880D02*
D03*
X103770D02*
D03*
X64400D02*
D03*
X93928D02*
D03*
X127842D02*
D03*
X157370D02*
D03*
X118000D02*
D03*
X147528D02*
D03*
X319458Y246820D02*
D03*
X289931D02*
D03*
X329301D02*
D03*
X299773D02*
D03*
X265858D02*
D03*
X236331D02*
D03*
X275701D02*
D03*
X246173D02*
D03*
X74243Y343731D02*
D03*
X103770D02*
D03*
X64400D02*
D03*
X93928D02*
D03*
X127842D02*
D03*
X157370D02*
D03*
X118000D02*
D03*
X147528D02*
D03*
D54*
X236416Y97085D02*
D03*
Y77085D02*
D03*
Y87085D02*
D03*
Y129485D02*
D03*
Y109485D02*
D03*
Y119485D02*
D03*
Y161985D02*
D03*
Y141985D02*
D03*
Y151985D02*
D03*
X157285Y99765D02*
D03*
Y119765D02*
D03*
Y109765D02*
D03*
Y67365D02*
D03*
Y87365D02*
D03*
Y77365D02*
D03*
Y34865D02*
D03*
Y54865D02*
D03*
Y44865D02*
D03*
X236416Y293935D02*
D03*
Y273935D02*
D03*
Y283935D02*
D03*
Y326335D02*
D03*
Y306335D02*
D03*
Y316335D02*
D03*
Y358835D02*
D03*
Y338835D02*
D03*
Y348835D02*
D03*
X157285Y296616D02*
D03*
Y316616D02*
D03*
Y306616D02*
D03*
Y264216D02*
D03*
Y284216D02*
D03*
Y274216D02*
D03*
Y231716D02*
D03*
Y251716D02*
D03*
Y241716D02*
D03*
D55*
X362886Y110944D02*
D03*
Y155826D02*
D03*
X30815Y85906D02*
D03*
Y41024D02*
D03*
X362886Y307794D02*
D03*
Y352676D02*
D03*
X30815Y282757D02*
D03*
Y237875D02*
D03*
D56*
X362886Y124527D02*
D03*
Y142243D02*
D03*
X30815Y72324D02*
D03*
Y54607D02*
D03*
X362886Y321377D02*
D03*
Y339094D02*
D03*
X30815Y269174D02*
D03*
Y251458D02*
D03*
D57*
X305990Y79843D02*
D03*
X296541D02*
D03*
X302840D02*
D03*
X299691D02*
D03*
X293391D02*
D03*
X290242D02*
D03*
X302840Y112127D02*
D03*
X305990D02*
D03*
X299691D02*
D03*
X290242D02*
D03*
X296541D02*
D03*
X293391D02*
D03*
X87711Y117007D02*
D03*
X97160D02*
D03*
X90861D02*
D03*
X94010D02*
D03*
X100310D02*
D03*
X103459D02*
D03*
X90861Y84724D02*
D03*
X87711D02*
D03*
X94010D02*
D03*
X103459D02*
D03*
X97160D02*
D03*
X100310D02*
D03*
X305990Y276694D02*
D03*
X296541D02*
D03*
X302840D02*
D03*
X299691D02*
D03*
X293391D02*
D03*
X290242D02*
D03*
X302840Y308977D02*
D03*
X305990D02*
D03*
X299691D02*
D03*
X290242D02*
D03*
X296541D02*
D03*
X293391D02*
D03*
X87711Y313858D02*
D03*
X97160D02*
D03*
X90861D02*
D03*
X94010D02*
D03*
X100310D02*
D03*
X103459D02*
D03*
X90861Y281574D02*
D03*
X87711D02*
D03*
X94010D02*
D03*
X103459D02*
D03*
X97160D02*
D03*
X100310D02*
D03*
D58*
X314258Y84469D02*
D03*
X281974D02*
D03*
X314258Y107501D02*
D03*
X281974D02*
D03*
X79443Y112381D02*
D03*
X111727D02*
D03*
X79443Y89350D02*
D03*
X111727D02*
D03*
X314258Y281320D02*
D03*
X281974D02*
D03*
X314258Y304351D02*
D03*
X281974D02*
D03*
X79443Y309231D02*
D03*
X111727D02*
D03*
X79443Y286200D02*
D03*
X111727D02*
D03*
D59*
X309631Y79843D02*
D03*
X286600D02*
D03*
X309631Y112127D02*
D03*
X286600D02*
D03*
X84069Y117007D02*
D03*
X107101D02*
D03*
X84069Y84724D02*
D03*
X107101D02*
D03*
X309631Y276694D02*
D03*
X286600D02*
D03*
X309631Y308977D02*
D03*
X286600D02*
D03*
X84069Y313858D02*
D03*
X107101D02*
D03*
X84069Y281574D02*
D03*
X107101D02*
D03*
D60*
X314258Y91261D02*
D03*
Y88111D02*
D03*
X281974D02*
D03*
Y91261D02*
D03*
X314258Y94410D02*
D03*
Y100709D02*
D03*
Y97560D02*
D03*
Y103859D02*
D03*
X281974Y94410D02*
D03*
Y97560D02*
D03*
Y103859D02*
D03*
Y100709D02*
D03*
X79443Y105590D02*
D03*
Y108739D02*
D03*
X111727D02*
D03*
Y105590D02*
D03*
X79443Y102440D02*
D03*
Y96141D02*
D03*
Y99291D02*
D03*
Y92991D02*
D03*
X111727Y102440D02*
D03*
Y99291D02*
D03*
Y92991D02*
D03*
Y96141D02*
D03*
X314258Y288111D02*
D03*
Y284961D02*
D03*
X281974D02*
D03*
Y288111D02*
D03*
X314258Y291261D02*
D03*
Y297560D02*
D03*
Y294410D02*
D03*
Y300710D02*
D03*
X281974Y291261D02*
D03*
Y294410D02*
D03*
Y300710D02*
D03*
Y297560D02*
D03*
X79443Y302440D02*
D03*
Y305590D02*
D03*
X111727D02*
D03*
Y302440D02*
D03*
X79443Y299291D02*
D03*
Y292991D02*
D03*
Y296141D02*
D03*
Y289842D02*
D03*
X111727Y299291D02*
D03*
Y296141D02*
D03*
Y289842D02*
D03*
Y292991D02*
D03*
D61*
X304462Y120885D02*
D03*
X297769D02*
D03*
X328462Y88785D02*
D03*
X321769D02*
D03*
X294562Y70585D02*
D03*
X287869D02*
D03*
X311062D02*
D03*
X304369D02*
D03*
X328462Y102285D02*
D03*
X321769D02*
D03*
X328462Y96785D02*
D03*
X321769D02*
D03*
X289962Y140385D02*
D03*
X283269D02*
D03*
X304562D02*
D03*
X297869D02*
D03*
X328462Y113285D02*
D03*
X321769D02*
D03*
X328462Y107785D02*
D03*
X321769D02*
D03*
X267262Y136960D02*
D03*
X260569D02*
D03*
X267262Y131452D02*
D03*
X260569D02*
D03*
X267262Y104305D02*
D03*
X260569D02*
D03*
X267262Y98785D02*
D03*
X260569D02*
D03*
X288462Y120885D02*
D03*
X281769D02*
D03*
X262862Y67885D02*
D03*
X256169D02*
D03*
X328462Y81285D02*
D03*
X321769D02*
D03*
X288462Y127585D02*
D03*
X281769D02*
D03*
X347962Y46085D02*
D03*
X341269D02*
D03*
X347962Y80885D02*
D03*
X341269D02*
D03*
X347962Y32385D02*
D03*
X341269D02*
D03*
X347962Y67085D02*
D03*
X341269D02*
D03*
X297362Y166385D02*
D03*
X290669D02*
D03*
X328462Y68385D02*
D03*
X321769D02*
D03*
X328462Y73885D02*
D03*
X321769D02*
D03*
X278662Y70685D02*
D03*
X271969D02*
D03*
X304462Y127585D02*
D03*
X297769D02*
D03*
X339962Y137285D02*
D03*
X333269D02*
D03*
X339962Y129485D02*
D03*
X333269D02*
D03*
X89239Y75965D02*
D03*
X95932D02*
D03*
X65239Y108065D02*
D03*
X71931D02*
D03*
X99139Y126265D02*
D03*
X105832D02*
D03*
X82639D02*
D03*
X89332D02*
D03*
X65239Y94565D02*
D03*
X71931D02*
D03*
X65239Y100065D02*
D03*
X71931D02*
D03*
X103739Y56465D02*
D03*
X110432D02*
D03*
X89139D02*
D03*
X95832D02*
D03*
X65239Y83565D02*
D03*
X71931D02*
D03*
X65239Y89065D02*
D03*
X71931D02*
D03*
X126439Y59891D02*
D03*
X133132D02*
D03*
X126439Y65398D02*
D03*
X133132D02*
D03*
X126439Y92545D02*
D03*
X133132D02*
D03*
X126439Y98065D02*
D03*
X133132D02*
D03*
X105239Y75965D02*
D03*
X111932D02*
D03*
X130839Y128965D02*
D03*
X137531D02*
D03*
X65239Y115565D02*
D03*
X71931D02*
D03*
X105239Y69265D02*
D03*
X111932D02*
D03*
X45739Y150765D02*
D03*
X52431D02*
D03*
X45739Y115965D02*
D03*
X52431D02*
D03*
X45739Y164465D02*
D03*
X52431D02*
D03*
X45739Y129765D02*
D03*
X52431D02*
D03*
X96339Y30465D02*
D03*
X103032D02*
D03*
X65239Y128465D02*
D03*
X71931D02*
D03*
X65239Y122965D02*
D03*
X71931D02*
D03*
X115039Y126165D02*
D03*
X121731D02*
D03*
X89239Y69265D02*
D03*
X95932D02*
D03*
X53739Y59565D02*
D03*
X60431D02*
D03*
X53739Y67365D02*
D03*
X60431D02*
D03*
X304462Y317735D02*
D03*
X297769D02*
D03*
X328462Y285635D02*
D03*
X321769D02*
D03*
X294562Y267435D02*
D03*
X287869D02*
D03*
X311062D02*
D03*
X304369D02*
D03*
X328462Y299135D02*
D03*
X321769D02*
D03*
X328462Y293635D02*
D03*
X321769D02*
D03*
X289962Y337235D02*
D03*
X283269D02*
D03*
X304562D02*
D03*
X297869D02*
D03*
X328462Y310135D02*
D03*
X321769D02*
D03*
X328462Y304635D02*
D03*
X321769D02*
D03*
X267262Y333810D02*
D03*
X260569D02*
D03*
X267262Y328303D02*
D03*
X260569D02*
D03*
X267262Y301156D02*
D03*
X260569D02*
D03*
X267262Y295635D02*
D03*
X260569D02*
D03*
X288462Y317735D02*
D03*
X281769D02*
D03*
X262862Y264735D02*
D03*
X256169D02*
D03*
X328462Y278135D02*
D03*
X321769D02*
D03*
X288462Y324435D02*
D03*
X281769D02*
D03*
X347962Y242935D02*
D03*
X341269D02*
D03*
X347962Y277735D02*
D03*
X341269D02*
D03*
X347962Y229235D02*
D03*
X341269D02*
D03*
X347962Y263935D02*
D03*
X341269D02*
D03*
X297362Y363235D02*
D03*
X290669D02*
D03*
X328462Y265235D02*
D03*
X321769D02*
D03*
X328462Y270735D02*
D03*
X321769D02*
D03*
X278662Y267535D02*
D03*
X271969D02*
D03*
X304462Y324435D02*
D03*
X297769D02*
D03*
X339962Y334135D02*
D03*
X333269D02*
D03*
X339962Y326335D02*
D03*
X333269D02*
D03*
X89239Y272816D02*
D03*
X95932D02*
D03*
X65239Y304916D02*
D03*
X71931D02*
D03*
X99139Y323116D02*
D03*
X105832D02*
D03*
X82639D02*
D03*
X89332D02*
D03*
X65239Y291416D02*
D03*
X71931D02*
D03*
X65239Y296916D02*
D03*
X71931D02*
D03*
X103739Y253316D02*
D03*
X110432D02*
D03*
X89139D02*
D03*
X95832D02*
D03*
X65239Y280416D02*
D03*
X71931D02*
D03*
X65239Y285916D02*
D03*
X71931D02*
D03*
X126439Y256741D02*
D03*
X133132D02*
D03*
X126439Y262248D02*
D03*
X133132D02*
D03*
X126439Y289396D02*
D03*
X133132D02*
D03*
X126439Y294916D02*
D03*
X133132D02*
D03*
X105239Y272816D02*
D03*
X111932D02*
D03*
X130839Y325816D02*
D03*
X137531D02*
D03*
X65239Y312416D02*
D03*
X71931D02*
D03*
X105239Y266116D02*
D03*
X111932D02*
D03*
X45739Y347616D02*
D03*
X52431D02*
D03*
X45739Y312816D02*
D03*
X52431D02*
D03*
X45739Y361316D02*
D03*
X52431D02*
D03*
X45739Y326616D02*
D03*
X52431D02*
D03*
X96339Y227316D02*
D03*
X103032D02*
D03*
X65239Y325316D02*
D03*
X71931D02*
D03*
X65239Y319816D02*
D03*
X71931D02*
D03*
X115039Y323016D02*
D03*
X121731D02*
D03*
X89239Y266116D02*
D03*
X95932D02*
D03*
X53739Y256416D02*
D03*
X60431D02*
D03*
X53739Y264216D02*
D03*
X60431D02*
D03*
D62*
X273416Y79839D02*
D03*
Y86532D02*
D03*
X246916Y93539D02*
D03*
Y100232D02*
D03*
X352816Y130039D02*
D03*
Y136732D02*
D03*
X246916Y75639D02*
D03*
Y82332D02*
D03*
X325516Y160339D02*
D03*
Y167032D02*
D03*
X316016Y160339D02*
D03*
Y167032D02*
D03*
X335016Y160339D02*
D03*
Y167032D02*
D03*
X120285Y117012D02*
D03*
Y110319D02*
D03*
X146785Y103312D02*
D03*
Y96619D02*
D03*
X40885Y66812D02*
D03*
Y60119D02*
D03*
X146785Y121212D02*
D03*
Y114519D02*
D03*
X68185Y36512D02*
D03*
Y29819D02*
D03*
X77685Y36512D02*
D03*
Y29819D02*
D03*
X58685Y36512D02*
D03*
Y29819D02*
D03*
X273416Y276689D02*
D03*
Y283382D02*
D03*
X246916Y290389D02*
D03*
Y297082D02*
D03*
X352816Y326889D02*
D03*
Y333582D02*
D03*
X246916Y272489D02*
D03*
Y279182D02*
D03*
X325516Y357189D02*
D03*
Y363882D02*
D03*
X316016Y357189D02*
D03*
Y363882D02*
D03*
X335016Y357189D02*
D03*
Y363882D02*
D03*
X120285Y313862D02*
D03*
Y307169D02*
D03*
X146785Y300162D02*
D03*
Y293469D02*
D03*
X40885Y263662D02*
D03*
Y256969D02*
D03*
X146785Y318062D02*
D03*
Y311369D02*
D03*
X68185Y233362D02*
D03*
Y226669D02*
D03*
X77685Y233362D02*
D03*
Y226669D02*
D03*
X58685Y233362D02*
D03*
Y226669D02*
D03*
D63*
X267256Y112767D02*
D03*
X259776D02*
D03*
X267256Y123003D02*
D03*
X263516D02*
D03*
X259776D02*
D03*
X126445Y84083D02*
D03*
X133925D02*
D03*
X126445Y73847D02*
D03*
X130185D02*
D03*
X133925D02*
D03*
X267256Y309617D02*
D03*
X259776D02*
D03*
X267256Y319853D02*
D03*
X263516D02*
D03*
X259776D02*
D03*
X126445Y280934D02*
D03*
X133925D02*
D03*
X126445Y270698D02*
D03*
X130185D02*
D03*
X133925D02*
D03*
D64*
X301790Y153585D02*
D03*
X286042D02*
D03*
X91911Y43265D02*
D03*
X107659D02*
D03*
X301790Y350435D02*
D03*
X286042D02*
D03*
X91911Y240116D02*
D03*
X107659D02*
D03*
M02*
