%FSLAX25Y25*%
%MOIN*%
G70*
G01*
G75*
G04 Layer_Color=2752767*
%ADD10C,0.01000*%
%ADD11C,0.00200*%
%ADD12C,0.00500*%
%ADD13C,0.00667*%
%ADD14C,0.01600*%
%ADD15C,0.00800*%
%ADD16C,0.01400*%
D10*
X-16500Y160000D02*
G03*
X-11500Y155000I5000J0D01*
G01*
X-7563Y151063D02*
G03*
X-7563Y155000I0J1969D01*
G01*
X-16500Y163937D02*
G03*
X-20437Y163937I-1969J0D01*
G01*
Y160000D02*
G03*
X-11500Y151063I8937J0D01*
G01*
X24685Y374016D02*
G03*
X19685Y369016I0J-5000D01*
G01*
X15748Y365079D02*
G03*
X17717Y363110I1969J0D01*
G01*
X28622Y374016D02*
G03*
X30591Y375984I0J1969D01*
G01*
X15748Y365079D02*
G03*
X19685Y365079I1969J0D01*
G01*
X28622Y374016D02*
G03*
X28622Y377953I0J1969D01*
G01*
X24685D02*
G03*
X15748Y369016I0J-8937D01*
G01*
X19685Y221535D02*
G03*
X24685Y216535I5000J0D01*
G01*
X28622Y212598D02*
G03*
X30591Y214567I0J1969D01*
G01*
X19685Y225472D02*
G03*
X17717Y227441I-1969J0D01*
G01*
X28622Y212598D02*
G03*
X28622Y216535I0J1969D01*
G01*
X19685Y225472D02*
G03*
X15748Y225472I-1969J0D01*
G01*
Y221535D02*
G03*
X24685Y212598I8937J0D01*
G01*
X172165Y216535D02*
G03*
X177165Y221535I0J5000D01*
G01*
X181102Y225472D02*
G03*
X179134Y227441I-1969J0D01*
G01*
X168228Y216535D02*
G03*
X166260Y214567I0J-1969D01*
G01*
X181102Y225472D02*
G03*
X177165Y225472I-1969J0D01*
G01*
X168228Y216535D02*
G03*
X168228Y212598I0J-1969D01*
G01*
X172165D02*
G03*
X181102Y221535I0J8937D01*
G01*
X168228Y377953D02*
G03*
X166260Y375984I0J-1969D01*
G01*
X177165Y365079D02*
G03*
X179134Y363110I1969J0D01*
G01*
X168228Y377953D02*
G03*
X168228Y374016I0J-1969D01*
G01*
X177165Y365079D02*
G03*
X181102Y365079I1969J0D01*
G01*
Y369016D02*
G03*
X172165Y377953I-8937J0D01*
G01*
X221535Y374016D02*
G03*
X216535Y369016I0J-5000D01*
G01*
X212598Y365079D02*
G03*
X214567Y363110I1969J0D01*
G01*
X225472Y374016D02*
G03*
X227441Y375984I0J1969D01*
G01*
X212598Y365079D02*
G03*
X216535Y365079I1969J0D01*
G01*
X225472Y374016D02*
G03*
X225472Y377953I0J1969D01*
G01*
X221535D02*
G03*
X212598Y369016I0J-8937D01*
G01*
X374016D02*
G03*
X369016Y374016I-5000J0D01*
G01*
X365079Y377953D02*
G03*
X363110Y375984I0J-1969D01*
G01*
X374016Y365079D02*
G03*
X375984Y363110I1969J0D01*
G01*
X365079Y377953D02*
G03*
X365079Y374016I0J-1969D01*
G01*
X374016Y365079D02*
G03*
X377953Y365079I1969J0D01*
G01*
Y369016D02*
G03*
X369016Y377953I-8937J0D01*
G01*
X216535Y221535D02*
G03*
X221535Y216535I5000J0D01*
G01*
X225472Y212598D02*
G03*
X227441Y214567I0J1969D01*
G01*
X216535Y225472D02*
G03*
X214567Y227441I-1969J0D01*
G01*
X225472Y212598D02*
G03*
X225472Y216535I0J1969D01*
G01*
X216535Y225472D02*
G03*
X212598Y225472I-1969J0D01*
G01*
Y221535D02*
G03*
X221535Y212598I8937J0D01*
G01*
X369016Y216535D02*
G03*
X374016Y221535I0J5000D01*
G01*
X377953Y225472D02*
G03*
X375984Y227441I-1969J0D01*
G01*
X365079Y216535D02*
G03*
X363110Y214567I0J-1969D01*
G01*
X377953Y225472D02*
G03*
X374016Y225472I-1969J0D01*
G01*
X365079Y216535D02*
G03*
X365079Y212598I0J-1969D01*
G01*
X369016D02*
G03*
X377953Y221535I0J8937D01*
G01*
X374016Y172165D02*
G03*
X369016Y177165I-5000J0D01*
G01*
X365079Y181102D02*
G03*
X363110Y179134I0J-1969D01*
G01*
X374016Y168228D02*
G03*
X375984Y166260I1969J0D01*
G01*
X365079Y181102D02*
G03*
X365079Y177165I0J-1969D01*
G01*
X374016Y168228D02*
G03*
X377953Y168228I1969J0D01*
G01*
Y172165D02*
G03*
X369016Y181102I-8937J0D01*
G01*
X221535Y177165D02*
G03*
X216535Y172165I0J-5000D01*
G01*
X212598Y168228D02*
G03*
X214567Y166260I1969J0D01*
G01*
X225472Y177165D02*
G03*
X227441Y179134I0J1969D01*
G01*
X212598Y168228D02*
G03*
X216535Y168228I1969J0D01*
G01*
X225472Y177165D02*
G03*
X225472Y181102I0J1969D01*
G01*
X221535D02*
G03*
X212598Y172165I0J-8937D01*
G01*
X177165D02*
G03*
X172165Y177165I-5000J0D01*
G01*
X168228Y181102D02*
G03*
X166260Y179134I0J-1969D01*
G01*
X177165Y168228D02*
G03*
X179134Y166260I1969J0D01*
G01*
X168228Y181102D02*
G03*
X168228Y177165I0J-1969D01*
G01*
X177165Y168228D02*
G03*
X181102Y168228I1969J0D01*
G01*
Y172165D02*
G03*
X172165Y181102I-8937J0D01*
G01*
X24685Y177165D02*
G03*
X19685Y172165I0J-5000D01*
G01*
X15748Y168228D02*
G03*
X17717Y166260I1969J0D01*
G01*
X28622Y177165D02*
G03*
X30591Y179134I0J1969D01*
G01*
X15748Y168228D02*
G03*
X19685Y168228I1969J0D01*
G01*
X28622Y177165D02*
G03*
X28622Y181102I0J1969D01*
G01*
X24685D02*
G03*
X15748Y172165I0J-8937D01*
G01*
X19685Y24685D02*
G03*
X24685Y19685I5000J0D01*
G01*
X28622Y15748D02*
G03*
X30591Y17717I0J1969D01*
G01*
X19685Y28622D02*
G03*
X17717Y30591I-1969J0D01*
G01*
X28622Y15748D02*
G03*
X28622Y19685I0J1969D01*
G01*
X19685Y28622D02*
G03*
X15748Y28622I-1969J0D01*
G01*
Y24685D02*
G03*
X24685Y15748I8937J0D01*
G01*
X172165Y19685D02*
G03*
X177165Y24685I0J5000D01*
G01*
X181102Y28622D02*
G03*
X179134Y30591I-1969J0D01*
G01*
X168228Y19685D02*
G03*
X166260Y17717I0J-1969D01*
G01*
X181102Y28622D02*
G03*
X177165Y28622I-1969J0D01*
G01*
X168228Y19685D02*
G03*
X168228Y15748I0J-1969D01*
G01*
X172165D02*
G03*
X181102Y24685I0J8937D01*
G01*
X216535D02*
G03*
X221535Y19685I5000J0D01*
G01*
X225472Y15748D02*
G03*
X227441Y17717I0J1969D01*
G01*
X216535Y28622D02*
G03*
X214567Y30591I-1969J0D01*
G01*
X225472Y15748D02*
G03*
X225472Y19685I0J1969D01*
G01*
X216535Y28622D02*
G03*
X212598Y28622I-1969J0D01*
G01*
Y24685D02*
G03*
X221535Y15748I8937J0D01*
G01*
X369016Y19685D02*
G03*
X374016Y24685I0J5000D01*
G01*
X377953Y28622D02*
G03*
X375984Y30591I-1969J0D01*
G01*
X365079Y19685D02*
G03*
X363110Y17717I0J-1969D01*
G01*
X377953Y28622D02*
G03*
X374016Y28622I-1969J0D01*
G01*
X365079Y19685D02*
G03*
X365079Y15748I0J-1969D01*
G01*
X369016D02*
G03*
X377953Y24685I0J8937D01*
G01*
X177165Y369016D02*
G03*
X172165Y374016I-5000J0D01*
G01*
X0Y0D02*
X19685D01*
X-61516Y23185D02*
X-58016Y19685D01*
X-61516Y16185D02*
X-58016Y19685D01*
X-66016D02*
X-58016D01*
X-61516Y377516D02*
X-58016Y374016D01*
X-61516Y370516D02*
X-58016Y374016D01*
X-66016D02*
X-58016D01*
X-11500Y155000D02*
X-7563D01*
X-16500Y160000D02*
Y163937D01*
X-11500Y151063D02*
X-7563D01*
X-20437Y160000D02*
Y163937D01*
X-26500Y162000D02*
X-23000Y158500D01*
X-26500Y155000D02*
X-23000Y158500D01*
X-31000D02*
X-23000D01*
X-67535Y177165D02*
X-59535D01*
X-63036Y173665D02*
X-59535Y177165D01*
X-63036Y180665D02*
X-59535Y177165D01*
X-67535Y216535D02*
X-59535D01*
X-63036Y213035D02*
X-59535Y216535D01*
X-63036Y220035D02*
X-59535Y216535D01*
X374016Y-63685D02*
Y-55685D01*
X377516Y-59185D01*
X370516D02*
X374016Y-55685D01*
X216535Y-63685D02*
Y-55685D01*
X220035Y-59185D01*
X213035D02*
X216535Y-55685D01*
X177165Y-63685D02*
Y-55685D01*
X180665Y-59185D01*
X173665D02*
X177165Y-55685D01*
X19685Y-63685D02*
Y-55685D01*
X23185Y-59185D01*
X16185D02*
X19685Y-55685D01*
X393701Y0D02*
Y393701D01*
X0D02*
X393701D01*
X0Y0D02*
Y393701D01*
Y0D02*
X393701D01*
X374016D02*
X393701D01*
X374016Y393701D02*
X393701D01*
X0D02*
X19685D01*
Y365079D02*
Y369016D01*
X24685Y374016D02*
X28622D01*
X24685Y377953D02*
X28622D01*
X15748Y365079D02*
Y369016D01*
X24685Y216535D02*
X28622D01*
X19685Y221535D02*
Y225472D01*
X15748Y221535D02*
Y225472D01*
X24685Y212598D02*
X28622D01*
X177165Y221535D02*
Y225472D01*
X168228Y216535D02*
X172165D01*
X168228Y212598D02*
X172165D01*
X181102Y221535D02*
Y225472D01*
X168228Y374016D02*
X172165D01*
X177165Y365079D02*
Y369016D01*
X181102Y365079D02*
Y369016D01*
X168228Y377953D02*
X172165D01*
X216535Y365079D02*
Y369016D01*
X221535Y374016D02*
X225472D01*
X221535Y377953D02*
X225472D01*
X212598Y365079D02*
Y369016D01*
X365079Y374016D02*
X369016D01*
X374016Y365079D02*
Y369016D01*
X377953Y365079D02*
Y369016D01*
X365079Y377953D02*
X369016D01*
X221535Y216535D02*
X225472D01*
X216535Y221535D02*
Y225472D01*
X212598Y221535D02*
Y225472D01*
X221535Y212598D02*
X225472D01*
X374016Y221535D02*
Y225472D01*
X365079Y216535D02*
X369016D01*
X365079Y212598D02*
X369016D01*
X377953Y221535D02*
Y225472D01*
X365079Y177165D02*
X369016D01*
X374016Y168228D02*
Y172165D01*
X377953Y168228D02*
Y172165D01*
X365079Y181102D02*
X369016D01*
X216535Y168228D02*
Y172165D01*
X221535Y177165D02*
X225472D01*
X221535Y181102D02*
X225472D01*
X212598Y168228D02*
Y172165D01*
X168228Y177165D02*
X172165D01*
X177165Y168228D02*
Y172165D01*
X181102Y168228D02*
Y172165D01*
X168228Y181102D02*
X172165D01*
X19685Y168228D02*
Y172165D01*
X24685Y177165D02*
X28622D01*
X24685Y181102D02*
X28622D01*
X15748Y168228D02*
Y172165D01*
X24685Y19685D02*
X28622D01*
X19685Y24685D02*
Y28622D01*
X15748Y24685D02*
Y28622D01*
X24685Y15748D02*
X28622D01*
X177165Y24685D02*
Y28622D01*
X168228Y19685D02*
X172165D01*
X168228Y15748D02*
X172165D01*
X181102Y24685D02*
Y28622D01*
X221535Y19685D02*
X225472D01*
X216535Y24685D02*
Y28622D01*
X212598Y24685D02*
Y28622D01*
X221535Y15748D02*
X225472D01*
X374016Y24685D02*
Y28622D01*
X365079Y19685D02*
X369016D01*
X365079Y15748D02*
X369016D01*
X377953Y24685D02*
Y28622D01*
X-94516Y23183D02*
Y19184D01*
X-92516Y17185D01*
X-90517Y19184D01*
Y23183D01*
X-88518Y20184D02*
X-84519D01*
X-78521Y22183D02*
X-79521Y23183D01*
X-81520D01*
X-82520Y22183D01*
Y18185D01*
X-81520Y17185D01*
X-79521D01*
X-78521Y18185D01*
X-76522Y21184D02*
Y18185D01*
X-75522Y17185D01*
X-72523D01*
Y21184D01*
X-69524Y22183D02*
Y21184D01*
X-70524D01*
X-68524D01*
X-69524D01*
Y18185D01*
X-68524Y17185D01*
X-94516Y377514D02*
Y373515D01*
X-92516Y371516D01*
X-90517Y373515D01*
Y377514D01*
X-88518Y374515D02*
X-84519D01*
X-78521Y376514D02*
X-79521Y377514D01*
X-81520D01*
X-82520Y376514D01*
Y372515D01*
X-81520Y371516D01*
X-79521D01*
X-78521Y372515D01*
X-76522Y375515D02*
Y372515D01*
X-75522Y371516D01*
X-72523D01*
Y375515D01*
X-69524Y376514D02*
Y375515D01*
X-70524D01*
X-68524D01*
X-69524D01*
Y372515D01*
X-68524Y371516D01*
X-115500Y155500D02*
X-113501D01*
X-114500D01*
Y161498D01*
X-115500Y160498D01*
X-110502Y155500D02*
Y156500D01*
X-109502D01*
Y155500D01*
X-110502D01*
X-105503Y160498D02*
X-104504Y161498D01*
X-102504D01*
X-101505Y160498D01*
Y156500D01*
X-102504Y155500D01*
X-104504D01*
X-105503Y156500D01*
Y160498D01*
X-99505Y155500D02*
Y159499D01*
X-98506D01*
X-97506Y158499D01*
Y155500D01*
Y158499D01*
X-96506Y159499D01*
X-95507Y158499D01*
Y155500D01*
X-93507D02*
Y159499D01*
X-92507D01*
X-91508Y158499D01*
Y155500D01*
Y158499D01*
X-90508Y159499D01*
X-89508Y158499D01*
Y155500D01*
X-81511Y161498D02*
Y155500D01*
X-78512D01*
X-77512Y156500D01*
Y160498D01*
X-78512Y161498D01*
X-81511D01*
X-75513Y159499D02*
Y155500D01*
Y157499D01*
X-74513Y158499D01*
X-73514Y159499D01*
X-72514D01*
X-69515Y155500D02*
X-67515D01*
X-68515D01*
Y159499D01*
X-69515D01*
X-64517Y155500D02*
X-62517D01*
X-63517D01*
Y161498D01*
X-64517D01*
X-59518Y155500D02*
X-57519D01*
X-58518D01*
Y161498D01*
X-59518D01*
X-44523Y160498D02*
X-45523Y161498D01*
X-47522D01*
X-48522Y160498D01*
Y156500D01*
X-47522Y155500D01*
X-45523D01*
X-44523Y156500D01*
X-42524Y159499D02*
Y156500D01*
X-41524Y155500D01*
X-38525D01*
Y159499D01*
X-35526Y160498D02*
Y159499D01*
X-36526D01*
X-34526D01*
X-35526D01*
Y156500D01*
X-34526Y155500D01*
X-96035Y180663D02*
Y176665D01*
X-94036Y174665D01*
X-92037Y176665D01*
Y180663D01*
X-90037Y177664D02*
X-86039D01*
X-80041Y179664D02*
X-81040Y180663D01*
X-83040D01*
X-84039Y179664D01*
Y175665D01*
X-83040Y174665D01*
X-81040D01*
X-80041Y175665D01*
X-78041Y178664D02*
Y175665D01*
X-77042Y174665D01*
X-74043D01*
Y178664D01*
X-71043Y179664D02*
Y178664D01*
X-72043D01*
X-70044D01*
X-71043D01*
Y175665D01*
X-70044Y174665D01*
X-96035Y220034D02*
Y216035D01*
X-94036Y214035D01*
X-92037Y216035D01*
Y220034D01*
X-90037Y217035D02*
X-86039D01*
X-80041Y219034D02*
X-81040Y220034D01*
X-83040D01*
X-84039Y219034D01*
Y215035D01*
X-83040Y214035D01*
X-81040D01*
X-80041Y215035D01*
X-78041Y218034D02*
Y215035D01*
X-77042Y214035D01*
X-74043D01*
Y218034D01*
X-71043Y219034D02*
Y218034D01*
X-72043D01*
X-70044D01*
X-71043D01*
Y215035D01*
X-70044Y214035D01*
X370518Y-92185D02*
X374516D01*
X376516Y-90186D01*
X374516Y-88186D01*
X370518D01*
X373517Y-86187D02*
Y-82188D01*
X371517Y-76190D02*
X370518Y-77190D01*
Y-79189D01*
X371517Y-80189D01*
X375516D01*
X376516Y-79189D01*
Y-77190D01*
X375516Y-76190D01*
X372517Y-74191D02*
X375516D01*
X376516Y-73191D01*
Y-70192D01*
X372517D01*
X371517Y-67193D02*
X372517D01*
Y-68193D01*
Y-66193D01*
Y-67193D01*
X375516D01*
X376516Y-66193D01*
X213037Y-92185D02*
X217036D01*
X219035Y-90186D01*
X217036Y-88186D01*
X213037D01*
X216036Y-86187D02*
Y-82188D01*
X214037Y-76190D02*
X213037Y-77190D01*
Y-79189D01*
X214037Y-80189D01*
X218036D01*
X219035Y-79189D01*
Y-77190D01*
X218036Y-76190D01*
X215037Y-74191D02*
X218036D01*
X219035Y-73191D01*
Y-70192D01*
X215037D01*
X214037Y-67193D02*
X215037D01*
Y-68193D01*
Y-66193D01*
Y-67193D01*
X218036D01*
X219035Y-66193D01*
X173667Y-92185D02*
X177666D01*
X179665Y-90186D01*
X177666Y-88186D01*
X173667D01*
X176666Y-86187D02*
Y-82188D01*
X174667Y-76190D02*
X173667Y-77190D01*
Y-79189D01*
X174667Y-80189D01*
X178666D01*
X179665Y-79189D01*
Y-77190D01*
X178666Y-76190D01*
X175667Y-74191D02*
X178666D01*
X179665Y-73191D01*
Y-70192D01*
X175667D01*
X174667Y-67193D02*
X175667D01*
Y-68193D01*
Y-66193D01*
Y-67193D01*
X178666D01*
X179665Y-66193D01*
X16187Y-92185D02*
X20186D01*
X22185Y-90186D01*
X20186Y-88186D01*
X16187D01*
X19186Y-86187D02*
Y-82188D01*
X17187Y-76190D02*
X16187Y-77190D01*
Y-79189D01*
X17187Y-80189D01*
X21185D01*
X22185Y-79189D01*
Y-77190D01*
X21185Y-76190D01*
X18186Y-74191D02*
X21185D01*
X22185Y-73191D01*
Y-70192D01*
X18186D01*
X17187Y-67193D02*
X18186D01*
Y-68193D01*
Y-66193D01*
Y-67193D01*
X21185D01*
X22185Y-66193D01*
X517286Y126600D02*
X513288D01*
X517286Y130599D01*
Y131598D01*
X516287Y132598D01*
X514287D01*
X513288Y131598D01*
X523284Y132598D02*
X521285Y131598D01*
X519286Y129599D01*
Y127600D01*
X520285Y126600D01*
X522285D01*
X523284Y127600D01*
Y128599D01*
X522285Y129599D01*
X519286D01*
X525284Y131598D02*
X526283Y132598D01*
X528283D01*
X529282Y131598D01*
Y130599D01*
X528283Y129599D01*
X529282Y128599D01*
Y127600D01*
X528283Y126600D01*
X526283D01*
X525284Y127600D01*
Y128599D01*
X526283Y129599D01*
X525284Y130599D01*
Y131598D01*
X526283Y129599D02*
X528283D01*
X582869Y126600D02*
X584868D01*
X583869D01*
Y132598D01*
X582869Y131598D01*
X591866Y126600D02*
X587867D01*
X591866Y130599D01*
Y131598D01*
X590866Y132598D01*
X588867D01*
X587867Y131598D01*
X593865Y126600D02*
Y130599D01*
X594865D01*
X595865Y129599D01*
Y126600D01*
Y129599D01*
X596864Y130599D01*
X597864Y129599D01*
Y126600D01*
X599863D02*
X601863D01*
X600863D01*
Y130599D01*
X599863D01*
X604862Y126600D02*
X606861D01*
X605862D01*
Y132598D01*
X604862D01*
X617858Y126600D02*
X615858Y128599D01*
Y130599D01*
X617858Y132598D01*
X620857Y131598D02*
X621856Y132598D01*
X623856D01*
X624855Y131598D01*
Y127600D01*
X623856Y126600D01*
X621856D01*
X620857Y127600D01*
Y131598D01*
X626855Y126600D02*
Y127600D01*
X627854D01*
Y126600D01*
X626855D01*
X631853Y131598D02*
X632853Y132598D01*
X634852D01*
X635852Y131598D01*
Y130599D01*
X634852Y129599D01*
X633852D01*
X634852D01*
X635852Y128599D01*
Y127600D01*
X634852Y126600D01*
X632853D01*
X631853Y127600D01*
X637851Y131598D02*
X638851Y132598D01*
X640850D01*
X641850Y131598D01*
Y127600D01*
X640850Y126600D01*
X638851D01*
X637851Y127600D01*
Y131598D01*
X646848Y126600D02*
Y132598D01*
X643849Y129599D01*
X647848D01*
X649847Y131598D02*
X650847Y132598D01*
X652846D01*
X653846Y131598D01*
Y130599D01*
X652846Y129599D01*
X653846Y128599D01*
Y127600D01*
X652846Y126600D01*
X650847D01*
X649847Y127600D01*
Y128599D01*
X650847Y129599D01*
X649847Y130599D01*
Y131598D01*
X650847Y129599D02*
X652846D01*
X655845Y126600D02*
Y130599D01*
X656845D01*
X657845Y129599D01*
Y126600D01*
Y129599D01*
X658844Y130599D01*
X659844Y129599D01*
Y126600D01*
X661843D02*
Y130599D01*
X662843D01*
X663843Y129599D01*
Y126600D01*
Y129599D01*
X664842Y130599D01*
X665842Y129599D01*
Y126600D01*
X667841D02*
X669841Y128599D01*
Y130599D01*
X667841Y132598D01*
X952361Y126600D02*
Y132598D01*
X955360D01*
X956360Y131598D01*
Y129599D01*
X955360Y128599D01*
X952361D01*
X958359Y132598D02*
X962358D01*
X960358D01*
Y126600D01*
X964357Y132598D02*
Y126600D01*
Y129599D01*
X968356D01*
Y132598D01*
Y126600D01*
X1002749D02*
Y132598D01*
X1005748D01*
X1006747Y131598D01*
Y129599D01*
X1005748Y128599D01*
X1002749D01*
X1004748D02*
X1006747Y126600D01*
X1009746D02*
X1011746D01*
X1012745Y127600D01*
Y129599D01*
X1011746Y130599D01*
X1009746D01*
X1008747Y129599D01*
Y127600D01*
X1009746Y126600D01*
X1014745Y130599D02*
Y127600D01*
X1015744Y126600D01*
X1018743D01*
Y130599D01*
X1020743Y126600D02*
Y130599D01*
X1023742D01*
X1024741Y129599D01*
Y126600D01*
X1030739Y132598D02*
Y126600D01*
X1027740D01*
X1026741Y127600D01*
Y129599D01*
X1027740Y130599D01*
X1030739D01*
X516287Y114600D02*
Y120598D01*
X513288Y117599D01*
X517286D01*
X582869Y114600D02*
X584868D01*
X583869D01*
Y120598D01*
X582869Y119598D01*
X587867Y115600D02*
X588867Y114600D01*
X590866D01*
X591866Y115600D01*
Y119598D01*
X590866Y120598D01*
X588867D01*
X587867Y119598D01*
Y118599D01*
X588867Y117599D01*
X591866D01*
X593865Y114600D02*
Y115600D01*
X594865D01*
Y114600D01*
X593865D01*
X602863Y120598D02*
X600863Y119598D01*
X598864Y117599D01*
Y115600D01*
X599863Y114600D01*
X601863D01*
X602863Y115600D01*
Y116599D01*
X601863Y117599D01*
X598864D01*
X604862Y119598D02*
X605862Y120598D01*
X607861D01*
X608860Y119598D01*
Y118599D01*
X607861Y117599D01*
X608860Y116599D01*
Y115600D01*
X607861Y114600D01*
X605862D01*
X604862Y115600D01*
Y116599D01*
X605862Y117599D01*
X604862Y118599D01*
Y119598D01*
X605862Y117599D02*
X607861D01*
X614859Y120598D02*
X610860D01*
Y117599D01*
X612859Y118599D01*
X613859D01*
X614859Y117599D01*
Y115600D01*
X613859Y114600D01*
X611860D01*
X610860Y115600D01*
X616858Y114600D02*
Y118599D01*
X617858D01*
X618857Y117599D01*
Y114600D01*
Y117599D01*
X619857Y118599D01*
X620857Y117599D01*
Y114600D01*
X622856D02*
X624855D01*
X623856D01*
Y118599D01*
X622856D01*
X627854Y114600D02*
X629854D01*
X628854D01*
Y120598D01*
X627854D01*
X640850Y114600D02*
X638851Y116599D01*
Y118599D01*
X640850Y120598D01*
X643849Y119598D02*
X644849Y120598D01*
X646848D01*
X647848Y119598D01*
Y115600D01*
X646848Y114600D01*
X644849D01*
X643849Y115600D01*
Y119598D01*
X649847Y114600D02*
Y115600D01*
X650847D01*
Y114600D01*
X649847D01*
X658844Y120598D02*
X654846D01*
Y117599D01*
X656845Y118599D01*
X657845D01*
X658844Y117599D01*
Y115600D01*
X657845Y114600D01*
X655845D01*
X654846Y115600D01*
X660844Y114600D02*
Y118599D01*
X661843D01*
X662843Y117599D01*
Y114600D01*
Y117599D01*
X663843Y118599D01*
X664842Y117599D01*
Y114600D01*
X666842D02*
Y118599D01*
X667841D01*
X668841Y117599D01*
Y114600D01*
Y117599D01*
X669841Y118599D01*
X670841Y117599D01*
Y114600D01*
X672840D02*
X674839Y116599D01*
Y118599D01*
X672840Y120598D01*
X952361Y114600D02*
Y120598D01*
X956360Y114600D01*
Y120598D01*
X958359Y114600D02*
Y120598D01*
X961358D01*
X962358Y119598D01*
Y117599D01*
X961358Y116599D01*
X958359D01*
X964357Y120598D02*
X968356D01*
X966356D01*
Y114600D01*
X970355Y120598D02*
Y114600D01*
Y117599D01*
X974354D01*
Y120598D01*
Y114600D01*
X1002749D02*
Y120598D01*
X1005748D01*
X1006747Y119598D01*
Y117599D01*
X1005748Y116599D01*
X1002749D01*
X1004748D02*
X1006747Y114600D01*
X1009746D02*
X1011746D01*
X1012745Y115600D01*
Y117599D01*
X1011746Y118599D01*
X1009746D01*
X1008747Y117599D01*
Y115600D01*
X1009746Y114600D01*
X1014745Y118599D02*
Y115600D01*
X1015744Y114600D01*
X1018743D01*
Y118599D01*
X1020743Y114600D02*
Y118599D01*
X1023742D01*
X1024741Y117599D01*
Y114600D01*
X1030739Y120598D02*
Y114600D01*
X1027740D01*
X1026741Y115600D01*
Y117599D01*
X1027740Y118599D01*
X1030739D01*
X513288Y102600D02*
X515287D01*
X514287D01*
Y108598D01*
X513288Y107598D01*
X522285Y108598D02*
X520285Y107598D01*
X518286Y105599D01*
Y103600D01*
X519286Y102600D01*
X521285D01*
X522285Y103600D01*
Y104599D01*
X521285Y105599D01*
X518286D01*
X586868Y102600D02*
X582869D01*
X586868Y106599D01*
Y107598D01*
X585868Y108598D01*
X583869D01*
X582869Y107598D01*
X588867Y103600D02*
X589867Y102600D01*
X591866D01*
X592866Y103600D01*
Y107598D01*
X591866Y108598D01*
X589867D01*
X588867Y107598D01*
Y106599D01*
X589867Y105599D01*
X592866D01*
X594865Y102600D02*
Y103600D01*
X595865D01*
Y102600D01*
X594865D01*
X603862Y108598D02*
X599863D01*
Y105599D01*
X601863Y106599D01*
X602863D01*
X603862Y105599D01*
Y103600D01*
X602863Y102600D01*
X600863D01*
X599863Y103600D01*
X609860Y102600D02*
X605862D01*
X609860Y106599D01*
Y107598D01*
X608860Y108598D01*
X606861D01*
X605862Y107598D01*
X611860D02*
X612859Y108598D01*
X614859D01*
X615858Y107598D01*
Y106599D01*
X614859Y105599D01*
X615858Y104599D01*
Y103600D01*
X614859Y102600D01*
X612859D01*
X611860Y103600D01*
Y104599D01*
X612859Y105599D01*
X611860Y106599D01*
Y107598D01*
X612859Y105599D02*
X614859D01*
X617858Y102600D02*
Y106599D01*
X618857D01*
X619857Y105599D01*
Y102600D01*
Y105599D01*
X620857Y106599D01*
X621856Y105599D01*
Y102600D01*
X623856D02*
X625855D01*
X624855D01*
Y106599D01*
X623856D01*
X628854Y102600D02*
X630853D01*
X629854D01*
Y108598D01*
X628854D01*
X641850Y102600D02*
X639851Y104599D01*
Y106599D01*
X641850Y108598D01*
X644849Y107598D02*
X645849Y108598D01*
X647848D01*
X648848Y107598D01*
Y103600D01*
X647848Y102600D01*
X645849D01*
X644849Y103600D01*
Y107598D01*
X650847Y102600D02*
Y103600D01*
X651847D01*
Y102600D01*
X650847D01*
X655845Y108598D02*
X659844D01*
Y107598D01*
X655845Y103600D01*
Y102600D01*
X665842Y108598D02*
X661843D01*
Y105599D01*
X663843Y106599D01*
X664842D01*
X665842Y105599D01*
Y103600D01*
X664842Y102600D01*
X662843D01*
X661843Y103600D01*
X667841Y102600D02*
Y106599D01*
X668841D01*
X669841Y105599D01*
Y102600D01*
Y105599D01*
X670841Y106599D01*
X671840Y105599D01*
Y102600D01*
X673840D02*
Y106599D01*
X674839D01*
X675839Y105599D01*
Y102600D01*
Y105599D01*
X676838Y106599D01*
X677838Y105599D01*
Y102600D01*
X679838D02*
X681837Y104599D01*
Y106599D01*
X679838Y108598D01*
X952361Y102600D02*
Y108598D01*
X955360D01*
X956360Y107598D01*
Y105599D01*
X955360Y104599D01*
X952361D01*
X958359Y108598D02*
X962358D01*
X960358D01*
Y102600D01*
X964357Y108598D02*
Y102600D01*
Y105599D01*
X968356D01*
Y108598D01*
Y102600D01*
X1002749D02*
Y108598D01*
X1005748D01*
X1006747Y107598D01*
Y105599D01*
X1005748Y104599D01*
X1002749D01*
X1004748D02*
X1006747Y102600D01*
X1009746D02*
X1011746D01*
X1012745Y103600D01*
Y105599D01*
X1011746Y106599D01*
X1009746D01*
X1008747Y105599D01*
Y103600D01*
X1009746Y102600D01*
X1014745Y106599D02*
Y103600D01*
X1015744Y102600D01*
X1018743D01*
Y106599D01*
X1020743Y102600D02*
Y106599D01*
X1023742D01*
X1024741Y105599D01*
Y102600D01*
X1030739Y108598D02*
Y102600D01*
X1027740D01*
X1026741Y103600D01*
Y105599D01*
X1027740Y106599D01*
X1030739D01*
X513288Y95598D02*
X514287Y96598D01*
X516287D01*
X517286Y95598D01*
Y94599D01*
X516287Y93599D01*
X515287D01*
X516287D01*
X517286Y92599D01*
Y91600D01*
X516287Y90600D01*
X514287D01*
X513288Y91600D01*
X523284Y96598D02*
X521285Y95598D01*
X519286Y93599D01*
Y91600D01*
X520285Y90600D01*
X522285D01*
X523284Y91600D01*
Y92599D01*
X522285Y93599D01*
X519286D01*
X582869Y95598D02*
X583869Y96598D01*
X585868D01*
X586868Y95598D01*
Y94599D01*
X585868Y93599D01*
X584868D01*
X585868D01*
X586868Y92599D01*
Y91600D01*
X585868Y90600D01*
X583869D01*
X582869Y91600D01*
X588867D02*
X589867Y90600D01*
X591866D01*
X592866Y91600D01*
Y95598D01*
X591866Y96598D01*
X589867D01*
X588867Y95598D01*
Y94599D01*
X589867Y93599D01*
X592866D01*
X594865Y90600D02*
Y91600D01*
X595865D01*
Y90600D01*
X594865D01*
X599863Y95598D02*
X600863Y96598D01*
X602863D01*
X603862Y95598D01*
Y94599D01*
X602863Y93599D01*
X601863D01*
X602863D01*
X603862Y92599D01*
Y91600D01*
X602863Y90600D01*
X600863D01*
X599863Y91600D01*
X605862Y96598D02*
X609860D01*
Y95598D01*
X605862Y91600D01*
Y90600D01*
X611860D02*
Y94599D01*
X612859D01*
X613859Y93599D01*
Y90600D01*
Y93599D01*
X614859Y94599D01*
X615858Y93599D01*
Y90600D01*
X617858D02*
X619857D01*
X618857D01*
Y94599D01*
X617858D01*
X622856Y90600D02*
X624855D01*
X623856D01*
Y96598D01*
X622856D01*
X635852Y90600D02*
X633852Y92599D01*
Y94599D01*
X635852Y96598D01*
X638851Y90600D02*
X640850D01*
X639851D01*
Y96598D01*
X638851Y95598D01*
X643849Y90600D02*
Y94599D01*
X644849D01*
X645849Y93599D01*
Y90600D01*
Y93599D01*
X646848Y94599D01*
X647848Y93599D01*
Y90600D01*
X649847D02*
Y94599D01*
X650847D01*
X651847Y93599D01*
Y90600D01*
Y93599D01*
X652846Y94599D01*
X653846Y93599D01*
Y90600D01*
X655845D02*
X657845Y92599D01*
Y94599D01*
X655845Y96598D01*
X952361Y90600D02*
Y96598D01*
X955360D01*
X956360Y95598D01*
Y93599D01*
X955360Y92599D01*
X952361D01*
X958359Y96598D02*
X962358D01*
X960358D01*
Y90600D01*
X964357Y96598D02*
Y90600D01*
Y93599D01*
X968356D01*
Y96598D01*
Y90600D01*
X1002749D02*
Y96598D01*
X1005748D01*
X1006747Y95598D01*
Y93599D01*
X1005748Y92599D01*
X1002749D01*
X1004748D02*
X1006747Y90600D01*
X1009746D02*
X1011746D01*
X1012745Y91600D01*
Y93599D01*
X1011746Y94599D01*
X1009746D01*
X1008747Y93599D01*
Y91600D01*
X1009746Y90600D01*
X1014745Y94599D02*
Y91600D01*
X1015744Y90600D01*
X1018743D01*
Y94599D01*
X1020743Y90600D02*
Y94599D01*
X1023742D01*
X1024741Y93599D01*
Y90600D01*
X1030739Y96598D02*
Y90600D01*
X1027740D01*
X1026741Y91600D01*
Y93599D01*
X1027740Y94599D01*
X1030739D01*
X513288Y83598D02*
X514287Y84598D01*
X516287D01*
X517286Y83598D01*
Y82599D01*
X516287Y81599D01*
X517286Y80599D01*
Y79600D01*
X516287Y78600D01*
X514287D01*
X513288Y79600D01*
Y80599D01*
X514287Y81599D01*
X513288Y82599D01*
Y83598D01*
X514287Y81599D02*
X516287D01*
X585868Y78600D02*
Y84598D01*
X582869Y81599D01*
X586868D01*
X588867Y83598D02*
X589867Y84598D01*
X591866D01*
X592866Y83598D01*
Y82599D01*
X591866Y81599D01*
X590866D01*
X591866D01*
X592866Y80599D01*
Y79600D01*
X591866Y78600D01*
X589867D01*
X588867Y79600D01*
X594865Y78600D02*
Y79600D01*
X595865D01*
Y78600D01*
X594865D01*
X599863Y83598D02*
X600863Y84598D01*
X602863D01*
X603862Y83598D01*
Y82599D01*
X602863Y81599D01*
X601863D01*
X602863D01*
X603862Y80599D01*
Y79600D01*
X602863Y78600D01*
X600863D01*
X599863Y79600D01*
X605862Y83598D02*
X606861Y84598D01*
X608860D01*
X609860Y83598D01*
Y79600D01*
X608860Y78600D01*
X606861D01*
X605862Y79600D01*
Y83598D01*
X611860Y84598D02*
X615858D01*
Y83598D01*
X611860Y79600D01*
Y78600D01*
X617858D02*
Y82599D01*
X618857D01*
X619857Y81599D01*
Y78600D01*
Y81599D01*
X620857Y82599D01*
X621856Y81599D01*
Y78600D01*
X623856D02*
X625855D01*
X624855D01*
Y82599D01*
X623856D01*
X628854Y78600D02*
X630853D01*
X629854D01*
Y84598D01*
X628854D01*
X641850Y78600D02*
X639851Y80599D01*
Y82599D01*
X641850Y84598D01*
X644849Y78600D02*
X646848D01*
X645849D01*
Y84598D01*
X644849Y83598D01*
X649847Y78600D02*
Y79600D01*
X650847D01*
Y78600D01*
X649847D01*
X654846D02*
X656845D01*
X655845D01*
Y84598D01*
X654846Y83598D01*
X659844Y78600D02*
Y82599D01*
X660844D01*
X661843Y81599D01*
Y78600D01*
Y81599D01*
X662843Y82599D01*
X663843Y81599D01*
Y78600D01*
X665842D02*
Y82599D01*
X666842D01*
X667841Y81599D01*
Y78600D01*
Y81599D01*
X668841Y82599D01*
X669841Y81599D01*
Y78600D01*
X671840D02*
X673840Y80599D01*
Y82599D01*
X671840Y84598D01*
X952361Y78600D02*
Y84598D01*
X955360D01*
X956360Y83598D01*
Y81599D01*
X955360Y80599D01*
X952361D01*
X958359Y84598D02*
X962358D01*
X960358D01*
Y78600D01*
X964357Y84598D02*
Y78600D01*
Y81599D01*
X968356D01*
Y84598D01*
Y78600D01*
X1002749D02*
Y84598D01*
X1005748D01*
X1006747Y83598D01*
Y81599D01*
X1005748Y80599D01*
X1002749D01*
X1004748D02*
X1006747Y78600D01*
X1009746D02*
X1011746D01*
X1012745Y79600D01*
Y81599D01*
X1011746Y82599D01*
X1009746D01*
X1008747Y81599D01*
Y79600D01*
X1009746Y78600D01*
X1014745Y82599D02*
Y79600D01*
X1015744Y78600D01*
X1018743D01*
Y82599D01*
X1020743Y78600D02*
Y82599D01*
X1023742D01*
X1024741Y81599D01*
Y78600D01*
X1030739Y84598D02*
Y78600D01*
X1027740D01*
X1026741Y79600D01*
Y81599D01*
X1027740Y82599D01*
X1030739D01*
X516287Y66600D02*
Y72598D01*
X513288Y69599D01*
X517286D01*
X519286Y71598D02*
X520285Y72598D01*
X522285D01*
X523284Y71598D01*
Y67600D01*
X522285Y66600D01*
X520285D01*
X519286Y67600D01*
Y71598D01*
X586868Y72598D02*
X582869D01*
Y69599D01*
X584868Y70599D01*
X585868D01*
X586868Y69599D01*
Y67600D01*
X585868Y66600D01*
X583869D01*
X582869Y67600D01*
X588867Y71598D02*
X589867Y72598D01*
X591866D01*
X592866Y71598D01*
Y67600D01*
X591866Y66600D01*
X589867D01*
X588867Y67600D01*
Y71598D01*
X594865Y66600D02*
Y70599D01*
X595865D01*
X596864Y69599D01*
Y66600D01*
Y69599D01*
X597864Y70599D01*
X598864Y69599D01*
Y66600D01*
X600863D02*
X602863D01*
X601863D01*
Y70599D01*
X600863D01*
X605862Y66600D02*
X607861D01*
X606861D01*
Y72598D01*
X605862D01*
X618857Y66600D02*
X616858Y68599D01*
Y70599D01*
X618857Y72598D01*
X621856Y66600D02*
X623856D01*
X622856D01*
Y72598D01*
X621856Y71598D01*
X626855Y66600D02*
Y67600D01*
X627854D01*
Y66600D01*
X626855D01*
X635852D02*
X631853D01*
X635852Y70599D01*
Y71598D01*
X634852Y72598D01*
X632853D01*
X631853Y71598D01*
X637851Y72598D02*
X641850D01*
Y71598D01*
X637851Y67600D01*
Y66600D01*
X643849D02*
Y70599D01*
X644849D01*
X645849Y69599D01*
Y66600D01*
Y69599D01*
X646848Y70599D01*
X647848Y69599D01*
Y66600D01*
X649847D02*
Y70599D01*
X650847D01*
X651847Y69599D01*
Y66600D01*
Y69599D01*
X652846Y70599D01*
X653846Y69599D01*
Y66600D01*
X655845D02*
X657845Y68599D01*
Y70599D01*
X655845Y72598D01*
X952361Y66600D02*
Y72598D01*
X955360D01*
X956360Y71598D01*
Y69599D01*
X955360Y68599D01*
X952361D01*
X958359Y72598D02*
X962358D01*
X960358D01*
Y66600D01*
X964357Y72598D02*
Y66600D01*
Y69599D01*
X968356D01*
Y72598D01*
Y66600D01*
X1002749D02*
Y72598D01*
X1005748D01*
X1006747Y71598D01*
Y69599D01*
X1005748Y68599D01*
X1002749D01*
X1004748D02*
X1006747Y66600D01*
X1009746D02*
X1011746D01*
X1012745Y67600D01*
Y69599D01*
X1011746Y70599D01*
X1009746D01*
X1008747Y69599D01*
Y67600D01*
X1009746Y66600D01*
X1014745Y70599D02*
Y67600D01*
X1015744Y66600D01*
X1018743D01*
Y70599D01*
X1020743Y66600D02*
Y70599D01*
X1023742D01*
X1024741Y69599D01*
Y66600D01*
X1030739Y72598D02*
Y66600D01*
X1027740D01*
X1026741Y67600D01*
Y69599D01*
X1027740Y70599D01*
X1030739D01*
X517286Y54600D02*
X513288D01*
X517286Y58599D01*
Y59598D01*
X516287Y60598D01*
X514287D01*
X513288Y59598D01*
X522285Y54600D02*
Y60598D01*
X519286Y57599D01*
X523284D01*
X586868Y60598D02*
X584868Y59598D01*
X582869Y57599D01*
Y55600D01*
X583869Y54600D01*
X585868D01*
X586868Y55600D01*
Y56599D01*
X585868Y57599D01*
X582869D01*
X592866Y54600D02*
X588867D01*
X592866Y58599D01*
Y59598D01*
X591866Y60598D01*
X589867D01*
X588867Y59598D01*
X594865Y54600D02*
Y55600D01*
X595865D01*
Y54600D01*
X594865D01*
X599863Y55600D02*
X600863Y54600D01*
X602863D01*
X603862Y55600D01*
Y59598D01*
X602863Y60598D01*
X600863D01*
X599863Y59598D01*
Y58599D01*
X600863Y57599D01*
X603862D01*
X605862Y55600D02*
X606861Y54600D01*
X608860D01*
X609860Y55600D01*
Y59598D01*
X608860Y60598D01*
X606861D01*
X605862Y59598D01*
Y58599D01*
X606861Y57599D01*
X609860D01*
X615858Y54600D02*
X611860D01*
X615858Y58599D01*
Y59598D01*
X614859Y60598D01*
X612859D01*
X611860Y59598D01*
X617858Y54600D02*
Y58599D01*
X618857D01*
X619857Y57599D01*
Y54600D01*
Y57599D01*
X620857Y58599D01*
X621856Y57599D01*
Y54600D01*
X623856D02*
X625855D01*
X624855D01*
Y58599D01*
X623856D01*
X628854Y54600D02*
X630853D01*
X629854D01*
Y60598D01*
X628854D01*
X641850Y54600D02*
X639851Y56599D01*
Y58599D01*
X641850Y60598D01*
X644849Y54600D02*
X646848D01*
X645849D01*
Y60598D01*
X644849Y59598D01*
X649847Y54600D02*
Y55600D01*
X650847D01*
Y54600D01*
X649847D01*
X658844Y60598D02*
X656845Y59598D01*
X654846Y57599D01*
Y55600D01*
X655845Y54600D01*
X657845D01*
X658844Y55600D01*
Y56599D01*
X657845Y57599D01*
X654846D01*
X660844Y54600D02*
Y58599D01*
X661843D01*
X662843Y57599D01*
Y54600D01*
Y57599D01*
X663843Y58599D01*
X664842Y57599D01*
Y54600D01*
X666842D02*
Y58599D01*
X667841D01*
X668841Y57599D01*
Y54600D01*
Y57599D01*
X669841Y58599D01*
X670841Y57599D01*
Y54600D01*
X672840D02*
X674839Y56599D01*
Y58599D01*
X672840Y60598D01*
X952361Y54600D02*
Y60598D01*
X955360D01*
X956360Y59598D01*
Y57599D01*
X955360Y56599D01*
X952361D01*
X958359Y60598D02*
X962358D01*
X960358D01*
Y54600D01*
X964357Y60598D02*
Y54600D01*
Y57599D01*
X968356D01*
Y60598D01*
Y54600D01*
X1002749D02*
Y60598D01*
X1005748D01*
X1006747Y59598D01*
Y57599D01*
X1005748Y56599D01*
X1002749D01*
X1004748D02*
X1006747Y54600D01*
X1009746D02*
X1011746D01*
X1012745Y55600D01*
Y57599D01*
X1011746Y58599D01*
X1009746D01*
X1008747Y57599D01*
Y55600D01*
X1009746Y54600D01*
X1014745Y58599D02*
Y55600D01*
X1015744Y54600D01*
X1018743D01*
Y58599D01*
X1020743Y54600D02*
Y58599D01*
X1023742D01*
X1024741Y57599D01*
Y54600D01*
X1030739Y60598D02*
Y54600D01*
X1027740D01*
X1026741Y55600D01*
Y57599D01*
X1027740Y58599D01*
X1030739D01*
X513288Y47598D02*
X514287Y48598D01*
X516287D01*
X517286Y47598D01*
Y46599D01*
X516287Y45599D01*
X517286Y44599D01*
Y43600D01*
X516287Y42600D01*
X514287D01*
X513288Y43600D01*
Y44599D01*
X514287Y45599D01*
X513288Y46599D01*
Y47598D01*
X514287Y45599D02*
X516287D01*
X585868Y42600D02*
Y48598D01*
X582869Y45599D01*
X586868D01*
X592866Y48598D02*
X588867D01*
Y45599D01*
X590866Y46599D01*
X591866D01*
X592866Y45599D01*
Y43600D01*
X591866Y42600D01*
X589867D01*
X588867Y43600D01*
X594865Y42600D02*
Y46599D01*
X595865D01*
X596864Y45599D01*
Y42600D01*
Y45599D01*
X597864Y46599D01*
X598864Y45599D01*
Y42600D01*
X600863D02*
X602863D01*
X601863D01*
Y46599D01*
X600863D01*
X605862Y42600D02*
X607861D01*
X606861D01*
Y48598D01*
X605862D01*
X618857Y42600D02*
X616858Y44599D01*
Y46599D01*
X618857Y48598D01*
X621856Y42600D02*
X623856D01*
X622856D01*
Y48598D01*
X621856Y47598D01*
X626855Y42600D02*
Y43600D01*
X627854D01*
Y42600D01*
X626855D01*
X631853D02*
X633852D01*
X632853D01*
Y48598D01*
X631853Y47598D01*
X639851Y42600D02*
Y48598D01*
X636852Y45599D01*
X640850D01*
X642849Y47598D02*
X643849Y48598D01*
X645849D01*
X646848Y47598D01*
Y46599D01*
X645849Y45599D01*
X644849D01*
X645849D01*
X646848Y44599D01*
Y43600D01*
X645849Y42600D01*
X643849D01*
X642849Y43600D01*
X648848Y42600D02*
Y46599D01*
X649847D01*
X650847Y45599D01*
Y42600D01*
Y45599D01*
X651847Y46599D01*
X652846Y45599D01*
Y42600D01*
X654846D02*
Y46599D01*
X655845D01*
X656845Y45599D01*
Y42600D01*
Y45599D01*
X657845Y46599D01*
X658844Y45599D01*
Y42600D01*
X660844D02*
X662843Y44599D01*
Y46599D01*
X660844Y48598D01*
X717229Y42600D02*
X719229D01*
X718229D01*
Y48598D01*
X717229Y47598D01*
X726226Y42600D02*
X722228D01*
X726226Y46599D01*
Y47598D01*
X725227Y48598D01*
X723227D01*
X722228Y47598D01*
X728226D02*
X729225Y48598D01*
X731225D01*
X732225Y47598D01*
Y43600D01*
X731225Y42600D01*
X729225D01*
X728226Y43600D01*
Y47598D01*
X734224Y42600D02*
Y46599D01*
X735223D01*
X736223Y45599D01*
Y42600D01*
Y45599D01*
X737223Y46599D01*
X738223Y45599D01*
Y42600D01*
X740222D02*
X742221D01*
X741222D01*
Y46599D01*
X740222D01*
X745220Y42600D02*
X747220D01*
X746220D01*
Y48598D01*
X745220D01*
X758216Y42600D02*
X756217Y44599D01*
Y46599D01*
X758216Y48598D01*
X761215Y47598D02*
X762215Y48598D01*
X764214D01*
X765214Y47598D01*
Y46599D01*
X764214Y45599D01*
X763214D01*
X764214D01*
X765214Y44599D01*
Y43600D01*
X764214Y42600D01*
X762215D01*
X761215Y43600D01*
X767213Y42600D02*
Y43600D01*
X768213D01*
Y42600D01*
X767213D01*
X772212Y47598D02*
X773211Y48598D01*
X775211D01*
X776210Y47598D01*
Y43600D01*
X775211Y42600D01*
X773211D01*
X772212Y43600D01*
Y47598D01*
X781209Y42600D02*
Y48598D01*
X778210Y45599D01*
X782208D01*
X784208Y47598D02*
X785207Y48598D01*
X787207D01*
X788206Y47598D01*
Y46599D01*
X787207Y45599D01*
X788206Y44599D01*
Y43600D01*
X787207Y42600D01*
X785207D01*
X784208Y43600D01*
Y44599D01*
X785207Y45599D01*
X784208Y46599D01*
Y47598D01*
X785207Y45599D02*
X787207D01*
X790206Y42600D02*
Y46599D01*
X791205D01*
X792205Y45599D01*
Y42600D01*
Y45599D01*
X793205Y46599D01*
X794204Y45599D01*
Y42600D01*
X796204D02*
Y46599D01*
X797203D01*
X798203Y45599D01*
Y42600D01*
Y45599D01*
X799203Y46599D01*
X800202Y45599D01*
Y42600D01*
X802202D02*
X804201Y44599D01*
Y46599D01*
X802202Y48598D01*
X831196D02*
X835195D01*
Y47598D01*
X831196Y43600D01*
Y42600D01*
X841193Y48598D02*
X837194D01*
Y45599D01*
X839194Y46599D01*
X840193D01*
X841193Y45599D01*
Y43600D01*
X840193Y42600D01*
X838194D01*
X837194Y43600D01*
X843192Y42600D02*
Y46599D01*
X844192D01*
X845192Y45599D01*
Y42600D01*
Y45599D01*
X846192Y46599D01*
X847191Y45599D01*
Y42600D01*
X849191D02*
X851190D01*
X850190D01*
Y46599D01*
X849191D01*
X854189Y42600D02*
X856188D01*
X855189D01*
Y48598D01*
X854189D01*
X867185Y42600D02*
X865185Y44599D01*
Y46599D01*
X867185Y48598D01*
X870184Y42600D02*
X872183D01*
X871183D01*
Y48598D01*
X870184Y47598D01*
X875182Y42600D02*
Y43600D01*
X876182D01*
Y42600D01*
X875182D01*
X880180Y43600D02*
X881180Y42600D01*
X883179D01*
X884179Y43600D01*
Y47598D01*
X883179Y48598D01*
X881180D01*
X880180Y47598D01*
Y46599D01*
X881180Y45599D01*
X884179D01*
X886178Y47598D02*
X887178Y48598D01*
X889178D01*
X890177Y47598D01*
Y43600D01*
X889178Y42600D01*
X887178D01*
X886178Y43600D01*
Y47598D01*
X896175Y48598D02*
X892177D01*
Y45599D01*
X894176Y46599D01*
X895176D01*
X896175Y45599D01*
Y43600D01*
X895176Y42600D01*
X893176D01*
X892177Y43600D01*
X898175Y42600D02*
Y46599D01*
X899174D01*
X900174Y45599D01*
Y42600D01*
Y45599D01*
X901174Y46599D01*
X902173Y45599D01*
Y42600D01*
X904173D02*
Y46599D01*
X905172D01*
X906172Y45599D01*
Y42600D01*
Y45599D01*
X907172Y46599D01*
X908171Y45599D01*
Y42600D01*
X910171D02*
X912170Y44599D01*
Y46599D01*
X910171Y48598D01*
X952361Y42600D02*
Y48598D01*
X955360D01*
X956360Y47598D01*
Y45599D01*
X955360Y44599D01*
X952361D01*
X958359Y48598D02*
X962358D01*
X960358D01*
Y42600D01*
X964357Y48598D02*
Y42600D01*
Y45599D01*
X968356D01*
Y48598D01*
Y42600D01*
X1006747Y47598D02*
X1005748Y48598D01*
X1003748D01*
X1002749Y47598D01*
Y46599D01*
X1003748Y45599D01*
X1005748D01*
X1006747Y44599D01*
Y43600D01*
X1005748Y42600D01*
X1003748D01*
X1002749Y43600D01*
X1008747Y42600D02*
X1010746D01*
X1009746D01*
Y48598D01*
X1008747D01*
X1014745Y42600D02*
X1016744D01*
X1017744Y43600D01*
Y45599D01*
X1016744Y46599D01*
X1014745D01*
X1013745Y45599D01*
Y43600D01*
X1014745Y42600D01*
X1020743Y47598D02*
Y46599D01*
X1019743D01*
X1021742D01*
X1020743D01*
Y43600D01*
X1021742Y42600D01*
X516287Y30600D02*
Y36598D01*
X513288Y33599D01*
X517286D01*
X519286Y35598D02*
X520285Y36598D01*
X522285D01*
X523284Y35598D01*
Y31600D01*
X522285Y30600D01*
X520285D01*
X519286Y31600D01*
Y35598D01*
X528283Y30600D02*
Y36598D01*
X525284Y33599D01*
X529282D01*
X540082Y36598D02*
X544081D01*
X542082D01*
Y30600D01*
X547080D02*
X549080D01*
X550079Y31600D01*
Y33599D01*
X549080Y34599D01*
X547080D01*
X546080Y33599D01*
Y31600D01*
X547080Y30600D01*
X553078Y35598D02*
Y34599D01*
X552078D01*
X554078D01*
X553078D01*
Y31600D01*
X554078Y30600D01*
X558077Y34599D02*
X560076D01*
X561076Y33599D01*
Y30600D01*
X558077D01*
X557077Y31600D01*
X558077Y32599D01*
X561076D01*
X563075Y30600D02*
X565074D01*
X564075D01*
Y36598D01*
X563075D01*
X670238Y20599D02*
X674236D01*
X670238Y22599D02*
X674236D01*
X686232Y23598D02*
X685233Y24598D01*
X683233D01*
X682234Y23598D01*
Y19600D01*
X683233Y18600D01*
X685233D01*
X686232Y19600D01*
X689231Y22599D02*
X691231D01*
X692231Y21599D01*
Y18600D01*
X689231D01*
X688232Y19600D01*
X689231Y20599D01*
X692231D01*
X694230Y18600D02*
X696229D01*
X695229D01*
Y24598D01*
X694230D01*
X703227Y22599D02*
X700228D01*
X699228Y21599D01*
Y19600D01*
X700228Y18600D01*
X703227D01*
X705226Y22599D02*
Y19600D01*
X706226Y18600D01*
X709225D01*
Y22599D01*
X711224Y18600D02*
X713224D01*
X712224D01*
Y24598D01*
X711224D01*
X717222Y22599D02*
X719222D01*
X720221Y21599D01*
Y18600D01*
X717222D01*
X716223Y19600D01*
X717222Y20599D01*
X720221D01*
X723220Y23598D02*
Y22599D01*
X722221D01*
X724220D01*
X723220D01*
Y19600D01*
X724220Y18600D01*
X730218D02*
X728219D01*
X727219Y19600D01*
Y21599D01*
X728219Y22599D01*
X730218D01*
X731218Y21599D01*
Y20599D01*
X727219D01*
X737216Y24598D02*
Y18600D01*
X734217D01*
X733217Y19600D01*
Y21599D01*
X734217Y22599D01*
X737216D01*
X746213Y18600D02*
Y23598D01*
Y21599D01*
X745213D01*
X747213D01*
X746213D01*
Y23598D01*
X747213Y24598D01*
X750212Y22599D02*
Y18600D01*
Y20599D01*
X751211Y21599D01*
X752211Y22599D01*
X753211D01*
X757209Y18600D02*
X759209D01*
X760209Y19600D01*
Y21599D01*
X759209Y22599D01*
X757209D01*
X756210Y21599D01*
Y19600D01*
X757209Y18600D01*
X762208D02*
Y22599D01*
X763207D01*
X764207Y21599D01*
Y18600D01*
Y21599D01*
X765207Y22599D01*
X766207Y21599D01*
Y18600D01*
X775204Y23598D02*
Y22599D01*
X774204D01*
X776203D01*
X775204D01*
Y19600D01*
X776203Y18600D01*
X780202D02*
X782201D01*
X783201Y19600D01*
Y21599D01*
X782201Y22599D01*
X780202D01*
X779202Y21599D01*
Y19600D01*
X780202Y18600D01*
X786200D02*
X788199D01*
X789199Y19600D01*
Y21599D01*
X788199Y22599D01*
X786200D01*
X785200Y21599D01*
Y19600D01*
X786200Y18600D01*
X791198D02*
X793198D01*
X792198D01*
Y24598D01*
X791198D01*
X802195Y18600D02*
X805194D01*
X806194Y19600D01*
X805194Y20599D01*
X803195D01*
X802195Y21599D01*
X803195Y22599D01*
X806194D01*
X809193Y23598D02*
Y22599D01*
X808193D01*
X810192D01*
X809193D01*
Y19600D01*
X810192Y18600D01*
X814191Y22599D02*
X816190D01*
X817190Y21599D01*
Y18600D01*
X814191D01*
X813191Y19600D01*
X814191Y20599D01*
X817190D01*
X819189Y22599D02*
Y18600D01*
Y20599D01*
X820189Y21599D01*
X821189Y22599D01*
X822188D01*
X826187Y23598D02*
Y22599D01*
X825187D01*
X827187D01*
X826187D01*
Y19600D01*
X827187Y18600D01*
X840183Y22599D02*
X837183D01*
X836184Y21599D01*
Y19600D01*
X837183Y18600D01*
X840183D01*
X845181D02*
X843182D01*
X842182Y19600D01*
Y21599D01*
X843182Y22599D01*
X845181D01*
X846181Y21599D01*
Y20599D01*
X842182D01*
X848180Y18600D02*
Y22599D01*
X851179D01*
X852179Y21599D01*
Y18600D01*
X855178Y23598D02*
Y22599D01*
X854178D01*
X856177D01*
X855178D01*
Y19600D01*
X856177Y18600D01*
X859176Y22599D02*
Y18600D01*
Y20599D01*
X860176Y21599D01*
X861176Y22599D01*
X862175D01*
X868174Y18600D02*
X866174D01*
X865174Y19600D01*
Y21599D01*
X866174Y22599D01*
X868174D01*
X869173Y21599D01*
Y20599D01*
X865174D01*
X877171Y16601D02*
Y22599D01*
X880170D01*
X881169Y21599D01*
Y19600D01*
X880170Y18600D01*
X877171D01*
X884168D02*
X886168D01*
X887167Y19600D01*
Y21599D01*
X886168Y22599D01*
X884168D01*
X883169Y21599D01*
Y19600D01*
X884168Y18600D01*
X889167D02*
X892166D01*
X893165Y19600D01*
X892166Y20599D01*
X890166D01*
X889167Y21599D01*
X890166Y22599D01*
X893165D01*
X895165Y18600D02*
X897164D01*
X896165D01*
Y22599D01*
X895165D01*
X901163Y23598D02*
Y22599D01*
X900163D01*
X902162D01*
X901163D01*
Y19600D01*
X902162Y18600D01*
X905161D02*
X907161D01*
X906161D01*
Y22599D01*
X905161D01*
X911160Y18600D02*
X913159D01*
X914159Y19600D01*
Y21599D01*
X913159Y22599D01*
X911160D01*
X910160Y21599D01*
Y19600D01*
X911160Y18600D01*
X916158D02*
Y22599D01*
X919157D01*
X920157Y21599D01*
Y18600D01*
X929154Y23598D02*
Y22599D01*
X928154D01*
X930153D01*
X929154D01*
Y19600D01*
X930153Y18600D01*
X934152D02*
X936152D01*
X937151Y19600D01*
Y21599D01*
X936152Y22599D01*
X934152D01*
X933152Y21599D01*
Y19600D01*
X934152Y18600D01*
X946148Y23598D02*
Y22599D01*
X945149D01*
X947148D01*
X946148D01*
Y19600D01*
X947148Y18600D01*
X951147D02*
X953146D01*
X954146Y19600D01*
Y21599D01*
X953146Y22599D01*
X951147D01*
X950147Y21599D01*
Y19600D01*
X951147Y18600D01*
X957145D02*
X959144D01*
X960144Y19600D01*
Y21599D01*
X959144Y22599D01*
X957145D01*
X956145Y21599D01*
Y19600D01*
X957145Y18600D01*
X962143D02*
X964143D01*
X963143D01*
Y24598D01*
X962143D01*
X976139Y18600D02*
X974139D01*
X973140Y19600D01*
Y21599D01*
X974139Y22599D01*
X976139D01*
X977138Y21599D01*
Y20599D01*
X973140D01*
X979138Y18600D02*
Y22599D01*
X982137D01*
X983136Y21599D01*
Y18600D01*
X989134Y24598D02*
Y18600D01*
X986135D01*
X985136Y19600D01*
Y21599D01*
X986135Y22599D01*
X989134D01*
X1001130D02*
X998131D01*
X997132Y21599D01*
Y19600D01*
X998131Y18600D01*
X1001130D01*
X1006129D02*
X1004130D01*
X1003130Y19600D01*
Y21599D01*
X1004130Y22599D01*
X1006129D01*
X1007129Y21599D01*
Y20599D01*
X1003130D01*
X1009128Y18600D02*
Y22599D01*
X1012127D01*
X1013127Y21599D01*
Y18600D01*
X1016126Y23598D02*
Y22599D01*
X1015126D01*
X1017125D01*
X1016126D01*
Y19600D01*
X1017125Y18600D01*
X1020124Y22599D02*
Y18600D01*
Y20599D01*
X1021124Y21599D01*
X1022124Y22599D01*
X1023123D01*
X1029121Y18600D02*
X1027122D01*
X1026122Y19600D01*
Y21599D01*
X1027122Y22599D01*
X1029121D01*
X1030121Y21599D01*
Y20599D01*
X1026122D01*
X1038118Y16601D02*
Y22599D01*
X1041118D01*
X1042117Y21599D01*
Y19600D01*
X1041118Y18600D01*
X1038118D01*
X1045116D02*
X1047116D01*
X1048115Y19600D01*
Y21599D01*
X1047116Y22599D01*
X1045116D01*
X1044117Y21599D01*
Y19600D01*
X1045116Y18600D01*
X1050115D02*
X1053114D01*
X1054113Y19600D01*
X1053114Y20599D01*
X1051114D01*
X1050115Y21599D01*
X1051114Y22599D01*
X1054113D01*
X1056113Y18600D02*
X1058112D01*
X1057112D01*
Y22599D01*
X1056113D01*
X1062111Y23598D02*
Y22599D01*
X1061111D01*
X1063110D01*
X1062111D01*
Y19600D01*
X1063110Y18600D01*
X1066109D02*
X1068109D01*
X1067109D01*
Y22599D01*
X1066109D01*
X1072108Y18600D02*
X1074107D01*
X1075107Y19600D01*
Y21599D01*
X1074107Y22599D01*
X1072108D01*
X1071108Y21599D01*
Y19600D01*
X1072108Y18600D01*
X1077106D02*
Y22599D01*
X1080105D01*
X1081105Y21599D01*
Y18600D01*
X1083104D02*
Y19600D01*
X1084104D01*
Y18600D01*
X1083104D01*
X670238Y8599D02*
X674236D01*
X670238Y10599D02*
X674236D01*
X682234Y6600D02*
Y12598D01*
X685233D01*
X686232Y11598D01*
Y9599D01*
X685233Y8599D01*
X682234D01*
X684233D02*
X686232Y6600D01*
X689231D02*
X691231D01*
X692231Y7600D01*
Y9599D01*
X691231Y10599D01*
X689231D01*
X688232Y9599D01*
Y7600D01*
X689231Y6600D01*
X694230Y10599D02*
Y7600D01*
X695229Y6600D01*
X698229D01*
Y10599D01*
X701228Y11598D02*
Y10599D01*
X700228D01*
X702227D01*
X701228D01*
Y7600D01*
X702227Y6600D01*
X711224D02*
Y12598D01*
X714223D01*
X715223Y11598D01*
Y9599D01*
X714223Y8599D01*
X711224D01*
X718222Y10599D02*
X720221D01*
X721221Y9599D01*
Y6600D01*
X718222D01*
X717222Y7600D01*
X718222Y8599D01*
X721221D01*
X724220Y11598D02*
Y10599D01*
X723220D01*
X725220D01*
X724220D01*
Y7600D01*
X725220Y6600D01*
X728219Y12598D02*
Y6600D01*
Y9599D01*
X729218Y10599D01*
X731218D01*
X732218Y9599D01*
Y6600D01*
X740215Y12598D02*
Y6600D01*
X744214D01*
X749212D02*
X747213D01*
X746213Y7600D01*
Y9599D01*
X747213Y10599D01*
X749212D01*
X750212Y9599D01*
Y8599D01*
X746213D01*
X752211Y6600D02*
Y10599D01*
X755210D01*
X756210Y9599D01*
Y6600D01*
X760209Y4601D02*
X761208D01*
X762208Y5600D01*
Y10599D01*
X759209D01*
X758209Y9599D01*
Y7600D01*
X759209Y6600D01*
X762208D01*
X765207Y11598D02*
Y10599D01*
X764207D01*
X766207D01*
X765207D01*
Y7600D01*
X766207Y6600D01*
X769206Y12598D02*
Y6600D01*
Y9599D01*
X770205Y10599D01*
X772205D01*
X773204Y9599D01*
Y6600D01*
X781202Y9599D02*
X785200D01*
X783201Y11598D02*
Y7600D01*
X793198Y12598D02*
X797196D01*
X795197D01*
Y6600D01*
X800196D02*
X802195D01*
X803195Y7600D01*
Y9599D01*
X802195Y10599D01*
X800196D01*
X799196Y9599D01*
Y7600D01*
X800196Y6600D01*
X806194D02*
X808193D01*
X809193Y7600D01*
Y9599D01*
X808193Y10599D01*
X806194D01*
X805194Y9599D01*
Y7600D01*
X806194Y6600D01*
X811192D02*
X813191D01*
X812192D01*
Y12598D01*
X811192D01*
X826187Y11598D02*
X825187Y12598D01*
X823188D01*
X822188Y11598D01*
Y10599D01*
X823188Y9599D01*
X825187D01*
X826187Y8599D01*
Y7600D01*
X825187Y6600D01*
X823188D01*
X822188Y7600D01*
X828187Y6600D02*
X830186D01*
X829186D01*
Y10599D01*
X828187D01*
X833185D02*
X837184D01*
X833185Y6600D01*
X837184D01*
X842182D02*
X840183D01*
X839183Y7600D01*
Y9599D01*
X840183Y10599D01*
X842182D01*
X843182Y9599D01*
Y8599D01*
X839183D01*
X851179D02*
X855178D01*
X851179Y10599D02*
X855178D01*
X867174Y11598D02*
X866174Y12598D01*
X864175D01*
X863175Y11598D01*
Y10599D01*
X864175Y9599D01*
X866174D01*
X867174Y8599D01*
Y7600D01*
X866174Y6600D01*
X864175D01*
X863175Y7600D01*
X869173Y6600D02*
X871173D01*
X870173D01*
Y12598D01*
X869173D01*
X875171Y6600D02*
X877171D01*
X878170Y7600D01*
Y9599D01*
X877171Y10599D01*
X875171D01*
X874172Y9599D01*
Y7600D01*
X875171Y6600D01*
X881169Y11598D02*
Y10599D01*
X880170D01*
X882169D01*
X881169D01*
Y7600D01*
X882169Y6600D01*
X891166D02*
X893165D01*
X892166D01*
Y12598D01*
X891166D01*
X899164Y6600D02*
X897164D01*
X896165Y7600D01*
Y9599D01*
X897164Y10599D01*
X899164D01*
X900163Y9599D01*
Y8599D01*
X896165D01*
X902162Y6600D02*
Y10599D01*
X905162D01*
X906161Y9599D01*
Y6600D01*
X910160Y4601D02*
X911160D01*
X912159Y5600D01*
Y10599D01*
X909160D01*
X908161Y9599D01*
Y7600D01*
X909160Y6600D01*
X912159D01*
X915158Y11598D02*
Y10599D01*
X914159D01*
X916158D01*
X915158D01*
Y7600D01*
X916158Y6600D01*
X919157Y12598D02*
Y6600D01*
Y9599D01*
X920157Y10599D01*
X922156D01*
X923156Y9599D01*
Y6600D01*
X932153Y10599D02*
X934152D01*
X935152Y9599D01*
Y6600D01*
X932153D01*
X931153Y7600D01*
X932153Y8599D01*
X935152D01*
X937151Y6600D02*
X940150D01*
X941150Y7600D01*
X940150Y8599D01*
X938151D01*
X937151Y9599D01*
X938151Y10599D01*
X941150D01*
X953146Y12598D02*
Y6600D01*
X950147D01*
X949147Y7600D01*
Y9599D01*
X950147Y10599D01*
X953146D01*
X958144Y6600D02*
X956145D01*
X955145Y7600D01*
Y9599D01*
X956145Y10599D01*
X958144D01*
X959144Y9599D01*
Y8599D01*
X955145D01*
X962143Y6600D02*
Y11598D01*
Y9599D01*
X961143D01*
X963143D01*
X962143D01*
Y11598D01*
X963143Y12598D01*
X966142Y6600D02*
X968141D01*
X967142D01*
Y10599D01*
X966142D01*
X971140Y6600D02*
Y10599D01*
X974139D01*
X975139Y9599D01*
Y6600D01*
X980137D02*
X978138D01*
X977138Y7600D01*
Y9599D01*
X978138Y10599D01*
X980137D01*
X981137Y9599D01*
Y8599D01*
X977138D01*
X987135Y12598D02*
Y6600D01*
X984136D01*
X983136Y7600D01*
Y9599D01*
X984136Y10599D01*
X987135D01*
X995133Y6600D02*
X997132D01*
X996132D01*
Y10599D01*
X995133D01*
X1000131Y6600D02*
Y10599D01*
X1003130D01*
X1004130Y9599D01*
Y6600D01*
X1013127Y11598D02*
Y10599D01*
X1012127D01*
X1014126D01*
X1013127D01*
Y7600D01*
X1014126Y6600D01*
X1017125Y12598D02*
Y6600D01*
Y9599D01*
X1018125Y10599D01*
X1020124D01*
X1021124Y9599D01*
Y6600D01*
X1026122D02*
X1024123D01*
X1023123Y7600D01*
Y9599D01*
X1024123Y10599D01*
X1026122D01*
X1027122Y9599D01*
Y8599D01*
X1023123D01*
X1035120Y6600D02*
Y12598D01*
X1038118D01*
X1039118Y11598D01*
Y9599D01*
X1038118Y8599D01*
X1035120D01*
X1045116Y11598D02*
X1044117Y12598D01*
X1042117D01*
X1041118Y11598D01*
Y7600D01*
X1042117Y6600D01*
X1044117D01*
X1045116Y7600D01*
X1047116Y12598D02*
Y6600D01*
X1050115D01*
X1051114Y7600D01*
Y8599D01*
X1050115Y9599D01*
X1047116D01*
X1050115D01*
X1051114Y10599D01*
Y11598D01*
X1050115Y12598D01*
X1047116D01*
X1059112Y6600D02*
X1061111D01*
X1060111D01*
Y12598D01*
X1059112D01*
X1065110Y10599D02*
X1067109D01*
X1068109Y9599D01*
Y6600D01*
X1065110D01*
X1064110Y7600D01*
X1065110Y8599D01*
X1068109D01*
X1070108Y10599D02*
Y7600D01*
X1071108Y6600D01*
X1074107D01*
Y5600D01*
X1073107Y4601D01*
X1072108D01*
X1074107Y6600D02*
Y10599D01*
X1077106Y6600D02*
X1079105D01*
X1080105Y7600D01*
Y9599D01*
X1079105Y10599D01*
X1077106D01*
X1076106Y9599D01*
Y7600D01*
X1077106Y6600D01*
X1082104Y10599D02*
Y7600D01*
X1083104Y6600D01*
X1086103D01*
Y10599D01*
X1089102Y11598D02*
Y10599D01*
X1088102D01*
X1090102D01*
X1089102D01*
Y7600D01*
X1090102Y6600D01*
D11*
X19685Y-55685D02*
Y458016D01*
X177165Y-55685D02*
Y458016D01*
X-58016Y19685D02*
X455685D01*
X-59535Y177165D02*
X454165D01*
X-59535Y216535D02*
X454165D01*
X374016Y-55685D02*
Y458016D01*
X216535Y-55685D02*
Y458016D01*
X19685Y-55685D02*
Y458016D01*
X-58016Y374016D02*
X455685D01*
D12*
X260100Y76185D02*
Y80185D01*
X264100D01*
Y76185D01*
X260100D01*
X329301Y28285D02*
X327301Y32285D01*
X331301D01*
X329301Y28285D01*
X309616D02*
X310616Y29285D01*
X311616D01*
X310616Y30285D01*
X311616Y31285D01*
X310616D01*
X309616Y32285D01*
X308616Y31285D01*
X307616D01*
X308616Y30285D01*
X307616Y29285D01*
X308616D01*
X309616Y28285D01*
X289931D02*
X287931Y32285D01*
X291931D01*
X289931Y28285D01*
X319458Y47970D02*
X320458Y48970D01*
X321458D01*
X320458Y49970D01*
X321458Y50970D01*
X320458D01*
X319458Y51970D01*
X318458Y50970D01*
X317458D01*
X318458Y49970D01*
X317458Y48970D01*
X318458D01*
X319458Y47970D01*
X289931D02*
X290931Y48970D01*
X291931D01*
X290931Y49970D01*
X291931Y50970D01*
X290931D01*
X289931Y51970D01*
X288931Y50970D01*
X287931D01*
X288931Y49970D01*
X287931Y48970D01*
X288931D01*
X289931Y47970D01*
X329301D02*
X330301Y48970D01*
X331301D01*
X330301Y49970D01*
X331301Y50970D01*
X330301D01*
X329301Y51970D01*
X328301Y50970D01*
X327301D01*
X328301Y49970D01*
X327301Y48970D01*
X328301D01*
X329301Y47970D01*
X309616D02*
X307616Y51970D01*
X311616D01*
X309616Y47970D01*
X299773D02*
X300773Y48970D01*
X301773D01*
X300773Y49970D01*
X301773Y50970D01*
X300773D01*
X299773Y51970D01*
X298773Y50970D01*
X297773D01*
X298773Y49970D01*
X297773Y48970D01*
X298773D01*
X299773Y47970D01*
X275701Y28285D02*
X273701Y32285D01*
X277701D01*
X275701Y28285D01*
X256016D02*
X257016Y29285D01*
X258016D01*
X257016Y30285D01*
X258016Y31285D01*
X257016D01*
X256016Y32285D01*
X255016Y31285D01*
X254016D01*
X255016Y30285D01*
X254016Y29285D01*
X255016D01*
X256016Y28285D01*
X236331D02*
X234331Y32285D01*
X238331D01*
X236331Y28285D01*
X265858Y47970D02*
X266858Y48970D01*
X267858D01*
X266858Y49970D01*
X267858Y50970D01*
X266858D01*
X265858Y51970D01*
X264858Y50970D01*
X263858D01*
X264858Y49970D01*
X263858Y48970D01*
X264858D01*
X265858Y47970D01*
X236331D02*
X237331Y48970D01*
X238331D01*
X237331Y49970D01*
X238331Y50970D01*
X237331D01*
X236331Y51970D01*
X235331Y50970D01*
X234331D01*
X235331Y49970D01*
X234331Y48970D01*
X235331D01*
X236331Y47970D01*
X275701D02*
X276701Y48970D01*
X277701D01*
X276701Y49970D01*
X277701Y50970D01*
X276701D01*
X275701Y51970D01*
X274701Y50970D01*
X273701D01*
X274701Y49970D01*
X273701Y48970D01*
X274701D01*
X275701Y47970D01*
X256016D02*
X254016Y51970D01*
X258016D01*
X256016Y47970D01*
X246173D02*
X247173Y48970D01*
X248173D01*
X247173Y49970D01*
X248173Y50970D01*
X247173D01*
X246173Y51970D01*
X245173Y50970D01*
X244173D01*
X245173Y49970D01*
X244173Y48970D01*
X245173D01*
X246173Y47970D01*
X234416Y95085D02*
X235416Y97085D01*
X234416Y99085D01*
X236416Y98085D01*
X238416Y99085D01*
X237416Y97085D01*
X238416Y95085D01*
X236416Y96085D01*
X234416Y95085D01*
Y75085D02*
X235416Y77085D01*
X234416Y79085D01*
X236416Y78085D01*
X238416Y79085D01*
X237416Y77085D01*
X238416Y75085D01*
X236416Y76085D01*
X234416Y75085D01*
Y85085D02*
X235416Y87085D01*
X234416Y89085D01*
X236416Y88085D01*
X238416Y89085D01*
X237416Y87085D01*
X238416Y85085D01*
X236416Y86085D01*
X234416Y85085D01*
Y127485D02*
X235416Y129485D01*
X234416Y131485D01*
X236416Y130485D01*
X238416Y131485D01*
X237416Y129485D01*
X238416Y127485D01*
X236416Y128485D01*
X234416Y127485D01*
Y107485D02*
X235416Y109485D01*
X234416Y111485D01*
X236416Y110485D01*
X238416Y111485D01*
X237416Y109485D01*
X238416Y107485D01*
X236416Y108485D01*
X234416Y107485D01*
Y117485D02*
X235416Y119485D01*
X234416Y121485D01*
X236416Y120485D01*
X238416Y121485D01*
X237416Y119485D01*
X238416Y117485D01*
X236416Y118485D01*
X234416Y117485D01*
Y159985D02*
X235416Y161985D01*
X234416Y163985D01*
X236416Y162985D01*
X238416Y163985D01*
X237416Y161985D01*
X238416Y159985D01*
X236416Y160985D01*
X234416Y159985D01*
Y139985D02*
X235416Y141985D01*
X234416Y143985D01*
X236416Y142985D01*
X238416Y143985D01*
X237416Y141985D01*
X238416Y139985D01*
X236416Y140985D01*
X234416Y139985D01*
Y149985D02*
X235416Y151985D01*
X234416Y153985D01*
X236416Y152985D01*
X238416Y153985D01*
X237416Y151985D01*
X238416Y149985D01*
X236416Y150985D01*
X234416Y149985D01*
X361886Y109944D02*
Y108944D01*
X363886D01*
Y109944D01*
X364886D01*
Y111944D01*
X363886D01*
Y112944D01*
X361886D01*
Y111944D01*
X360886D01*
Y109944D01*
X361886D01*
X360886Y122527D02*
X361886D01*
X362886Y123527D01*
X363886Y122527D01*
X364886D01*
Y123527D01*
X363886Y124527D01*
X364886Y125527D01*
Y126527D01*
X363886D01*
X362886Y125527D01*
X361886Y126527D01*
X360886D01*
Y125527D01*
X361886Y124527D01*
X360886Y123527D01*
Y122527D01*
X361886Y154826D02*
Y153826D01*
X363886D01*
Y154826D01*
X364886D01*
Y156826D01*
X363886D01*
Y157826D01*
X361886D01*
Y156826D01*
X360886D01*
Y154826D01*
X361886D01*
X360886Y140243D02*
X361886D01*
X362886Y141243D01*
X363886Y140243D01*
X364886D01*
Y141243D01*
X363886Y142243D01*
X364886Y143243D01*
Y144243D01*
X363886D01*
X362886Y143243D01*
X361886Y144243D01*
X360886D01*
Y143243D01*
X361886Y142243D01*
X360886Y141243D01*
Y140243D01*
X129601Y116665D02*
Y120665D01*
X133601D01*
Y116665D01*
X129601D01*
X64400Y164565D02*
X62400Y168565D01*
X66400D01*
X64400Y164565D01*
X84085D02*
X85085Y165565D01*
X86085D01*
X85085Y166565D01*
X86085Y167565D01*
X85085D01*
X84085Y168565D01*
X83085Y167565D01*
X82085D01*
X83085Y166565D01*
X82085Y165565D01*
X83085D01*
X84085Y164565D01*
X103770D02*
X101770Y168565D01*
X105770D01*
X103770Y164565D01*
X74243Y144880D02*
X75243Y145880D01*
X76243D01*
X75243Y146880D01*
X76243Y147880D01*
X75243D01*
X74243Y148880D01*
X73242Y147880D01*
X72242D01*
X73242Y146880D01*
X72242Y145880D01*
X73242D01*
X74243Y144880D01*
X103770D02*
X104770Y145880D01*
X105770D01*
X104770Y146880D01*
X105770Y147880D01*
X104770D01*
X103770Y148880D01*
X102770Y147880D01*
X101770D01*
X102770Y146880D01*
X101770Y145880D01*
X102770D01*
X103770Y144880D01*
X64400D02*
X65400Y145880D01*
X66400D01*
X65400Y146880D01*
X66400Y147880D01*
X65400D01*
X64400Y148880D01*
X63400Y147880D01*
X62400D01*
X63400Y146880D01*
X62400Y145880D01*
X63400D01*
X64400Y144880D01*
X84085D02*
X82085Y148880D01*
X86085D01*
X84085Y144880D01*
X93928D02*
X94928Y145880D01*
X95928D01*
X94928Y146880D01*
X95928Y147880D01*
X94928D01*
X93928Y148880D01*
X92928Y147880D01*
X91928D01*
X92928Y146880D01*
X91928Y145880D01*
X92928D01*
X93928Y144880D01*
X118000Y164565D02*
X116000Y168565D01*
X120000D01*
X118000Y164565D01*
X137685D02*
X138685Y165565D01*
X139685D01*
X138685Y166565D01*
X139685Y167565D01*
X138685D01*
X137685Y168565D01*
X136685Y167565D01*
X135685D01*
X136685Y166565D01*
X135685Y165565D01*
X136685D01*
X137685Y164565D01*
X157370D02*
X155370Y168565D01*
X159370D01*
X157370Y164565D01*
X127842Y144880D02*
X128842Y145880D01*
X129842D01*
X128842Y146880D01*
X129842Y147880D01*
X128842D01*
X127842Y148880D01*
X126842Y147880D01*
X125842D01*
X126842Y146880D01*
X125842Y145880D01*
X126842D01*
X127842Y144880D01*
X157370D02*
X158370Y145880D01*
X159370D01*
X158370Y146880D01*
X159370Y147880D01*
X158370D01*
X157370Y148880D01*
X156370Y147880D01*
X155370D01*
X156370Y146880D01*
X155370Y145880D01*
X156370D01*
X157370Y144880D01*
X118000D02*
X119000Y145880D01*
X120000D01*
X119000Y146880D01*
X120000Y147880D01*
X119000D01*
X118000Y148880D01*
X117000Y147880D01*
X116000D01*
X117000Y146880D01*
X116000Y145880D01*
X117000D01*
X118000Y144880D01*
X137685D02*
X135685Y148880D01*
X139685D01*
X137685Y144880D01*
X147528D02*
X148528Y145880D01*
X149528D01*
X148528Y146880D01*
X149528Y147880D01*
X148528D01*
X147528Y148880D01*
X146528Y147880D01*
X145528D01*
X146528Y146880D01*
X145528Y145880D01*
X146528D01*
X147528Y144880D01*
X155285Y97765D02*
X156285Y99765D01*
X155285Y101765D01*
X157285Y100765D01*
X159285Y101765D01*
X158285Y99765D01*
X159285Y97765D01*
X157285Y98765D01*
X155285Y97765D01*
Y117765D02*
X156285Y119765D01*
X155285Y121765D01*
X157285Y120765D01*
X159285Y121765D01*
X158285Y119765D01*
X159285Y117765D01*
X157285Y118765D01*
X155285Y117765D01*
Y107765D02*
X156285Y109765D01*
X155285Y111765D01*
X157285Y110765D01*
X159285Y111765D01*
X158285Y109765D01*
X159285Y107765D01*
X157285Y108765D01*
X155285Y107765D01*
Y65365D02*
X156285Y67365D01*
X155285Y69365D01*
X157285Y68365D01*
X159285Y69365D01*
X158285Y67365D01*
X159285Y65365D01*
X157285Y66365D01*
X155285Y65365D01*
Y85365D02*
X156285Y87365D01*
X155285Y89365D01*
X157285Y88365D01*
X159285Y89365D01*
X158285Y87365D01*
X159285Y85365D01*
X157285Y86365D01*
X155285Y85365D01*
Y75365D02*
X156285Y77365D01*
X155285Y79365D01*
X157285Y78365D01*
X159285Y79365D01*
X158285Y77365D01*
X159285Y75365D01*
X157285Y76365D01*
X155285Y75365D01*
Y32865D02*
X156285Y34865D01*
X155285Y36865D01*
X157285Y35865D01*
X159285Y36865D01*
X158285Y34865D01*
X159285Y32865D01*
X157285Y33865D01*
X155285Y32865D01*
Y52865D02*
X156285Y54865D01*
X155285Y56865D01*
X157285Y55865D01*
X159285Y56865D01*
X158285Y54865D01*
X159285Y52865D01*
X157285Y53865D01*
X155285Y52865D01*
Y42865D02*
X156285Y44865D01*
X155285Y46865D01*
X157285Y45865D01*
X159285Y46865D01*
X158285Y44865D01*
X159285Y42865D01*
X157285Y43865D01*
X155285Y42865D01*
X29815Y84906D02*
Y83906D01*
X31815D01*
Y84906D01*
X32815D01*
Y86906D01*
X31815D01*
Y87906D01*
X29815D01*
Y86906D01*
X28815D01*
Y84906D01*
X29815D01*
X28815Y70324D02*
X29815D01*
X30815Y71324D01*
X31815Y70324D01*
X32815D01*
Y71324D01*
X31815Y72324D01*
X32815Y73324D01*
Y74324D01*
X31815D01*
X30815Y73324D01*
X29815Y74324D01*
X28815D01*
Y73324D01*
X29815Y72324D01*
X28815Y71324D01*
Y70324D01*
X29815Y40024D02*
Y39024D01*
X31815D01*
Y40024D01*
X32815D01*
Y42024D01*
X31815D01*
Y43024D01*
X29815D01*
Y42024D01*
X28815D01*
Y40024D01*
X29815D01*
X28815Y52607D02*
X29815D01*
X30815Y53607D01*
X31815Y52607D01*
X32815D01*
Y53607D01*
X31815Y54607D01*
X32815Y55607D01*
Y56607D01*
X31815D01*
X30815Y55607D01*
X29815Y56607D01*
X28815D01*
Y55607D01*
X29815Y54607D01*
X28815Y53607D01*
Y52607D01*
X260100Y273035D02*
Y277035D01*
X264100D01*
Y273035D01*
X260100D01*
X329301Y225135D02*
X327301Y229135D01*
X331301D01*
X329301Y225135D01*
X309616D02*
X310616Y226135D01*
X311616D01*
X310616Y227135D01*
X311616Y228135D01*
X310616D01*
X309616Y229135D01*
X308616Y228135D01*
X307616D01*
X308616Y227135D01*
X307616Y226135D01*
X308616D01*
X309616Y225135D01*
X289931D02*
X287931Y229135D01*
X291931D01*
X289931Y225135D01*
X319458Y244820D02*
X320458Y245820D01*
X321458D01*
X320458Y246820D01*
X321458Y247820D01*
X320458D01*
X319458Y248820D01*
X318458Y247820D01*
X317458D01*
X318458Y246820D01*
X317458Y245820D01*
X318458D01*
X319458Y244820D01*
X289931D02*
X290931Y245820D01*
X291931D01*
X290931Y246820D01*
X291931Y247820D01*
X290931D01*
X289931Y248820D01*
X288931Y247820D01*
X287931D01*
X288931Y246820D01*
X287931Y245820D01*
X288931D01*
X289931Y244820D01*
X329301D02*
X330301Y245820D01*
X331301D01*
X330301Y246820D01*
X331301Y247820D01*
X330301D01*
X329301Y248820D01*
X328301Y247820D01*
X327301D01*
X328301Y246820D01*
X327301Y245820D01*
X328301D01*
X329301Y244820D01*
X309616D02*
X307616Y248820D01*
X311616D01*
X309616Y244820D01*
X299773D02*
X300773Y245820D01*
X301773D01*
X300773Y246820D01*
X301773Y247820D01*
X300773D01*
X299773Y248820D01*
X298773Y247820D01*
X297773D01*
X298773Y246820D01*
X297773Y245820D01*
X298773D01*
X299773Y244820D01*
X275701Y225135D02*
X273701Y229135D01*
X277701D01*
X275701Y225135D01*
X256016D02*
X257016Y226135D01*
X258016D01*
X257016Y227135D01*
X258016Y228135D01*
X257016D01*
X256016Y229135D01*
X255016Y228135D01*
X254016D01*
X255016Y227135D01*
X254016Y226135D01*
X255016D01*
X256016Y225135D01*
X236331D02*
X234331Y229135D01*
X238331D01*
X236331Y225135D01*
X265858Y244820D02*
X266858Y245820D01*
X267858D01*
X266858Y246820D01*
X267858Y247820D01*
X266858D01*
X265858Y248820D01*
X264858Y247820D01*
X263858D01*
X264858Y246820D01*
X263858Y245820D01*
X264858D01*
X265858Y244820D01*
X236331D02*
X237331Y245820D01*
X238331D01*
X237331Y246820D01*
X238331Y247820D01*
X237331D01*
X236331Y248820D01*
X235331Y247820D01*
X234331D01*
X235331Y246820D01*
X234331Y245820D01*
X235331D01*
X236331Y244820D01*
X275701D02*
X276701Y245820D01*
X277701D01*
X276701Y246820D01*
X277701Y247820D01*
X276701D01*
X275701Y248820D01*
X274701Y247820D01*
X273701D01*
X274701Y246820D01*
X273701Y245820D01*
X274701D01*
X275701Y244820D01*
X256016D02*
X254016Y248820D01*
X258016D01*
X256016Y244820D01*
X246173D02*
X247173Y245820D01*
X248173D01*
X247173Y246820D01*
X248173Y247820D01*
X247173D01*
X246173Y248820D01*
X245173Y247820D01*
X244173D01*
X245173Y246820D01*
X244173Y245820D01*
X245173D01*
X246173Y244820D01*
X234416Y291935D02*
X235416Y293935D01*
X234416Y295935D01*
X236416Y294935D01*
X238416Y295935D01*
X237416Y293935D01*
X238416Y291935D01*
X236416Y292935D01*
X234416Y291935D01*
Y271935D02*
X235416Y273935D01*
X234416Y275935D01*
X236416Y274935D01*
X238416Y275935D01*
X237416Y273935D01*
X238416Y271935D01*
X236416Y272935D01*
X234416Y271935D01*
Y281935D02*
X235416Y283935D01*
X234416Y285935D01*
X236416Y284935D01*
X238416Y285935D01*
X237416Y283935D01*
X238416Y281935D01*
X236416Y282935D01*
X234416Y281935D01*
Y324335D02*
X235416Y326335D01*
X234416Y328335D01*
X236416Y327335D01*
X238416Y328335D01*
X237416Y326335D01*
X238416Y324335D01*
X236416Y325335D01*
X234416Y324335D01*
Y304335D02*
X235416Y306335D01*
X234416Y308335D01*
X236416Y307335D01*
X238416Y308335D01*
X237416Y306335D01*
X238416Y304335D01*
X236416Y305335D01*
X234416Y304335D01*
Y314335D02*
X235416Y316335D01*
X234416Y318335D01*
X236416Y317335D01*
X238416Y318335D01*
X237416Y316335D01*
X238416Y314335D01*
X236416Y315335D01*
X234416Y314335D01*
Y356835D02*
X235416Y358835D01*
X234416Y360835D01*
X236416Y359835D01*
X238416Y360835D01*
X237416Y358835D01*
X238416Y356835D01*
X236416Y357835D01*
X234416Y356835D01*
Y336835D02*
X235416Y338835D01*
X234416Y340835D01*
X236416Y339835D01*
X238416Y340835D01*
X237416Y338835D01*
X238416Y336835D01*
X236416Y337835D01*
X234416Y336835D01*
Y346835D02*
X235416Y348835D01*
X234416Y350835D01*
X236416Y349835D01*
X238416Y350835D01*
X237416Y348835D01*
X238416Y346835D01*
X236416Y347835D01*
X234416Y346835D01*
X361886Y306795D02*
Y305795D01*
X363886D01*
Y306795D01*
X364886D01*
Y308794D01*
X363886D01*
Y309794D01*
X361886D01*
Y308794D01*
X360886D01*
Y306795D01*
X361886D01*
X360886Y319377D02*
X361886D01*
X362886Y320377D01*
X363886Y319377D01*
X364886D01*
Y320377D01*
X363886Y321377D01*
X364886Y322377D01*
Y323377D01*
X363886D01*
X362886Y322377D01*
X361886Y323377D01*
X360886D01*
Y322377D01*
X361886Y321377D01*
X360886Y320377D01*
Y319377D01*
X361886Y351676D02*
Y350676D01*
X363886D01*
Y351676D01*
X364886D01*
Y353676D01*
X363886D01*
Y354676D01*
X361886D01*
Y353676D01*
X360886D01*
Y351676D01*
X361886D01*
X360886Y337094D02*
X361886D01*
X362886Y338094D01*
X363886Y337094D01*
X364886D01*
Y338094D01*
X363886Y339094D01*
X364886Y340094D01*
Y341094D01*
X363886D01*
X362886Y340094D01*
X361886Y341094D01*
X360886D01*
Y340094D01*
X361886Y339094D01*
X360886Y338094D01*
Y337094D01*
X129601Y313516D02*
Y317516D01*
X133601D01*
Y313516D01*
X129601D01*
X64400Y361416D02*
X62400Y365416D01*
X66400D01*
X64400Y361416D01*
X84085D02*
X85085Y362416D01*
X86085D01*
X85085Y363416D01*
X86085Y364416D01*
X85085D01*
X84085Y365416D01*
X83085Y364416D01*
X82085D01*
X83085Y363416D01*
X82085Y362416D01*
X83085D01*
X84085Y361416D01*
X103770D02*
X101770Y365416D01*
X105770D01*
X103770Y361416D01*
X74243Y341731D02*
X75243Y342731D01*
X76243D01*
X75243Y343731D01*
X76243Y344731D01*
X75243D01*
X74243Y345731D01*
X73242Y344731D01*
X72242D01*
X73242Y343731D01*
X72242Y342731D01*
X73242D01*
X74243Y341731D01*
X103770D02*
X104770Y342731D01*
X105770D01*
X104770Y343731D01*
X105770Y344731D01*
X104770D01*
X103770Y345731D01*
X102770Y344731D01*
X101770D01*
X102770Y343731D01*
X101770Y342731D01*
X102770D01*
X103770Y341731D01*
X64400D02*
X65400Y342731D01*
X66400D01*
X65400Y343731D01*
X66400Y344731D01*
X65400D01*
X64400Y345731D01*
X63400Y344731D01*
X62400D01*
X63400Y343731D01*
X62400Y342731D01*
X63400D01*
X64400Y341731D01*
X84085D02*
X82085Y345731D01*
X86085D01*
X84085Y341731D01*
X93928D02*
X94928Y342731D01*
X95928D01*
X94928Y343731D01*
X95928Y344731D01*
X94928D01*
X93928Y345731D01*
X92928Y344731D01*
X91928D01*
X92928Y343731D01*
X91928Y342731D01*
X92928D01*
X93928Y341731D01*
X118000Y361416D02*
X116000Y365416D01*
X120000D01*
X118000Y361416D01*
X137685D02*
X138685Y362416D01*
X139685D01*
X138685Y363416D01*
X139685Y364416D01*
X138685D01*
X137685Y365416D01*
X136685Y364416D01*
X135685D01*
X136685Y363416D01*
X135685Y362416D01*
X136685D01*
X137685Y361416D01*
X157370D02*
X155370Y365416D01*
X159370D01*
X157370Y361416D01*
X127842Y341731D02*
X128842Y342731D01*
X129842D01*
X128842Y343731D01*
X129842Y344731D01*
X128842D01*
X127842Y345731D01*
X126842Y344731D01*
X125842D01*
X126842Y343731D01*
X125842Y342731D01*
X126842D01*
X127842Y341731D01*
X157370D02*
X158370Y342731D01*
X159370D01*
X158370Y343731D01*
X159370Y344731D01*
X158370D01*
X157370Y345731D01*
X156370Y344731D01*
X155370D01*
X156370Y343731D01*
X155370Y342731D01*
X156370D01*
X157370Y341731D01*
X118000D02*
X119000Y342731D01*
X120000D01*
X119000Y343731D01*
X120000Y344731D01*
X119000D01*
X118000Y345731D01*
X117000Y344731D01*
X116000D01*
X117000Y343731D01*
X116000Y342731D01*
X117000D01*
X118000Y341731D01*
X137685D02*
X135685Y345731D01*
X139685D01*
X137685Y341731D01*
X147528D02*
X148528Y342731D01*
X149528D01*
X148528Y343731D01*
X149528Y344731D01*
X148528D01*
X147528Y345731D01*
X146528Y344731D01*
X145528D01*
X146528Y343731D01*
X145528Y342731D01*
X146528D01*
X147528Y341731D01*
X155285Y294616D02*
X156285Y296616D01*
X155285Y298616D01*
X157285Y297616D01*
X159285Y298616D01*
X158285Y296616D01*
X159285Y294616D01*
X157285Y295616D01*
X155285Y294616D01*
Y314616D02*
X156285Y316616D01*
X155285Y318616D01*
X157285Y317616D01*
X159285Y318616D01*
X158285Y316616D01*
X159285Y314616D01*
X157285Y315616D01*
X155285Y314616D01*
Y304616D02*
X156285Y306616D01*
X155285Y308616D01*
X157285Y307616D01*
X159285Y308616D01*
X158285Y306616D01*
X159285Y304616D01*
X157285Y305616D01*
X155285Y304616D01*
Y262216D02*
X156285Y264216D01*
X155285Y266216D01*
X157285Y265216D01*
X159285Y266216D01*
X158285Y264216D01*
X159285Y262216D01*
X157285Y263216D01*
X155285Y262216D01*
Y282216D02*
X156285Y284216D01*
X155285Y286216D01*
X157285Y285216D01*
X159285Y286216D01*
X158285Y284216D01*
X159285Y282216D01*
X157285Y283216D01*
X155285Y282216D01*
Y272216D02*
X156285Y274216D01*
X155285Y276216D01*
X157285Y275216D01*
X159285Y276216D01*
X158285Y274216D01*
X159285Y272216D01*
X157285Y273216D01*
X155285Y272216D01*
Y229716D02*
X156285Y231716D01*
X155285Y233716D01*
X157285Y232716D01*
X159285Y233716D01*
X158285Y231716D01*
X159285Y229716D01*
X157285Y230716D01*
X155285Y229716D01*
Y249716D02*
X156285Y251716D01*
X155285Y253716D01*
X157285Y252716D01*
X159285Y253716D01*
X158285Y251716D01*
X159285Y249716D01*
X157285Y250716D01*
X155285Y249716D01*
Y239716D02*
X156285Y241716D01*
X155285Y243716D01*
X157285Y242716D01*
X159285Y243716D01*
X158285Y241716D01*
X159285Y239716D01*
X157285Y240716D01*
X155285Y239716D01*
X29815Y281757D02*
Y280757D01*
X31815D01*
Y281757D01*
X32815D01*
Y283757D01*
X31815D01*
Y284757D01*
X29815D01*
Y283757D01*
X28815D01*
Y281757D01*
X29815D01*
X28815Y267174D02*
X29815D01*
X30815Y268174D01*
X31815Y267174D01*
X32815D01*
Y268174D01*
X31815Y269174D01*
X32815Y270174D01*
Y271174D01*
X31815D01*
X30815Y270174D01*
X29815Y271174D01*
X28815D01*
Y270174D01*
X29815Y269174D01*
X28815Y268174D01*
Y267174D01*
X29815Y236875D02*
Y235875D01*
X31815D01*
Y236875D01*
X32815D01*
Y238875D01*
X31815D01*
Y239875D01*
X29815D01*
Y238875D01*
X28815D01*
Y236875D01*
X29815D01*
X28815Y249458D02*
X29815D01*
X30815Y250458D01*
X31815Y249458D01*
X32815D01*
Y250458D01*
X31815Y251458D01*
X32815Y252457D01*
Y253457D01*
X31815D01*
X30815Y252457D01*
X29815Y253457D01*
X28815D01*
Y252457D01*
X29815Y251458D01*
X28815Y250458D01*
Y249458D01*
X341816Y129448D02*
X343816Y131448D01*
X345816Y129448D01*
X343816Y127448D01*
X341816Y129448D01*
X341916Y137322D02*
X343916Y139322D01*
X345916Y137322D01*
X343916Y135322D01*
X341916Y137322D01*
X310516Y166931D02*
X312516Y168931D01*
X314516Y166931D01*
X312516Y164931D01*
X310516Y166931D01*
X319769D02*
X321769Y168931D01*
X323769Y166931D01*
X321769Y164931D01*
X319769Y166931D01*
X329269D02*
X331269Y168931D01*
X333269Y166931D01*
X331269Y164931D01*
X329269Y166931D01*
X327716Y129485D02*
X329716Y131485D01*
X331716Y129485D01*
X329716Y127485D01*
X327716Y129485D01*
Y137285D02*
X329716Y139285D01*
X331716Y137285D01*
X329716Y135285D01*
X327716Y137285D01*
X306516Y140385D02*
X308516Y142385D01*
X310516Y140385D01*
X308516Y138385D01*
X306516Y140385D01*
X289516Y146185D02*
X291516Y148185D01*
X293516Y146185D01*
X291516Y144185D01*
X289516Y146185D01*
X254116Y84085D02*
X256116Y86085D01*
X258116Y84085D01*
X256116Y82085D01*
X254116Y84085D01*
X244916Y89385D02*
X246916Y91385D01*
X248916Y89385D01*
X246916Y87385D01*
X244916Y89385D01*
X284191Y97560D02*
X286191Y99560D01*
X288191Y97560D01*
X286191Y95560D01*
X284191Y97560D01*
X284240Y100709D02*
X286240Y102709D01*
X288240Y100709D01*
X286240Y98709D01*
X284240Y100709D01*
X284290Y103859D02*
X286290Y105859D01*
X288290Y103859D01*
X286290Y101859D01*
X284290Y103859D01*
X306716Y120585D02*
X308716Y122585D01*
X310716Y120585D01*
X308716Y118585D01*
X306716Y120585D01*
X276242Y90211D02*
X278242Y92211D01*
X280242Y90211D01*
X278242Y88211D01*
X276242Y90211D01*
X280416Y79485D02*
X282416Y81485D01*
X284416Y79485D01*
X282416Y77485D01*
X280416Y79485D01*
X267216Y79885D02*
X269216Y81885D01*
X271216Y79885D01*
X269216Y77885D01*
X267216Y79885D01*
X279974Y110927D02*
X281974Y112927D01*
X283974Y110927D01*
X281974Y108927D01*
X279974Y110927D01*
X291391Y107909D02*
X293391Y109909D01*
X295391Y107909D01*
X293391Y105909D01*
X291391Y107909D01*
X294541Y105610D02*
X296541Y107610D01*
X298541Y105610D01*
X296541Y103610D01*
X294541Y105610D01*
X319416Y149285D02*
X321416Y151285D01*
X323416Y149285D01*
X321416Y147285D01*
X319416Y149285D01*
Y145485D02*
X321416Y147485D01*
X323416Y145485D01*
X321416Y143485D01*
X319416Y145485D01*
X309616Y123085D02*
X311616Y125085D01*
X313616Y123085D01*
X311616Y121085D01*
X309616Y123085D01*
X312258Y79527D02*
X314258Y81527D01*
X316258Y79527D01*
X314258Y77527D01*
X312258Y79527D01*
X251116Y70285D02*
X253116Y72285D01*
X255116Y70285D01*
X253116Y68285D01*
X251116Y70285D01*
X316016Y68385D02*
X318016Y70385D01*
X320016Y68385D01*
X318016Y66385D01*
X316016Y68385D01*
X326462Y64531D02*
X328462Y66531D01*
X330462Y64531D01*
X328462Y62532D01*
X326462Y64531D01*
X281016Y69985D02*
X283016Y71985D01*
X285016Y69985D01*
X283016Y67985D01*
X281016Y69985D01*
X342716Y154185D02*
X344716Y156185D01*
X346716Y154185D01*
X344716Y152185D01*
X342716Y154185D01*
Y156685D02*
X344716Y158685D01*
X346716Y156685D01*
X344716Y154685D01*
X342716Y156685D01*
X275216Y130185D02*
X277216Y132185D01*
X279216Y130185D01*
X277216Y128185D01*
X275216Y130185D01*
Y127685D02*
X277216Y129685D01*
X279216Y127685D01*
X277216Y125685D01*
X275216Y127685D01*
X257916Y142785D02*
X259916Y144785D01*
X261916Y142785D01*
X259916Y140785D01*
X257916Y142785D01*
Y140285D02*
X259916Y142285D01*
X261916Y140285D01*
X259916Y138285D01*
X257916Y140285D01*
X277716Y130185D02*
X279716Y132185D01*
X281716Y130185D01*
X279716Y128185D01*
X277716Y130185D01*
X257916Y134185D02*
X259916Y136185D01*
X261916Y134185D01*
X259916Y132185D01*
X257916Y134185D01*
X342716Y159185D02*
X344716Y161185D01*
X346716Y159185D01*
X344716Y157185D01*
X342716Y159185D01*
X343116Y119606D02*
X345116Y121606D01*
X347116Y119606D01*
X345116Y117605D01*
X343116Y119606D01*
Y117085D02*
X345116Y119085D01*
X347116Y117085D01*
X345116Y115085D01*
X343116Y117085D01*
X291391Y86685D02*
X293391Y88685D01*
X295391Y86685D01*
X293391Y84685D01*
X291391Y86685D01*
X293916D02*
X295916Y88685D01*
X297916Y86685D01*
X295916Y84685D01*
X293916Y86685D01*
Y89185D02*
X295916Y91185D01*
X297916Y89185D01*
X295916Y87185D01*
X293916Y89185D01*
X291391Y89161D02*
X293391Y91161D01*
X295391Y89161D01*
X293391Y87161D01*
X291391Y89161D01*
X287016Y84885D02*
X289016Y86885D01*
X291016Y84885D01*
X289016Y82885D01*
X287016Y84885D01*
X303990Y85785D02*
X305990Y87785D01*
X307990Y85785D01*
X305990Y83785D01*
X303990Y85785D01*
X306516Y88285D02*
X308516Y90285D01*
X310516Y88285D01*
X308516Y86285D01*
X306516Y88285D01*
X304016D02*
X306016Y90285D01*
X308016Y88285D01*
X306016Y86285D01*
X304016Y88285D01*
X306516Y85785D02*
X308516Y87785D01*
X310516Y85785D01*
X308516Y83785D01*
X306516Y85785D01*
X280216Y130185D02*
X282216Y132185D01*
X284216Y130185D01*
X282216Y128185D01*
X280216Y130185D01*
X340616Y119585D02*
X342616Y121585D01*
X344616Y119585D01*
X342616Y117585D01*
X340616Y119585D01*
Y117085D02*
X342616Y119085D01*
X344616Y117085D01*
X342616Y115085D01*
X340616Y117085D01*
X290716Y99285D02*
X292716Y101285D01*
X294716Y99285D01*
X292716Y97285D01*
X290716Y99285D01*
X327716Y144485D02*
X329716Y146485D01*
X331716Y144485D01*
X329716Y142485D01*
X327716Y144485D01*
X268516Y39085D02*
X270516Y41085D01*
X272516Y39085D01*
X270516Y37085D01*
X268516Y39085D01*
X239216Y39185D02*
X241216Y41185D01*
X243216Y39185D01*
X241216Y37185D01*
X239216Y39185D01*
X297616Y32485D02*
X299616Y34485D01*
X301616Y32485D01*
X299616Y30485D01*
X297616Y32485D01*
X318116Y32685D02*
X320116Y34685D01*
X322116Y32685D01*
X320116Y30685D01*
X318116Y32685D01*
X334416Y83085D02*
X336416Y85085D01*
X338416Y83085D01*
X336416Y81085D01*
X334416Y83085D01*
X307616Y60185D02*
X309616Y62185D01*
X311616Y60185D01*
X309616Y58185D01*
X307616Y60185D01*
X254016Y57585D02*
X256016Y59585D01*
X258016Y57585D01*
X256016Y55585D01*
X254016Y57585D01*
X334216Y107385D02*
X336216Y109385D01*
X338216Y107385D01*
X336216Y105385D01*
X334216Y107385D01*
X262916Y86085D02*
X264916Y88085D01*
X266916Y86085D01*
X264916Y84085D01*
X262916Y86085D01*
X335116Y46185D02*
X337116Y48185D01*
X339116Y46185D01*
X337116Y44185D01*
X335116Y46185D01*
X331116Y59985D02*
X333116Y61985D01*
X335116Y59985D01*
X333116Y57985D01*
X331116Y59985D01*
X306016Y101685D02*
X308016Y103685D01*
X310016Y101685D01*
X308016Y99685D01*
X306016Y101685D01*
X280516Y59085D02*
X282516Y61085D01*
X284516Y59085D01*
X282516Y57085D01*
X280516Y59085D01*
X47885Y67402D02*
X49885Y69402D01*
X51885Y67402D01*
X49885Y65402D01*
X47885Y67402D01*
X47785Y59528D02*
X49785Y61528D01*
X51785Y59528D01*
X49785Y57528D01*
X47785Y59528D01*
X79185Y29919D02*
X81185Y31919D01*
X83185Y29919D01*
X81185Y27919D01*
X79185Y29919D01*
X69932D02*
X71931Y31919D01*
X73931Y29919D01*
X71931Y27919D01*
X69932Y29919D01*
X60431D02*
X62432Y31919D01*
X64432Y29919D01*
X62432Y27919D01*
X60431Y29919D01*
X61985Y67365D02*
X63985Y69365D01*
X65985Y67365D01*
X63985Y65365D01*
X61985Y67365D01*
Y59565D02*
X63985Y61565D01*
X65985Y59565D01*
X63985Y57565D01*
X61985Y59565D01*
X83185Y56465D02*
X85185Y58465D01*
X87185Y56465D01*
X85185Y54465D01*
X83185Y56465D01*
X100185Y50665D02*
X102185Y52665D01*
X104185Y50665D01*
X102185Y48665D01*
X100185Y50665D01*
X135585Y112765D02*
X137585Y114765D01*
X139585Y112765D01*
X137585Y110765D01*
X135585Y112765D01*
X144785Y107465D02*
X146785Y109465D01*
X148785Y107465D01*
X146785Y105465D01*
X144785Y107465D01*
X105510Y99291D02*
X107510Y101291D01*
X109510Y99291D01*
X107510Y97290D01*
X105510Y99291D01*
X105461Y96141D02*
X107461Y98141D01*
X109461Y96141D01*
X107461Y94141D01*
X105461Y96141D01*
X105411Y92991D02*
X107411Y94991D01*
X109411Y92991D01*
X107411Y90991D01*
X105411Y92991D01*
X82985Y76265D02*
X84985Y78265D01*
X86985Y76265D01*
X84985Y74265D01*
X82985Y76265D01*
X113459Y106639D02*
X115459Y108639D01*
X117459Y106639D01*
X115459Y104639D01*
X113459Y106639D01*
X109285Y117365D02*
X111285Y119365D01*
X113285Y117365D01*
X111285Y115365D01*
X109285Y117365D01*
X122485Y116965D02*
X124485Y118965D01*
X126485Y116965D01*
X124485Y114965D01*
X122485Y116965D01*
X109727Y85924D02*
X111727Y87924D01*
X113727Y85924D01*
X111727Y83924D01*
X109727Y85924D01*
X98309Y88941D02*
X100310Y90941D01*
X102310Y88941D01*
X100310Y86941D01*
X98309Y88941D01*
X95160Y91240D02*
X97160Y93240D01*
X99160Y91240D01*
X97160Y89240D01*
X95160Y91240D01*
X70285Y47565D02*
X72285Y49565D01*
X74285Y47565D01*
X72285Y45565D01*
X70285Y47565D01*
Y51365D02*
X72285Y53365D01*
X74285Y51365D01*
X72285Y49365D01*
X70285Y51365D01*
X80085Y73765D02*
X82085Y75765D01*
X84085Y73765D01*
X82085Y71765D01*
X80085Y73765D01*
X77443Y117324D02*
X79443Y119324D01*
X81443Y117324D01*
X79443Y115324D01*
X77443Y117324D01*
X138585Y126565D02*
X140585Y128565D01*
X142585Y126565D01*
X140585Y124565D01*
X138585Y126565D01*
X73685Y128465D02*
X75685Y130465D01*
X77685Y128465D01*
X75685Y126465D01*
X73685Y128465D01*
X63239Y132319D02*
X65239Y134319D01*
X67239Y132319D01*
X65239Y130319D01*
X63239Y132319D01*
X108685Y126865D02*
X110685Y128865D01*
X112685Y126865D01*
X110685Y124865D01*
X108685Y126865D01*
X46985Y42665D02*
X48985Y44665D01*
X50985Y42665D01*
X48985Y40665D01*
X46985Y42665D01*
Y40165D02*
X48985Y42165D01*
X50985Y40165D01*
X48985Y38165D01*
X46985Y40165D01*
X114485Y66665D02*
X116485Y68665D01*
X118485Y66665D01*
X116485Y64665D01*
X114485Y66665D01*
Y69165D02*
X116485Y71165D01*
X118485Y69165D01*
X116485Y67165D01*
X114485Y69165D01*
X131785Y54065D02*
X133785Y56065D01*
X135785Y54065D01*
X133785Y52065D01*
X131785Y54065D01*
Y56565D02*
X133785Y58565D01*
X135785Y56565D01*
X133785Y54565D01*
X131785Y56565D01*
X111985Y66665D02*
X113985Y68665D01*
X115985Y66665D01*
X113985Y64665D01*
X111985Y66665D01*
X131785Y62665D02*
X133785Y64665D01*
X135785Y62665D01*
X133785Y60665D01*
X131785Y62665D01*
X46985Y37665D02*
X48985Y39665D01*
X50985Y37665D01*
X48985Y35665D01*
X46985Y37665D01*
X46585Y77245D02*
X48585Y79245D01*
X50585Y77245D01*
X48585Y75245D01*
X46585Y77245D01*
Y79765D02*
X48585Y81765D01*
X50585Y79765D01*
X48585Y77765D01*
X46585Y79765D01*
X98309Y110165D02*
X100310Y112165D01*
X102310Y110165D01*
X100310Y108165D01*
X98309Y110165D01*
X95785D02*
X97785Y112165D01*
X99785Y110165D01*
X97785Y108165D01*
X95785Y110165D01*
Y107665D02*
X97785Y109665D01*
X99785Y107665D01*
X97785Y105665D01*
X95785Y107665D01*
X98309Y107690D02*
X100310Y109690D01*
X102310Y107690D01*
X100310Y105690D01*
X98309Y107690D01*
X102685Y111965D02*
X104685Y113965D01*
X106685Y111965D01*
X104685Y109965D01*
X102685Y111965D01*
X85711Y111065D02*
X87711Y113065D01*
X89711Y111065D01*
X87711Y109065D01*
X85711Y111065D01*
X83185Y108565D02*
X85185Y110565D01*
X87185Y108565D01*
X85185Y106565D01*
X83185Y108565D01*
X85685D02*
X87685Y110565D01*
X89685Y108565D01*
X87685Y106565D01*
X85685Y108565D01*
X83185Y111065D02*
X85185Y113065D01*
X87185Y111065D01*
X85185Y109065D01*
X83185Y111065D01*
X109485Y66665D02*
X111485Y68665D01*
X113485Y66665D01*
X111485Y64665D01*
X109485Y66665D01*
X49085Y77265D02*
X51085Y79265D01*
X53085Y77265D01*
X51085Y75265D01*
X49085Y77265D01*
Y79765D02*
X51085Y81765D01*
X53085Y79765D01*
X51085Y77765D01*
X49085Y79765D01*
X98985Y97565D02*
X100985Y99565D01*
X102985Y97565D01*
X100985Y95565D01*
X98985Y97565D01*
X61985Y52365D02*
X63985Y54365D01*
X65985Y52365D01*
X63985Y50365D01*
X61985Y52365D01*
X121185Y157765D02*
X123185Y159765D01*
X125185Y157765D01*
X123185Y155765D01*
X121185Y157765D01*
X150485Y157665D02*
X152485Y159665D01*
X154485Y157665D01*
X152485Y155665D01*
X150485Y157665D01*
X92085Y164365D02*
X94085Y166365D01*
X96085Y164365D01*
X94085Y162365D01*
X92085Y164365D01*
X71585Y164165D02*
X73585Y166165D01*
X75585Y164165D01*
X73585Y162165D01*
X71585Y164165D01*
X55285Y113765D02*
X57285Y115765D01*
X59285Y113765D01*
X57285Y111765D01*
X55285Y113765D01*
X82085Y136665D02*
X84085Y138665D01*
X86085Y136665D01*
X84085Y134665D01*
X82085Y136665D01*
X135685Y139265D02*
X137685Y141265D01*
X139685Y139265D01*
X137685Y137265D01*
X135685Y139265D01*
X55485Y89465D02*
X57485Y91465D01*
X59485Y89465D01*
X57485Y87465D01*
X55485Y89465D01*
X126785Y110765D02*
X128785Y112765D01*
X130785Y110765D01*
X128785Y108765D01*
X126785Y110765D01*
X54585Y150665D02*
X56585Y152665D01*
X58585Y150665D01*
X56585Y148665D01*
X54585Y150665D01*
X58585Y136865D02*
X60585Y138865D01*
X62585Y136865D01*
X60585Y134865D01*
X58585Y136865D01*
X83685Y95165D02*
X85685Y97165D01*
X87685Y95165D01*
X85685Y93165D01*
X83685Y95165D01*
X109185Y137765D02*
X111185Y139765D01*
X113185Y137765D01*
X111185Y135765D01*
X109185Y137765D01*
X341816Y326298D02*
X343816Y328298D01*
X345816Y326298D01*
X343816Y324298D01*
X341816Y326298D01*
X341916Y334172D02*
X343916Y336172D01*
X345916Y334172D01*
X343916Y332172D01*
X341916Y334172D01*
X310516Y363782D02*
X312516Y365782D01*
X314516Y363782D01*
X312516Y361782D01*
X310516Y363782D01*
X319769D02*
X321769Y365782D01*
X323769Y363782D01*
X321769Y361782D01*
X319769Y363782D01*
X329269D02*
X331269Y365782D01*
X333269Y363782D01*
X331269Y361782D01*
X329269Y363782D01*
X327716Y326335D02*
X329716Y328335D01*
X331716Y326335D01*
X329716Y324335D01*
X327716Y326335D01*
Y334135D02*
X329716Y336135D01*
X331716Y334135D01*
X329716Y332135D01*
X327716Y334135D01*
X306516Y337235D02*
X308516Y339235D01*
X310516Y337235D01*
X308516Y335235D01*
X306516Y337235D01*
X289516Y343035D02*
X291516Y345035D01*
X293516Y343035D01*
X291516Y341035D01*
X289516Y343035D01*
X254116Y280935D02*
X256116Y282935D01*
X258116Y280935D01*
X256116Y278935D01*
X254116Y280935D01*
X244916Y286235D02*
X246916Y288235D01*
X248916Y286235D01*
X246916Y284235D01*
X244916Y286235D01*
X284191Y294410D02*
X286191Y296410D01*
X288191Y294410D01*
X286191Y292410D01*
X284191Y294410D01*
X284240Y297560D02*
X286240Y299560D01*
X288240Y297560D01*
X286240Y295560D01*
X284240Y297560D01*
X284290Y300710D02*
X286290Y302710D01*
X288290Y300710D01*
X286290Y298710D01*
X284290Y300710D01*
X306716Y317435D02*
X308716Y319435D01*
X310716Y317435D01*
X308716Y315435D01*
X306716Y317435D01*
X276242Y287061D02*
X278242Y289061D01*
X280242Y287061D01*
X278242Y285061D01*
X276242Y287061D01*
X280416Y276335D02*
X282416Y278335D01*
X284416Y276335D01*
X282416Y274335D01*
X280416Y276335D01*
X267216Y276735D02*
X269216Y278735D01*
X271216Y276735D01*
X269216Y274735D01*
X267216Y276735D01*
X279974Y307777D02*
X281974Y309777D01*
X283974Y307777D01*
X281974Y305777D01*
X279974Y307777D01*
X291391Y304760D02*
X293391Y306760D01*
X295391Y304760D01*
X293391Y302760D01*
X291391Y304760D01*
X294541Y302461D02*
X296541Y304461D01*
X298541Y302461D01*
X296541Y300461D01*
X294541Y302461D01*
X319416Y346135D02*
X321416Y348135D01*
X323416Y346135D01*
X321416Y344135D01*
X319416Y346135D01*
Y342335D02*
X321416Y344335D01*
X323416Y342335D01*
X321416Y340335D01*
X319416Y342335D01*
X309616Y319935D02*
X311616Y321935D01*
X313616Y319935D01*
X311616Y317935D01*
X309616Y319935D01*
X312258Y276377D02*
X314258Y278377D01*
X316258Y276377D01*
X314258Y274377D01*
X312258Y276377D01*
X251116Y267135D02*
X253116Y269135D01*
X255116Y267135D01*
X253116Y265135D01*
X251116Y267135D01*
X316016Y265235D02*
X318016Y267235D01*
X320016Y265235D01*
X318016Y263235D01*
X316016Y265235D01*
X326462Y261382D02*
X328462Y263382D01*
X330462Y261382D01*
X328462Y259382D01*
X326462Y261382D01*
X281016Y266835D02*
X283016Y268835D01*
X285016Y266835D01*
X283016Y264835D01*
X281016Y266835D01*
X342716Y351035D02*
X344716Y353035D01*
X346716Y351035D01*
X344716Y349035D01*
X342716Y351035D01*
Y353535D02*
X344716Y355535D01*
X346716Y353535D01*
X344716Y351535D01*
X342716Y353535D01*
X275216Y327035D02*
X277216Y329035D01*
X279216Y327035D01*
X277216Y325035D01*
X275216Y327035D01*
Y324535D02*
X277216Y326535D01*
X279216Y324535D01*
X277216Y322535D01*
X275216Y324535D01*
X257916Y339635D02*
X259916Y341635D01*
X261916Y339635D01*
X259916Y337635D01*
X257916Y339635D01*
Y337135D02*
X259916Y339135D01*
X261916Y337135D01*
X259916Y335135D01*
X257916Y337135D01*
X277716Y327035D02*
X279716Y329035D01*
X281716Y327035D01*
X279716Y325035D01*
X277716Y327035D01*
X257916Y331035D02*
X259916Y333035D01*
X261916Y331035D01*
X259916Y329035D01*
X257916Y331035D01*
X342716Y356035D02*
X344716Y358035D01*
X346716Y356035D01*
X344716Y354035D01*
X342716Y356035D01*
X343116Y316456D02*
X345116Y318456D01*
X347116Y316456D01*
X345116Y314456D01*
X343116Y316456D01*
Y313935D02*
X345116Y315935D01*
X347116Y313935D01*
X345116Y311935D01*
X343116Y313935D01*
X291391Y283535D02*
X293391Y285535D01*
X295391Y283535D01*
X293391Y281535D01*
X291391Y283535D01*
X293916D02*
X295916Y285535D01*
X297916Y283535D01*
X295916Y281535D01*
X293916Y283535D01*
Y286035D02*
X295916Y288035D01*
X297916Y286035D01*
X295916Y284035D01*
X293916Y286035D01*
X291391Y286011D02*
X293391Y288011D01*
X295391Y286011D01*
X293391Y284011D01*
X291391Y286011D01*
X287016Y281735D02*
X289016Y283735D01*
X291016Y281735D01*
X289016Y279735D01*
X287016Y281735D01*
X303990Y282635D02*
X305990Y284635D01*
X307990Y282635D01*
X305990Y280635D01*
X303990Y282635D01*
X306516Y285135D02*
X308516Y287135D01*
X310516Y285135D01*
X308516Y283135D01*
X306516Y285135D01*
X304016D02*
X306016Y287135D01*
X308016Y285135D01*
X306016Y283135D01*
X304016Y285135D01*
X306516Y282635D02*
X308516Y284635D01*
X310516Y282635D01*
X308516Y280635D01*
X306516Y282635D01*
X280216Y327035D02*
X282216Y329035D01*
X284216Y327035D01*
X282216Y325035D01*
X280216Y327035D01*
X340616Y316435D02*
X342616Y318435D01*
X344616Y316435D01*
X342616Y314435D01*
X340616Y316435D01*
Y313935D02*
X342616Y315935D01*
X344616Y313935D01*
X342616Y311935D01*
X340616Y313935D01*
X290716Y296135D02*
X292716Y298135D01*
X294716Y296135D01*
X292716Y294135D01*
X290716Y296135D01*
X327716Y341335D02*
X329716Y343335D01*
X331716Y341335D01*
X329716Y339335D01*
X327716Y341335D01*
X268516Y235935D02*
X270516Y237935D01*
X272516Y235935D01*
X270516Y233935D01*
X268516Y235935D01*
X239216Y236035D02*
X241216Y238035D01*
X243216Y236035D01*
X241216Y234035D01*
X239216Y236035D01*
X297616Y229335D02*
X299616Y231335D01*
X301616Y229335D01*
X299616Y227335D01*
X297616Y229335D01*
X318116Y229535D02*
X320116Y231535D01*
X322116Y229535D01*
X320116Y227535D01*
X318116Y229535D01*
X334416Y279935D02*
X336416Y281935D01*
X338416Y279935D01*
X336416Y277935D01*
X334416Y279935D01*
X307616Y257035D02*
X309616Y259035D01*
X311616Y257035D01*
X309616Y255035D01*
X307616Y257035D01*
X254016Y254435D02*
X256016Y256435D01*
X258016Y254435D01*
X256016Y252435D01*
X254016Y254435D01*
X334216Y304235D02*
X336216Y306235D01*
X338216Y304235D01*
X336216Y302235D01*
X334216Y304235D01*
X262916Y282935D02*
X264916Y284935D01*
X266916Y282935D01*
X264916Y280935D01*
X262916Y282935D01*
X335116Y243035D02*
X337116Y245035D01*
X339116Y243035D01*
X337116Y241035D01*
X335116Y243035D01*
X331116Y256835D02*
X333116Y258835D01*
X335116Y256835D01*
X333116Y254835D01*
X331116Y256835D01*
X306016Y298535D02*
X308016Y300535D01*
X310016Y298535D01*
X308016Y296535D01*
X306016Y298535D01*
X280516Y255935D02*
X282516Y257935D01*
X284516Y255935D01*
X282516Y253935D01*
X280516Y255935D01*
X47885Y264253D02*
X49885Y266253D01*
X51885Y264253D01*
X49885Y262253D01*
X47885Y264253D01*
X47785Y256379D02*
X49785Y258379D01*
X51785Y256379D01*
X49785Y254379D01*
X47785Y256379D01*
X79185Y226769D02*
X81185Y228769D01*
X83185Y226769D01*
X81185Y224769D01*
X79185Y226769D01*
X69932D02*
X71931Y228769D01*
X73931Y226769D01*
X71931Y224769D01*
X69932Y226769D01*
X60431D02*
X62432Y228769D01*
X64432Y226769D01*
X62432Y224769D01*
X60431Y226769D01*
X61985Y264216D02*
X63985Y266216D01*
X65985Y264216D01*
X63985Y262216D01*
X61985Y264216D01*
Y256416D02*
X63985Y258416D01*
X65985Y256416D01*
X63985Y254416D01*
X61985Y256416D01*
X83185Y253316D02*
X85185Y255316D01*
X87185Y253316D01*
X85185Y251316D01*
X83185Y253316D01*
X100185Y247516D02*
X102185Y249516D01*
X104185Y247516D01*
X102185Y245516D01*
X100185Y247516D01*
X135585Y309616D02*
X137585Y311616D01*
X139585Y309616D01*
X137585Y307616D01*
X135585Y309616D01*
X144785Y304316D02*
X146785Y306316D01*
X148785Y304316D01*
X146785Y302316D01*
X144785Y304316D01*
X105510Y296141D02*
X107510Y298141D01*
X109510Y296141D01*
X107510Y294141D01*
X105510Y296141D01*
X105461Y292991D02*
X107461Y294991D01*
X109461Y292991D01*
X107461Y290991D01*
X105461Y292991D01*
X105411Y289842D02*
X107411Y291842D01*
X109411Y289842D01*
X107411Y287842D01*
X105411Y289842D01*
X82985Y273116D02*
X84985Y275116D01*
X86985Y273116D01*
X84985Y271116D01*
X82985Y273116D01*
X113459Y303490D02*
X115459Y305490D01*
X117459Y303490D01*
X115459Y301490D01*
X113459Y303490D01*
X109285Y314216D02*
X111285Y316216D01*
X113285Y314216D01*
X111285Y312216D01*
X109285Y314216D01*
X122485Y313816D02*
X124485Y315816D01*
X126485Y313816D01*
X124485Y311816D01*
X122485Y313816D01*
X109727Y282774D02*
X111727Y284774D01*
X113727Y282774D01*
X111727Y280774D01*
X109727Y282774D01*
X98309Y285791D02*
X100310Y287791D01*
X102310Y285791D01*
X100310Y283791D01*
X98309Y285791D01*
X95160Y288090D02*
X97160Y290090D01*
X99160Y288090D01*
X97160Y286090D01*
X95160Y288090D01*
X70285Y244416D02*
X72285Y246416D01*
X74285Y244416D01*
X72285Y242416D01*
X70285Y244416D01*
Y248216D02*
X72285Y250216D01*
X74285Y248216D01*
X72285Y246216D01*
X70285Y248216D01*
X80085Y270616D02*
X82085Y272616D01*
X84085Y270616D01*
X82085Y268616D01*
X80085Y270616D01*
X77443Y314174D02*
X79443Y316174D01*
X81443Y314174D01*
X79443Y312174D01*
X77443Y314174D01*
X138585Y323416D02*
X140585Y325416D01*
X142585Y323416D01*
X140585Y321416D01*
X138585Y323416D01*
X73685Y325316D02*
X75685Y327316D01*
X77685Y325316D01*
X75685Y323316D01*
X73685Y325316D01*
X63239Y329169D02*
X65239Y331169D01*
X67239Y329169D01*
X65239Y327169D01*
X63239Y329169D01*
X108685Y323716D02*
X110685Y325716D01*
X112685Y323716D01*
X110685Y321716D01*
X108685Y323716D01*
X46985Y239516D02*
X48985Y241516D01*
X50985Y239516D01*
X48985Y237516D01*
X46985Y239516D01*
Y237016D02*
X48985Y239016D01*
X50985Y237016D01*
X48985Y235016D01*
X46985Y237016D01*
X114485Y263516D02*
X116485Y265516D01*
X118485Y263516D01*
X116485Y261516D01*
X114485Y263516D01*
Y266016D02*
X116485Y268016D01*
X118485Y266016D01*
X116485Y264016D01*
X114485Y266016D01*
X131785Y250916D02*
X133785Y252916D01*
X135785Y250916D01*
X133785Y248916D01*
X131785Y250916D01*
Y253416D02*
X133785Y255416D01*
X135785Y253416D01*
X133785Y251416D01*
X131785Y253416D01*
X111985Y263516D02*
X113985Y265516D01*
X115985Y263516D01*
X113985Y261516D01*
X111985Y263516D01*
X131785Y259516D02*
X133785Y261516D01*
X135785Y259516D01*
X133785Y257516D01*
X131785Y259516D01*
X46985Y234516D02*
X48985Y236516D01*
X50985Y234516D01*
X48985Y232516D01*
X46985Y234516D01*
X46585Y274095D02*
X48585Y276095D01*
X50585Y274095D01*
X48585Y272095D01*
X46585Y274095D01*
Y276616D02*
X48585Y278616D01*
X50585Y276616D01*
X48585Y274616D01*
X46585Y276616D01*
X98309Y307016D02*
X100310Y309016D01*
X102310Y307016D01*
X100310Y305016D01*
X98309Y307016D01*
X95785D02*
X97785Y309016D01*
X99785Y307016D01*
X97785Y305016D01*
X95785Y307016D01*
Y304516D02*
X97785Y306516D01*
X99785Y304516D01*
X97785Y302516D01*
X95785Y304516D01*
X98309Y304540D02*
X100310Y306540D01*
X102310Y304540D01*
X100310Y302540D01*
X98309Y304540D01*
X102685Y308816D02*
X104685Y310816D01*
X106685Y308816D01*
X104685Y306816D01*
X102685Y308816D01*
X85711Y307916D02*
X87711Y309916D01*
X89711Y307916D01*
X87711Y305916D01*
X85711Y307916D01*
X83185Y305416D02*
X85185Y307416D01*
X87185Y305416D01*
X85185Y303416D01*
X83185Y305416D01*
X85685D02*
X87685Y307416D01*
X89685Y305416D01*
X87685Y303416D01*
X85685Y305416D01*
X83185Y307916D02*
X85185Y309916D01*
X87185Y307916D01*
X85185Y305916D01*
X83185Y307916D01*
X109485Y263516D02*
X111485Y265516D01*
X113485Y263516D01*
X111485Y261516D01*
X109485Y263516D01*
X49085Y274116D02*
X51085Y276116D01*
X53085Y274116D01*
X51085Y272116D01*
X49085Y274116D01*
Y276616D02*
X51085Y278616D01*
X53085Y276616D01*
X51085Y274616D01*
X49085Y276616D01*
X98985Y294416D02*
X100985Y296416D01*
X102985Y294416D01*
X100985Y292416D01*
X98985Y294416D01*
X61985Y249216D02*
X63985Y251216D01*
X65985Y249216D01*
X63985Y247216D01*
X61985Y249216D01*
X121185Y354616D02*
X123185Y356616D01*
X125185Y354616D01*
X123185Y352616D01*
X121185Y354616D01*
X150485Y354516D02*
X152485Y356516D01*
X154485Y354516D01*
X152485Y352516D01*
X150485Y354516D01*
X92085Y361216D02*
X94085Y363216D01*
X96085Y361216D01*
X94085Y359216D01*
X92085Y361216D01*
X71585Y361016D02*
X73585Y363016D01*
X75585Y361016D01*
X73585Y359016D01*
X71585Y361016D01*
X55285Y310616D02*
X57285Y312616D01*
X59285Y310616D01*
X57285Y308616D01*
X55285Y310616D01*
X82085Y333516D02*
X84085Y335516D01*
X86085Y333516D01*
X84085Y331516D01*
X82085Y333516D01*
X135685Y336116D02*
X137685Y338116D01*
X139685Y336116D01*
X137685Y334116D01*
X135685Y336116D01*
X55485Y286316D02*
X57485Y288316D01*
X59485Y286316D01*
X57485Y284316D01*
X55485Y286316D01*
X126785Y307616D02*
X128785Y309616D01*
X130785Y307616D01*
X128785Y305616D01*
X126785Y307616D01*
X54585Y347516D02*
X56585Y349516D01*
X58585Y347516D01*
X56585Y345516D01*
X54585Y347516D01*
X58585Y333716D02*
X60585Y335716D01*
X62585Y333716D01*
X60585Y331716D01*
X58585Y333716D01*
X83685Y292016D02*
X85685Y294016D01*
X87685Y292016D01*
X85685Y290016D01*
X83685Y292016D01*
X109185Y334616D02*
X111185Y336616D01*
X113185Y334616D01*
X111185Y332616D01*
X109185Y334616D01*
X462900Y129600D02*
X465300Y132000D01*
X467700Y129600D01*
X465300Y127200D01*
X462900Y129600D01*
Y115200D02*
Y120000D01*
X467700D01*
Y115200D01*
X462900D01*
Y91200D02*
X464100Y93600D01*
X462900Y96000D01*
X465300Y94800D01*
X467700Y96000D01*
X466500Y93600D01*
X467700Y91200D01*
X465300Y92400D01*
X462900Y91200D01*
Y79200D02*
X464100D01*
X465300Y80400D01*
X466500Y79200D01*
X467700D01*
Y80400D01*
X466500Y81600D01*
X467700Y82800D01*
Y84000D01*
X466500D01*
X465300Y82800D01*
X464100Y84000D01*
X462900D01*
Y82800D01*
X464100Y81600D01*
X462900Y80400D01*
Y79200D01*
X465300Y67200D02*
X466500Y68400D01*
X467700D01*
X466500Y69600D01*
X467700Y70800D01*
X466500D01*
X465300Y72000D01*
X464100Y70800D01*
X462900D01*
X464100Y69600D01*
X462900Y68400D01*
X464100D01*
X465300Y67200D01*
Y55200D02*
X462900Y60000D01*
X467700D01*
X465300Y55200D01*
X464100Y44400D02*
Y43200D01*
X466500D01*
Y44400D01*
X467700D01*
Y46800D01*
X466500D01*
Y48000D01*
X464100D01*
Y46800D01*
X462900D01*
Y44400D01*
X464100D01*
D13*
X356716Y67106D02*
G03*
X356716Y67106I-2000J0D01*
G01*
Y80885D02*
G03*
X356716Y80885I-2000J0D01*
G01*
Y32305D02*
G03*
X356716Y32305I-2000J0D01*
G01*
Y46085D02*
G03*
X356716Y46085I-2000J0D01*
G01*
X40985Y129745D02*
G03*
X40985Y129745I-2000J0D01*
G01*
Y115965D02*
G03*
X40985Y115965I-2000J0D01*
G01*
Y164545D02*
G03*
X40985Y164545I-2000J0D01*
G01*
Y150765D02*
G03*
X40985Y150765I-2000J0D01*
G01*
X356716Y263956D02*
G03*
X356716Y263956I-2000J0D01*
G01*
Y277735D02*
G03*
X356716Y277735I-2000J0D01*
G01*
Y229156D02*
G03*
X356716Y229156I-2000J0D01*
G01*
Y242935D02*
G03*
X356716Y242935I-2000J0D01*
G01*
X40985Y326595D02*
G03*
X40985Y326595I-2000J0D01*
G01*
Y312816D02*
G03*
X40985Y312816I-2000J0D01*
G01*
Y361395D02*
G03*
X40985Y361395I-2000J0D01*
G01*
Y347616D02*
G03*
X40985Y347616I-2000J0D01*
G01*
D14*
X467698Y146998D02*
X466499Y148198D01*
X464100D01*
X462900Y146998D01*
Y145799D01*
X464100Y144599D01*
X466499D01*
X467698Y143399D01*
Y142200D01*
X466499Y141000D01*
X464100D01*
X462900Y142200D01*
X470098Y145799D02*
Y142200D01*
X471297Y141000D01*
X474896D01*
Y139800D01*
X473697Y138601D01*
X472497D01*
X474896Y141000D02*
Y145799D01*
X477295Y141000D02*
Y145799D01*
X478495D01*
X479695Y144599D01*
Y141000D01*
Y144599D01*
X480894Y145799D01*
X482094Y144599D01*
Y141000D01*
X484493Y148198D02*
Y141000D01*
X488092D01*
X489291Y142200D01*
Y143399D01*
Y144599D01*
X488092Y145799D01*
X484493D01*
X492890Y141000D02*
X495290D01*
X496489Y142200D01*
Y144599D01*
X495290Y145799D01*
X492890D01*
X491691Y144599D01*
Y142200D01*
X492890Y141000D01*
X498888D02*
X501288D01*
X500088D01*
Y148198D01*
X498888D01*
X513288D02*
Y141000D01*
Y144599D01*
X518086D01*
Y148198D01*
Y141000D01*
X520485D02*
X522885D01*
X521685D01*
Y145799D01*
X520485D01*
X527683Y146998D02*
Y145799D01*
X526483D01*
X528883D01*
X527683D01*
Y142200D01*
X528883Y141000D01*
X544478Y146998D02*
X543278Y148198D01*
X540879D01*
X539679Y146998D01*
Y142200D01*
X540879Y141000D01*
X543278D01*
X544478Y142200D01*
X548076Y141000D02*
X550476D01*
X551675Y142200D01*
Y144599D01*
X550476Y145799D01*
X548076D01*
X546877Y144599D01*
Y142200D01*
X548076Y141000D01*
X554074Y145799D02*
Y142200D01*
X555274Y141000D01*
X558873D01*
Y145799D01*
X561272Y141000D02*
Y145799D01*
X564871D01*
X566071Y144599D01*
Y141000D01*
X569669Y146998D02*
Y145799D01*
X568470D01*
X570869D01*
X569669D01*
Y142200D01*
X570869Y141000D01*
X587667Y148198D02*
X582869D01*
Y144599D01*
X585268D01*
X582869D01*
Y141000D01*
X590067D02*
X592466D01*
X591266D01*
Y145799D01*
X590067D01*
X596065Y141000D02*
Y145799D01*
X599663D01*
X600863Y144599D01*
Y141000D01*
X603262D02*
X605661D01*
X604462D01*
Y145799D01*
X603262D01*
X609260Y141000D02*
X612859D01*
X614059Y142200D01*
X612859Y143399D01*
X610460D01*
X609260Y144599D01*
X610460Y145799D01*
X614059D01*
X616458Y148198D02*
Y141000D01*
Y144599D01*
X617658Y145799D01*
X620057D01*
X621256Y144599D01*
Y141000D01*
X627255D02*
X624855D01*
X623656Y142200D01*
Y144599D01*
X624855Y145799D01*
X627255D01*
X628454Y144599D01*
Y143399D01*
X623656D01*
X635652Y148198D02*
Y141000D01*
X632053D01*
X630853Y142200D01*
Y144599D01*
X632053Y145799D01*
X635652D01*
X645249Y148198D02*
Y141000D01*
Y144599D01*
X650047D01*
Y148198D01*
Y141000D01*
X653646D02*
X656045D01*
X657245Y142200D01*
Y144599D01*
X656045Y145799D01*
X653646D01*
X652446Y144599D01*
Y142200D01*
X653646Y141000D01*
X659644D02*
X662043D01*
X660844D01*
Y148198D01*
X659644D01*
X669241Y141000D02*
X666842D01*
X665642Y142200D01*
Y144599D01*
X666842Y145799D01*
X669241D01*
X670441Y144599D01*
Y143399D01*
X665642D01*
X684836Y146998D02*
X683636Y148198D01*
X681237D01*
X680037Y146998D01*
Y145799D01*
X681237Y144599D01*
X683636D01*
X684836Y143399D01*
Y142200D01*
X683636Y141000D01*
X681237D01*
X680037Y142200D01*
X687235Y141000D02*
X689634D01*
X688435D01*
Y145799D01*
X687235D01*
X693233D02*
X698032D01*
X693233Y141000D01*
X698032D01*
X704030D02*
X701630D01*
X700431Y142200D01*
Y144599D01*
X701630Y145799D01*
X704030D01*
X705229Y144599D01*
Y143399D01*
X700431D01*
X717229Y141000D02*
Y148198D01*
X720828D01*
X722028Y146998D01*
Y144599D01*
X720828Y143399D01*
X717229D01*
X724427Y148198D02*
Y141000D01*
Y144599D01*
X725627Y145799D01*
X728026D01*
X729225Y144599D01*
Y141000D01*
X731625Y145799D02*
Y142200D01*
X732824Y141000D01*
X736423D01*
Y139800D01*
X735223Y138601D01*
X734024D01*
X736423Y141000D02*
Y145799D01*
X738822Y141000D02*
X742421D01*
X743621Y142200D01*
X742421Y143399D01*
X740022D01*
X738822Y144599D01*
X740022Y145799D01*
X743621D01*
X746020Y141000D02*
X748419D01*
X747220D01*
Y145799D01*
X746020D01*
X756816D02*
X753218D01*
X752018Y144599D01*
Y142200D01*
X753218Y141000D01*
X756816D01*
X760415Y145799D02*
X762815D01*
X764014Y144599D01*
Y141000D01*
X760415D01*
X759216Y142200D01*
X760415Y143399D01*
X764014D01*
X766413Y141000D02*
X768813D01*
X767613D01*
Y148198D01*
X766413D01*
X779609D02*
Y141000D01*
X784408D01*
X790406D02*
X788006D01*
X786807Y142200D01*
Y144599D01*
X788006Y145799D01*
X790406D01*
X791605Y144599D01*
Y143399D01*
X786807D01*
X794004Y141000D02*
Y145799D01*
X797603D01*
X798803Y144599D01*
Y141000D01*
X803601Y138601D02*
X804801D01*
X806001Y139800D01*
Y145799D01*
X802402D01*
X801202Y144599D01*
Y142200D01*
X802402Y141000D01*
X806001D01*
X809599Y146998D02*
Y145799D01*
X808400D01*
X810799D01*
X809599D01*
Y142200D01*
X810799Y141000D01*
X814398Y148198D02*
Y141000D01*
Y144599D01*
X815598Y145799D01*
X817997D01*
X819196Y144599D01*
Y141000D01*
X831196D02*
Y148198D01*
X834795D01*
X835995Y146998D01*
Y144599D01*
X834795Y143399D01*
X831196D01*
X833596D02*
X835995Y141000D01*
X839594D02*
X841993D01*
X843192Y142200D01*
Y144599D01*
X841993Y145799D01*
X839594D01*
X838394Y144599D01*
Y142200D01*
X839594Y141000D01*
X845592Y145799D02*
Y142200D01*
X846791Y141000D01*
X850390D01*
Y145799D01*
X853989Y146998D02*
Y145799D01*
X852789D01*
X855189D01*
X853989D01*
Y142200D01*
X855189Y141000D01*
X865985D02*
Y148198D01*
X869584D01*
X870784Y146998D01*
Y144599D01*
X869584Y143399D01*
X865985D01*
X874382Y145799D02*
X876782D01*
X877981Y144599D01*
Y141000D01*
X874382D01*
X873183Y142200D01*
X874382Y143399D01*
X877981D01*
X881580Y146998D02*
Y145799D01*
X880380D01*
X882780D01*
X881580D01*
Y142200D01*
X882780Y141000D01*
X886378Y148198D02*
Y141000D01*
Y144599D01*
X887578Y145799D01*
X889977D01*
X891177Y144599D01*
Y141000D01*
X900774Y148198D02*
Y141000D01*
X905572D01*
X911570D02*
X909171D01*
X907971Y142200D01*
Y144599D01*
X909171Y145799D01*
X911570D01*
X912770Y144599D01*
Y143399D01*
X907971D01*
X915169Y141000D02*
Y145799D01*
X918768D01*
X919968Y144599D01*
Y141000D01*
X924766Y138601D02*
X925966D01*
X927165Y139800D01*
Y145799D01*
X923566D01*
X922367Y144599D01*
Y142200D01*
X923566Y141000D01*
X927165D01*
X930764Y146998D02*
Y145799D01*
X929564D01*
X931964D01*
X930764D01*
Y142200D01*
X931964Y141000D01*
X935563Y148198D02*
Y141000D01*
Y144599D01*
X936762Y145799D01*
X939161D01*
X940361Y144599D01*
Y141000D01*
X952361D02*
Y148198D01*
X955960D01*
X957159Y146998D01*
Y144599D01*
X955960Y143399D01*
X952361D01*
X959559Y141000D02*
X961958D01*
X960758D01*
Y148198D01*
X959559D01*
X966756Y145799D02*
X969156D01*
X970355Y144599D01*
Y141000D01*
X966756D01*
X965557Y142200D01*
X966756Y143399D01*
X970355D01*
X973954Y146998D02*
Y145799D01*
X972754D01*
X975154D01*
X973954D01*
Y142200D01*
X975154Y141000D01*
X982351D02*
X979952D01*
X978753Y142200D01*
Y144599D01*
X979952Y145799D01*
X982351D01*
X983551Y144599D01*
Y143399D01*
X978753D01*
X990749Y148198D02*
Y141000D01*
X987150D01*
X985950Y142200D01*
Y144599D01*
X987150Y145799D01*
X990749D01*
X1002749Y148198D02*
Y141000D01*
Y144599D01*
X1007547D01*
Y148198D01*
Y141000D01*
X1011146D02*
X1013545D01*
X1014745Y142200D01*
Y144599D01*
X1013545Y145799D01*
X1011146D01*
X1009946Y144599D01*
Y142200D01*
X1011146Y141000D01*
X1017144D02*
X1019543D01*
X1018344D01*
Y148198D01*
X1017144D01*
X1026741Y141000D02*
X1024342D01*
X1023142Y142200D01*
Y144599D01*
X1024342Y145799D01*
X1026741D01*
X1027940Y144599D01*
Y143399D01*
X1023142D01*
X1037537Y148198D02*
X1042336D01*
X1039937D01*
Y141000D01*
X1044735Y145799D02*
Y142200D01*
X1045935Y141000D01*
X1049533D01*
Y139800D01*
X1048334Y138601D01*
X1047134D01*
X1049533Y141000D02*
Y145799D01*
X1051933Y138601D02*
Y145799D01*
X1055532D01*
X1056731Y144599D01*
Y142200D01*
X1055532Y141000D01*
X1051933D01*
X1062729D02*
X1060330D01*
X1059130Y142200D01*
Y144599D01*
X1060330Y145799D01*
X1062729D01*
X1063929Y144599D01*
Y143399D01*
X1059130D01*
X454100Y151800D02*
X1075929D01*
X454100Y135600D02*
X1075929D01*
X454100Y151800D02*
Y27600D01*
X1075929Y151800D02*
Y27600D01*
X508888Y151800D02*
Y27600D01*
X578469Y151800D02*
Y27600D01*
X712829Y151800D02*
Y27600D01*
X826796Y151800D02*
Y27600D01*
X947961Y151800D02*
Y27600D01*
X998349Y151800D02*
Y27600D01*
X454100Y39600D02*
X1075929D01*
X454100Y27600D02*
X1075929D01*
D15*
X467700Y105600D02*
G03*
X467700Y105600I-2400J0D01*
G01*
D16*
X466899Y23598D02*
X465899Y24598D01*
X463900D01*
X462900Y23598D01*
Y22599D01*
X463900Y21599D01*
X465899D01*
X466899Y20599D01*
Y19600D01*
X465899Y18600D01*
X463900D01*
X462900Y19600D01*
X468898Y18600D02*
X470897D01*
X469898D01*
Y24598D01*
X468898D01*
X474896Y18600D02*
X476896D01*
X477895Y19600D01*
Y21599D01*
X476896Y22599D01*
X474896D01*
X473896Y21599D01*
Y19600D01*
X474896Y18600D01*
X480894Y23598D02*
Y22599D01*
X479894D01*
X481894D01*
X480894D01*
Y19600D01*
X481894Y18600D01*
X494890Y24598D02*
Y18600D01*
X491891D01*
X490891Y19600D01*
Y21599D01*
X491891Y22599D01*
X494890D01*
X499888Y18600D02*
X497889D01*
X496889Y19600D01*
Y21599D01*
X497889Y22599D01*
X499888D01*
X500888Y21599D01*
Y20599D01*
X496889D01*
X503887Y18600D02*
Y23598D01*
Y21599D01*
X502887D01*
X504886D01*
X503887D01*
Y23598D01*
X504886Y24598D01*
X507885Y18600D02*
X509885D01*
X508885D01*
Y22599D01*
X507885D01*
X512884Y18600D02*
Y22599D01*
X515883D01*
X516883Y21599D01*
Y18600D01*
X518882D02*
X520881D01*
X519882D01*
Y22599D01*
X518882D01*
X524880Y23598D02*
Y22599D01*
X523880D01*
X525880D01*
X524880D01*
Y19600D01*
X525880Y18600D01*
X528879D02*
X530878D01*
X529878D01*
Y22599D01*
X528879D01*
X534877Y18600D02*
X536876D01*
X537876Y19600D01*
Y21599D01*
X536876Y22599D01*
X534877D01*
X533877Y21599D01*
Y19600D01*
X534877Y18600D01*
X539875D02*
Y22599D01*
X542874D01*
X543874Y21599D01*
Y18600D01*
X545873D02*
X548872D01*
X549872Y19600D01*
X548872Y20599D01*
X546873D01*
X545873Y21599D01*
X546873Y22599D01*
X549872D01*
X557869D02*
X558869D01*
Y21599D01*
X557869D01*
Y22599D01*
Y19600D02*
X558869D01*
Y18600D01*
X557869D01*
Y19600D01*
X570469Y18600D02*
Y24598D01*
X573468D01*
X574468Y23598D01*
Y21599D01*
X573468Y20599D01*
X570469D01*
X572468D02*
X574468Y18600D01*
X577467D02*
X579466D01*
X580466Y19600D01*
Y21599D01*
X579466Y22599D01*
X577467D01*
X576467Y21599D01*
Y19600D01*
X577467Y18600D01*
X582465Y22599D02*
Y19600D01*
X583465Y18600D01*
X586464D01*
Y22599D01*
X589463Y23598D02*
Y22599D01*
X588463D01*
X590462D01*
X589463D01*
Y19600D01*
X590462Y18600D01*
X599460D02*
Y24598D01*
X602459D01*
X603458Y23598D01*
Y21599D01*
X602459Y20599D01*
X599460D01*
X606457Y22599D02*
X608457D01*
X609456Y21599D01*
Y18600D01*
X606457D01*
X605458Y19600D01*
X606457Y20599D01*
X609456D01*
X612455Y23598D02*
Y22599D01*
X611456D01*
X613455D01*
X612455D01*
Y19600D01*
X613455Y18600D01*
X616454Y24598D02*
Y18600D01*
Y21599D01*
X617454Y22599D01*
X619453D01*
X620453Y21599D01*
Y18600D01*
X628450Y24598D02*
Y18600D01*
X632449D01*
X637447D02*
X635448D01*
X634448Y19600D01*
Y21599D01*
X635448Y22599D01*
X637447D01*
X638447Y21599D01*
Y20599D01*
X634448D01*
X640446Y18600D02*
Y22599D01*
X643445D01*
X644445Y21599D01*
Y18600D01*
X648444Y16601D02*
X649443D01*
X650443Y17600D01*
Y22599D01*
X647444D01*
X646444Y21599D01*
Y19600D01*
X647444Y18600D01*
X650443D01*
X653442Y23598D02*
Y22599D01*
X652442D01*
X654442D01*
X653442D01*
Y19600D01*
X654442Y18600D01*
X657441Y24598D02*
Y18600D01*
Y21599D01*
X658440Y22599D01*
X660440D01*
X661440Y21599D01*
Y18600D01*
X570469Y6600D02*
Y12598D01*
X573468D01*
X574468Y11598D01*
Y9599D01*
X573468Y8599D01*
X570469D01*
X576467Y12598D02*
Y6600D01*
Y9599D01*
X577467Y10599D01*
X579466D01*
X580466Y9599D01*
Y6600D01*
X582465Y10599D02*
Y7600D01*
X583465Y6600D01*
X586464D01*
Y5600D01*
X585464Y4601D01*
X584464D01*
X586464Y6600D02*
Y10599D01*
X588463Y6600D02*
X591462D01*
X592462Y7600D01*
X591462Y8599D01*
X589463D01*
X588463Y9599D01*
X589463Y10599D01*
X592462D01*
X594461Y6600D02*
X596460D01*
X595461D01*
Y10599D01*
X594461D01*
X603458D02*
X600459D01*
X599460Y9599D01*
Y7600D01*
X600459Y6600D01*
X603458D01*
X606457Y10599D02*
X608457D01*
X609456Y9599D01*
Y6600D01*
X606457D01*
X605458Y7600D01*
X606457Y8599D01*
X609456D01*
X611456Y6600D02*
X613455D01*
X612455D01*
Y12598D01*
X611456D01*
X622452D02*
Y6600D01*
X626451D01*
X631449D02*
X629450D01*
X628450Y7600D01*
Y9599D01*
X629450Y10599D01*
X631449D01*
X632449Y9599D01*
Y8599D01*
X628450D01*
X634448Y6600D02*
Y10599D01*
X637447D01*
X638447Y9599D01*
Y6600D01*
X642446Y4601D02*
X643445D01*
X644445Y5600D01*
Y10599D01*
X641446D01*
X640446Y9599D01*
Y7600D01*
X641446Y6600D01*
X644445D01*
X647444Y11598D02*
Y10599D01*
X646444D01*
X648444D01*
X647444D01*
Y7600D01*
X648444Y6600D01*
X651443Y12598D02*
Y6600D01*
Y9599D01*
X652442Y10599D01*
X654442D01*
X655441Y9599D01*
Y6600D01*
M02*
