%FSLAX25Y25*%
%MOIN*%
G70*
G01*
G75*
G04 Layer_Color=16711935*
%ADD10R,0.03150X0.03150*%
%ADD11R,0.06299X0.03937*%
%ADD12R,0.09843X0.04331*%
%ADD13C,0.04000*%
%ADD14C,0.02000*%
%ADD15C,0.01575*%
G04:AMPARAMS|DCode=16|XSize=59.06mil|YSize=59.06mil|CornerRadius=14.76mil|HoleSize=0mil|Usage=FLASHONLY|Rotation=270.000|XOffset=0mil|YOffset=0mil|HoleType=Round|Shape=RoundedRectangle|*
%AMROUNDEDRECTD16*
21,1,0.05906,0.02953,0,0,270.0*
21,1,0.02953,0.05906,0,0,270.0*
1,1,0.02953,-0.01476,-0.01476*
1,1,0.02953,-0.01476,0.01476*
1,1,0.02953,0.01476,0.01476*
1,1,0.02953,0.01476,-0.01476*
%
%ADD16ROUNDEDRECTD16*%
%ADD17C,0.05906*%
%ADD18C,0.03937*%
G04:AMPARAMS|DCode=19|XSize=98.43mil|YSize=98.43mil|CornerRadius=24.61mil|HoleSize=0mil|Usage=FLASHONLY|Rotation=270.000|XOffset=0mil|YOffset=0mil|HoleType=Round|Shape=RoundedRectangle|*
%AMROUNDEDRECTD19*
21,1,0.09843,0.04921,0,0,270.0*
21,1,0.04921,0.09843,0,0,270.0*
1,1,0.04921,-0.02461,-0.02461*
1,1,0.04921,-0.02461,0.02461*
1,1,0.04921,0.02461,0.02461*
1,1,0.04921,0.02461,-0.02461*
%
%ADD19ROUNDEDRECTD19*%
%ADD20O,0.08000X0.11811*%
%ADD21R,0.07500X0.07500*%
%ADD22O,0.17716X0.07874*%
%ADD23C,0.03150*%
%ADD24C,0.02400*%
%ADD25C,0.01201*%
%ADD26O,0.02165X0.05118*%
G04:AMPARAMS|DCode=27|XSize=31.5mil|YSize=51.18mil|CornerRadius=7.87mil|HoleSize=0mil|Usage=FLASHONLY|Rotation=270.000|XOffset=0mil|YOffset=0mil|HoleType=Round|Shape=RoundedRectangle|*
%AMROUNDEDRECTD27*
21,1,0.03150,0.03543,0,0,270.0*
21,1,0.01575,0.05118,0,0,270.0*
1,1,0.01575,-0.01772,-0.00787*
1,1,0.01575,-0.01772,0.00787*
1,1,0.01575,0.01772,0.00787*
1,1,0.01575,0.01772,-0.00787*
%
%ADD27ROUNDEDRECTD27*%
G04:AMPARAMS|DCode=28|XSize=31.5mil|YSize=51.18mil|CornerRadius=7.87mil|HoleSize=0mil|Usage=FLASHONLY|Rotation=180.000|XOffset=0mil|YOffset=0mil|HoleType=Round|Shape=RoundedRectangle|*
%AMROUNDEDRECTD28*
21,1,0.03150,0.03543,0,0,180.0*
21,1,0.01575,0.05118,0,0,180.0*
1,1,0.01575,-0.00787,0.01772*
1,1,0.01575,0.00787,0.01772*
1,1,0.01575,0.00787,-0.01772*
1,1,0.01575,-0.00787,-0.01772*
%
%ADD28ROUNDEDRECTD28*%
%ADD29O,0.05118X0.02165*%
%ADD30C,0.01201*%
%ADD31C,0.00394*%
%ADD32R,0.03543X0.03937*%
%ADD33R,0.03937X0.03543*%
G04:AMPARAMS|DCode=34|XSize=23.62mil|YSize=39.37mil|CornerRadius=2.95mil|HoleSize=0mil|Usage=FLASHONLY|Rotation=0.000|XOffset=0mil|YOffset=0mil|HoleType=Round|Shape=RoundedRectangle|*
%AMROUNDEDRECTD34*
21,1,0.02362,0.03347,0,0,0.0*
21,1,0.01772,0.03937,0,0,0.0*
1,1,0.00591,0.00886,-0.01673*
1,1,0.00591,-0.00886,-0.01673*
1,1,0.00591,-0.00886,0.01673*
1,1,0.00591,0.00886,0.01673*
%
%ADD34ROUNDEDRECTD34*%
%ADD35R,0.07874X0.09449*%
%ADD36C,0.02306*%
%ADD37C,0.01153*%
%ADD38C,0.01000*%
%ADD39C,0.00500*%
%ADD40C,0.00029*%
%ADD41C,0.00710*%
%ADD42C,0.00787*%
%ADD43C,0.00152*%
%ADD44C,0.00089*%
%ADD45R,0.02950X0.02950*%
%ADD46R,0.06099X0.03737*%
%ADD47R,0.09643X0.04131*%
%ADD48C,0.01375*%
G04:AMPARAMS|DCode=49|XSize=57.06mil|YSize=57.06mil|CornerRadius=13.76mil|HoleSize=0mil|Usage=FLASHONLY|Rotation=270.000|XOffset=0mil|YOffset=0mil|HoleType=Round|Shape=RoundedRectangle|*
%AMROUNDEDRECTD49*
21,1,0.05706,0.02953,0,0,270.0*
21,1,0.02953,0.05706,0,0,270.0*
1,1,0.02753,-0.01476,-0.01476*
1,1,0.02753,-0.01476,0.01476*
1,1,0.02753,0.01476,0.01476*
1,1,0.02753,0.01476,-0.01476*
%
%ADD49ROUNDEDRECTD49*%
%ADD50C,0.05706*%
%ADD51C,0.03737*%
G04:AMPARAMS|DCode=52|XSize=96.43mil|YSize=96.43mil|CornerRadius=23.61mil|HoleSize=0mil|Usage=FLASHONLY|Rotation=270.000|XOffset=0mil|YOffset=0mil|HoleType=Round|Shape=RoundedRectangle|*
%AMROUNDEDRECTD52*
21,1,0.09643,0.04921,0,0,270.0*
21,1,0.04921,0.09643,0,0,270.0*
1,1,0.04721,-0.02461,-0.02461*
1,1,0.04721,-0.02461,0.02461*
1,1,0.04721,0.02461,0.02461*
1,1,0.04721,0.02461,-0.02461*
%
%ADD52ROUNDEDRECTD52*%
%ADD53O,0.07800X0.11611*%
%ADD54R,0.07300X0.07300*%
%ADD55O,0.17516X0.07674*%
%ADD56C,0.02950*%
%ADD57O,0.01965X0.04918*%
G04:AMPARAMS|DCode=58|XSize=29.5mil|YSize=49.18mil|CornerRadius=6.87mil|HoleSize=0mil|Usage=FLASHONLY|Rotation=270.000|XOffset=0mil|YOffset=0mil|HoleType=Round|Shape=RoundedRectangle|*
%AMROUNDEDRECTD58*
21,1,0.02950,0.03543,0,0,270.0*
21,1,0.01575,0.04918,0,0,270.0*
1,1,0.01375,-0.01772,-0.00787*
1,1,0.01375,-0.01772,0.00787*
1,1,0.01375,0.01772,0.00787*
1,1,0.01375,0.01772,-0.00787*
%
%ADD58ROUNDEDRECTD58*%
G04:AMPARAMS|DCode=59|XSize=29.5mil|YSize=49.18mil|CornerRadius=6.87mil|HoleSize=0mil|Usage=FLASHONLY|Rotation=180.000|XOffset=0mil|YOffset=0mil|HoleType=Round|Shape=RoundedRectangle|*
%AMROUNDEDRECTD59*
21,1,0.02950,0.03543,0,0,180.0*
21,1,0.01575,0.04918,0,0,180.0*
1,1,0.01375,-0.00787,0.01772*
1,1,0.01375,0.00787,0.01772*
1,1,0.01375,0.00787,-0.01772*
1,1,0.01375,-0.00787,-0.01772*
%
%ADD59ROUNDEDRECTD59*%
%ADD60O,0.04918X0.01965*%
%ADD61R,0.03343X0.03737*%
%ADD62R,0.03737X0.03343*%
G04:AMPARAMS|DCode=63|XSize=21.62mil|YSize=37.37mil|CornerRadius=1.95mil|HoleSize=0mil|Usage=FLASHONLY|Rotation=0.000|XOffset=0mil|YOffset=0mil|HoleType=Round|Shape=RoundedRectangle|*
%AMROUNDEDRECTD63*
21,1,0.02162,0.03347,0,0,0.0*
21,1,0.01772,0.03737,0,0,0.0*
1,1,0.00391,0.00886,-0.01673*
1,1,0.00391,-0.00886,-0.01673*
1,1,0.00391,-0.00886,0.01673*
1,1,0.00391,0.00886,0.01673*
%
%ADD63ROUNDEDRECTD63*%
%ADD64R,0.07674X0.09249*%
%ADD65C,0.00200*%
D38*
X-16500Y160000D02*
G03*
X-11500Y155000I5000J0D01*
G01*
X-7563Y151063D02*
G03*
X-7563Y155000I0J1969D01*
G01*
X-16500Y163937D02*
G03*
X-20437Y163937I-1969J0D01*
G01*
Y160000D02*
G03*
X-11500Y151063I8937J0D01*
G01*
X24685Y374016D02*
G03*
X19685Y369016I0J-5000D01*
G01*
X15748Y365079D02*
G03*
X17717Y363110I1969J0D01*
G01*
X28622Y374016D02*
G03*
X30591Y375984I0J1969D01*
G01*
X15748Y365079D02*
G03*
X19685Y365079I1969J0D01*
G01*
X28622Y374016D02*
G03*
X28622Y377953I0J1969D01*
G01*
X24685D02*
G03*
X15748Y369016I0J-8937D01*
G01*
X19685Y221535D02*
G03*
X24685Y216535I5000J0D01*
G01*
X28622Y212598D02*
G03*
X30591Y214567I0J1969D01*
G01*
X19685Y225472D02*
G03*
X17717Y227441I-1969J0D01*
G01*
X28622Y212598D02*
G03*
X28622Y216535I0J1969D01*
G01*
X19685Y225472D02*
G03*
X15748Y225472I-1969J0D01*
G01*
Y221535D02*
G03*
X24685Y212598I8937J0D01*
G01*
X172165Y216535D02*
G03*
X177165Y221535I0J5000D01*
G01*
X181102Y225472D02*
G03*
X179134Y227441I-1969J0D01*
G01*
X168228Y216535D02*
G03*
X166260Y214567I0J-1969D01*
G01*
X181102Y225472D02*
G03*
X177165Y225472I-1969J0D01*
G01*
X168228Y216535D02*
G03*
X168228Y212598I0J-1969D01*
G01*
X172165D02*
G03*
X181102Y221535I0J8937D01*
G01*
X168228Y377953D02*
G03*
X166260Y375984I0J-1969D01*
G01*
X177165Y365079D02*
G03*
X179134Y363110I1969J0D01*
G01*
X168228Y377953D02*
G03*
X168228Y374016I0J-1969D01*
G01*
X177165Y365079D02*
G03*
X181102Y365079I1969J0D01*
G01*
Y369016D02*
G03*
X172165Y377953I-8937J0D01*
G01*
X221535Y374016D02*
G03*
X216535Y369016I0J-5000D01*
G01*
X212598Y365079D02*
G03*
X214567Y363110I1969J0D01*
G01*
X225472Y374016D02*
G03*
X227441Y375984I0J1969D01*
G01*
X212598Y365079D02*
G03*
X216535Y365079I1969J0D01*
G01*
X225472Y374016D02*
G03*
X225472Y377953I0J1969D01*
G01*
X221535D02*
G03*
X212598Y369016I0J-8937D01*
G01*
X374016D02*
G03*
X369016Y374016I-5000J0D01*
G01*
X365079Y377953D02*
G03*
X363110Y375984I0J-1969D01*
G01*
X374016Y365079D02*
G03*
X375984Y363110I1969J0D01*
G01*
X365079Y377953D02*
G03*
X365079Y374016I0J-1969D01*
G01*
X374016Y365079D02*
G03*
X377953Y365079I1969J0D01*
G01*
Y369016D02*
G03*
X369016Y377953I-8937J0D01*
G01*
X216535Y221535D02*
G03*
X221535Y216535I5000J0D01*
G01*
X225472Y212598D02*
G03*
X227441Y214567I0J1969D01*
G01*
X216535Y225472D02*
G03*
X214567Y227441I-1969J0D01*
G01*
X225472Y212598D02*
G03*
X225472Y216535I0J1969D01*
G01*
X216535Y225472D02*
G03*
X212598Y225472I-1969J0D01*
G01*
Y221535D02*
G03*
X221535Y212598I8937J0D01*
G01*
X369016Y216535D02*
G03*
X374016Y221535I0J5000D01*
G01*
X377953Y225472D02*
G03*
X375984Y227441I-1969J0D01*
G01*
X365079Y216535D02*
G03*
X363110Y214567I0J-1969D01*
G01*
X377953Y225472D02*
G03*
X374016Y225472I-1969J0D01*
G01*
X365079Y216535D02*
G03*
X365079Y212598I0J-1969D01*
G01*
X369016D02*
G03*
X377953Y221535I0J8937D01*
G01*
X374016Y172165D02*
G03*
X369016Y177165I-5000J0D01*
G01*
X365079Y181102D02*
G03*
X363110Y179134I0J-1969D01*
G01*
X374016Y168228D02*
G03*
X375984Y166260I1969J0D01*
G01*
X365079Y181102D02*
G03*
X365079Y177165I0J-1969D01*
G01*
X374016Y168228D02*
G03*
X377953Y168228I1969J0D01*
G01*
Y172165D02*
G03*
X369016Y181102I-8937J0D01*
G01*
X221535Y177165D02*
G03*
X216535Y172165I0J-5000D01*
G01*
X212598Y168228D02*
G03*
X214567Y166260I1969J0D01*
G01*
X225472Y177165D02*
G03*
X227441Y179134I0J1969D01*
G01*
X212598Y168228D02*
G03*
X216535Y168228I1969J0D01*
G01*
X225472Y177165D02*
G03*
X225472Y181102I0J1969D01*
G01*
X221535D02*
G03*
X212598Y172165I0J-8937D01*
G01*
X177165D02*
G03*
X172165Y177165I-5000J0D01*
G01*
X168228Y181102D02*
G03*
X166260Y179134I0J-1969D01*
G01*
X177165Y168228D02*
G03*
X179134Y166260I1969J0D01*
G01*
X168228Y181102D02*
G03*
X168228Y177165I0J-1969D01*
G01*
X177165Y168228D02*
G03*
X181102Y168228I1969J0D01*
G01*
Y172165D02*
G03*
X172165Y181102I-8937J0D01*
G01*
X24685Y177165D02*
G03*
X19685Y172165I0J-5000D01*
G01*
X15748Y168228D02*
G03*
X17717Y166260I1969J0D01*
G01*
X28622Y177165D02*
G03*
X30591Y179134I0J1969D01*
G01*
X15748Y168228D02*
G03*
X19685Y168228I1969J0D01*
G01*
X28622Y177165D02*
G03*
X28622Y181102I0J1969D01*
G01*
X24685D02*
G03*
X15748Y172165I0J-8937D01*
G01*
X19685Y24685D02*
G03*
X24685Y19685I5000J0D01*
G01*
X28622Y15748D02*
G03*
X30591Y17717I0J1969D01*
G01*
X19685Y28622D02*
G03*
X17717Y30591I-1969J0D01*
G01*
X28622Y15748D02*
G03*
X28622Y19685I0J1969D01*
G01*
X19685Y28622D02*
G03*
X15748Y28622I-1969J0D01*
G01*
Y24685D02*
G03*
X24685Y15748I8937J0D01*
G01*
X172165Y19685D02*
G03*
X177165Y24685I0J5000D01*
G01*
X181102Y28622D02*
G03*
X179134Y30591I-1969J0D01*
G01*
X168228Y19685D02*
G03*
X166260Y17717I0J-1969D01*
G01*
X181102Y28622D02*
G03*
X177165Y28622I-1969J0D01*
G01*
X168228Y19685D02*
G03*
X168228Y15748I0J-1969D01*
G01*
X172165D02*
G03*
X181102Y24685I0J8937D01*
G01*
X216535D02*
G03*
X221535Y19685I5000J0D01*
G01*
X225472Y15748D02*
G03*
X227441Y17717I0J1969D01*
G01*
X216535Y28622D02*
G03*
X214567Y30591I-1969J0D01*
G01*
X225472Y15748D02*
G03*
X225472Y19685I0J1969D01*
G01*
X216535Y28622D02*
G03*
X212598Y28622I-1969J0D01*
G01*
Y24685D02*
G03*
X221535Y15748I8937J0D01*
G01*
X369016Y19685D02*
G03*
X374016Y24685I0J5000D01*
G01*
X377953Y28622D02*
G03*
X375984Y30591I-1969J0D01*
G01*
X365079Y19685D02*
G03*
X363110Y17717I0J-1969D01*
G01*
X377953Y28622D02*
G03*
X374016Y28622I-1969J0D01*
G01*
X365079Y19685D02*
G03*
X365079Y15748I0J-1969D01*
G01*
X369016D02*
G03*
X377953Y24685I0J8937D01*
G01*
X177165Y369016D02*
G03*
X172165Y374016I-5000J0D01*
G01*
X0Y0D02*
X19685D01*
X-61516Y23185D02*
X-58016Y19685D01*
X-61516Y16185D02*
X-58016Y19685D01*
X-66016D02*
X-58016D01*
X-61516Y377516D02*
X-58016Y374016D01*
X-61516Y370516D02*
X-58016Y374016D01*
X-66016D02*
X-58016D01*
X-11500Y155000D02*
X-7563D01*
X-16500Y160000D02*
Y163937D01*
X-11500Y151063D02*
X-7563D01*
X-20437Y160000D02*
Y163937D01*
X-26500Y162000D02*
X-23000Y158500D01*
X-26500Y155000D02*
X-23000Y158500D01*
X-31000D02*
X-23000D01*
X-67535Y177165D02*
X-59535D01*
X-63036Y173665D02*
X-59535Y177165D01*
X-63036Y180665D02*
X-59535Y177165D01*
X-67535Y216535D02*
X-59535D01*
X-63036Y213035D02*
X-59535Y216535D01*
X-63036Y220035D02*
X-59535Y216535D01*
X374016Y-63685D02*
Y-55685D01*
X377516Y-59185D01*
X370516D02*
X374016Y-55685D01*
X216535Y-63685D02*
Y-55685D01*
X220035Y-59185D01*
X213035D02*
X216535Y-55685D01*
X177165Y-63685D02*
Y-55685D01*
X180665Y-59185D01*
X173665D02*
X177165Y-55685D01*
X19685Y-63685D02*
Y-55685D01*
X23185Y-59185D01*
X16185D02*
X19685Y-55685D01*
X393701Y0D02*
Y393701D01*
X0D02*
X393701D01*
X0Y0D02*
Y393701D01*
Y0D02*
X393701D01*
X374016D02*
X393701D01*
X374016Y393701D02*
X393701D01*
X0D02*
X19685D01*
Y365079D02*
Y369016D01*
X24685Y374016D02*
X28622D01*
X24685Y377953D02*
X28622D01*
X15748Y365079D02*
Y369016D01*
X24685Y216535D02*
X28622D01*
X19685Y221535D02*
Y225472D01*
X15748Y221535D02*
Y225472D01*
X24685Y212598D02*
X28622D01*
X177165Y221535D02*
Y225472D01*
X168228Y216535D02*
X172165D01*
X168228Y212598D02*
X172165D01*
X181102Y221535D02*
Y225472D01*
X168228Y374016D02*
X172165D01*
X177165Y365079D02*
Y369016D01*
X181102Y365079D02*
Y369016D01*
X168228Y377953D02*
X172165D01*
X216535Y365079D02*
Y369016D01*
X221535Y374016D02*
X225472D01*
X221535Y377953D02*
X225472D01*
X212598Y365079D02*
Y369016D01*
X365079Y374016D02*
X369016D01*
X374016Y365079D02*
Y369016D01*
X377953Y365079D02*
Y369016D01*
X365079Y377953D02*
X369016D01*
X221535Y216535D02*
X225472D01*
X216535Y221535D02*
Y225472D01*
X212598Y221535D02*
Y225472D01*
X221535Y212598D02*
X225472D01*
X374016Y221535D02*
Y225472D01*
X365079Y216535D02*
X369016D01*
X365079Y212598D02*
X369016D01*
X377953Y221535D02*
Y225472D01*
X365079Y177165D02*
X369016D01*
X374016Y168228D02*
Y172165D01*
X377953Y168228D02*
Y172165D01*
X365079Y181102D02*
X369016D01*
X216535Y168228D02*
Y172165D01*
X221535Y177165D02*
X225472D01*
X221535Y181102D02*
X225472D01*
X212598Y168228D02*
Y172165D01*
X168228Y177165D02*
X172165D01*
X177165Y168228D02*
Y172165D01*
X181102Y168228D02*
Y172165D01*
X168228Y181102D02*
X172165D01*
X19685Y168228D02*
Y172165D01*
X24685Y177165D02*
X28622D01*
X24685Y181102D02*
X28622D01*
X15748Y168228D02*
Y172165D01*
X24685Y19685D02*
X28622D01*
X19685Y24685D02*
Y28622D01*
X15748Y24685D02*
Y28622D01*
X24685Y15748D02*
X28622D01*
X177165Y24685D02*
Y28622D01*
X168228Y19685D02*
X172165D01*
X168228Y15748D02*
X172165D01*
X181102Y24685D02*
Y28622D01*
X221535Y19685D02*
X225472D01*
X216535Y24685D02*
Y28622D01*
X212598Y24685D02*
Y28622D01*
X221535Y15748D02*
X225472D01*
X374016Y24685D02*
Y28622D01*
X365079Y19685D02*
X369016D01*
X365079Y15748D02*
X369016D01*
X377953Y24685D02*
Y28622D01*
X-94516Y23183D02*
Y19184D01*
X-92516Y17185D01*
X-90517Y19184D01*
Y23183D01*
X-88518Y20184D02*
X-84519D01*
X-78521Y22183D02*
X-79521Y23183D01*
X-81520D01*
X-82520Y22183D01*
Y18185D01*
X-81520Y17185D01*
X-79521D01*
X-78521Y18185D01*
X-76522Y21184D02*
Y18185D01*
X-75522Y17185D01*
X-72523D01*
Y21184D01*
X-69524Y22183D02*
Y21184D01*
X-70524D01*
X-68524D01*
X-69524D01*
Y18185D01*
X-68524Y17185D01*
X-94516Y377514D02*
Y373515D01*
X-92516Y371516D01*
X-90517Y373515D01*
Y377514D01*
X-88518Y374515D02*
X-84519D01*
X-78521Y376514D02*
X-79521Y377514D01*
X-81520D01*
X-82520Y376514D01*
Y372515D01*
X-81520Y371516D01*
X-79521D01*
X-78521Y372515D01*
X-76522Y375515D02*
Y372515D01*
X-75522Y371516D01*
X-72523D01*
Y375515D01*
X-69524Y376514D02*
Y375515D01*
X-70524D01*
X-68524D01*
X-69524D01*
Y372515D01*
X-68524Y371516D01*
X-115500Y155500D02*
X-113501D01*
X-114500D01*
Y161498D01*
X-115500Y160498D01*
X-110502Y155500D02*
Y156500D01*
X-109502D01*
Y155500D01*
X-110502D01*
X-105503Y160498D02*
X-104504Y161498D01*
X-102504D01*
X-101505Y160498D01*
Y156500D01*
X-102504Y155500D01*
X-104504D01*
X-105503Y156500D01*
Y160498D01*
X-99505Y155500D02*
Y159499D01*
X-98506D01*
X-97506Y158499D01*
Y155500D01*
Y158499D01*
X-96506Y159499D01*
X-95507Y158499D01*
Y155500D01*
X-93507D02*
Y159499D01*
X-92507D01*
X-91508Y158499D01*
Y155500D01*
Y158499D01*
X-90508Y159499D01*
X-89508Y158499D01*
Y155500D01*
X-81511Y161498D02*
Y155500D01*
X-78512D01*
X-77512Y156500D01*
Y160498D01*
X-78512Y161498D01*
X-81511D01*
X-75513Y159499D02*
Y155500D01*
Y157499D01*
X-74513Y158499D01*
X-73514Y159499D01*
X-72514D01*
X-69515Y155500D02*
X-67515D01*
X-68515D01*
Y159499D01*
X-69515D01*
X-64517Y155500D02*
X-62517D01*
X-63517D01*
Y161498D01*
X-64517D01*
X-59518Y155500D02*
X-57519D01*
X-58518D01*
Y161498D01*
X-59518D01*
X-44523Y160498D02*
X-45523Y161498D01*
X-47522D01*
X-48522Y160498D01*
Y156500D01*
X-47522Y155500D01*
X-45523D01*
X-44523Y156500D01*
X-42524Y159499D02*
Y156500D01*
X-41524Y155500D01*
X-38525D01*
Y159499D01*
X-35526Y160498D02*
Y159499D01*
X-36526D01*
X-34526D01*
X-35526D01*
Y156500D01*
X-34526Y155500D01*
X-96035Y180663D02*
Y176665D01*
X-94036Y174665D01*
X-92037Y176665D01*
Y180663D01*
X-90037Y177664D02*
X-86039D01*
X-80041Y179664D02*
X-81040Y180663D01*
X-83040D01*
X-84039Y179664D01*
Y175665D01*
X-83040Y174665D01*
X-81040D01*
X-80041Y175665D01*
X-78041Y178664D02*
Y175665D01*
X-77042Y174665D01*
X-74043D01*
Y178664D01*
X-71043Y179664D02*
Y178664D01*
X-72043D01*
X-70044D01*
X-71043D01*
Y175665D01*
X-70044Y174665D01*
X-96035Y220034D02*
Y216035D01*
X-94036Y214035D01*
X-92037Y216035D01*
Y220034D01*
X-90037Y217035D02*
X-86039D01*
X-80041Y219034D02*
X-81040Y220034D01*
X-83040D01*
X-84039Y219034D01*
Y215035D01*
X-83040Y214035D01*
X-81040D01*
X-80041Y215035D01*
X-78041Y218034D02*
Y215035D01*
X-77042Y214035D01*
X-74043D01*
Y218034D01*
X-71043Y219034D02*
Y218034D01*
X-72043D01*
X-70044D01*
X-71043D01*
Y215035D01*
X-70044Y214035D01*
X370518Y-92185D02*
X374516D01*
X376516Y-90186D01*
X374516Y-88186D01*
X370518D01*
X373517Y-86187D02*
Y-82188D01*
X371517Y-76190D02*
X370518Y-77190D01*
Y-79189D01*
X371517Y-80189D01*
X375516D01*
X376516Y-79189D01*
Y-77190D01*
X375516Y-76190D01*
X372517Y-74191D02*
X375516D01*
X376516Y-73191D01*
Y-70192D01*
X372517D01*
X371517Y-67193D02*
X372517D01*
Y-68193D01*
Y-66193D01*
Y-67193D01*
X375516D01*
X376516Y-66193D01*
X213037Y-92185D02*
X217036D01*
X219035Y-90186D01*
X217036Y-88186D01*
X213037D01*
X216036Y-86187D02*
Y-82188D01*
X214037Y-76190D02*
X213037Y-77190D01*
Y-79189D01*
X214037Y-80189D01*
X218036D01*
X219035Y-79189D01*
Y-77190D01*
X218036Y-76190D01*
X215037Y-74191D02*
X218036D01*
X219035Y-73191D01*
Y-70192D01*
X215037D01*
X214037Y-67193D02*
X215037D01*
Y-68193D01*
Y-66193D01*
Y-67193D01*
X218036D01*
X219035Y-66193D01*
X173667Y-92185D02*
X177666D01*
X179665Y-90186D01*
X177666Y-88186D01*
X173667D01*
X176666Y-86187D02*
Y-82188D01*
X174667Y-76190D02*
X173667Y-77190D01*
Y-79189D01*
X174667Y-80189D01*
X178666D01*
X179665Y-79189D01*
Y-77190D01*
X178666Y-76190D01*
X175667Y-74191D02*
X178666D01*
X179665Y-73191D01*
Y-70192D01*
X175667D01*
X174667Y-67193D02*
X175667D01*
Y-68193D01*
Y-66193D01*
Y-67193D01*
X178666D01*
X179665Y-66193D01*
X16187Y-92185D02*
X20186D01*
X22185Y-90186D01*
X20186Y-88186D01*
X16187D01*
X19186Y-86187D02*
Y-82188D01*
X17187Y-76190D02*
X16187Y-77190D01*
Y-79189D01*
X17187Y-80189D01*
X21185D01*
X22185Y-79189D01*
Y-77190D01*
X21185Y-76190D01*
X18186Y-74191D02*
X21185D01*
X22185Y-73191D01*
Y-70192D01*
X18186D01*
X17187Y-67193D02*
X18186D01*
Y-68193D01*
Y-66193D01*
Y-67193D01*
X21185D01*
X22185Y-66193D01*
D65*
X19685Y-55685D02*
Y458016D01*
X177165Y-55685D02*
Y458016D01*
X-58016Y19685D02*
X455685D01*
X-59535Y177165D02*
X454165D01*
X-59535Y216535D02*
X454165D01*
X374016Y-55685D02*
Y458016D01*
X216535Y-55685D02*
Y458016D01*
X19685Y-55685D02*
Y458016D01*
X-58016Y374016D02*
X455685D01*
M02*
