M48
;Layer_Color=9474304
;FILE_FORMAT=2:5
INCH,TZ
;TYPE=PLATED
T1F00S00C0.01200
T2F00S00C0.02953
T3F00S00C0.03937
T4F00S00C0.04331
T6F00S00C0.05000
T7F00S00C0.06299
;TYPE=NON_PLATED
T8F00S00C0.01968
%
T01
X270516Y39085
X282516Y59085
X283016Y69985
X282416Y79485
X289016Y84885
X293391Y86685
Y89161
X295916Y89185
Y86685
X305990Y85785
X306016Y88285
X308516
Y85785
X314258Y79527
X318016Y68385
X328462Y64531
X333116Y59985
X337116Y46185
X320116Y32685
X299616Y32485
X309616Y60185
X308016Y101685
X296541Y105610
X293391Y107909
X292716Y99285
X286240Y100709
X286290Y103859
X286191Y97560
X278242Y90211
X264916Y86085
X269216Y79885
X281974Y110927
X308716Y120585
X311616Y123085
X342616Y119585
Y117085
X345116
Y119606
X336216Y107385
X336416Y83085
X256116Y84085
X246916Y89385
X253116Y70285
X256016Y57585
X241216Y39185
X133785Y54065
Y56565
Y62665
X116485Y66665
Y69165
X113985Y66665
X111485
X111727Y85924
X115459Y106639
X111285Y117365
X124485Y116965
X128785Y110765
X137585Y112765
X146785Y107465
X104685Y111965
X100310Y110165
Y107690
X97785Y107665
Y110165
X87711Y111065
X87685Y108565
X85185
Y111065
X79443Y117324
X57285Y113765
X57485Y89465
X51085Y79765
X48585
Y77245
X51085Y77265
X49885Y67402
X49785Y59528
X63985Y59565
Y52365
X72285Y51365
Y47565
X71931Y29919
X81185
X62432
X48985Y37665
Y40165
Y42665
X63985Y67365
X82085Y73765
X84985Y76265
X85685Y95165
X97160Y91240
X100310Y88941
X100985Y97565
X107461Y96141
X107411Y92991
X107510Y99291
X102185Y50665
X85185Y56465
X84085Y136665
X75685Y128465
X65239Y132319
X60585Y136865
X56585Y150665
X73585Y164165
X94085Y164365
X81185Y226769
X71931
X62432
X48985Y234516
Y237016
Y239516
X49785Y256379
X49885Y264253
X51085Y274116
Y276616
X48585
Y274095
X63985Y264216
Y256416
Y249216
X72285Y248216
Y244416
X85185Y253316
X84985Y273116
X82085Y270616
X102185Y247516
X111485Y263516
X113985
X116485
Y266016
X133785Y259516
Y253416
Y250916
X123185Y157765
X152485Y157665
X137685Y139265
X140585Y126565
X110685Y126865
X111185Y137765
X259916Y140285
Y142785
Y134185
X241216Y236035
X256016Y254435
X253116Y267135
X256116Y280935
X269216Y276735
X282416Y276335
X283016Y266835
X282516Y255935
X309616Y257035
X318016Y265235
X328462Y261382
X333116Y256835
X337116Y243035
X320116Y229535
X299616Y229335
X270516Y235935
X289016Y281735
X314258Y276377
X336416Y279935
X331269Y166931
X321769
X312516
X321416Y149285
Y145485
X329716Y144485
Y137285
Y129485
X343816Y129448
X343916Y137322
X344716Y154185
Y156685
Y159185
X308516Y140385
X291516Y146185
X282216Y130185
X279716
X277216
Y127685
X278242Y287061
X286191Y294410
X286240Y297560
X286290Y300710
X292716Y296135
X293391Y304760
X296541Y302461
X308016Y298535
X308516Y285135
X306016
X305990Y282635
X308516
X295916Y283535
Y286035
X293391Y286011
Y283535
X264916Y282935
X281974Y307777
X282216Y327035
X279716
X277216
Y324535
X291516Y343035
X308516Y337235
X321416Y342335
Y346135
X329716Y341335
Y334135
Y326335
X343816Y326298
X343916Y334172
X344716Y351035
Y353535
Y356035
X331269Y363782
X321769
X312516
X311616Y319935
X308716Y317435
X342616Y316435
Y313935
X345116
Y316456
X336216Y304235
X259916Y331035
Y337135
Y339635
X246916Y286235
X146785Y304316
X137585Y309616
X128785Y307616
X124485Y313816
X111285Y314216
X110685Y323716
X111185Y334616
X137685Y336116
X140585Y323416
X152485Y354516
X123185Y354616
X115459Y303490
X111727Y282774
X107411Y289842
X107461Y292991
X107510Y296141
X100985Y294416
X100310Y285791
X97160Y288090
X85685Y292016
X85185Y305416
X87685
X87711Y307916
X85185
X79443Y314174
X75685Y325316
X65239Y329169
X60585Y333716
X56585Y347516
X73585Y361016
X94085Y361216
X84085Y333516
X97785Y307016
Y304516
X100310Y304540
Y307016
X104685Y308816
X57285Y310616
X57485Y286316
T02
X354716Y32305
Y46085
Y67106
Y80885
X38985Y115965
Y129745
Y150765
Y164545
X354716Y229156
Y242935
Y263956
Y277735
X38985Y312816
Y326595
Y347616
Y361395
T03
X157285Y34865
Y44865
Y54865
Y67365
Y77365
Y87365
Y99765
Y109765
Y119765
X236416Y119485
Y109485
Y97085
Y87085
Y77085
Y129485
Y141985
Y151985
Y161985
Y273935
X157285Y274216
Y264216
Y251716
Y241716
Y231716
Y284216
Y296616
Y306616
Y316616
X236416Y316335
Y326335
Y338835
Y348835
Y358835
Y306335
Y293935
Y283935
T04
X362886Y124527
X30815Y72324
Y54607
Y251458
Y269174
X362886Y142243
Y321377
Y339094
T06
X265858Y49970
X275701
X289931
X299773
X319458
X329301
X309616Y30285
X256016
X246173Y49970
X236331
X103770Y146880
X93928
X74243
X64400
X84085Y166565
X137685
X127842Y146880
X118000
X147528
X157370
X256016Y227135
X246173Y246820
X236331
X265858
X275701
X289931
X299773
X319458
X329301
X309616Y227135
X157370Y343731
X147528
X127842
X118000
X137685Y363416
X84085
X74243Y343731
X64400
X93928
X103770
T07
X275701Y30285
X289931
X329301
X309616Y49970
X256016
X236331Y30285
X103770Y166565
X64400
X84085Y146880
X118000Y166565
X157370
X137685Y146880
X236331Y227135
X256016Y246820
X275701Y227135
X289931
X329301
X309616Y246820
X157370Y363416
X118000
X137685Y343731
X103770Y363416
X64400
X84085Y343731
T08
X131601Y118665
X262100Y78185
Y275035
X131601Y315516
M30
