%FSLAX25Y25*%
%MOIN*%
G70*
G01*
G75*
G04 Layer_Physical_Order=1*
G04 Layer_Color=255*
%ADD10R,0.03150X0.03150*%
%ADD11R,0.06299X0.03937*%
%ADD12R,0.09843X0.04331*%
%ADD13C,0.04000*%
%ADD14C,0.02000*%
%ADD15C,0.01575*%
G04:AMPARAMS|DCode=16|XSize=59.06mil|YSize=59.06mil|CornerRadius=14.76mil|HoleSize=0mil|Usage=FLASHONLY|Rotation=270.000|XOffset=0mil|YOffset=0mil|HoleType=Round|Shape=RoundedRectangle|*
%AMROUNDEDRECTD16*
21,1,0.05906,0.02953,0,0,270.0*
21,1,0.02953,0.05906,0,0,270.0*
1,1,0.02953,-0.01476,-0.01476*
1,1,0.02953,-0.01476,0.01476*
1,1,0.02953,0.01476,0.01476*
1,1,0.02953,0.01476,-0.01476*
%
%ADD16ROUNDEDRECTD16*%
%ADD17C,0.05906*%
%ADD18C,0.03937*%
G04:AMPARAMS|DCode=19|XSize=98.43mil|YSize=98.43mil|CornerRadius=24.61mil|HoleSize=0mil|Usage=FLASHONLY|Rotation=270.000|XOffset=0mil|YOffset=0mil|HoleType=Round|Shape=RoundedRectangle|*
%AMROUNDEDRECTD19*
21,1,0.09843,0.04921,0,0,270.0*
21,1,0.04921,0.09843,0,0,270.0*
1,1,0.04921,-0.02461,-0.02461*
1,1,0.04921,-0.02461,0.02461*
1,1,0.04921,0.02461,0.02461*
1,1,0.04921,0.02461,-0.02461*
%
%ADD19ROUNDEDRECTD19*%
%ADD20O,0.08000X0.11811*%
%ADD21R,0.07500X0.07500*%
%ADD22O,0.17716X0.07874*%
%ADD23C,0.03150*%
%ADD24C,0.02400*%
G36*
X296016Y91185D02*
Y91220D01*
X296718Y91081D01*
X297313Y90683D01*
X297711Y90087D01*
X297851Y89385D01*
X297816Y89285D01*
X297896D01*
X297839Y89262D01*
X297808Y89185D01*
X297816Y86685D01*
X297855D01*
X297700Y85905D01*
X297258Y85243D01*
X296596Y84801D01*
X295816Y84646D01*
X293416Y84685D01*
Y84646D01*
X292635Y84801D01*
X291974Y85243D01*
X291532Y85905D01*
X291377Y86685D01*
X291416Y89185D01*
X291377D01*
X291532Y89965D01*
X291974Y90627D01*
X292635Y91069D01*
X293416Y91224D01*
X296016Y91185D01*
D02*
G37*
G36*
X111785Y268516D02*
X116385Y268538D01*
X116681Y268499D01*
X116724Y268508D01*
X125608Y268494D01*
Y268542D01*
X127568Y268349D01*
X129453Y267777D01*
X131190Y266848D01*
X132713Y265599D01*
X133962Y264076D01*
X134891Y262339D01*
X135463Y260454D01*
X135656Y258493D01*
X135608Y251516D01*
X135632D01*
X135446Y250579D01*
X134915Y249785D01*
X134122Y249255D01*
X133185Y249069D01*
Y249116D01*
X128585Y249152D01*
X127095Y249006D01*
X125663Y248571D01*
X124342Y247866D01*
X123185Y246916D01*
X122235Y245759D01*
X121530Y244438D01*
X121095Y243006D01*
X120948Y241516D01*
X120985D01*
X121020Y235916D01*
X120882Y234872D01*
X120479Y233898D01*
X119838Y233063D01*
X119002Y232422D01*
X118029Y232019D01*
X116985Y231881D01*
Y231916D01*
X93585Y231889D01*
X92776Y231996D01*
X92022Y232308D01*
X91452Y232745D01*
X90899Y232321D01*
X90120Y231998D01*
X89285Y231888D01*
X50885Y231916D01*
Y231882D01*
X49867Y232016D01*
X48918Y232409D01*
X48103Y233034D01*
X47478Y233849D01*
X47085Y234798D01*
X46951Y235816D01*
X46985Y241516D01*
X48069D01*
X48057Y246074D01*
X48165Y246336D01*
X48185Y246316D01*
X49985D01*
X51822Y244410D01*
X53345Y243161D01*
X55082Y242232D01*
X56967Y241660D01*
X58436Y241516D01*
X89185D01*
Y241544D01*
X90047Y241431D01*
X90849Y241098D01*
X91539Y240569D01*
X91651Y240423D01*
X92836Y239450D01*
X94351Y238640D01*
X95994Y238142D01*
X97467Y237997D01*
X97703Y237996D01*
Y238016D01*
X99385D01*
X99385Y237992D01*
X103885Y237980D01*
X104982Y238124D01*
X106003Y238547D01*
X106880Y239220D01*
X107554Y240098D01*
X107977Y241119D01*
X108121Y242216D01*
X108085D01*
X108053Y264816D01*
X108180Y265782D01*
X108553Y266682D01*
X109146Y267455D01*
X109919Y268048D01*
X110819Y268421D01*
X111785Y268548D01*
Y268516D01*
D02*
G37*
G36*
X150212Y262442D02*
X150511Y262187D01*
X150511Y262187D01*
X150511Y262187D01*
X150847Y261981D01*
X151210Y261831D01*
X151593Y261739D01*
X151985Y261708D01*
X152035D01*
Y258966D01*
X162277D01*
Y246966D01*
X152035D01*
Y246819D01*
X151111Y246436D01*
X147993Y249554D01*
Y263355D01*
X148917Y263738D01*
X150212Y262442D01*
D02*
G37*
G36*
X308716Y90285D02*
Y90320D01*
X309413Y90181D01*
X310004Y89786D01*
X310399Y89195D01*
X310538Y88498D01*
X310503Y85785D01*
X310542D01*
X310387Y85005D01*
X309945Y84343D01*
X309283Y83901D01*
X308503Y83746D01*
X306016Y83785D01*
Y83746D01*
X305235Y83901D01*
X304574Y84343D01*
X304132Y85005D01*
X303977Y85785D01*
X304016Y88285D01*
X303977D01*
X304132Y89065D01*
X304574Y89727D01*
X305235Y90169D01*
X306016Y90324D01*
X308716Y90285D01*
D02*
G37*
G36*
X297916Y286135D02*
X297896D01*
X297916Y286144D01*
Y286135D01*
D02*
G37*
G36*
X296016Y288035D02*
Y288071D01*
X296718Y287931D01*
X297313Y287533D01*
X297711Y286938D01*
X297851Y286235D01*
X297816Y286135D01*
X297896D01*
X297839Y286112D01*
X297808Y286035D01*
X297816Y283535D01*
X297855D01*
X297700Y282755D01*
X297258Y282094D01*
X296596Y281651D01*
X295816Y281496D01*
X293416Y281535D01*
Y281496D01*
X292635Y281651D01*
X291974Y282094D01*
X291532Y282755D01*
X291377Y283535D01*
X291416Y286035D01*
X291377D01*
X291532Y286816D01*
X291974Y287477D01*
X292635Y287919D01*
X293416Y288075D01*
X296016Y288035D01*
D02*
G37*
G36*
X308716Y287135D02*
Y287170D01*
X309413Y287032D01*
X310004Y286637D01*
X310399Y286046D01*
X310538Y285348D01*
X310503Y282635D01*
X310542D01*
X310387Y281855D01*
X309945Y281193D01*
X309283Y280751D01*
X308503Y280596D01*
X306016Y280635D01*
Y280596D01*
X305235Y280751D01*
X304574Y281193D01*
X304132Y281855D01*
X303977Y282635D01*
X304016Y285135D01*
X303977D01*
X304132Y285916D01*
X304574Y286577D01*
X305235Y287019D01*
X306016Y287175D01*
X308716Y287135D01*
D02*
G37*
G36*
X245708Y144146D02*
Y130346D01*
X244784Y129963D01*
X243489Y131258D01*
X243190Y131514D01*
X243190Y131514D01*
X243190Y131514D01*
X242854Y131719D01*
X242491Y131870D01*
X242108Y131962D01*
X241716Y131993D01*
X241666D01*
Y134735D01*
X231423D01*
Y146735D01*
X241666D01*
Y146882D01*
X242590Y147265D01*
X245708Y144146D01*
D02*
G37*
G36*
X276716Y161785D02*
X300116Y161812D01*
X300925Y161705D01*
X301679Y161393D01*
X302249Y160956D01*
X302802Y161380D01*
X303580Y161703D01*
X304416Y161813D01*
X342816Y161785D01*
Y161819D01*
X343834Y161685D01*
X344783Y161292D01*
X345597Y160667D01*
X346222Y159852D01*
X346615Y158903D01*
X346749Y157885D01*
X346716Y152185D01*
X345632D01*
X345644Y147626D01*
X345536Y147365D01*
X345516Y147385D01*
X343716D01*
X341879Y149290D01*
X340356Y150540D01*
X338619Y151469D01*
X336734Y152040D01*
X335265Y152185D01*
X304516D01*
Y152157D01*
X303654Y152270D01*
X302852Y152603D01*
X302162Y153131D01*
X302050Y153278D01*
X300864Y154251D01*
X299350Y155060D01*
X297706Y155559D01*
X296234Y155704D01*
X295997Y155705D01*
Y155685D01*
X294316D01*
X294316Y155709D01*
X289816Y155721D01*
X288719Y155577D01*
X287698Y155154D01*
X286820Y154481D01*
X286147Y153603D01*
X285724Y152582D01*
X285579Y151485D01*
X285616D01*
X285648Y128885D01*
X285521Y127919D01*
X285148Y127019D01*
X284555Y126246D01*
X283782Y125653D01*
X282882Y125280D01*
X281916Y125153D01*
Y125185D01*
X277316Y125163D01*
X277020Y125201D01*
X276976Y125193D01*
X268093Y125207D01*
Y125159D01*
X266133Y125352D01*
X264248Y125924D01*
X262511Y126852D01*
X260988Y128102D01*
X259738Y129625D01*
X258810Y131362D01*
X258238Y133247D01*
X258045Y135207D01*
X258093Y142185D01*
X258069D01*
X258255Y143122D01*
X258785Y143915D01*
X259579Y144446D01*
X260516Y144632D01*
Y144585D01*
X265116Y144548D01*
X266606Y144695D01*
X268038Y145130D01*
X269358Y145835D01*
X270516Y146785D01*
X271465Y147942D01*
X272171Y149263D01*
X272606Y150695D01*
X272752Y152185D01*
X272716D01*
X272681Y157785D01*
X272819Y158829D01*
X273222Y159802D01*
X273863Y160638D01*
X274698Y161279D01*
X275672Y161682D01*
X276716Y161820D01*
Y161785D01*
D02*
G37*
G36*
X366216Y173265D02*
Y173265D01*
X366224Y173273D01*
X366726Y173240D01*
X367227Y173141D01*
X367711Y172976D01*
X368170Y172750D01*
X368595Y172466D01*
X368979Y172129D01*
X369317Y171745D01*
X369601Y171319D01*
X369827Y170861D01*
X369991Y170377D01*
X370091Y169876D01*
X370124Y169365D01*
X370124Y161648D01*
X369325Y161047D01*
X369019Y161135D01*
X368417Y161237D01*
X367807Y161272D01*
X357965D01*
X357355Y161237D01*
X356753Y161135D01*
X356166Y160966D01*
X355602Y160732D01*
X355067Y160437D01*
X354569Y160083D01*
X354114Y159677D01*
X353707Y159221D01*
X353354Y158723D01*
X353058Y158189D01*
X352825Y157624D01*
X352656Y157038D01*
X352553Y156436D01*
X352519Y155826D01*
X352553Y155216D01*
X352656Y154614D01*
X352825Y154027D01*
X353058Y153463D01*
X353354Y152929D01*
X353707Y152431D01*
X354114Y151975D01*
X354350Y151764D01*
X353994Y150830D01*
X348223D01*
Y152224D01*
X348257Y157876D01*
X348247Y157979D01*
X348244Y158082D01*
X348110Y159100D01*
X348098Y159148D01*
X348094Y159197D01*
X348065Y159292D01*
X348043Y159388D01*
X348022Y159433D01*
X348008Y159480D01*
X347615Y160429D01*
X347592Y160472D01*
X347574Y160519D01*
X347522Y160602D01*
X347476Y160689D01*
X347444Y160728D01*
X347418Y160769D01*
X346793Y161584D01*
X346759Y161620D01*
X346730Y161660D01*
X346658Y161728D01*
X346591Y161800D01*
X346551Y161828D01*
X346515Y161862D01*
X345700Y162487D01*
X345658Y162514D01*
X345620Y162545D01*
X345533Y162591D01*
X345449Y162644D01*
X345403Y162661D01*
X345359Y162684D01*
X344411Y163077D01*
X344363Y163092D01*
X344318Y163112D01*
X344222Y163134D01*
X344128Y163163D01*
X344079Y163168D01*
X344031Y163179D01*
X343012Y163313D01*
X342914Y163316D01*
X342816Y163326D01*
X342766Y163321D01*
X342717Y163323D01*
X342620Y163307D01*
X342522Y163297D01*
X342507Y163293D01*
X338091Y163296D01*
X338091Y163313D01*
D01*
D01*
Y163857D01*
X338090D01*
Y170006D01*
X331941D01*
Y170006D01*
X331693Y169606D01*
X331693Y169606D01*
X331269Y169640D01*
X330846Y169606D01*
X330432Y169507D01*
X330040Y169345D01*
X329677Y169123D01*
X329499Y168970D01*
X328871Y169260D01*
X328590Y169499D01*
Y170006D01*
X322441D01*
Y170006D01*
X322193Y169606D01*
X322193Y169606D01*
X321769Y169640D01*
X321346Y169606D01*
X320932Y169507D01*
X320540Y169345D01*
X320177Y169123D01*
X319999Y168970D01*
X319371Y169260D01*
X319091Y169499D01*
Y170006D01*
X312941D01*
Y170006D01*
Y170005D01*
Y170006D01*
X312939Y169606D01*
Y169606D01*
X312516Y169640D01*
X312092Y169606D01*
X311679Y169507D01*
X311286Y169345D01*
X310924Y169123D01*
X310601Y168847D01*
X310325Y168523D01*
X310103Y168161D01*
X309940Y167768D01*
X309841Y167355D01*
X309807Y166931D01*
X309841Y166508D01*
X309940Y166095D01*
X310103Y165702D01*
X310325Y165340D01*
X310601Y165016D01*
X310924Y164740D01*
X311286Y164518D01*
X311679Y164356D01*
X311879Y164308D01*
X311761Y163315D01*
X304417Y163320D01*
X304318Y163310D01*
X304219Y163307D01*
X304109Y163293D01*
X300416D01*
X300312Y163306D01*
X300213Y163309D01*
X300114Y163319D01*
X277027Y163293D01*
X277010Y163298D01*
X276912Y163307D01*
X276814Y163324D01*
X276765Y163322D01*
X276716Y163327D01*
X276618Y163317D01*
X276519Y163314D01*
X275475Y163177D01*
X275427Y163165D01*
X275377Y163160D01*
X275283Y163132D01*
X275187Y163109D01*
X275142Y163089D01*
X275095Y163075D01*
X274122Y162672D01*
X274078Y162648D01*
X274032Y162631D01*
X273948Y162579D01*
X273861Y162532D01*
X273823Y162501D01*
X273781Y162475D01*
X272945Y161834D01*
X272909Y161800D01*
X272869Y161771D01*
X272802Y161699D01*
X272730Y161632D01*
X272701Y161591D01*
X272667Y161555D01*
X272026Y160720D01*
X272000Y160678D01*
X271969Y160640D01*
X271922Y160553D01*
X271870Y160469D01*
X271852Y160423D01*
X271829Y160379D01*
X271426Y159406D01*
X271412Y159359D01*
X271391Y159314D01*
X271369Y159218D01*
X271340Y159123D01*
X271336Y159074D01*
X271324Y159026D01*
X271187Y157982D01*
X271183Y157878D01*
X271174Y157776D01*
X271209Y152176D01*
X271223Y152035D01*
X271120Y150991D01*
X270772Y149842D01*
X270206Y148784D01*
X269445Y147856D01*
X268517Y147095D01*
X268371Y147017D01*
X267414Y147307D01*
X267333Y147458D01*
X267333D01*
X267333Y147458D01*
Y154395D01*
X258034D01*
Y153292D01*
X257870Y153224D01*
X257719Y153161D01*
X257383Y152956D01*
X257084Y152700D01*
X255347Y150963D01*
X254423Y151346D01*
Y160746D01*
X258852Y165175D01*
X267333D01*
Y172112D01*
X258034D01*
Y171037D01*
X257999Y171028D01*
X257635Y170878D01*
X257300Y170672D01*
X257001Y170417D01*
X250143Y163558D01*
X249887Y163259D01*
X249681Y162924D01*
X249531Y162560D01*
X249439Y162177D01*
X249408Y161785D01*
Y148846D01*
X248484Y148463D01*
X243189Y153758D01*
X242890Y154014D01*
X242554Y154219D01*
X242191Y154370D01*
X241808Y154462D01*
X241808D01*
X241808Y154462D01*
X241666Y154746D01*
Y167235D01*
X231166D01*
Y165476D01*
X230958Y165463D01*
X230508Y165373D01*
X230073Y165226D01*
X229662Y165023D01*
X229280Y164768D01*
X229119Y164626D01*
X228936Y164465D01*
X225436Y160965D01*
X225133Y160620D01*
X224878Y160239D01*
X224675Y159827D01*
X224528Y159393D01*
X224438Y158943D01*
X224408Y158485D01*
Y133085D01*
X224438Y132627D01*
X224528Y132177D01*
X224675Y131743D01*
X224878Y131331D01*
X225133Y130950D01*
X225436Y130605D01*
X229036Y127005D01*
X229380Y126702D01*
X229762Y126447D01*
X230173Y126244D01*
X230608Y126097D01*
X231058Y126007D01*
X231166Y126000D01*
Y114235D01*
X241666D01*
Y114582D01*
X242590Y114965D01*
X278838Y78717D01*
X278455Y77793D01*
X269576D01*
X264592Y78185D01*
X264561Y78575D01*
X264470Y78955D01*
X264320Y79316D01*
X264116Y79650D01*
X263862Y79947D01*
X263565Y80201D01*
X263231Y80405D01*
X262870Y80555D01*
X262490Y80646D01*
X262100Y80677D01*
X261710Y80646D01*
X261330Y80555D01*
X260969Y80405D01*
X260635Y80201D01*
X260338Y79947D01*
X260084Y79650D01*
X259880Y79316D01*
X259730Y78955D01*
X259639Y78575D01*
X259608Y78185D01*
D01*
D01*
D01*
X259608Y78185D01*
X259608Y78185D01*
D01*
X259608Y78185D01*
X259637Y77793D01*
X255054D01*
X247442Y85405D01*
X247384Y86143D01*
X248063Y86877D01*
X249777D01*
X253635Y83020D01*
X253703Y82855D01*
X253925Y82493D01*
X254201Y82170D01*
X254524Y81894D01*
X254886Y81672D01*
X255279Y81509D01*
X255692Y81410D01*
X256116Y81377D01*
X256539Y81410D01*
X256953Y81509D01*
X257345Y81672D01*
X257708Y81894D01*
X258031Y82170D01*
X258307Y82493D01*
X258529Y82855D01*
X258692Y83248D01*
X258791Y83661D01*
X258824Y84085D01*
X258791Y84509D01*
X258692Y84922D01*
X258529Y85315D01*
X258307Y85677D01*
X258031Y86000D01*
X257708Y86276D01*
X257345Y86498D01*
X257181Y86566D01*
X252589Y91158D01*
X252290Y91414D01*
X251954Y91619D01*
X251591Y91770D01*
X251208Y91862D01*
X250816Y91893D01*
X247917D01*
X247753Y91961D01*
X247339Y92060D01*
X246916Y92093D01*
X246492Y92060D01*
X246079Y91961D01*
X245686Y91798D01*
X245324Y91576D01*
X245001Y91300D01*
X244725Y90977D01*
X244503Y90615D01*
X244340Y90222D01*
X244241Y89809D01*
X244207Y89385D01*
X243354Y89319D01*
X242991Y89470D01*
X242608Y89562D01*
X242216Y89593D01*
X241666D01*
Y102335D01*
X231166D01*
Y71835D01*
X241666D01*
Y82782D01*
X242590Y83165D01*
X251059Y74695D01*
X251886Y72698D01*
X251524Y72476D01*
X251201Y72200D01*
X250925Y71877D01*
X250703Y71515D01*
X250540Y71122D01*
X250441Y70709D01*
X250407Y70285D01*
X250441Y69861D01*
X250540Y69448D01*
X250703Y69055D01*
X250925Y68693D01*
X251201Y68370D01*
X251524Y68094D01*
X251886Y67872D01*
X252279Y67709D01*
X252692Y67610D01*
X253116Y67577D01*
X253539Y67610D01*
X253953Y67709D01*
X254117Y67777D01*
X274477D01*
X279443Y62812D01*
X279742Y62556D01*
X280077Y62351D01*
X280441Y62200D01*
X280823Y62108D01*
X281216Y62077D01*
X290916D01*
X291308Y62108D01*
X291691Y62200D01*
X292054Y62351D01*
X292390Y62556D01*
X292390Y62556D01*
X292390Y62556D01*
X292689Y62812D01*
X295755Y65877D01*
X317015D01*
X317179Y65809D01*
X317592Y65710D01*
X318016Y65677D01*
X318439Y65710D01*
X318853Y65809D01*
X319245Y65972D01*
X319608Y66194D01*
X319931Y66470D01*
X320207Y66793D01*
X320429Y67155D01*
X320591Y67548D01*
X320606Y67607D01*
X321568Y67879D01*
X325981Y63466D01*
X326049Y63302D01*
X326271Y62940D01*
X326547Y62616D01*
X326870Y62340D01*
X327233Y62118D01*
X327625Y61956D01*
X328039Y61857D01*
X328462Y61823D01*
X328886Y61857D01*
X329299Y61956D01*
X329692Y62118D01*
X330054Y62340D01*
X330377Y62616D01*
X330653Y62940D01*
X330875Y63302D01*
X331018Y63647D01*
X331138Y63670D01*
X332496Y63345D01*
X332496Y63345D01*
X332496Y63345D01*
X350288Y45552D01*
X350292Y45503D01*
X350406Y44930D01*
X350593Y44377D01*
X350851Y43854D01*
X351176Y43369D01*
X351560Y42930D01*
X351999Y42545D01*
X352485Y42221D01*
X353008Y41962D01*
X353561Y41775D01*
X354133Y41661D01*
X354716Y41623D01*
X355298Y41661D01*
X355871Y41775D01*
X356423Y41962D01*
X356947Y42221D01*
X357432Y42545D01*
X357871Y42930D01*
X358256Y43369D01*
X358580Y43854D01*
X358838Y44377D01*
X359026Y44930D01*
X359140Y45503D01*
X359178Y46085D01*
X359140Y46668D01*
X359026Y47240D01*
X358838Y47793D01*
X358580Y48316D01*
X358256Y48801D01*
X357871Y49240D01*
X357432Y49625D01*
X356947Y49949D01*
X356423Y50208D01*
X355871Y50395D01*
X355298Y50509D01*
X355249Y50512D01*
X317496Y88265D01*
X317151Y88568D01*
X316770Y88823D01*
X316358Y89026D01*
X316211Y89076D01*
X315924Y89173D01*
X315474Y89262D01*
X315016Y89293D01*
X311916D01*
X311877Y89489D01*
X311877Y89489D01*
X311799Y89747D01*
X311792Y89772D01*
D01*
X311792Y89772D01*
X311737Y89875D01*
X311652Y90033D01*
X311652Y90033D01*
X311257Y90624D01*
X311257Y90624D01*
X311070Y90852D01*
X311070Y90852D01*
X311070Y90852D01*
X310947Y90953D01*
X310841Y91040D01*
X310250Y91435D01*
X310250Y91435D01*
X310008Y91564D01*
X309990Y91574D01*
D01*
X309990Y91574D01*
X309905Y91600D01*
X309707Y91660D01*
X309707Y91660D01*
X309010Y91798D01*
X309010Y91798D01*
X308716Y91827D01*
X308716D01*
D01*
X308422Y91798D01*
X308417Y91797D01*
X306038Y91831D01*
X306027Y91830D01*
X306016Y91831D01*
X305880Y91818D01*
X305743Y91807D01*
X305733Y91804D01*
X305722Y91803D01*
X304941Y91647D01*
X304941D01*
X304659Y91562D01*
X304643Y91553D01*
X304072Y92324D01*
X304052Y92361D01*
X304869Y93177D01*
X337463D01*
X350288Y80352D01*
X350292Y80303D01*
X350406Y79730D01*
X350593Y79177D01*
X350851Y78654D01*
X351176Y78169D01*
X351560Y77730D01*
X351999Y77345D01*
X352485Y77021D01*
X353008Y76762D01*
X353561Y76575D01*
X354133Y76461D01*
X354716Y76423D01*
X355298Y76461D01*
X355871Y76575D01*
X356423Y76762D01*
X356947Y77021D01*
X357432Y77345D01*
X357871Y77730D01*
X358256Y78169D01*
X358580Y78654D01*
X358838Y79177D01*
X359026Y79730D01*
X359140Y80303D01*
X359178Y80885D01*
X359140Y81467D01*
X359026Y82040D01*
X358838Y82593D01*
X358580Y83116D01*
X358256Y83601D01*
X357871Y84040D01*
X357432Y84425D01*
X356947Y84750D01*
X356423Y85008D01*
X355871Y85195D01*
X355298Y85309D01*
X355249Y85312D01*
X341396Y99165D01*
X341051Y99468D01*
X340669Y99723D01*
X340258Y99926D01*
X339824Y100073D01*
X339374Y100162D01*
X339374Y100163D01*
X339374Y100162D01*
X339374D01*
X338916Y100193D01*
X303416D01*
X302958Y100162D01*
X302868Y100145D01*
X302508Y100073D01*
X302221Y99976D01*
X302074Y99926D01*
X301662Y99723D01*
X301280Y99468D01*
X301119Y99326D01*
X300936Y99165D01*
X294486Y92716D01*
X293439Y92731D01*
X293427Y92730D01*
X293416Y92731D01*
X293280Y92718D01*
X293144Y92707D01*
X293133Y92704D01*
X293122Y92703D01*
X292341Y92547D01*
X292341D01*
X292059Y92462D01*
X291919Y92387D01*
X291798Y92322D01*
X291798Y92322D01*
X291136Y91880D01*
X290908Y91693D01*
Y91693D01*
X290908D01*
X290721Y91464D01*
X290279Y90803D01*
X290279Y90803D01*
X290214Y90681D01*
X290139Y90542D01*
X290054Y90259D01*
Y90259D01*
X289898Y89479D01*
X289869Y89185D01*
X289878Y89101D01*
X288974Y88674D01*
X283519Y94128D01*
X283902Y95052D01*
X285189D01*
X285354Y94984D01*
X285767Y94885D01*
X286191Y94851D01*
X286614Y94885D01*
X287028Y94984D01*
X287420Y95147D01*
X287783Y95369D01*
X288106Y95645D01*
X288382Y95968D01*
X288604Y96330D01*
X288766Y96723D01*
X288866Y97136D01*
X288899Y97560D01*
X288866Y97983D01*
X288766Y98397D01*
X288604Y98789D01*
X288415Y99098D01*
X288431Y99117D01*
X288653Y99480D01*
X288816Y99872D01*
X288915Y100286D01*
X288948Y100709D01*
X288915Y101133D01*
X288816Y101546D01*
X288653Y101939D01*
X288464Y102248D01*
X288481Y102267D01*
X288703Y102629D01*
X288865Y103022D01*
X288965Y103435D01*
X288998Y103859D01*
X288965Y104283D01*
X288865Y104696D01*
X288797Y104860D01*
Y108420D01*
X290284Y109907D01*
X291069Y109288D01*
X290978Y109139D01*
X290815Y108746D01*
X290716Y108333D01*
X290683Y107909D01*
X290716Y107486D01*
X290815Y107072D01*
X290978Y106680D01*
X291200Y106317D01*
X291476Y105994D01*
X291799Y105718D01*
X292162Y105496D01*
X292554Y105334D01*
X292968Y105234D01*
X293391Y105201D01*
X293815Y105234D01*
X293815Y105234D01*
X293866Y105187D01*
X293965Y104773D01*
X294128Y104381D01*
X294350Y104018D01*
X294626Y103695D01*
X294949Y103419D01*
X295311Y103197D01*
X295704Y103034D01*
X296117Y102935D01*
X296541Y102902D01*
X296965Y102935D01*
X297378Y103034D01*
X297542Y103103D01*
X318041D01*
X318433Y103133D01*
X318816Y103225D01*
X319179Y103376D01*
X319515Y103581D01*
X319515Y103581D01*
X319515Y103581D01*
X319814Y103837D01*
X331489Y115512D01*
D01*
X331489Y115512D01*
X331489Y115512D01*
X331489D01*
X331745Y115811D01*
X331950Y116147D01*
X332101Y116510D01*
X332101Y116510D01*
X332101Y116510D01*
D01*
X332101Y116510D01*
X332101Y116510D01*
X332193Y116893D01*
X332224Y117285D01*
Y128484D01*
X332292Y128648D01*
X332391Y129061D01*
X332424Y129485D01*
X332391Y129909D01*
X332292Y130322D01*
X332129Y130715D01*
X331907Y131077D01*
X331631Y131400D01*
X331308Y131676D01*
X330945Y131898D01*
X330553Y132061D01*
X330139Y132160D01*
X329716Y132193D01*
X329479Y132175D01*
X329082Y133036D01*
X329068Y133091D01*
X330781Y134804D01*
X330945Y134872D01*
X331308Y135094D01*
X331631Y135370D01*
X331907Y135693D01*
X332129Y136056D01*
X332292Y136448D01*
X332391Y136861D01*
X332424Y137285D01*
X332391Y137709D01*
X332292Y138122D01*
X332129Y138515D01*
X331907Y138877D01*
X331631Y139200D01*
X331308Y139476D01*
X330945Y139698D01*
X330553Y139861D01*
X330139Y139960D01*
X329716Y139993D01*
X329292Y139960D01*
X328879Y139861D01*
X328486Y139698D01*
X328124Y139476D01*
X327801Y139200D01*
X327525Y138877D01*
X327303Y138515D01*
X327235Y138350D01*
X324847Y135963D01*
X323923Y136346D01*
Y144484D01*
X323991Y144648D01*
X324091Y145061D01*
X324124Y145485D01*
X324091Y145909D01*
X323991Y146322D01*
X323829Y146715D01*
X323607Y147077D01*
X323344Y147385D01*
X323607Y147693D01*
X323829Y148056D01*
X323991Y148448D01*
X324091Y148861D01*
X324124Y149285D01*
X324091Y149709D01*
X324047Y149892D01*
X324342Y150267D01*
X325333Y150678D01*
X335193D01*
X336438Y150555D01*
X338039Y150069D01*
X339515Y149281D01*
X340855Y148181D01*
X341905Y147091D01*
X341933Y147050D01*
X342074Y146889D01*
X342236Y146705D01*
X344256Y144684D01*
X344601Y144382D01*
X344983Y144127D01*
X345394Y143924D01*
X345828Y143777D01*
X346228Y143697D01*
Y143499D01*
X358610D01*
X359245Y142726D01*
X359244Y142723D01*
X359213Y142243D01*
X359244Y141764D01*
X359245Y141760D01*
X358610Y140987D01*
X346228D01*
Y139830D01*
X344917D01*
X344753Y139898D01*
X344339Y139997D01*
X343916Y140030D01*
X343492Y139997D01*
X343079Y139898D01*
X342686Y139735D01*
X342324Y139513D01*
X342001Y139237D01*
X341725Y138914D01*
X341503Y138552D01*
X341340Y138159D01*
X341241Y137746D01*
X341207Y137322D01*
X341241Y136898D01*
X341340Y136485D01*
X341503Y136092D01*
X341725Y135730D01*
X342001Y135407D01*
X342324Y135131D01*
X342686Y134909D01*
X343079Y134746D01*
X343492Y134647D01*
X343916Y134614D01*
X344339Y134647D01*
X344753Y134746D01*
X344917Y134814D01*
X346228D01*
Y133820D01*
X346228D01*
X346228Y133820D01*
X346228Y133657D01*
Y133385D01*
Y133113D01*
X346228Y132950D01*
X346228Y132950D01*
X346228D01*
Y131956D01*
X344817D01*
X344653Y132024D01*
X344239Y132123D01*
X343816Y132156D01*
X343392Y132123D01*
X342979Y132024D01*
X342586Y131861D01*
X342224Y131639D01*
X341901Y131363D01*
X341625Y131040D01*
X341403Y130678D01*
X341240Y130285D01*
X341141Y129872D01*
X341107Y129448D01*
X341141Y129024D01*
X341240Y128611D01*
X341403Y128218D01*
X341625Y127856D01*
X341901Y127533D01*
X342224Y127257D01*
X342586Y127035D01*
X342979Y126872D01*
X343392Y126773D01*
X343816Y126740D01*
X344239Y126773D01*
X344653Y126872D01*
X344817Y126940D01*
X346228D01*
Y125783D01*
X358610D01*
X359245Y125010D01*
X359244Y125006D01*
X359213Y124527D01*
X359244Y124047D01*
X359338Y123576D01*
X359492Y123121D01*
X359705Y122690D01*
X359972Y122291D01*
X360289Y121929D01*
X360650Y121613D01*
X361049Y121346D01*
X361480Y121133D01*
X361935Y120979D01*
X362406Y120885D01*
X362886Y120854D01*
X363365Y120885D01*
X363837Y120979D01*
X364292Y121133D01*
X364722Y121346D01*
X365122Y121613D01*
X365483Y121929D01*
X365800Y122291D01*
X366067Y122690D01*
X366279Y123121D01*
X366434Y123576D01*
X366528Y124047D01*
X366559Y124527D01*
X366528Y125006D01*
X366434Y125478D01*
X366279Y125932D01*
X366067Y126363D01*
X365800Y126763D01*
X365483Y127124D01*
X365122Y127441D01*
X364722Y127708D01*
X364292Y127920D01*
X363837Y128075D01*
X363365Y128169D01*
X362886Y128200D01*
X362406Y128169D01*
X361935Y128075D01*
X361480Y127920D01*
X361049Y127708D01*
X360650Y127441D01*
X360289Y127124D01*
X360007Y126803D01*
X359789Y126885D01*
X359071Y127365D01*
Y132950D01*
X359071D01*
X359071Y132950D01*
X359071Y133113D01*
Y133385D01*
Y133657D01*
X359071Y133820D01*
X359071Y133820D01*
X359071D01*
Y139405D01*
X359789Y139885D01*
X360007Y139967D01*
X360289Y139646D01*
X360650Y139329D01*
X361049Y139062D01*
X361480Y138850D01*
X361935Y138695D01*
X362406Y138602D01*
X362886Y138570D01*
X363365Y138602D01*
X363837Y138695D01*
X364292Y138850D01*
X364722Y139062D01*
X365122Y139329D01*
X365483Y139646D01*
X365800Y140007D01*
X366067Y140407D01*
X366279Y140838D01*
X366434Y141293D01*
X366528Y141764D01*
X366559Y142243D01*
X366528Y142723D01*
X366434Y143194D01*
X366279Y143649D01*
X366067Y144080D01*
X365800Y144479D01*
X365483Y144841D01*
X365122Y145158D01*
X364722Y145424D01*
X364292Y145637D01*
X363837Y145791D01*
X363365Y145885D01*
X362886Y145916D01*
X362406Y145885D01*
X361935Y145791D01*
X361480Y145637D01*
X361049Y145424D01*
X360650Y145158D01*
X360289Y144841D01*
X360007Y144519D01*
X359789Y144601D01*
X359071Y145081D01*
Y150380D01*
X367807D01*
X368417Y150415D01*
X369019Y150517D01*
X369324Y150605D01*
X370123Y150004D01*
X370121Y116767D01*
X369322Y116166D01*
X369019Y116253D01*
X368417Y116355D01*
X367807Y116390D01*
X357965D01*
X357355Y116355D01*
X356753Y116253D01*
X356166Y116084D01*
X355602Y115850D01*
X355067Y115555D01*
X354569Y115202D01*
X354114Y114795D01*
X353707Y114339D01*
X353354Y113841D01*
X353058Y113307D01*
X352825Y112743D01*
X352656Y112156D01*
X352553Y111554D01*
X352519Y110944D01*
X352553Y110334D01*
X352656Y109732D01*
X352825Y109145D01*
X353058Y108581D01*
X353354Y108047D01*
X353707Y107549D01*
X354114Y107094D01*
X354569Y106687D01*
X355067Y106333D01*
X355602Y106038D01*
X356166Y105804D01*
X356753Y105635D01*
X357355Y105533D01*
X357965Y105499D01*
X367807D01*
X368417Y105533D01*
X369019Y105635D01*
X369321Y105722D01*
X370120Y105121D01*
X370116Y27485D01*
X370116D01*
X370124Y27477D01*
X370091Y26975D01*
X369991Y26474D01*
X369827Y25989D01*
X369601Y25531D01*
X369317Y25106D01*
X368979Y24721D01*
X368595Y24384D01*
X368170Y24100D01*
X367711Y23874D01*
X367227Y23710D01*
X366726Y23610D01*
X366216Y23577D01*
X224335Y23585D01*
Y23585D01*
X224327Y23577D01*
X223825Y23610D01*
X223324Y23710D01*
X222840Y23874D01*
X222381Y24100D01*
X221956Y24384D01*
X221572Y24721D01*
X221235Y25106D01*
X220951Y25531D01*
X220725Y25989D01*
X220560Y26474D01*
X220461Y26975D01*
X220435Y27357D01*
Y27357D01*
D01*
D01*
Y27357D01*
D01*
X220435Y27358D01*
Y169365D01*
X220435D01*
X220428Y169374D01*
X220461Y169876D01*
X220560Y170377D01*
X220725Y170861D01*
X220951Y171319D01*
X221235Y171745D01*
X221572Y172129D01*
X221956Y172466D01*
X222381Y172750D01*
X222840Y172976D01*
X223324Y173141D01*
X223825Y173240D01*
X224335Y173274D01*
X366216Y173265D01*
D02*
G37*
G36*
X88465Y112949D02*
X89127Y112507D01*
X89569Y111846D01*
X89724Y111065D01*
X89685Y108565D01*
X89724D01*
X89569Y107785D01*
X89127Y107123D01*
X88465Y106681D01*
X87685Y106526D01*
X84985Y106565D01*
Y106530D01*
X84288Y106669D01*
X83697Y107064D01*
X83302Y107655D01*
X83163Y108352D01*
X83198Y111065D01*
X83159D01*
X83314Y111846D01*
X83756Y112507D01*
X84418Y112949D01*
X85198Y113104D01*
X87685Y113065D01*
Y113104D01*
X88465Y112949D01*
D02*
G37*
G36*
X297916Y89285D02*
X297896D01*
X297916Y89293D01*
Y89285D01*
D02*
G37*
G36*
X169365Y173265D02*
Y173265D01*
X169374Y173273D01*
X169876Y173240D01*
X170377Y173141D01*
X170861Y172976D01*
X171319Y172750D01*
X171745Y172466D01*
X172129Y172129D01*
X172466Y171745D01*
X172750Y171319D01*
X172976Y170861D01*
X173141Y170377D01*
X173240Y169876D01*
X173265Y169493D01*
Y169493D01*
D01*
D01*
Y169493D01*
D01*
X173265Y169493D01*
Y27485D01*
X173265D01*
X173273Y27477D01*
X173240Y26975D01*
X173141Y26474D01*
X172976Y25989D01*
X172750Y25531D01*
X172466Y25106D01*
X172129Y24721D01*
X171745Y24384D01*
X171319Y24100D01*
X170861Y23874D01*
X170377Y23710D01*
X169876Y23610D01*
X169365Y23577D01*
X27485Y23585D01*
Y23585D01*
X27477Y23577D01*
X26975Y23610D01*
X26474Y23710D01*
X25989Y23874D01*
X25531Y24100D01*
X25106Y24384D01*
X24721Y24721D01*
X24384Y25106D01*
X24100Y25531D01*
X23874Y25989D01*
X23710Y26474D01*
X23610Y26975D01*
X23577Y27485D01*
X23577Y35202D01*
X24376Y35803D01*
X24682Y35715D01*
X25284Y35613D01*
X25894Y35579D01*
X35736D01*
X36346Y35613D01*
X36948Y35715D01*
X37535Y35884D01*
X38099Y36118D01*
X38633Y36413D01*
X39132Y36767D01*
X39587Y37174D01*
X39994Y37629D01*
X40347Y38127D01*
X40642Y38662D01*
X40876Y39226D01*
X41045Y39813D01*
X41148Y40415D01*
X41182Y41024D01*
X41148Y41634D01*
X41045Y42236D01*
X40876Y42823D01*
X40642Y43387D01*
X40347Y43922D01*
X39994Y44420D01*
X39587Y44875D01*
X39351Y45086D01*
X39707Y46020D01*
X45478D01*
Y44627D01*
X45444Y38974D01*
X45454Y38872D01*
X45457Y38769D01*
X45591Y37751D01*
X45602Y37702D01*
X45607Y37653D01*
X45636Y37559D01*
X45658Y37463D01*
X45679Y37418D01*
X45693Y37370D01*
X46086Y36422D01*
X46109Y36378D01*
X46127Y36332D01*
X46179Y36248D01*
X46225Y36161D01*
X46257Y36123D01*
X46283Y36081D01*
X46908Y35266D01*
X46942Y35230D01*
X46970Y35190D01*
X47042Y35123D01*
X47110Y35051D01*
X47150Y35022D01*
X47186Y34988D01*
X48001Y34363D01*
X48043Y34337D01*
X48081Y34306D01*
X48168Y34259D01*
X48252Y34207D01*
X48298Y34190D01*
X48341Y34166D01*
X49290Y33773D01*
X49337Y33759D01*
X49382Y33738D01*
X49479Y33716D01*
X49573Y33687D01*
X49622Y33683D01*
X49670Y33671D01*
X50688Y33537D01*
X50787Y33534D01*
X50885Y33524D01*
X50934Y33529D01*
X50984Y33528D01*
X51081Y33544D01*
X51179Y33553D01*
X51194Y33558D01*
X55610Y33555D01*
X55610Y33537D01*
D01*
D01*
Y32994D01*
X55610D01*
Y26844D01*
X61760D01*
Y26844D01*
X62008Y27244D01*
X62008Y27244D01*
X62432Y27211D01*
X62855Y27244D01*
X63268Y27343D01*
X63661Y27506D01*
X64023Y27728D01*
X64202Y27880D01*
X64830Y27591D01*
X65110Y27352D01*
Y26844D01*
X71260D01*
Y26844D01*
X71508Y27244D01*
X71508Y27244D01*
X71931Y27211D01*
X72355Y27244D01*
X72768Y27343D01*
X73161Y27506D01*
X73523Y27728D01*
X73702Y27880D01*
X74330Y27591D01*
X74610Y27352D01*
Y26844D01*
X80760D01*
Y26844D01*
Y26845D01*
Y26844D01*
X80761Y27244D01*
Y27244D01*
X81185Y27211D01*
X81609Y27244D01*
X82022Y27343D01*
X82415Y27506D01*
X82777Y27728D01*
X83100Y28004D01*
X83376Y28327D01*
X83598Y28689D01*
X83761Y29082D01*
X83860Y29495D01*
X83893Y29919D01*
X83860Y30343D01*
X83761Y30756D01*
X83598Y31148D01*
X83376Y31511D01*
X83100Y31834D01*
X82777Y32110D01*
X82415Y32332D01*
X82022Y32495D01*
X81822Y32543D01*
X81940Y33536D01*
X89284Y33531D01*
X89383Y33540D01*
X89482Y33543D01*
X89592Y33558D01*
X93285D01*
X93388Y33544D01*
X93488Y33541D01*
X93587Y33531D01*
X116674Y33558D01*
X116691Y33553D01*
X116789Y33543D01*
X116886Y33527D01*
X116936Y33528D01*
X116985Y33524D01*
X117083Y33533D01*
X117182Y33536D01*
X118226Y33674D01*
X118274Y33685D01*
X118323Y33690D01*
X118418Y33719D01*
X118514Y33741D01*
X118559Y33761D01*
X118606Y33776D01*
X119579Y34179D01*
X119623Y34202D01*
X119669Y34220D01*
X119753Y34272D01*
X119840Y34318D01*
X119878Y34350D01*
X119920Y34376D01*
X120755Y35017D01*
X120791Y35050D01*
X120832Y35079D01*
X120899Y35151D01*
X120971Y35219D01*
X121000Y35259D01*
X121034Y35295D01*
X121675Y36130D01*
X121701Y36173D01*
X121732Y36211D01*
X121779Y36298D01*
X121831Y36382D01*
X121848Y36428D01*
X121872Y36471D01*
X122275Y37444D01*
X122289Y37492D01*
X122309Y37537D01*
X122332Y37633D01*
X122360Y37727D01*
X122365Y37776D01*
X122377Y37824D01*
X122514Y38869D01*
X122517Y38972D01*
X122527Y39075D01*
X122492Y44675D01*
X122478Y44815D01*
X122581Y45860D01*
X122929Y47008D01*
X123495Y48067D01*
X124256Y48994D01*
X125184Y49756D01*
X125330Y49834D01*
X126287Y49544D01*
X126368Y49392D01*
X126368D01*
X126368Y49392D01*
Y42455D01*
X135667D01*
Y43559D01*
X135831Y43627D01*
X135982Y43689D01*
X136317Y43895D01*
X136617Y44150D01*
X138353Y45887D01*
X139277Y45505D01*
Y36104D01*
X134849Y31676D01*
X126368D01*
Y24739D01*
X135667D01*
Y25814D01*
X135702Y25822D01*
X136065Y25973D01*
X136401Y26178D01*
X136700Y26434D01*
X143558Y33292D01*
X143814Y33591D01*
X144019Y33927D01*
X144170Y34290D01*
X144262Y34673D01*
X144293Y35065D01*
Y48005D01*
X145217Y48387D01*
X150512Y43092D01*
X150811Y42836D01*
X151147Y42631D01*
X151510Y42480D01*
X151893Y42388D01*
X151893D01*
X151893Y42388D01*
X152035Y42104D01*
Y29615D01*
X162535D01*
Y31374D01*
X162743Y31388D01*
X163193Y31477D01*
X163627Y31625D01*
X164039Y31828D01*
X164420Y32083D01*
X164581Y32224D01*
X164765Y32385D01*
X168265Y35885D01*
X168568Y36230D01*
X168823Y36612D01*
X169026Y37023D01*
X169173Y37457D01*
X169263Y37907D01*
X169293Y38365D01*
Y63765D01*
X169263Y64223D01*
X169173Y64673D01*
X169026Y65108D01*
X168823Y65519D01*
X168568Y65901D01*
X168265Y66246D01*
X164665Y69845D01*
X164320Y70148D01*
X163939Y70403D01*
X163527Y70606D01*
X163093Y70753D01*
X162643Y70843D01*
X162535Y70850D01*
Y82615D01*
X152035D01*
Y82268D01*
X151111Y81886D01*
X114863Y118134D01*
X115246Y119058D01*
X124125D01*
X129109Y118665D01*
X129139Y118275D01*
X129231Y117895D01*
X129381Y117534D01*
X129585Y117201D01*
X129839Y116903D01*
X130136Y116649D01*
X130470Y116445D01*
X130831Y116295D01*
X131211Y116204D01*
X131601Y116173D01*
X131991Y116204D01*
X132371Y116295D01*
X132732Y116445D01*
X133065Y116649D01*
X133363Y116903D01*
X133617Y117201D01*
X133821Y117534D01*
X133971Y117895D01*
X134062Y118275D01*
X134093Y118665D01*
D01*
D01*
D01*
X134093Y118665D01*
X134093Y118665D01*
D01*
X134093Y118666D01*
X134064Y119058D01*
X138646D01*
X146259Y111445D01*
X146317Y110707D01*
X145638Y109973D01*
X143924D01*
X140066Y113831D01*
X139998Y113995D01*
X139776Y114357D01*
X139500Y114680D01*
X139177Y114956D01*
X138815Y115179D01*
X138422Y115341D01*
X138009Y115440D01*
X137585Y115474D01*
X137161Y115440D01*
X136748Y115341D01*
X136355Y115179D01*
X135993Y114956D01*
X135670Y114680D01*
X135394Y114357D01*
X135172Y113995D01*
X135009Y113602D01*
X134910Y113189D01*
X134877Y112765D01*
X134910Y112342D01*
X135009Y111928D01*
X135172Y111536D01*
X135394Y111173D01*
X135670Y110850D01*
X135993Y110574D01*
X136355Y110352D01*
X136520Y110284D01*
X141112Y105692D01*
X141411Y105437D01*
X141747Y105231D01*
X142110Y105080D01*
X142493Y104989D01*
X142885Y104958D01*
X145784D01*
X145948Y104890D01*
X146361Y104790D01*
X146785Y104757D01*
X147209Y104790D01*
X147622Y104890D01*
X148015Y105052D01*
X148377Y105274D01*
X148700Y105550D01*
X148976Y105873D01*
X149198Y106236D01*
X149361Y106628D01*
X149460Y107042D01*
X149493Y107465D01*
X150347Y107531D01*
X150710Y107380D01*
X151093Y107289D01*
X151485Y107258D01*
X152035D01*
Y94515D01*
X162535D01*
Y125015D01*
X152035D01*
Y114068D01*
X151111Y113686D01*
X142642Y122155D01*
X141815Y124152D01*
X142177Y124374D01*
X142500Y124650D01*
X142776Y124973D01*
X142998Y125336D01*
X143161Y125728D01*
X143260Y126142D01*
X143293Y126565D01*
X143260Y126989D01*
X143161Y127402D01*
X142998Y127795D01*
X142776Y128157D01*
X142500Y128480D01*
X142177Y128756D01*
X141815Y128979D01*
X141422Y129141D01*
X141009Y129240D01*
X140585Y129274D01*
X140161Y129240D01*
X139748Y129141D01*
X139584Y129073D01*
X119224D01*
X114258Y134039D01*
X113959Y134294D01*
X113623Y134500D01*
X113260Y134650D01*
X112877Y134742D01*
X112485Y134773D01*
X102785D01*
X102393Y134742D01*
X102010Y134650D01*
X101647Y134500D01*
X101311Y134294D01*
X101311Y134294D01*
X101311Y134294D01*
X101012Y134039D01*
X97946Y130973D01*
X76686D01*
X76522Y131041D01*
X76109Y131140D01*
X75685Y131174D01*
X75261Y131140D01*
X74848Y131041D01*
X74455Y130878D01*
X74093Y130656D01*
X73770Y130380D01*
X73494Y130057D01*
X73272Y129695D01*
X73109Y129302D01*
X73095Y129243D01*
X72132Y128971D01*
X67720Y133384D01*
X67652Y133548D01*
X67430Y133911D01*
X67154Y134234D01*
X66830Y134510D01*
X66468Y134732D01*
X66075Y134895D01*
X65662Y134994D01*
X65239Y135027D01*
X64815Y134994D01*
X64402Y134895D01*
X64009Y134732D01*
X63647Y134510D01*
X63323Y134234D01*
X63047Y133911D01*
X62825Y133548D01*
X62683Y133204D01*
X62562Y133180D01*
X61205Y133506D01*
X61205Y133506D01*
X61205Y133506D01*
X43412Y151298D01*
X43409Y151348D01*
X43295Y151920D01*
X43108Y152473D01*
X42849Y152997D01*
X42525Y153482D01*
X42140Y153921D01*
X41701Y154306D01*
X41216Y154630D01*
X40693Y154888D01*
X40140Y155076D01*
X39568Y155190D01*
X38985Y155228D01*
X38403Y155190D01*
X37830Y155076D01*
X37277Y154888D01*
X36754Y154630D01*
X36269Y154306D01*
X35830Y153921D01*
X35445Y153482D01*
X35121Y152997D01*
X34862Y152473D01*
X34675Y151920D01*
X34561Y151348D01*
X34523Y150765D01*
X34561Y150183D01*
X34675Y149610D01*
X34862Y149058D01*
X35121Y148534D01*
X35445Y148049D01*
X35830Y147610D01*
X36269Y147225D01*
X36754Y146901D01*
X37277Y146643D01*
X37830Y146455D01*
X38403Y146341D01*
X38452Y146338D01*
X76205Y108585D01*
X76550Y108283D01*
X76931Y108028D01*
X77343Y107825D01*
X77490Y107775D01*
X77777Y107677D01*
X78227Y107588D01*
X78685Y107558D01*
X81784D01*
X81823Y107361D01*
X81823Y107361D01*
X81902Y107104D01*
X81909Y107078D01*
D01*
X81909Y107078D01*
X81964Y106976D01*
X82048Y106818D01*
X82048Y106818D01*
X82443Y106227D01*
X82443Y106227D01*
X82631Y105998D01*
X82631Y105998D01*
X82631Y105998D01*
X82754Y105897D01*
X82859Y105811D01*
X83450Y105416D01*
X83450Y105416D01*
X83693Y105286D01*
X83711Y105277D01*
D01*
X83711Y105277D01*
X83796Y105251D01*
X83994Y105191D01*
X83994Y105191D01*
X84691Y105052D01*
X84691Y105052D01*
X84985Y105023D01*
D01*
X84985D01*
X85279Y105052D01*
X85284Y105054D01*
X87663Y105019D01*
X87674Y105020D01*
X87685Y105019D01*
X87821Y105032D01*
X87958Y105044D01*
X87968Y105047D01*
X87979Y105048D01*
X88759Y105203D01*
X88759D01*
X89042Y105289D01*
X89057Y105297D01*
X89629Y104527D01*
X89649Y104489D01*
X88832Y103673D01*
X56238D01*
X43412Y116498D01*
X43409Y116548D01*
X43295Y117120D01*
X43108Y117673D01*
X42849Y118196D01*
X42525Y118682D01*
X42140Y119121D01*
X41701Y119506D01*
X41216Y119830D01*
X40693Y120088D01*
X40140Y120276D01*
X39568Y120389D01*
X38985Y120428D01*
X38403Y120389D01*
X37830Y120276D01*
X37277Y120088D01*
X36754Y119830D01*
X36269Y119506D01*
X35830Y119121D01*
X35445Y118682D01*
X35121Y118196D01*
X34862Y117673D01*
X34675Y117120D01*
X34561Y116548D01*
X34523Y115965D01*
X34561Y115383D01*
X34675Y114810D01*
X34862Y114258D01*
X35121Y113734D01*
X35445Y113249D01*
X35830Y112810D01*
X36269Y112425D01*
X36754Y112101D01*
X37277Y111843D01*
X37830Y111655D01*
X38403Y111541D01*
X38452Y111538D01*
X52305Y97685D01*
X52650Y97383D01*
X53031Y97128D01*
X53443Y96925D01*
X53877Y96777D01*
X54327Y96688D01*
X54327Y96688D01*
X54327Y96688D01*
X54327D01*
X54785Y96658D01*
X90285D01*
X90743Y96688D01*
X90832Y96706D01*
X91193Y96777D01*
X91480Y96875D01*
X91627Y96925D01*
X92039Y97128D01*
X92420Y97383D01*
X92581Y97524D01*
X92765Y97685D01*
X99215Y104135D01*
X100262Y104119D01*
X100274Y104120D01*
X100285Y104119D01*
X100421Y104132D01*
X100557Y104144D01*
X100568Y104147D01*
X100579Y104148D01*
X101359Y104303D01*
X101359D01*
X101642Y104389D01*
X101781Y104463D01*
X101903Y104528D01*
X101903Y104528D01*
X102564Y104970D01*
X102793Y105158D01*
Y105158D01*
X102793D01*
X102980Y105386D01*
X103422Y106048D01*
X103422Y106048D01*
X103487Y106169D01*
X103561Y106308D01*
X103647Y106591D01*
Y106591D01*
X103803Y107371D01*
X103832Y107665D01*
X103823Y107749D01*
X104727Y108177D01*
X110182Y102722D01*
X109799Y101798D01*
X108511D01*
X108347Y101866D01*
X107934Y101966D01*
X107510Y101999D01*
X107087Y101966D01*
X106673Y101866D01*
X106281Y101704D01*
X105918Y101482D01*
X105595Y101206D01*
X105319Y100882D01*
X105097Y100520D01*
X104934Y100127D01*
X104835Y99714D01*
X104802Y99291D01*
X104835Y98867D01*
X104934Y98454D01*
X105097Y98061D01*
X105286Y97752D01*
X105270Y97733D01*
X105048Y97370D01*
X104885Y96978D01*
X104786Y96565D01*
X104752Y96141D01*
X104786Y95717D01*
X104885Y95304D01*
X105048Y94911D01*
X105237Y94603D01*
X105220Y94583D01*
X104998Y94221D01*
X104835Y93828D01*
X104736Y93415D01*
X104703Y92991D01*
X104736Y92568D01*
X104835Y92154D01*
X104903Y91990D01*
Y88430D01*
X103417Y86944D01*
X102631Y87563D01*
X102723Y87711D01*
X102885Y88104D01*
X102984Y88517D01*
X103018Y88941D01*
X102984Y89365D01*
X102885Y89778D01*
X102723Y90171D01*
X102500Y90533D01*
X102225Y90856D01*
X101901Y91132D01*
X101539Y91354D01*
X101146Y91517D01*
X100733Y91616D01*
X100310Y91649D01*
X99886Y91616D01*
X99886Y91616D01*
X99835Y91664D01*
X99736Y92077D01*
X99573Y92470D01*
X99351Y92832D01*
X99075Y93155D01*
X98752Y93431D01*
X98389Y93653D01*
X97997Y93816D01*
X97584Y93915D01*
X97160Y93949D01*
X96736Y93915D01*
X96323Y93816D01*
X96159Y93748D01*
X75660D01*
X75267Y93717D01*
X74885Y93625D01*
X74521Y93475D01*
X74186Y93269D01*
X74186Y93269D01*
X74186Y93269D01*
X73887Y93013D01*
X62212Y81339D01*
X62212Y81339D01*
X62212Y81339D01*
X62212Y81339D01*
X62212D01*
X61956Y81039D01*
X61751Y80704D01*
X61600Y80340D01*
X61600Y80340D01*
X61600Y80340D01*
D01*
X61600Y80340D01*
X61600Y80340D01*
X61508Y79958D01*
X61477Y79565D01*
Y68367D01*
X61409Y68202D01*
X61310Y67789D01*
X61277Y67365D01*
X61310Y66942D01*
X61409Y66528D01*
X61572Y66136D01*
X61794Y65773D01*
X62070Y65450D01*
X62393Y65174D01*
X62756Y64952D01*
X63148Y64790D01*
X63561Y64690D01*
X63985Y64657D01*
X64222Y64676D01*
X64619Y63815D01*
X64632Y63759D01*
X62920Y62047D01*
X62756Y61979D01*
X62393Y61756D01*
X62070Y61480D01*
X61794Y61157D01*
X61572Y60795D01*
X61409Y60402D01*
X61310Y59989D01*
X61277Y59565D01*
X61310Y59142D01*
X61409Y58728D01*
X61572Y58336D01*
X61794Y57973D01*
X62070Y57650D01*
X62393Y57374D01*
X62756Y57152D01*
X63148Y56990D01*
X63561Y56890D01*
X63985Y56857D01*
X64409Y56890D01*
X64822Y56990D01*
X65215Y57152D01*
X65577Y57374D01*
X65900Y57650D01*
X66176Y57973D01*
X66398Y58336D01*
X66466Y58500D01*
X68853Y60887D01*
X69777Y60505D01*
Y52367D01*
X69709Y52202D01*
X69610Y51789D01*
X69577Y51365D01*
X69610Y50942D01*
X69709Y50528D01*
X69872Y50136D01*
X70094Y49773D01*
X70357Y49465D01*
X70094Y49157D01*
X69872Y48795D01*
X69709Y48402D01*
X69610Y47989D01*
X69577Y47565D01*
X69610Y47142D01*
X69654Y46958D01*
X69358Y46583D01*
X68368Y46173D01*
X58507D01*
X57262Y46295D01*
X55661Y46781D01*
X54186Y47570D01*
X52846Y48669D01*
X51795Y49759D01*
X51768Y49801D01*
X51626Y49962D01*
X51465Y50146D01*
X49445Y52166D01*
X49100Y52469D01*
X48718Y52723D01*
X48307Y52926D01*
X47872Y53074D01*
X47472Y53153D01*
Y53351D01*
X35091D01*
X34456Y54124D01*
X34457Y54128D01*
X34488Y54607D01*
X34457Y55086D01*
X34456Y55090D01*
X35091Y55863D01*
X47472D01*
Y57021D01*
X48784D01*
X48948Y56953D01*
X49361Y56853D01*
X49785Y56820D01*
X50209Y56853D01*
X50622Y56953D01*
X51015Y57115D01*
X51377Y57337D01*
X51700Y57613D01*
X51976Y57936D01*
X52198Y58299D01*
X52361Y58691D01*
X52460Y59105D01*
X52493Y59528D01*
X52460Y59952D01*
X52361Y60365D01*
X52198Y60758D01*
X51976Y61120D01*
X51700Y61443D01*
X51377Y61719D01*
X51015Y61941D01*
X50622Y62104D01*
X50209Y62203D01*
X49785Y62237D01*
X49361Y62203D01*
X48948Y62104D01*
X48784Y62036D01*
X47472D01*
Y63030D01*
X47472D01*
X47472Y63030D01*
X47472Y63194D01*
Y63465D01*
Y63737D01*
X47472Y63901D01*
X47472Y63901D01*
X47472D01*
Y64895D01*
X48884D01*
X49048Y64827D01*
X49461Y64727D01*
X49885Y64694D01*
X50309Y64727D01*
X50722Y64827D01*
X51115Y64989D01*
X51477Y65211D01*
X51800Y65487D01*
X52076Y65810D01*
X52298Y66173D01*
X52461Y66565D01*
X52560Y66979D01*
X52593Y67402D01*
X52560Y67826D01*
X52461Y68239D01*
X52298Y68632D01*
X52076Y68994D01*
X51800Y69317D01*
X51477Y69594D01*
X51115Y69815D01*
X50722Y69978D01*
X50309Y70077D01*
X49885Y70111D01*
X49461Y70077D01*
X49048Y69978D01*
X48884Y69910D01*
X47472D01*
Y71068D01*
X35091D01*
X34456Y71841D01*
X34457Y71844D01*
X34488Y72324D01*
X34457Y72803D01*
X34363Y73274D01*
X34209Y73729D01*
X33996Y74160D01*
X33729Y74560D01*
X33412Y74921D01*
X33051Y75238D01*
X32652Y75505D01*
X32221Y75717D01*
X31766Y75872D01*
X31294Y75965D01*
X30815Y75997D01*
X30336Y75965D01*
X29864Y75872D01*
X29409Y75717D01*
X28978Y75505D01*
X28579Y75238D01*
X28218Y74921D01*
X27901Y74560D01*
X27634Y74160D01*
X27421Y73729D01*
X27267Y73274D01*
X27173Y72803D01*
X27142Y72324D01*
X27173Y71844D01*
X27267Y71373D01*
X27421Y70918D01*
X27634Y70487D01*
X27901Y70087D01*
X28218Y69726D01*
X28579Y69410D01*
X28978Y69143D01*
X29409Y68930D01*
X29864Y68776D01*
X30336Y68682D01*
X30815Y68650D01*
X31294Y68682D01*
X31766Y68776D01*
X32221Y68930D01*
X32652Y69143D01*
X33051Y69410D01*
X33412Y69726D01*
X33694Y70047D01*
X33911Y69966D01*
X34630Y69486D01*
Y63901D01*
X34630D01*
X34630Y63901D01*
X34630Y63737D01*
Y63465D01*
Y63194D01*
X34630Y63030D01*
X34630Y63030D01*
X34630D01*
Y57445D01*
X33911Y56965D01*
X33694Y56883D01*
X33412Y57204D01*
X33051Y57521D01*
X32652Y57788D01*
X32221Y58001D01*
X31766Y58155D01*
X31294Y58249D01*
X30815Y58280D01*
X30336Y58249D01*
X29864Y58155D01*
X29409Y58001D01*
X28978Y57788D01*
X28579Y57521D01*
X28218Y57204D01*
X27901Y56843D01*
X27634Y56444D01*
X27421Y56013D01*
X27267Y55558D01*
X27173Y55086D01*
X27142Y54607D01*
X27173Y54128D01*
X27267Y53656D01*
X27421Y53201D01*
X27634Y52771D01*
X27901Y52371D01*
X28218Y52010D01*
X28579Y51693D01*
X28978Y51426D01*
X29409Y51214D01*
X29864Y51059D01*
X30336Y50965D01*
X30815Y50934D01*
X31294Y50965D01*
X31766Y51059D01*
X32221Y51214D01*
X32652Y51426D01*
X33051Y51693D01*
X33412Y52010D01*
X33694Y52331D01*
X33911Y52249D01*
X34630Y51769D01*
Y46470D01*
X25894D01*
X25284Y46436D01*
X24682Y46334D01*
X24377Y46246D01*
X23578Y46847D01*
X23580Y80083D01*
X24379Y80685D01*
X24682Y80597D01*
X25284Y80495D01*
X25894Y80461D01*
X35736D01*
X36346Y80495D01*
X36948Y80597D01*
X37535Y80766D01*
X38099Y81000D01*
X38633Y81295D01*
X39132Y81649D01*
X39587Y82056D01*
X39994Y82511D01*
X40347Y83009D01*
X40642Y83543D01*
X40876Y84108D01*
X41045Y84694D01*
X41148Y85297D01*
X41182Y85906D01*
X41148Y86516D01*
X41045Y87118D01*
X40876Y87705D01*
X40642Y88269D01*
X40347Y88803D01*
X39994Y89302D01*
X39587Y89757D01*
X39132Y90164D01*
X38633Y90517D01*
X38099Y90813D01*
X37535Y91046D01*
X36948Y91215D01*
X36346Y91318D01*
X35736Y91352D01*
X25894D01*
X25284Y91318D01*
X24682Y91215D01*
X24379Y91128D01*
X23581Y91729D01*
X23585Y169365D01*
X23585D01*
X23577Y169374D01*
X23610Y169876D01*
X23710Y170377D01*
X23874Y170861D01*
X24100Y171319D01*
X24384Y171745D01*
X24721Y172129D01*
X25106Y172466D01*
X25531Y172750D01*
X25989Y172976D01*
X26474Y173141D01*
X26975Y173240D01*
X27485Y173274D01*
X169365Y173265D01*
D02*
G37*
G36*
X101065Y112049D02*
X101727Y111607D01*
X102169Y110946D01*
X102324Y110165D01*
X102285Y107665D01*
X102324D01*
X102169Y106885D01*
X101727Y106223D01*
X101065Y105781D01*
X100285Y105626D01*
X97685Y105665D01*
Y105630D01*
X96983Y105770D01*
X96387Y106168D01*
X95990Y106763D01*
X95850Y107465D01*
X95885Y107565D01*
X95805D01*
X95785Y107557D01*
Y107565D01*
X95805D01*
X95862Y107589D01*
X95893Y107665D01*
X95885Y110165D01*
X95846D01*
X96001Y110946D01*
X96443Y111607D01*
X97105Y112049D01*
X97885Y112205D01*
X100285Y112165D01*
Y112205D01*
X101065Y112049D01*
D02*
G37*
G36*
X169365Y370116D02*
Y370116D01*
X169374Y370124D01*
X169876Y370091D01*
X170377Y369991D01*
X170861Y369827D01*
X171319Y369601D01*
X171745Y369317D01*
X172129Y368979D01*
X172466Y368595D01*
X172750Y368170D01*
X172976Y367711D01*
X173141Y367227D01*
X173240Y366726D01*
X173265Y366343D01*
Y366343D01*
D01*
D01*
Y366343D01*
D01*
X173265Y366343D01*
Y224335D01*
X173265D01*
X173273Y224327D01*
X173240Y223825D01*
X173141Y223324D01*
X172976Y222840D01*
X172750Y222381D01*
X172466Y221956D01*
X172129Y221572D01*
X171745Y221235D01*
X171319Y220951D01*
X170861Y220725D01*
X170377Y220560D01*
X169876Y220461D01*
X169365Y220427D01*
X27485Y220435D01*
Y220435D01*
X27477Y220428D01*
X26975Y220461D01*
X26474Y220560D01*
X25989Y220725D01*
X25531Y220951D01*
X25106Y221235D01*
X24721Y221572D01*
X24384Y221956D01*
X24100Y222381D01*
X23874Y222840D01*
X23710Y223324D01*
X23610Y223825D01*
X23577Y224335D01*
X23577Y232053D01*
X24376Y232654D01*
X24682Y232566D01*
X25284Y232464D01*
X25894Y232429D01*
X35736D01*
X36346Y232464D01*
X36948Y232566D01*
X37535Y232735D01*
X38099Y232968D01*
X38633Y233264D01*
X39132Y233617D01*
X39587Y234024D01*
X39994Y234480D01*
X40347Y234978D01*
X40642Y235512D01*
X40876Y236076D01*
X41045Y236663D01*
X41148Y237265D01*
X41182Y237875D01*
X41148Y238485D01*
X41045Y239087D01*
X40876Y239673D01*
X40642Y240238D01*
X40347Y240772D01*
X39994Y241270D01*
X39587Y241725D01*
X39351Y241937D01*
X39707Y242871D01*
X45478D01*
Y241477D01*
X45444Y235825D01*
X45454Y235722D01*
X45457Y235619D01*
X45591Y234601D01*
X45602Y234553D01*
X45607Y234504D01*
X45636Y234409D01*
X45658Y234313D01*
X45679Y234268D01*
X45693Y234221D01*
X46086Y233272D01*
X46109Y233228D01*
X46127Y233182D01*
X46179Y233099D01*
X46225Y233012D01*
X46257Y232973D01*
X46283Y232931D01*
X46908Y232117D01*
X46942Y232081D01*
X46970Y232040D01*
X47042Y231973D01*
X47110Y231901D01*
X47150Y231872D01*
X47186Y231838D01*
X48001Y231213D01*
X48043Y231187D01*
X48081Y231156D01*
X48168Y231109D01*
X48252Y231057D01*
X48298Y231040D01*
X48341Y231017D01*
X49290Y230624D01*
X49337Y230609D01*
X49382Y230589D01*
X49479Y230567D01*
X49573Y230538D01*
X49622Y230533D01*
X49670Y230522D01*
X50688Y230388D01*
X50787Y230384D01*
X50885Y230375D01*
X50934Y230380D01*
X50984Y230378D01*
X51081Y230394D01*
X51179Y230404D01*
X51194Y230408D01*
X55610Y230405D01*
X55610Y230387D01*
D01*
D01*
Y229844D01*
X55610D01*
Y223694D01*
X61760D01*
Y223694D01*
X62008Y224094D01*
X62008Y224094D01*
X62432Y224061D01*
X62855Y224094D01*
X63268Y224194D01*
X63661Y224356D01*
X64023Y224578D01*
X64202Y224731D01*
X64830Y224441D01*
X65110Y224202D01*
Y223694D01*
X71260D01*
Y223694D01*
X71508Y224094D01*
X71508Y224094D01*
X71931Y224061D01*
X72355Y224094D01*
X72768Y224194D01*
X73161Y224356D01*
X73523Y224578D01*
X73702Y224731D01*
X74330Y224441D01*
X74610Y224202D01*
Y223694D01*
X80760D01*
Y223694D01*
Y223696D01*
Y223694D01*
X80761Y224094D01*
Y224094D01*
X81185Y224061D01*
X81609Y224094D01*
X82022Y224194D01*
X82415Y224356D01*
X82777Y224578D01*
X83100Y224854D01*
X83376Y225177D01*
X83598Y225540D01*
X83761Y225932D01*
X83860Y226346D01*
X83893Y226769D01*
X83860Y227193D01*
X83761Y227606D01*
X83598Y227999D01*
X83376Y228361D01*
X83100Y228684D01*
X82777Y228960D01*
X82415Y229183D01*
X82022Y229345D01*
X81822Y229393D01*
X81940Y230386D01*
X89284Y230381D01*
X89383Y230391D01*
X89482Y230394D01*
X89592Y230408D01*
X93285D01*
X93388Y230395D01*
X93488Y230391D01*
X93587Y230382D01*
X116674Y230408D01*
X116691Y230403D01*
X116789Y230393D01*
X116886Y230377D01*
X116936Y230379D01*
X116985Y230374D01*
X117083Y230384D01*
X117182Y230387D01*
X118226Y230524D01*
X118274Y230536D01*
X118323Y230540D01*
X118418Y230569D01*
X118514Y230591D01*
X118559Y230612D01*
X118606Y230626D01*
X119579Y231029D01*
X119623Y231052D01*
X119669Y231070D01*
X119753Y231122D01*
X119840Y231169D01*
X119878Y231200D01*
X119920Y231226D01*
X120755Y231867D01*
X120791Y231901D01*
X120832Y231930D01*
X120899Y232002D01*
X120971Y232069D01*
X121000Y232109D01*
X121034Y232145D01*
X121675Y232981D01*
X121701Y233023D01*
X121732Y233061D01*
X121779Y233148D01*
X121831Y233232D01*
X121848Y233278D01*
X121872Y233322D01*
X122275Y234295D01*
X122289Y234342D01*
X122309Y234387D01*
X122332Y234483D01*
X122360Y234577D01*
X122365Y234627D01*
X122377Y234675D01*
X122514Y235719D01*
X122517Y235822D01*
X122527Y235925D01*
X122492Y241525D01*
X122478Y241666D01*
X122581Y242710D01*
X122929Y243859D01*
X123495Y244917D01*
X124256Y245845D01*
X125184Y246606D01*
X125330Y246684D01*
X126287Y246394D01*
X126368Y246242D01*
X126368D01*
X126368Y246242D01*
Y239305D01*
X135667D01*
Y240409D01*
X135831Y240477D01*
X135982Y240540D01*
X136317Y240745D01*
X136617Y241001D01*
X138353Y242738D01*
X139277Y242355D01*
Y232955D01*
X134849Y228526D01*
X126368D01*
Y221589D01*
X135667D01*
Y222664D01*
X135702Y222673D01*
X136065Y222823D01*
X136401Y223029D01*
X136700Y223284D01*
X143558Y230142D01*
X143814Y230442D01*
X144019Y230777D01*
X144170Y231141D01*
X144262Y231523D01*
X144293Y231916D01*
Y244855D01*
X145217Y245238D01*
X150512Y239943D01*
X150811Y239687D01*
X151147Y239481D01*
X151510Y239331D01*
X151893Y239239D01*
X151893D01*
X151893Y239239D01*
X152035Y238954D01*
Y226466D01*
X162535D01*
Y228225D01*
X162743Y228238D01*
X163193Y228328D01*
X163627Y228475D01*
X164039Y228678D01*
X164420Y228933D01*
X164581Y229074D01*
X164765Y229236D01*
X168265Y232736D01*
X168568Y233081D01*
X168823Y233462D01*
X169026Y233874D01*
X169173Y234308D01*
X169263Y234758D01*
X169293Y235216D01*
Y260616D01*
X169263Y261074D01*
X169173Y261524D01*
X169026Y261958D01*
X168823Y262369D01*
X168568Y262751D01*
X168265Y263096D01*
X164665Y266696D01*
X164320Y266998D01*
X163939Y267253D01*
X163527Y267456D01*
X163093Y267604D01*
X162643Y267693D01*
X162535Y267700D01*
Y279466D01*
X152035D01*
Y279119D01*
X151111Y278736D01*
X114863Y314984D01*
X115246Y315908D01*
X124125D01*
X129109Y315516D01*
X129139Y315126D01*
X129231Y314746D01*
X129381Y314384D01*
X129585Y314051D01*
X129839Y313754D01*
X130136Y313500D01*
X130470Y313295D01*
X130831Y313146D01*
X131211Y313054D01*
X131601Y313024D01*
X131991Y313054D01*
X132371Y313146D01*
X132732Y313295D01*
X133065Y313500D01*
X133363Y313754D01*
X133617Y314051D01*
X133821Y314384D01*
X133971Y314746D01*
X134062Y315126D01*
X134093Y315516D01*
D01*
D01*
D01*
X134093Y315516D01*
X134093Y315516D01*
D01*
X134093Y315516D01*
X134064Y315908D01*
X138646D01*
X146259Y308296D01*
X146317Y307558D01*
X145638Y306823D01*
X143924D01*
X140066Y310681D01*
X139998Y310845D01*
X139776Y311208D01*
X139500Y311531D01*
X139177Y311807D01*
X138815Y312029D01*
X138422Y312192D01*
X138009Y312291D01*
X137585Y312324D01*
X137161Y312291D01*
X136748Y312192D01*
X136355Y312029D01*
X135993Y311807D01*
X135670Y311531D01*
X135394Y311208D01*
X135172Y310845D01*
X135009Y310453D01*
X134910Y310039D01*
X134877Y309616D01*
X134910Y309192D01*
X135009Y308779D01*
X135172Y308386D01*
X135394Y308024D01*
X135670Y307701D01*
X135993Y307425D01*
X136355Y307203D01*
X136520Y307135D01*
X141112Y302542D01*
X141411Y302287D01*
X141747Y302081D01*
X142110Y301931D01*
X142493Y301839D01*
X142885Y301808D01*
X145784D01*
X145948Y301740D01*
X146361Y301641D01*
X146785Y301607D01*
X147209Y301641D01*
X147622Y301740D01*
X148015Y301903D01*
X148377Y302125D01*
X148700Y302401D01*
X148976Y302724D01*
X149198Y303086D01*
X149361Y303479D01*
X149460Y303892D01*
X149493Y304316D01*
X150347Y304381D01*
X150710Y304231D01*
X151093Y304139D01*
X151485Y304108D01*
X152035D01*
Y291366D01*
X162535D01*
Y321866D01*
X152035D01*
Y310919D01*
X151111Y310536D01*
X142642Y319005D01*
X141815Y321003D01*
X142177Y321225D01*
X142500Y321501D01*
X142776Y321824D01*
X142998Y322186D01*
X143161Y322579D01*
X143260Y322992D01*
X143293Y323416D01*
X143260Y323839D01*
X143161Y324253D01*
X142998Y324645D01*
X142776Y325008D01*
X142500Y325331D01*
X142177Y325607D01*
X141815Y325829D01*
X141422Y325992D01*
X141009Y326091D01*
X140585Y326124D01*
X140161Y326091D01*
X139748Y325992D01*
X139584Y325923D01*
X119224D01*
X114258Y330889D01*
X113959Y331144D01*
X113623Y331350D01*
X113260Y331501D01*
X112877Y331593D01*
X112485Y331624D01*
X102785D01*
X102393Y331593D01*
X102010Y331501D01*
X101647Y331350D01*
X101311Y331144D01*
X101311Y331145D01*
X101311Y331144D01*
X101012Y330889D01*
X97946Y327823D01*
X76686D01*
X76522Y327891D01*
X76109Y327991D01*
X75685Y328024D01*
X75261Y327991D01*
X74848Y327891D01*
X74455Y327729D01*
X74093Y327507D01*
X73770Y327231D01*
X73494Y326908D01*
X73272Y326545D01*
X73109Y326153D01*
X73095Y326093D01*
X72132Y325822D01*
X67720Y330235D01*
X67652Y330399D01*
X67430Y330761D01*
X67154Y331084D01*
X66830Y331360D01*
X66468Y331582D01*
X66075Y331745D01*
X65662Y331844D01*
X65239Y331878D01*
X64815Y331844D01*
X64402Y331745D01*
X64009Y331582D01*
X63647Y331360D01*
X63323Y331084D01*
X63047Y330761D01*
X62825Y330399D01*
X62683Y330054D01*
X62562Y330030D01*
X61205Y330356D01*
X61205Y330356D01*
X61205Y330356D01*
X43412Y348149D01*
X43409Y348198D01*
X43295Y348771D01*
X43108Y349323D01*
X42849Y349847D01*
X42525Y350332D01*
X42140Y350771D01*
X41701Y351156D01*
X41216Y351480D01*
X40693Y351738D01*
X40140Y351926D01*
X39568Y352040D01*
X38985Y352078D01*
X38403Y352040D01*
X37830Y351926D01*
X37277Y351738D01*
X36754Y351480D01*
X36269Y351156D01*
X35830Y350771D01*
X35445Y350332D01*
X35121Y349847D01*
X34862Y349323D01*
X34675Y348771D01*
X34561Y348198D01*
X34523Y347616D01*
X34561Y347033D01*
X34675Y346461D01*
X34862Y345908D01*
X35121Y345385D01*
X35445Y344899D01*
X35830Y344460D01*
X36269Y344076D01*
X36754Y343751D01*
X37277Y343493D01*
X37830Y343305D01*
X38403Y343192D01*
X38452Y343188D01*
X76205Y305436D01*
X76550Y305133D01*
X76931Y304878D01*
X77343Y304675D01*
X77490Y304625D01*
X77777Y304528D01*
X78227Y304438D01*
X78685Y304408D01*
X81784D01*
X81823Y304211D01*
X81823Y304211D01*
X81902Y303954D01*
X81909Y303929D01*
D01*
X81909Y303929D01*
X81964Y303826D01*
X82048Y303668D01*
X82048Y303668D01*
X82443Y303077D01*
X82443Y303077D01*
X82631Y302849D01*
X82631Y302849D01*
X82631Y302849D01*
X82754Y302748D01*
X82859Y302661D01*
X83450Y302266D01*
X83450Y302266D01*
X83693Y302136D01*
X83711Y302127D01*
D01*
X83711Y302127D01*
X83796Y302101D01*
X83994Y302041D01*
X83994Y302041D01*
X84691Y301902D01*
X84691Y301902D01*
X84985Y301873D01*
D01*
X84985D01*
X85279Y301902D01*
X85284Y301904D01*
X87663Y301870D01*
X87674Y301870D01*
X87685Y301869D01*
X87821Y301883D01*
X87958Y301894D01*
X87968Y301897D01*
X87979Y301898D01*
X88759Y302053D01*
X88759D01*
X89042Y302139D01*
X89057Y302147D01*
X89629Y301377D01*
X89649Y301340D01*
X88832Y300523D01*
X56238D01*
X43412Y313349D01*
X43409Y313398D01*
X43295Y313971D01*
X43108Y314523D01*
X42849Y315047D01*
X42525Y315532D01*
X42140Y315971D01*
X41701Y316356D01*
X41216Y316680D01*
X40693Y316938D01*
X40140Y317126D01*
X39568Y317240D01*
X38985Y317278D01*
X38403Y317240D01*
X37830Y317126D01*
X37277Y316938D01*
X36754Y316680D01*
X36269Y316356D01*
X35830Y315971D01*
X35445Y315532D01*
X35121Y315047D01*
X34862Y314523D01*
X34675Y313971D01*
X34561Y313398D01*
X34523Y312816D01*
X34561Y312233D01*
X34675Y311661D01*
X34862Y311108D01*
X35121Y310585D01*
X35445Y310099D01*
X35830Y309660D01*
X36269Y309276D01*
X36754Y308951D01*
X37277Y308693D01*
X37830Y308506D01*
X38403Y308392D01*
X38452Y308388D01*
X52305Y294536D01*
X52650Y294233D01*
X53031Y293978D01*
X53443Y293775D01*
X53877Y293628D01*
X54327Y293538D01*
X54327Y293538D01*
X54327Y293538D01*
X54327D01*
X54785Y293508D01*
X90285D01*
X90743Y293538D01*
X90832Y293556D01*
X91193Y293628D01*
X91480Y293725D01*
X91627Y293775D01*
X92039Y293978D01*
X92420Y294233D01*
X92581Y294374D01*
X92765Y294536D01*
X99215Y300985D01*
X100262Y300970D01*
X100274Y300970D01*
X100285Y300969D01*
X100421Y300983D01*
X100557Y300994D01*
X100568Y300997D01*
X100579Y300998D01*
X101359Y301153D01*
X101359D01*
X101642Y301239D01*
X101781Y301314D01*
X101903Y301378D01*
X101903Y301379D01*
X102564Y301821D01*
X102793Y302008D01*
Y302008D01*
X102793D01*
X102980Y302236D01*
X103422Y302898D01*
X103422Y302898D01*
X103487Y303019D01*
X103561Y303159D01*
X103647Y303441D01*
Y303441D01*
X103803Y304222D01*
X103832Y304516D01*
X103823Y304599D01*
X104727Y305027D01*
X110182Y299573D01*
X109799Y298649D01*
X108511D01*
X108347Y298717D01*
X107934Y298816D01*
X107510Y298849D01*
X107087Y298816D01*
X106673Y298717D01*
X106281Y298554D01*
X105918Y298332D01*
X105595Y298056D01*
X105319Y297733D01*
X105097Y297371D01*
X104934Y296978D01*
X104835Y296565D01*
X104802Y296141D01*
X104835Y295717D01*
X104934Y295304D01*
X105097Y294911D01*
X105286Y294603D01*
X105270Y294583D01*
X105048Y294221D01*
X104885Y293828D01*
X104786Y293415D01*
X104752Y292991D01*
X104786Y292568D01*
X104885Y292154D01*
X105048Y291762D01*
X105237Y291453D01*
X105220Y291434D01*
X104998Y291071D01*
X104835Y290679D01*
X104736Y290265D01*
X104703Y289842D01*
X104736Y289418D01*
X104835Y289005D01*
X104903Y288841D01*
Y285280D01*
X103417Y283794D01*
X102631Y284413D01*
X102723Y284562D01*
X102885Y284954D01*
X102984Y285368D01*
X103018Y285791D01*
X102984Y286215D01*
X102885Y286628D01*
X102723Y287021D01*
X102500Y287383D01*
X102225Y287706D01*
X101901Y287982D01*
X101539Y288205D01*
X101146Y288367D01*
X100733Y288466D01*
X100310Y288500D01*
X99886Y288466D01*
X99886Y288466D01*
X99835Y288514D01*
X99736Y288928D01*
X99573Y289320D01*
X99351Y289683D01*
X99075Y290006D01*
X98752Y290282D01*
X98389Y290504D01*
X97997Y290666D01*
X97584Y290766D01*
X97160Y290799D01*
X96736Y290766D01*
X96323Y290666D01*
X96159Y290598D01*
X75660D01*
X75267Y290567D01*
X74885Y290476D01*
X74521Y290325D01*
X74186Y290119D01*
X74186Y290119D01*
X74186Y290119D01*
X73887Y289864D01*
X62212Y278189D01*
X62212Y278189D01*
X62212Y278189D01*
X62212Y278189D01*
X62212D01*
X61956Y277890D01*
X61751Y277554D01*
X61600Y277191D01*
X61600Y277191D01*
X61600Y277191D01*
D01*
X61600Y277191D01*
X61600Y277191D01*
X61508Y276808D01*
X61477Y276416D01*
Y265217D01*
X61409Y265053D01*
X61310Y264639D01*
X61277Y264216D01*
X61310Y263792D01*
X61409Y263379D01*
X61572Y262986D01*
X61794Y262624D01*
X62070Y262301D01*
X62393Y262025D01*
X62756Y261803D01*
X63148Y261640D01*
X63561Y261541D01*
X63985Y261507D01*
X64222Y261526D01*
X64619Y260665D01*
X64632Y260610D01*
X62920Y258897D01*
X62756Y258829D01*
X62393Y258607D01*
X62070Y258331D01*
X61794Y258008D01*
X61572Y257645D01*
X61409Y257253D01*
X61310Y256839D01*
X61277Y256416D01*
X61310Y255992D01*
X61409Y255579D01*
X61572Y255186D01*
X61794Y254824D01*
X62070Y254501D01*
X62393Y254225D01*
X62756Y254003D01*
X63148Y253840D01*
X63561Y253741D01*
X63985Y253707D01*
X64409Y253741D01*
X64822Y253840D01*
X65215Y254003D01*
X65577Y254225D01*
X65900Y254501D01*
X66176Y254824D01*
X66398Y255186D01*
X66466Y255350D01*
X68853Y257738D01*
X69777Y257355D01*
Y249217D01*
X69709Y249053D01*
X69610Y248639D01*
X69577Y248216D01*
X69610Y247792D01*
X69709Y247379D01*
X69872Y246986D01*
X70094Y246624D01*
X70357Y246316D01*
X70094Y246008D01*
X69872Y245645D01*
X69709Y245253D01*
X69610Y244839D01*
X69577Y244416D01*
X69610Y243992D01*
X69654Y243809D01*
X69358Y243433D01*
X68368Y243023D01*
X58507D01*
X57262Y243146D01*
X55661Y243632D01*
X54186Y244420D01*
X52846Y245520D01*
X51795Y246610D01*
X51768Y246651D01*
X51626Y246812D01*
X51465Y246996D01*
X49445Y249016D01*
X49100Y249319D01*
X48718Y249574D01*
X48307Y249777D01*
X47872Y249924D01*
X47472Y250004D01*
Y250202D01*
X35091D01*
X34456Y250975D01*
X34457Y250978D01*
X34488Y251458D01*
X34457Y251937D01*
X34456Y251940D01*
X35091Y252713D01*
X47472D01*
Y253871D01*
X48784D01*
X48948Y253803D01*
X49361Y253704D01*
X49785Y253670D01*
X50209Y253704D01*
X50622Y253803D01*
X51015Y253966D01*
X51377Y254188D01*
X51700Y254464D01*
X51976Y254787D01*
X52198Y255149D01*
X52361Y255542D01*
X52460Y255955D01*
X52493Y256379D01*
X52460Y256802D01*
X52361Y257216D01*
X52198Y257608D01*
X51976Y257971D01*
X51700Y258294D01*
X51377Y258570D01*
X51015Y258792D01*
X50622Y258955D01*
X50209Y259054D01*
X49785Y259087D01*
X49361Y259054D01*
X48948Y258955D01*
X48784Y258887D01*
X47472D01*
Y259880D01*
X47472D01*
X47472Y259880D01*
X47472Y260044D01*
Y260316D01*
Y260587D01*
X47472Y260751D01*
X47472Y260751D01*
X47472D01*
Y261745D01*
X48884D01*
X49048Y261677D01*
X49461Y261578D01*
X49885Y261544D01*
X50309Y261578D01*
X50722Y261677D01*
X51115Y261840D01*
X51477Y262062D01*
X51800Y262338D01*
X52076Y262661D01*
X52298Y263023D01*
X52461Y263416D01*
X52560Y263829D01*
X52593Y264253D01*
X52560Y264676D01*
X52461Y265090D01*
X52298Y265482D01*
X52076Y265845D01*
X51800Y266168D01*
X51477Y266444D01*
X51115Y266666D01*
X50722Y266828D01*
X50309Y266928D01*
X49885Y266961D01*
X49461Y266928D01*
X49048Y266828D01*
X48884Y266760D01*
X47472D01*
Y267918D01*
X35091D01*
X34456Y268691D01*
X34457Y268695D01*
X34488Y269174D01*
X34457Y269654D01*
X34363Y270125D01*
X34209Y270580D01*
X33996Y271011D01*
X33729Y271410D01*
X33412Y271771D01*
X33051Y272088D01*
X32652Y272355D01*
X32221Y272568D01*
X31766Y272722D01*
X31294Y272816D01*
X30815Y272847D01*
X30336Y272816D01*
X29864Y272722D01*
X29409Y272568D01*
X28978Y272355D01*
X28579Y272088D01*
X28218Y271771D01*
X27901Y271410D01*
X27634Y271011D01*
X27421Y270580D01*
X27267Y270125D01*
X27173Y269654D01*
X27142Y269174D01*
X27173Y268695D01*
X27267Y268223D01*
X27421Y267768D01*
X27634Y267337D01*
X27901Y266938D01*
X28218Y266577D01*
X28579Y266260D01*
X28978Y265993D01*
X29409Y265780D01*
X29864Y265626D01*
X30336Y265532D01*
X30815Y265501D01*
X31294Y265532D01*
X31766Y265626D01*
X32221Y265780D01*
X32652Y265993D01*
X33051Y266260D01*
X33412Y266577D01*
X33694Y266898D01*
X33911Y266816D01*
X34630Y266336D01*
Y260751D01*
X34630D01*
X34630Y260751D01*
X34630Y260587D01*
Y260316D01*
Y260044D01*
X34630Y259880D01*
X34630Y259880D01*
X34630D01*
Y254295D01*
X33911Y253816D01*
X33694Y253734D01*
X33412Y254055D01*
X33051Y254372D01*
X32652Y254639D01*
X32221Y254851D01*
X31766Y255006D01*
X31294Y255099D01*
X30815Y255131D01*
X30336Y255099D01*
X29864Y255006D01*
X29409Y254851D01*
X28978Y254639D01*
X28579Y254372D01*
X28218Y254055D01*
X27901Y253694D01*
X27634Y253294D01*
X27421Y252863D01*
X27267Y252408D01*
X27173Y251937D01*
X27142Y251458D01*
X27173Y250978D01*
X27267Y250507D01*
X27421Y250052D01*
X27634Y249621D01*
X27901Y249221D01*
X28218Y248860D01*
X28579Y248543D01*
X28978Y248276D01*
X29409Y248064D01*
X29864Y247909D01*
X30336Y247816D01*
X30815Y247784D01*
X31294Y247816D01*
X31766Y247909D01*
X32221Y248064D01*
X32652Y248276D01*
X33051Y248543D01*
X33412Y248860D01*
X33694Y249181D01*
X33911Y249099D01*
X34630Y248620D01*
Y243320D01*
X25894D01*
X25284Y243286D01*
X24682Y243184D01*
X24377Y243096D01*
X23578Y243697D01*
X23580Y276934D01*
X24379Y277535D01*
X24682Y277448D01*
X25284Y277345D01*
X25894Y277311D01*
X35736D01*
X36346Y277345D01*
X36948Y277448D01*
X37535Y277617D01*
X38099Y277850D01*
X38633Y278146D01*
X39132Y278499D01*
X39587Y278906D01*
X39994Y279361D01*
X40347Y279859D01*
X40642Y280394D01*
X40876Y280958D01*
X41045Y281545D01*
X41148Y282147D01*
X41182Y282757D01*
X41148Y283366D01*
X41045Y283968D01*
X40876Y284555D01*
X40642Y285119D01*
X40347Y285654D01*
X39994Y286152D01*
X39587Y286607D01*
X39132Y287014D01*
X38633Y287368D01*
X38099Y287663D01*
X37535Y287897D01*
X36948Y288066D01*
X36346Y288168D01*
X35736Y288202D01*
X25894D01*
X25284Y288168D01*
X24682Y288066D01*
X24379Y287979D01*
X23581Y288580D01*
X23585Y366216D01*
X23585D01*
X23577Y366224D01*
X23610Y366726D01*
X23710Y367227D01*
X23874Y367711D01*
X24100Y368170D01*
X24384Y368595D01*
X24721Y368979D01*
X25106Y369317D01*
X25531Y369601D01*
X25989Y369827D01*
X26474Y369991D01*
X26975Y370091D01*
X27485Y370124D01*
X169365Y370116D01*
D02*
G37*
G36*
X276716Y358635D02*
X300116Y358662D01*
X300925Y358556D01*
X301679Y358243D01*
X302249Y357806D01*
X302802Y358231D01*
X303580Y358553D01*
X304416Y358663D01*
X342816Y358635D01*
Y358669D01*
X343834Y358535D01*
X344783Y358142D01*
X345597Y357517D01*
X346222Y356702D01*
X346615Y355753D01*
X346749Y354735D01*
X346716Y349035D01*
X345632D01*
X345644Y344477D01*
X345536Y344215D01*
X345516Y344235D01*
X343716D01*
X341879Y346141D01*
X340356Y347390D01*
X338619Y348319D01*
X336734Y348891D01*
X335265Y349035D01*
X304516D01*
Y349007D01*
X303654Y349120D01*
X302852Y349453D01*
X302162Y349982D01*
X302050Y350129D01*
X300864Y351101D01*
X299350Y351911D01*
X297706Y352409D01*
X296234Y352554D01*
X295997Y352555D01*
Y352535D01*
X294316D01*
X294316Y352559D01*
X289816Y352572D01*
X288719Y352427D01*
X287698Y352004D01*
X286820Y351331D01*
X286147Y350454D01*
X285724Y349432D01*
X285579Y348335D01*
X285616D01*
X285648Y325735D01*
X285521Y324769D01*
X285148Y323869D01*
X284555Y323097D01*
X283782Y322503D01*
X282882Y322131D01*
X281916Y322004D01*
Y322035D01*
X277316Y322013D01*
X277020Y322052D01*
X276976Y322043D01*
X268093Y322058D01*
Y322009D01*
X266133Y322202D01*
X264248Y322774D01*
X262511Y323703D01*
X260988Y324952D01*
X259738Y326475D01*
X258810Y328212D01*
X258238Y330097D01*
X258045Y332058D01*
X258093Y339035D01*
X258069D01*
X258255Y339972D01*
X258785Y340766D01*
X259579Y341296D01*
X260516Y341482D01*
Y341435D01*
X265116Y341399D01*
X266606Y341545D01*
X268038Y341980D01*
X269358Y342686D01*
X270516Y343635D01*
X271465Y344793D01*
X272171Y346113D01*
X272606Y347546D01*
X272752Y349035D01*
X272716D01*
X272681Y354635D01*
X272819Y355680D01*
X273222Y356653D01*
X273863Y357488D01*
X274698Y358129D01*
X275672Y358533D01*
X276716Y358670D01*
Y358635D01*
D02*
G37*
G36*
X245708Y340997D02*
Y327196D01*
X244784Y326814D01*
X243489Y328109D01*
X243190Y328364D01*
X243190Y328364D01*
X243190Y328364D01*
X242854Y328570D01*
X242491Y328720D01*
X242108Y328812D01*
X241716Y328843D01*
X241666D01*
Y331585D01*
X231423D01*
Y343585D01*
X241666D01*
Y343732D01*
X242590Y344115D01*
X245708Y340997D01*
D02*
G37*
G36*
X111785Y71665D02*
X116385Y71688D01*
X116681Y71649D01*
X116724Y71658D01*
X125608Y71643D01*
Y71692D01*
X127568Y71498D01*
X129453Y70927D01*
X131190Y69998D01*
X132713Y68748D01*
X133962Y67226D01*
X134891Y65488D01*
X135463Y63603D01*
X135656Y61643D01*
X135608Y54665D01*
X135632D01*
X135446Y53729D01*
X134915Y52935D01*
X134122Y52405D01*
X133185Y52218D01*
Y52265D01*
X128585Y52302D01*
X127095Y52155D01*
X125663Y51721D01*
X124342Y51015D01*
X123185Y50065D01*
X122235Y48908D01*
X121530Y47588D01*
X121095Y46155D01*
X120948Y44665D01*
X120985D01*
X121020Y39065D01*
X120882Y38021D01*
X120479Y37048D01*
X119838Y36213D01*
X119002Y35571D01*
X118029Y35168D01*
X116985Y35031D01*
Y35065D01*
X93585Y35039D01*
X92776Y35145D01*
X92022Y35458D01*
X91452Y35895D01*
X90899Y35470D01*
X90120Y35148D01*
X89285Y35038D01*
X50885Y35065D01*
Y35032D01*
X49867Y35166D01*
X48918Y35559D01*
X48103Y36184D01*
X47478Y36999D01*
X47085Y37947D01*
X46951Y38965D01*
X46985Y44665D01*
X48069D01*
X48057Y49224D01*
X48165Y49485D01*
X48185Y49465D01*
X49985D01*
X51822Y47560D01*
X53345Y46310D01*
X55082Y45382D01*
X56967Y44810D01*
X58436Y44665D01*
X89185D01*
Y44694D01*
X90047Y44580D01*
X90849Y44248D01*
X91539Y43719D01*
X91651Y43572D01*
X92836Y42600D01*
X94351Y41790D01*
X95994Y41291D01*
X97467Y41146D01*
X97703Y41146D01*
Y41165D01*
X99385D01*
X99385Y41141D01*
X103885Y41129D01*
X104982Y41273D01*
X106003Y41697D01*
X106880Y42370D01*
X107554Y43247D01*
X107977Y44269D01*
X108121Y45365D01*
X108085D01*
X108053Y67965D01*
X108180Y68931D01*
X108553Y69831D01*
X109146Y70604D01*
X109919Y71197D01*
X110819Y71570D01*
X111785Y71697D01*
Y71665D01*
D02*
G37*
G36*
X366216Y370116D02*
Y370116D01*
X366224Y370124D01*
X366726Y370091D01*
X367227Y369991D01*
X367711Y369827D01*
X368170Y369601D01*
X368595Y369317D01*
X368979Y368979D01*
X369317Y368595D01*
X369601Y368170D01*
X369827Y367711D01*
X369991Y367227D01*
X370091Y366726D01*
X370124Y366216D01*
X370124Y358499D01*
X369325Y357897D01*
X369019Y357985D01*
X368417Y358088D01*
X367807Y358122D01*
X357965D01*
X357355Y358088D01*
X356753Y357985D01*
X356166Y357816D01*
X355602Y357583D01*
X355067Y357287D01*
X354569Y356934D01*
X354114Y356527D01*
X353707Y356072D01*
X353354Y355574D01*
X353058Y355039D01*
X352825Y354475D01*
X352656Y353888D01*
X352553Y353286D01*
X352519Y352676D01*
X352553Y352067D01*
X352656Y351465D01*
X352825Y350878D01*
X353058Y350314D01*
X353354Y349779D01*
X353707Y349281D01*
X354114Y348826D01*
X354350Y348615D01*
X353994Y347680D01*
X348223D01*
Y349074D01*
X348257Y354727D01*
X348247Y354829D01*
X348244Y354932D01*
X348110Y355950D01*
X348098Y355998D01*
X348094Y356048D01*
X348065Y356142D01*
X348043Y356238D01*
X348022Y356283D01*
X348008Y356330D01*
X347615Y357279D01*
X347592Y357323D01*
X347574Y357369D01*
X347522Y357453D01*
X347476Y357540D01*
X347444Y357578D01*
X347418Y357620D01*
X346793Y358435D01*
X346759Y358471D01*
X346730Y358511D01*
X346658Y358578D01*
X346591Y358650D01*
X346551Y358679D01*
X346515Y358713D01*
X345700Y359338D01*
X345658Y359364D01*
X345620Y359395D01*
X345533Y359442D01*
X345449Y359494D01*
X345403Y359511D01*
X345359Y359535D01*
X344411Y359928D01*
X344363Y359942D01*
X344318Y359962D01*
X344222Y359985D01*
X344128Y360013D01*
X344079Y360018D01*
X344031Y360029D01*
X343012Y360163D01*
X342914Y360167D01*
X342816Y360176D01*
X342766Y360172D01*
X342717Y360173D01*
X342620Y360157D01*
X342522Y360147D01*
X342507Y360143D01*
X338091Y360146D01*
X338091Y360164D01*
D01*
D01*
Y360707D01*
X338090D01*
Y366857D01*
X331941D01*
Y366857D01*
X331693Y366457D01*
X331693Y366457D01*
X331269Y366490D01*
X330846Y366457D01*
X330432Y366358D01*
X330040Y366195D01*
X329677Y365973D01*
X329499Y365820D01*
X328871Y366110D01*
X328590Y366349D01*
Y366857D01*
X322441D01*
Y366857D01*
X322193Y366457D01*
X322193Y366457D01*
X321769Y366490D01*
X321346Y366457D01*
X320932Y366358D01*
X320540Y366195D01*
X320177Y365973D01*
X319999Y365820D01*
X319371Y366110D01*
X319091Y366349D01*
Y366857D01*
X312941D01*
Y366857D01*
Y366856D01*
Y366857D01*
X312939Y366457D01*
Y366457D01*
X312516Y366490D01*
X312092Y366457D01*
X311679Y366358D01*
X311286Y366195D01*
X310924Y365973D01*
X310601Y365697D01*
X310325Y365374D01*
X310103Y365012D01*
X309940Y364619D01*
X309841Y364206D01*
X309807Y363782D01*
X309841Y363358D01*
X309940Y362945D01*
X310103Y362552D01*
X310325Y362190D01*
X310601Y361867D01*
X310924Y361591D01*
X311286Y361369D01*
X311679Y361206D01*
X311879Y361158D01*
X311761Y360165D01*
X304417Y360170D01*
X304318Y360161D01*
X304219Y360157D01*
X304109Y360143D01*
X300416D01*
X300312Y360157D01*
X300213Y360160D01*
X300114Y360170D01*
X277027Y360143D01*
X277010Y360148D01*
X276912Y360158D01*
X276814Y360174D01*
X276765Y360172D01*
X276716Y360177D01*
X276618Y360168D01*
X276519Y360164D01*
X275475Y360027D01*
X275427Y360016D01*
X275377Y360011D01*
X275283Y359982D01*
X275187Y359960D01*
X275142Y359939D01*
X275095Y359925D01*
X274122Y359522D01*
X274078Y359499D01*
X274032Y359481D01*
X273948Y359429D01*
X273861Y359383D01*
X273823Y359351D01*
X273781Y359325D01*
X272945Y358684D01*
X272909Y358650D01*
X272869Y358622D01*
X272802Y358550D01*
X272730Y358482D01*
X272701Y358442D01*
X272667Y358406D01*
X272026Y357570D01*
X272000Y357528D01*
X271969Y357490D01*
X271922Y357403D01*
X271870Y357319D01*
X271852Y357273D01*
X271829Y357229D01*
X271426Y356256D01*
X271412Y356209D01*
X271391Y356164D01*
X271369Y356068D01*
X271340Y355974D01*
X271336Y355925D01*
X271324Y355876D01*
X271187Y354832D01*
X271183Y354729D01*
X271174Y354626D01*
X271209Y349026D01*
X271223Y348886D01*
X271120Y347841D01*
X270772Y346693D01*
X270206Y345634D01*
X269445Y344706D01*
X268517Y343945D01*
X268371Y343867D01*
X267414Y344157D01*
X267333Y344309D01*
X267333D01*
X267333Y344309D01*
Y351246D01*
X258034D01*
Y350142D01*
X257870Y350074D01*
X257719Y350012D01*
X257383Y349806D01*
X257084Y349550D01*
X255347Y347814D01*
X254423Y348196D01*
Y357597D01*
X258852Y362025D01*
X267333D01*
Y368962D01*
X258034D01*
Y367887D01*
X257999Y367879D01*
X257635Y367728D01*
X257300Y367523D01*
X257001Y367267D01*
X250143Y360409D01*
X249887Y360109D01*
X249681Y359774D01*
X249531Y359410D01*
X249439Y359028D01*
X249408Y358635D01*
Y345696D01*
X248484Y345314D01*
X243189Y350609D01*
X242890Y350864D01*
X242554Y351070D01*
X242191Y351220D01*
X241808Y351312D01*
X241808D01*
X241808Y351312D01*
X241666Y351597D01*
Y364085D01*
X231166D01*
Y362327D01*
X230958Y362313D01*
X230508Y362223D01*
X230073Y362076D01*
X229662Y361873D01*
X229280Y361618D01*
X229119Y361477D01*
X228936Y361316D01*
X225436Y357816D01*
X225133Y357471D01*
X224878Y357089D01*
X224675Y356678D01*
X224528Y356243D01*
X224438Y355793D01*
X224408Y355335D01*
Y329935D01*
X224438Y329478D01*
X224528Y329028D01*
X224675Y328593D01*
X224878Y328182D01*
X225133Y327800D01*
X225436Y327455D01*
X229036Y323855D01*
X229380Y323553D01*
X229762Y323298D01*
X230173Y323095D01*
X230608Y322947D01*
X231058Y322858D01*
X231166Y322851D01*
Y311085D01*
X241666D01*
Y311432D01*
X242590Y311815D01*
X278838Y275567D01*
X278455Y274643D01*
X269576D01*
X264592Y275035D01*
X264561Y275425D01*
X264470Y275805D01*
X264320Y276167D01*
X264116Y276500D01*
X263862Y276798D01*
X263565Y277051D01*
X263231Y277256D01*
X262870Y277405D01*
X262490Y277497D01*
X262100Y277527D01*
X261710Y277497D01*
X261330Y277405D01*
X260969Y277256D01*
X260635Y277051D01*
X260338Y276798D01*
X260084Y276500D01*
X259880Y276167D01*
X259730Y275805D01*
X259639Y275425D01*
X259608Y275036D01*
D01*
D01*
D01*
X259608Y275035D01*
X259608Y275035D01*
D01*
X259608Y275035D01*
X259637Y274643D01*
X255054D01*
X247442Y282256D01*
X247384Y282993D01*
X248063Y283728D01*
X249777D01*
X253635Y279870D01*
X253703Y279706D01*
X253925Y279344D01*
X254201Y279020D01*
X254524Y278744D01*
X254886Y278522D01*
X255279Y278360D01*
X255692Y278260D01*
X256116Y278227D01*
X256539Y278260D01*
X256953Y278360D01*
X257345Y278522D01*
X257708Y278744D01*
X258031Y279020D01*
X258307Y279344D01*
X258529Y279706D01*
X258692Y280099D01*
X258791Y280512D01*
X258824Y280935D01*
X258791Y281359D01*
X258692Y281772D01*
X258529Y282165D01*
X258307Y282527D01*
X258031Y282851D01*
X257708Y283126D01*
X257345Y283349D01*
X257181Y283417D01*
X252589Y288009D01*
X252290Y288264D01*
X251954Y288470D01*
X251591Y288620D01*
X251208Y288712D01*
X250816Y288743D01*
X247917D01*
X247753Y288811D01*
X247339Y288910D01*
X246916Y288944D01*
X246492Y288910D01*
X246079Y288811D01*
X245686Y288649D01*
X245324Y288426D01*
X245001Y288151D01*
X244725Y287827D01*
X244503Y287465D01*
X244340Y287072D01*
X244241Y286659D01*
X244207Y286235D01*
X243354Y286170D01*
X242991Y286320D01*
X242608Y286412D01*
X242216Y286443D01*
X241666D01*
Y299185D01*
X231166D01*
Y268685D01*
X241666D01*
Y279632D01*
X242590Y280015D01*
X251059Y271546D01*
X251886Y269549D01*
X251524Y269326D01*
X251201Y269051D01*
X250925Y268727D01*
X250703Y268365D01*
X250540Y267972D01*
X250441Y267559D01*
X250407Y267135D01*
X250441Y266712D01*
X250540Y266299D01*
X250703Y265906D01*
X250925Y265544D01*
X251201Y265220D01*
X251524Y264944D01*
X251886Y264722D01*
X252279Y264560D01*
X252692Y264460D01*
X253116Y264427D01*
X253539Y264460D01*
X253953Y264560D01*
X254117Y264628D01*
X274477D01*
X279443Y259662D01*
X279742Y259407D01*
X280077Y259201D01*
X280441Y259050D01*
X280823Y258959D01*
X281216Y258928D01*
X290916D01*
X291308Y258959D01*
X291691Y259050D01*
X292054Y259201D01*
X292390Y259407D01*
X292390Y259407D01*
X292390Y259407D01*
X292689Y259662D01*
X295755Y262728D01*
X317015D01*
X317179Y262660D01*
X317592Y262560D01*
X318016Y262527D01*
X318439Y262560D01*
X318853Y262660D01*
X319245Y262822D01*
X319608Y263044D01*
X319931Y263320D01*
X320207Y263644D01*
X320429Y264006D01*
X320591Y264399D01*
X320606Y264458D01*
X321568Y264729D01*
X325981Y260317D01*
X326049Y260152D01*
X326271Y259790D01*
X326547Y259467D01*
X326870Y259191D01*
X327233Y258969D01*
X327625Y258806D01*
X328039Y258707D01*
X328462Y258674D01*
X328886Y258707D01*
X329299Y258806D01*
X329692Y258969D01*
X330054Y259191D01*
X330377Y259467D01*
X330653Y259790D01*
X330875Y260152D01*
X331018Y260497D01*
X331138Y260521D01*
X332496Y260195D01*
X332496Y260195D01*
X332496Y260195D01*
X350288Y242402D01*
X350292Y242353D01*
X350406Y241780D01*
X350593Y241228D01*
X350851Y240704D01*
X351176Y240219D01*
X351560Y239780D01*
X351999Y239395D01*
X352485Y239071D01*
X353008Y238813D01*
X353561Y238625D01*
X354133Y238511D01*
X354716Y238473D01*
X355298Y238511D01*
X355871Y238625D01*
X356423Y238813D01*
X356947Y239071D01*
X357432Y239395D01*
X357871Y239780D01*
X358256Y240219D01*
X358580Y240704D01*
X358838Y241228D01*
X359026Y241780D01*
X359140Y242353D01*
X359178Y242935D01*
X359140Y243518D01*
X359026Y244090D01*
X358838Y244643D01*
X358580Y245167D01*
X358256Y245652D01*
X357871Y246091D01*
X357432Y246476D01*
X356947Y246800D01*
X356423Y247058D01*
X355871Y247246D01*
X355298Y247360D01*
X355249Y247363D01*
X317496Y285116D01*
X317151Y285418D01*
X316770Y285673D01*
X316358Y285876D01*
X316211Y285926D01*
X315924Y286023D01*
X315474Y286113D01*
X315016Y286143D01*
X311916D01*
X311877Y286340D01*
X311877Y286340D01*
X311799Y286597D01*
X311792Y286623D01*
D01*
X311792Y286623D01*
X311737Y286725D01*
X311652Y286883D01*
X311652Y286883D01*
X311257Y287474D01*
X311257Y287474D01*
X311070Y287703D01*
X311070Y287703D01*
X311070Y287703D01*
X310947Y287803D01*
X310841Y287890D01*
X310250Y288285D01*
X310250Y288285D01*
X310008Y288415D01*
X309990Y288424D01*
D01*
X309990Y288424D01*
X309905Y288450D01*
X309707Y288510D01*
X309707Y288510D01*
X309010Y288649D01*
X309010Y288649D01*
X308716Y288678D01*
X308716D01*
D01*
X308422Y288649D01*
X308417Y288647D01*
X306038Y288682D01*
X306027Y288681D01*
X306016Y288682D01*
X305880Y288668D01*
X305743Y288657D01*
X305733Y288654D01*
X305722Y288653D01*
X304941Y288498D01*
X304941D01*
X304659Y288412D01*
X304643Y288404D01*
X304072Y289174D01*
X304052Y289212D01*
X304869Y290028D01*
X337463D01*
X350288Y277202D01*
X350292Y277153D01*
X350406Y276581D01*
X350593Y276028D01*
X350851Y275504D01*
X351176Y275019D01*
X351560Y274580D01*
X351999Y274195D01*
X352485Y273871D01*
X353008Y273613D01*
X353561Y273425D01*
X354133Y273311D01*
X354716Y273273D01*
X355298Y273311D01*
X355871Y273425D01*
X356423Y273613D01*
X356947Y273871D01*
X357432Y274195D01*
X357871Y274580D01*
X358256Y275019D01*
X358580Y275504D01*
X358838Y276028D01*
X359026Y276581D01*
X359140Y277153D01*
X359178Y277735D01*
X359140Y278318D01*
X359026Y278890D01*
X358838Y279443D01*
X358580Y279967D01*
X358256Y280452D01*
X357871Y280891D01*
X357432Y281276D01*
X356947Y281600D01*
X356423Y281858D01*
X355871Y282046D01*
X355298Y282160D01*
X355249Y282163D01*
X341396Y296016D01*
X341051Y296318D01*
X340669Y296573D01*
X340258Y296776D01*
X339824Y296923D01*
X339374Y297013D01*
X339374Y297013D01*
X339374Y297013D01*
X339374D01*
X338916Y297043D01*
X303416D01*
X302958Y297013D01*
X302868Y296995D01*
X302508Y296923D01*
X302221Y296826D01*
X302074Y296776D01*
X301662Y296573D01*
X301280Y296318D01*
X301119Y296177D01*
X300936Y296016D01*
X294486Y289566D01*
X293439Y289582D01*
X293427Y289581D01*
X293416Y289582D01*
X293280Y289568D01*
X293144Y289557D01*
X293133Y289554D01*
X293122Y289553D01*
X292341Y289398D01*
X292341D01*
X292059Y289312D01*
X291919Y289237D01*
X291798Y289173D01*
X291798Y289173D01*
X291136Y288731D01*
X290908Y288543D01*
Y288543D01*
X290908D01*
X290721Y288315D01*
X290279Y287653D01*
X290279Y287653D01*
X290214Y287532D01*
X290139Y287393D01*
X290054Y287110D01*
Y287110D01*
X289898Y286330D01*
X289869Y286035D01*
X289878Y285952D01*
X288974Y285524D01*
X283519Y290979D01*
X283902Y291902D01*
X285189D01*
X285354Y291834D01*
X285767Y291735D01*
X286191Y291702D01*
X286614Y291735D01*
X287028Y291834D01*
X287420Y291997D01*
X287783Y292219D01*
X288106Y292495D01*
X288382Y292818D01*
X288604Y293181D01*
X288766Y293573D01*
X288866Y293987D01*
X288899Y294410D01*
X288866Y294834D01*
X288766Y295247D01*
X288604Y295640D01*
X288415Y295948D01*
X288431Y295968D01*
X288653Y296330D01*
X288816Y296723D01*
X288915Y297136D01*
X288948Y297560D01*
X288915Y297984D01*
X288816Y298397D01*
X288653Y298789D01*
X288464Y299098D01*
X288481Y299117D01*
X288703Y299480D01*
X288865Y299872D01*
X288965Y300286D01*
X288998Y300710D01*
X288965Y301133D01*
X288865Y301546D01*
X288797Y301711D01*
Y305271D01*
X290284Y306757D01*
X291069Y306138D01*
X290978Y305989D01*
X290815Y305597D01*
X290716Y305184D01*
X290683Y304760D01*
X290716Y304336D01*
X290815Y303923D01*
X290978Y303530D01*
X291200Y303168D01*
X291476Y302845D01*
X291799Y302569D01*
X292162Y302347D01*
X292554Y302184D01*
X292968Y302085D01*
X293391Y302051D01*
X293815Y302085D01*
X293815Y302085D01*
X293866Y302037D01*
X293965Y301624D01*
X294128Y301231D01*
X294350Y300869D01*
X294626Y300546D01*
X294949Y300270D01*
X295311Y300047D01*
X295704Y299885D01*
X296117Y299786D01*
X296541Y299752D01*
X296965Y299786D01*
X297378Y299885D01*
X297542Y299953D01*
X318041D01*
X318433Y299984D01*
X318816Y300076D01*
X319179Y300226D01*
X319515Y300432D01*
X319515Y300432D01*
X319515Y300432D01*
X319814Y300687D01*
X331489Y312362D01*
D01*
X331489Y312362D01*
X331489Y312362D01*
X331489D01*
X331745Y312661D01*
X331950Y312997D01*
X332101Y313361D01*
X332101Y313361D01*
X332101Y313361D01*
D01*
X332101Y313361D01*
X332101Y313361D01*
X332193Y313743D01*
X332224Y314135D01*
Y325334D01*
X332292Y325499D01*
X332391Y325912D01*
X332424Y326335D01*
X332391Y326759D01*
X332292Y327172D01*
X332129Y327565D01*
X331907Y327927D01*
X331631Y328251D01*
X331308Y328526D01*
X330945Y328749D01*
X330553Y328911D01*
X330139Y329010D01*
X329716Y329044D01*
X329479Y329025D01*
X329082Y329886D01*
X329068Y329942D01*
X330781Y331654D01*
X330945Y331722D01*
X331308Y331944D01*
X331631Y332220D01*
X331907Y332543D01*
X332129Y332906D01*
X332292Y333298D01*
X332391Y333712D01*
X332424Y334135D01*
X332391Y334559D01*
X332292Y334972D01*
X332129Y335365D01*
X331907Y335727D01*
X331631Y336051D01*
X331308Y336327D01*
X330945Y336549D01*
X330553Y336711D01*
X330139Y336810D01*
X329716Y336844D01*
X329292Y336810D01*
X328879Y336711D01*
X328486Y336549D01*
X328124Y336327D01*
X327801Y336051D01*
X327525Y335727D01*
X327303Y335365D01*
X327235Y335201D01*
X324847Y332814D01*
X323923Y333196D01*
Y341334D01*
X323991Y341498D01*
X324091Y341912D01*
X324124Y342335D01*
X324091Y342759D01*
X323991Y343172D01*
X323829Y343565D01*
X323607Y343927D01*
X323344Y344235D01*
X323607Y344544D01*
X323829Y344906D01*
X323991Y345299D01*
X324091Y345712D01*
X324124Y346135D01*
X324091Y346559D01*
X324047Y346743D01*
X324342Y347118D01*
X325333Y347528D01*
X335193D01*
X336438Y347405D01*
X338039Y346920D01*
X339515Y346131D01*
X340855Y345031D01*
X341905Y343941D01*
X341933Y343900D01*
X342074Y343739D01*
X342236Y343555D01*
X344256Y341535D01*
X344601Y341232D01*
X344983Y340977D01*
X345394Y340774D01*
X345828Y340627D01*
X346228Y340547D01*
Y340350D01*
X358610D01*
X359245Y339577D01*
X359244Y339573D01*
X359213Y339094D01*
X359244Y338614D01*
X359245Y338611D01*
X358610Y337838D01*
X346228D01*
Y336680D01*
X344917D01*
X344753Y336748D01*
X344339Y336847D01*
X343916Y336881D01*
X343492Y336847D01*
X343079Y336748D01*
X342686Y336586D01*
X342324Y336364D01*
X342001Y336087D01*
X341725Y335764D01*
X341503Y335402D01*
X341340Y335009D01*
X341241Y334596D01*
X341207Y334172D01*
X341241Y333749D01*
X341340Y333335D01*
X341503Y332943D01*
X341725Y332580D01*
X342001Y332257D01*
X342324Y331981D01*
X342686Y331759D01*
X343079Y331597D01*
X343492Y331497D01*
X343916Y331464D01*
X344339Y331497D01*
X344753Y331597D01*
X344917Y331665D01*
X346228D01*
Y330671D01*
X346228D01*
X346228Y330671D01*
X346228Y330507D01*
Y330235D01*
Y329964D01*
X346228Y329800D01*
X346228Y329800D01*
X346228D01*
Y328806D01*
X344817D01*
X344653Y328874D01*
X344239Y328973D01*
X343816Y329007D01*
X343392Y328973D01*
X342979Y328874D01*
X342586Y328712D01*
X342224Y328489D01*
X341901Y328214D01*
X341625Y327890D01*
X341403Y327528D01*
X341240Y327135D01*
X341141Y326722D01*
X341107Y326298D01*
X341141Y325875D01*
X341240Y325462D01*
X341403Y325069D01*
X341625Y324707D01*
X341901Y324383D01*
X342224Y324107D01*
X342586Y323885D01*
X342979Y323723D01*
X343392Y323623D01*
X343816Y323590D01*
X344239Y323623D01*
X344653Y323723D01*
X344817Y323791D01*
X346228D01*
Y322633D01*
X358610D01*
X359245Y321860D01*
X359244Y321857D01*
X359213Y321377D01*
X359244Y320898D01*
X359338Y320427D01*
X359492Y319971D01*
X359705Y319541D01*
X359972Y319141D01*
X360289Y318780D01*
X360650Y318463D01*
X361049Y318196D01*
X361480Y317984D01*
X361935Y317829D01*
X362406Y317735D01*
X362886Y317704D01*
X363365Y317735D01*
X363837Y317829D01*
X364292Y317984D01*
X364722Y318196D01*
X365122Y318463D01*
X365483Y318780D01*
X365800Y319141D01*
X366067Y319541D01*
X366279Y319971D01*
X366434Y320427D01*
X366528Y320898D01*
X366559Y321377D01*
X366528Y321857D01*
X366434Y322328D01*
X366279Y322783D01*
X366067Y323214D01*
X365800Y323613D01*
X365483Y323974D01*
X365122Y324291D01*
X364722Y324558D01*
X364292Y324771D01*
X363837Y324925D01*
X363365Y325019D01*
X362886Y325050D01*
X362406Y325019D01*
X361935Y324925D01*
X361480Y324771D01*
X361049Y324558D01*
X360650Y324291D01*
X360289Y323974D01*
X360007Y323653D01*
X359789Y323735D01*
X359071Y324215D01*
Y329800D01*
X359071D01*
X359071Y329800D01*
X359071Y329964D01*
Y330235D01*
Y330507D01*
X359071Y330671D01*
X359071Y330671D01*
X359071D01*
Y336256D01*
X359789Y336736D01*
X360007Y336818D01*
X360289Y336496D01*
X360650Y336180D01*
X361049Y335913D01*
X361480Y335700D01*
X361935Y335546D01*
X362406Y335452D01*
X362886Y335420D01*
X363365Y335452D01*
X363837Y335546D01*
X364292Y335700D01*
X364722Y335913D01*
X365122Y336180D01*
X365483Y336496D01*
X365800Y336858D01*
X366067Y337257D01*
X366279Y337688D01*
X366434Y338143D01*
X366528Y338614D01*
X366559Y339094D01*
X366528Y339573D01*
X366434Y340044D01*
X366279Y340499D01*
X366067Y340930D01*
X365800Y341330D01*
X365483Y341691D01*
X365122Y342008D01*
X364722Y342275D01*
X364292Y342487D01*
X363837Y342642D01*
X363365Y342736D01*
X362886Y342767D01*
X362406Y342736D01*
X361935Y342642D01*
X361480Y342487D01*
X361049Y342275D01*
X360650Y342008D01*
X360289Y341691D01*
X360007Y341370D01*
X359789Y341452D01*
X359071Y341932D01*
Y347231D01*
X367807D01*
X368417Y347265D01*
X369019Y347367D01*
X369324Y347455D01*
X370123Y346854D01*
X370121Y313617D01*
X369322Y313016D01*
X369019Y313104D01*
X368417Y313206D01*
X367807Y313240D01*
X357965D01*
X357355Y313206D01*
X356753Y313104D01*
X356166Y312934D01*
X355602Y312701D01*
X355067Y312405D01*
X354569Y312052D01*
X354114Y311645D01*
X353707Y311190D01*
X353354Y310692D01*
X353058Y310157D01*
X352825Y309593D01*
X352656Y309006D01*
X352553Y308404D01*
X352519Y307794D01*
X352553Y307185D01*
X352656Y306583D01*
X352825Y305996D01*
X353058Y305432D01*
X353354Y304897D01*
X353707Y304399D01*
X354114Y303944D01*
X354569Y303537D01*
X355067Y303184D01*
X355602Y302888D01*
X356166Y302655D01*
X356753Y302485D01*
X357355Y302383D01*
X357965Y302349D01*
X367807D01*
X368417Y302383D01*
X369019Y302485D01*
X369321Y302573D01*
X370120Y301971D01*
X370116Y224335D01*
X370116D01*
X370124Y224327D01*
X370091Y223825D01*
X369991Y223324D01*
X369827Y222840D01*
X369601Y222381D01*
X369317Y221956D01*
X368979Y221572D01*
X368595Y221235D01*
X368170Y220951D01*
X367711Y220725D01*
X367227Y220560D01*
X366726Y220461D01*
X366216Y220427D01*
X224335Y220435D01*
Y220435D01*
X224327Y220428D01*
X223825Y220461D01*
X223324Y220560D01*
X222840Y220725D01*
X222381Y220951D01*
X221956Y221235D01*
X221572Y221572D01*
X221235Y221956D01*
X220951Y222381D01*
X220725Y222840D01*
X220560Y223324D01*
X220461Y223825D01*
X220435Y224208D01*
Y224208D01*
D01*
D01*
Y224208D01*
D01*
X220435Y224208D01*
Y366216D01*
X220435D01*
X220428Y366224D01*
X220461Y366726D01*
X220560Y367227D01*
X220725Y367711D01*
X220951Y368170D01*
X221235Y368595D01*
X221572Y368979D01*
X221956Y369317D01*
X222381Y369601D01*
X222840Y369827D01*
X223324Y369991D01*
X223825Y370091D01*
X224335Y370124D01*
X366216Y370116D01*
D02*
G37*
G36*
X150212Y65592D02*
X150511Y65337D01*
X150511Y65337D01*
X150511Y65337D01*
X150847Y65131D01*
X151210Y64980D01*
X151593Y64889D01*
X151985Y64858D01*
X152035D01*
Y62115D01*
X162277D01*
Y50115D01*
X152035D01*
Y49968D01*
X151111Y49586D01*
X147993Y52704D01*
Y66505D01*
X148917Y66887D01*
X150212Y65592D01*
D02*
G37*
G36*
X101065Y308900D02*
X101727Y308458D01*
X102169Y307796D01*
X102324Y307016D01*
X102285Y304516D01*
X102324D01*
X102169Y303735D01*
X101727Y303074D01*
X101065Y302632D01*
X100285Y302477D01*
X97685Y302516D01*
Y302481D01*
X96983Y302620D01*
X96387Y303018D01*
X95990Y303613D01*
X95850Y304316D01*
X95885Y304416D01*
X95805D01*
X95785Y304408D01*
Y304416D01*
X95805D01*
X95862Y304439D01*
X95893Y304516D01*
X95885Y307016D01*
X95846D01*
X96001Y307796D01*
X96443Y308458D01*
X97105Y308900D01*
X97885Y309055D01*
X100285Y309016D01*
Y309055D01*
X101065Y308900D01*
D02*
G37*
G36*
X88465Y309800D02*
X89127Y309358D01*
X89569Y308696D01*
X89724Y307916D01*
X89685Y305416D01*
X89724D01*
X89569Y304635D01*
X89127Y303974D01*
X88465Y303532D01*
X87685Y303377D01*
X84985Y303416D01*
Y303381D01*
X84288Y303519D01*
X83697Y303914D01*
X83302Y304505D01*
X83163Y305203D01*
X83198Y307916D01*
X83159D01*
X83314Y308696D01*
X83756Y309358D01*
X84418Y309800D01*
X85198Y309955D01*
X87685Y309916D01*
Y309955D01*
X88465Y309800D01*
D02*
G37*
%LPC*%
G36*
X275701Y34945D02*
X275093Y34905D01*
X274495Y34786D01*
X273918Y34590D01*
X273371Y34320D01*
X272864Y33982D01*
X272406Y33580D01*
X272004Y33122D01*
X271666Y32615D01*
X271396Y32068D01*
X271200Y31491D01*
X271081Y30893D01*
X271041Y30285D01*
X271081Y29677D01*
X271200Y29079D01*
X271396Y28502D01*
X271666Y27955D01*
X272004Y27448D01*
X272406Y26990D01*
X272864Y26588D01*
X273371Y26250D01*
X273918Y25980D01*
X274495Y25784D01*
X275093Y25665D01*
X275701Y25626D01*
X276309Y25665D01*
X276907Y25784D01*
X277484Y25980D01*
X278031Y26250D01*
X278537Y26588D01*
X278996Y26990D01*
X279398Y27448D01*
X279736Y27955D01*
X280006Y28502D01*
X280202Y29079D01*
X280321Y29677D01*
X280360Y30285D01*
X280321Y30893D01*
X280202Y31491D01*
X280006Y32068D01*
X279736Y32615D01*
X279398Y33122D01*
X278996Y33580D01*
X278537Y33982D01*
X278031Y34320D01*
X277484Y34590D01*
X276907Y34786D01*
X276309Y34905D01*
X275701Y34945D01*
D02*
G37*
G36*
X40461Y169007D02*
X37509D01*
X37042Y168970D01*
X36586Y168861D01*
X36153Y168681D01*
X35754Y168437D01*
X35398Y168132D01*
X35093Y167776D01*
X34848Y167377D01*
X34669Y166944D01*
X34560Y166488D01*
X34523Y166021D01*
Y163068D01*
X34560Y162601D01*
X34669Y162146D01*
X34848Y161713D01*
X35093Y161314D01*
X35398Y160957D01*
X35754Y160653D01*
X36153Y160408D01*
X36586Y160229D01*
X37042Y160120D01*
X37509Y160083D01*
X38487D01*
X43684Y154885D01*
X44029Y154583D01*
X44411Y154328D01*
X44822Y154125D01*
X44970Y154075D01*
X45257Y153977D01*
X45707Y153888D01*
X46165Y153858D01*
X60420D01*
X60776Y152924D01*
X60505Y152681D01*
X60093Y152220D01*
X59736Y151717D01*
X59437Y151176D01*
X59201Y150605D01*
X59029Y150012D01*
X58926Y149403D01*
X58891Y148786D01*
Y144975D01*
X58926Y144358D01*
X59029Y143749D01*
X59201Y143155D01*
X59437Y142585D01*
X59736Y142044D01*
X60093Y141540D01*
X60505Y141080D01*
X60965Y140668D01*
X61469Y140311D01*
X62010Y140012D01*
X62581Y139775D01*
X63174Y139604D01*
X63783Y139501D01*
X64400Y139466D01*
X65017Y139501D01*
X65626Y139604D01*
X66219Y139775D01*
X66790Y140012D01*
X67331Y140311D01*
X67835Y140668D01*
X68295Y141080D01*
X68707Y141540D01*
X68821Y141701D01*
X69821D01*
X69936Y141540D01*
X70347Y141080D01*
X70808Y140668D01*
X71312Y140311D01*
X71852Y140012D01*
X72423Y139775D01*
X73017Y139604D01*
X73626Y139501D01*
X74243Y139466D01*
X74859Y139501D01*
X75468Y139604D01*
X76062Y139775D01*
X76633Y140012D01*
X77173Y140311D01*
X77677Y140668D01*
X78138Y141080D01*
X78549Y141540D01*
X78907Y142044D01*
X79206Y142585D01*
X79442Y143155D01*
X79613Y143749D01*
X79716Y144358D01*
X79751Y144975D01*
Y148786D01*
X79716Y149403D01*
X79613Y150012D01*
X79442Y150605D01*
X79206Y151176D01*
X78907Y151717D01*
X78549Y152220D01*
X78138Y152681D01*
X77866Y152924D01*
X78223Y153858D01*
X89947D01*
X90304Y152924D01*
X90032Y152681D01*
X89621Y152220D01*
X89263Y151717D01*
X88964Y151176D01*
X88728Y150605D01*
X88557Y150012D01*
X88454Y149403D01*
X88419Y148786D01*
Y144975D01*
X88454Y144358D01*
X88557Y143749D01*
X88728Y143155D01*
X88964Y142585D01*
X89263Y142044D01*
X89621Y141540D01*
X90032Y141080D01*
X90493Y140668D01*
X90997Y140311D01*
X91537Y140012D01*
X92108Y139775D01*
X92702Y139604D01*
X93311Y139501D01*
X93928Y139466D01*
X94544Y139501D01*
X95153Y139604D01*
X95747Y139775D01*
X96318Y140012D01*
X96858Y140311D01*
X97362Y140668D01*
X97823Y141080D01*
X98234Y141540D01*
X98349Y141701D01*
X99349D01*
X99463Y141540D01*
X99875Y141080D01*
X100336Y140668D01*
X100839Y140311D01*
X101380Y140012D01*
X101951Y139775D01*
X102544Y139604D01*
X103153Y139501D01*
X103770Y139466D01*
X104387Y139501D01*
X104996Y139604D01*
X105589Y139775D01*
X106160Y140012D01*
X106701Y140311D01*
X107205Y140668D01*
X107665Y141080D01*
X108077Y141540D01*
X108434Y142044D01*
X108733Y142585D01*
X108970Y143155D01*
X109141Y143749D01*
X109244Y144358D01*
X109279Y144975D01*
Y148786D01*
X109244Y149403D01*
X109141Y150012D01*
X108970Y150605D01*
X108733Y151176D01*
X108434Y151717D01*
X108077Y152220D01*
X107665Y152681D01*
X107205Y153093D01*
X106701Y153450D01*
X106160Y153749D01*
X105822Y153889D01*
X99865Y159845D01*
X99520Y160148D01*
X99139Y160403D01*
X98727Y160606D01*
X98293Y160753D01*
X97843Y160843D01*
X97385Y160873D01*
X47617D01*
X43447Y165043D01*
Y166021D01*
X43410Y166488D01*
X43301Y166944D01*
X43122Y167377D01*
X42877Y167776D01*
X42573Y168132D01*
X42216Y168437D01*
X41817Y168681D01*
X41384Y168861D01*
X40929Y168970D01*
X40461Y169007D01*
D02*
G37*
G36*
X157370Y154295D02*
X156753Y154260D01*
X156144Y154156D01*
X155551Y153985D01*
X154980Y153749D01*
X154439Y153450D01*
X153936Y153093D01*
X153475Y152681D01*
X153063Y152220D01*
X152949Y152059D01*
X151949D01*
X151834Y152220D01*
X151423Y152681D01*
X150962Y153093D01*
X150458Y153450D01*
X149918Y153749D01*
X149347Y153985D01*
X148753Y154156D01*
X148144Y154260D01*
X147528Y154295D01*
X146911Y154260D01*
X146302Y154156D01*
X145708Y153985D01*
X145137Y153749D01*
X144597Y153450D01*
X144093Y153093D01*
X143632Y152681D01*
X143221Y152220D01*
X142863Y151717D01*
X142564Y151176D01*
X142328Y150605D01*
X142157Y150012D01*
X142053Y149403D01*
X142019Y148786D01*
Y144975D01*
X142053Y144358D01*
X142157Y143749D01*
X142328Y143155D01*
X142564Y142585D01*
X142863Y142044D01*
X143221Y141540D01*
X143632Y141080D01*
X144093Y140668D01*
X144597Y140311D01*
X145137Y140012D01*
X145708Y139775D01*
X146302Y139604D01*
X146911Y139501D01*
X147528Y139466D01*
X148144Y139501D01*
X148753Y139604D01*
X149347Y139775D01*
X149918Y140012D01*
X150458Y140311D01*
X150962Y140668D01*
X151423Y141080D01*
X151834Y141540D01*
X151949Y141701D01*
X152949D01*
X153063Y141540D01*
X153475Y141080D01*
X153936Y140668D01*
X154439Y140311D01*
X154980Y140012D01*
X155551Y139775D01*
X156144Y139604D01*
X156753Y139501D01*
X157370Y139466D01*
X157987Y139501D01*
X158596Y139604D01*
X159189Y139775D01*
X159760Y140012D01*
X160301Y140311D01*
X160805Y140668D01*
X161265Y141080D01*
X161677Y141540D01*
X162034Y142044D01*
X162333Y142585D01*
X162570Y143155D01*
X162741Y143749D01*
X162844Y144358D01*
X162879Y144975D01*
Y148786D01*
X162844Y149403D01*
X162741Y150012D01*
X162570Y150605D01*
X162333Y151176D01*
X162034Y151717D01*
X161677Y152220D01*
X161265Y152681D01*
X160805Y153093D01*
X160301Y153450D01*
X159760Y153749D01*
X159189Y153985D01*
X158596Y154156D01*
X157987Y154260D01*
X157370Y154295D01*
D02*
G37*
G36*
X102202Y31676D02*
X92903D01*
Y24739D01*
X102202D01*
Y31676D01*
D02*
G37*
G36*
X236331Y34945D02*
X235722Y34905D01*
X235125Y34786D01*
X234548Y34590D01*
X234001Y34320D01*
X233494Y33982D01*
X233036Y33580D01*
X232634Y33122D01*
X232295Y32615D01*
X232026Y32068D01*
X231830Y31491D01*
X231711Y30893D01*
X231671Y30285D01*
X231711Y29677D01*
X231830Y29079D01*
X232026Y28502D01*
X232295Y27955D01*
X232634Y27448D01*
X233036Y26990D01*
X233494Y26588D01*
X234001Y26250D01*
X234548Y25980D01*
X235125Y25784D01*
X235722Y25665D01*
X236331Y25626D01*
X236939Y25665D01*
X237537Y25784D01*
X238114Y25980D01*
X238661Y26250D01*
X239167Y26588D01*
X239626Y26990D01*
X240027Y27448D01*
X240366Y27955D01*
X240636Y28502D01*
X240831Y29079D01*
X240950Y29677D01*
X240990Y30285D01*
X240950Y30893D01*
X240831Y31491D01*
X240636Y32068D01*
X240366Y32615D01*
X240027Y33122D01*
X239626Y33580D01*
X239167Y33982D01*
X238661Y34320D01*
X238114Y34590D01*
X237537Y34786D01*
X236939Y34905D01*
X236331Y34945D01*
D02*
G37*
G36*
X127842Y154295D02*
X127226Y154260D01*
X126617Y154156D01*
X126023Y153985D01*
X125452Y153749D01*
X124912Y153450D01*
X124408Y153093D01*
X123947Y152681D01*
X123536Y152220D01*
X123421Y152059D01*
X122421D01*
X122307Y152220D01*
X121895Y152681D01*
X121435Y153093D01*
X120931Y153450D01*
X120390Y153749D01*
X119819Y153985D01*
X119226Y154156D01*
X118617Y154260D01*
X118000Y154295D01*
X117383Y154260D01*
X116774Y154156D01*
X116181Y153985D01*
X115610Y153749D01*
X115069Y153450D01*
X114565Y153093D01*
X114105Y152681D01*
X113693Y152220D01*
X113336Y151717D01*
X113037Y151176D01*
X112801Y150605D01*
X112629Y150012D01*
X112526Y149403D01*
X112491Y148786D01*
Y144975D01*
X112526Y144358D01*
X112629Y143749D01*
X112801Y143155D01*
X113037Y142585D01*
X113336Y142044D01*
X113693Y141540D01*
X114105Y141080D01*
X114565Y140668D01*
X115069Y140311D01*
X115610Y140012D01*
X116181Y139775D01*
X116774Y139604D01*
X117383Y139501D01*
X118000Y139466D01*
X118617Y139501D01*
X119226Y139604D01*
X119819Y139775D01*
X120390Y140012D01*
X120931Y140311D01*
X121435Y140668D01*
X121895Y141080D01*
X122307Y141540D01*
X122421Y141701D01*
X123421D01*
X123536Y141540D01*
X123947Y141080D01*
X124408Y140668D01*
X124912Y140311D01*
X125452Y140012D01*
X126023Y139775D01*
X126617Y139604D01*
X127226Y139501D01*
X127842Y139466D01*
X128459Y139501D01*
X129068Y139604D01*
X129662Y139775D01*
X130233Y140012D01*
X130773Y140311D01*
X131277Y140668D01*
X131738Y141080D01*
X132149Y141540D01*
X132507Y142044D01*
X132806Y142585D01*
X133042Y143155D01*
X133213Y143749D01*
X133317Y144358D01*
X133351Y144975D01*
Y148786D01*
X133317Y149403D01*
X133213Y150012D01*
X133042Y150605D01*
X132806Y151176D01*
X132507Y151717D01*
X132149Y152220D01*
X131738Y152681D01*
X131277Y153093D01*
X130773Y153450D01*
X130233Y153749D01*
X129662Y153985D01*
X129068Y154156D01*
X128459Y154260D01*
X127842Y154295D01*
D02*
G37*
G36*
X40461Y134207D02*
X37509D01*
X37042Y134170D01*
X36586Y134061D01*
X36153Y133881D01*
X35754Y133637D01*
X35398Y133332D01*
X35093Y132976D01*
X34848Y132577D01*
X34669Y132144D01*
X34560Y131688D01*
X34523Y131221D01*
Y128269D01*
X34560Y127802D01*
X34669Y127346D01*
X34848Y126913D01*
X35093Y126514D01*
X35398Y126157D01*
X35754Y125853D01*
X36153Y125608D01*
X36586Y125429D01*
X37042Y125320D01*
X37509Y125283D01*
X40461D01*
X40929Y125320D01*
X41384Y125429D01*
X41817Y125608D01*
X42216Y125853D01*
X42573Y126157D01*
X42877Y126514D01*
X43122Y126913D01*
X43301Y127346D01*
X43410Y127802D01*
X43447Y128269D01*
Y131221D01*
X43410Y131688D01*
X43301Y132144D01*
X43122Y132577D01*
X42877Y132976D01*
X42573Y133332D01*
X42216Y133637D01*
X41817Y133881D01*
X41384Y134061D01*
X40929Y134170D01*
X40461Y134207D01*
D02*
G37*
G36*
X329301Y57384D02*
X328684Y57350D01*
X328075Y57246D01*
X327481Y57075D01*
X326911Y56839D01*
X326370Y56540D01*
X325866Y56182D01*
X325406Y55771D01*
X324994Y55310D01*
X324880Y55149D01*
X323880D01*
X323765Y55310D01*
X323354Y55771D01*
X322893Y56182D01*
X322389Y56540D01*
X321848Y56839D01*
X321278Y57075D01*
X320684Y57246D01*
X320075Y57350D01*
X319458Y57384D01*
X318842Y57350D01*
X318232Y57246D01*
X317639Y57075D01*
X317068Y56839D01*
X316528Y56540D01*
X316024Y56182D01*
X315563Y55771D01*
X315151Y55310D01*
X314794Y54806D01*
X314495Y54266D01*
X314259Y53695D01*
X314088Y53101D01*
X313984Y52492D01*
X313950Y51876D01*
Y48065D01*
X313984Y47448D01*
X314088Y46839D01*
X314259Y46245D01*
X314495Y45674D01*
X314794Y45134D01*
X315151Y44630D01*
X315563Y44169D01*
X315834Y43927D01*
X315478Y42992D01*
X303754D01*
X303397Y43927D01*
X303668Y44169D01*
X304080Y44630D01*
X304438Y45134D01*
X304736Y45674D01*
X304973Y46245D01*
X305144Y46839D01*
X305247Y47448D01*
X305282Y48065D01*
Y51876D01*
X305247Y52492D01*
X305144Y53101D01*
X304973Y53695D01*
X304736Y54266D01*
X304438Y54806D01*
X304080Y55310D01*
X303668Y55771D01*
X303208Y56182D01*
X302704Y56540D01*
X302163Y56839D01*
X301593Y57075D01*
X300999Y57246D01*
X300390Y57350D01*
X299773Y57384D01*
X299156Y57350D01*
X298547Y57246D01*
X297954Y57075D01*
X297383Y56839D01*
X296842Y56540D01*
X296339Y56182D01*
X295878Y55771D01*
X295466Y55310D01*
X295352Y55149D01*
X294352D01*
X294238Y55310D01*
X293826Y55771D01*
X293365Y56182D01*
X292862Y56540D01*
X292321Y56839D01*
X291750Y57075D01*
X291157Y57246D01*
X290547Y57350D01*
X289931Y57384D01*
X289314Y57350D01*
X288705Y57246D01*
X288111Y57075D01*
X287541Y56839D01*
X287000Y56540D01*
X286496Y56182D01*
X286035Y55771D01*
X285624Y55310D01*
X285266Y54806D01*
X284968Y54266D01*
X284731Y53695D01*
X284560Y53101D01*
X284457Y52492D01*
X284422Y51876D01*
Y48065D01*
X284457Y47448D01*
X284560Y46839D01*
X284731Y46245D01*
X284968Y45674D01*
X285266Y45134D01*
X285624Y44630D01*
X286035Y44169D01*
X286496Y43758D01*
X287000Y43400D01*
X287541Y43101D01*
X287879Y42961D01*
X293836Y37005D01*
X294180Y36702D01*
X294562Y36447D01*
X294973Y36244D01*
X295408Y36097D01*
X295858Y36007D01*
X296316Y35978D01*
X346083D01*
X350254Y31807D01*
Y30829D01*
X350291Y30362D01*
X350400Y29906D01*
X350579Y29474D01*
X350824Y29074D01*
X351128Y28718D01*
X351484Y28414D01*
X351884Y28169D01*
X352317Y27990D01*
X352772Y27880D01*
X353239Y27844D01*
X356192D01*
X356659Y27880D01*
X357115Y27990D01*
X357547Y28169D01*
X357947Y28414D01*
X358303Y28718D01*
X358608Y29074D01*
X358852Y29474D01*
X359032Y29906D01*
X359141Y30362D01*
X359178Y30829D01*
Y33782D01*
X359141Y34249D01*
X359032Y34705D01*
X358852Y35137D01*
X358608Y35537D01*
X358303Y35893D01*
X357947Y36197D01*
X357547Y36442D01*
X357115Y36621D01*
X356659Y36731D01*
X356192Y36768D01*
X355214D01*
X350016Y41965D01*
X349672Y42268D01*
X349290Y42523D01*
X348879Y42726D01*
X348731Y42776D01*
X348444Y42873D01*
X347994Y42963D01*
X347536Y42992D01*
X333281D01*
X332925Y43927D01*
X333196Y44169D01*
X333608Y44630D01*
X333965Y45134D01*
X334264Y45674D01*
X334500Y46245D01*
X334671Y46839D01*
X334775Y47448D01*
X334809Y48065D01*
Y51876D01*
X334775Y52492D01*
X334671Y53101D01*
X334500Y53695D01*
X334264Y54266D01*
X333965Y54806D01*
X333608Y55310D01*
X333196Y55771D01*
X332735Y56182D01*
X332232Y56540D01*
X331691Y56839D01*
X331120Y57075D01*
X330527Y57246D01*
X329918Y57350D01*
X329301Y57384D01*
D02*
G37*
G36*
X246173D02*
X245556Y57350D01*
X244947Y57246D01*
X244354Y57075D01*
X243783Y56839D01*
X243242Y56540D01*
X242739Y56182D01*
X242278Y55771D01*
X241866Y55310D01*
X241752Y55149D01*
X240752D01*
X240638Y55310D01*
X240226Y55771D01*
X239765Y56182D01*
X239262Y56540D01*
X238721Y56839D01*
X238150Y57075D01*
X237557Y57246D01*
X236947Y57350D01*
X236331Y57384D01*
X235714Y57350D01*
X235105Y57246D01*
X234511Y57075D01*
X233941Y56839D01*
X233400Y56540D01*
X232896Y56182D01*
X232435Y55771D01*
X232024Y55310D01*
X231666Y54806D01*
X231368Y54266D01*
X231131Y53695D01*
X230960Y53101D01*
X230857Y52492D01*
X230822Y51876D01*
Y48065D01*
X230857Y47448D01*
X230960Y46839D01*
X231131Y46245D01*
X231368Y45674D01*
X231666Y45134D01*
X232024Y44630D01*
X232435Y44169D01*
X232896Y43758D01*
X233400Y43400D01*
X233941Y43101D01*
X234511Y42865D01*
X235105Y42694D01*
X235714Y42590D01*
X236331Y42556D01*
X236947Y42590D01*
X237557Y42694D01*
X238150Y42865D01*
X238721Y43101D01*
X239262Y43400D01*
X239765Y43758D01*
X240226Y44169D01*
X240638Y44630D01*
X240752Y44791D01*
X241752D01*
X241866Y44630D01*
X242278Y44169D01*
X242739Y43758D01*
X243242Y43400D01*
X243783Y43101D01*
X244354Y42865D01*
X244947Y42694D01*
X245556Y42590D01*
X246173Y42556D01*
X246790Y42590D01*
X247399Y42694D01*
X247993Y42865D01*
X248563Y43101D01*
X249104Y43400D01*
X249608Y43758D01*
X250068Y44169D01*
X250480Y44630D01*
X250838Y45134D01*
X251136Y45674D01*
X251373Y46245D01*
X251544Y46839D01*
X251647Y47448D01*
X251682Y48065D01*
Y51876D01*
X251647Y52492D01*
X251544Y53101D01*
X251373Y53695D01*
X251136Y54266D01*
X250838Y54806D01*
X250480Y55310D01*
X250068Y55771D01*
X249608Y56182D01*
X249104Y56540D01*
X248563Y56839D01*
X247993Y57075D01*
X247399Y57246D01*
X246790Y57350D01*
X246173Y57384D01*
D02*
G37*
G36*
X356192Y71567D02*
X353239D01*
X352772Y71531D01*
X352317Y71421D01*
X351884Y71242D01*
X351484Y70997D01*
X351128Y70693D01*
X350824Y70337D01*
X350579Y69937D01*
X350400Y69504D01*
X350291Y69049D01*
X350254Y68582D01*
Y65629D01*
X350291Y65162D01*
X350400Y64707D01*
X350579Y64274D01*
X350824Y63874D01*
X351128Y63518D01*
X351484Y63214D01*
X351884Y62969D01*
X352317Y62790D01*
X352772Y62680D01*
X353239Y62644D01*
X356192D01*
X356659Y62680D01*
X357115Y62790D01*
X357547Y62969D01*
X357947Y63214D01*
X358303Y63518D01*
X358608Y63874D01*
X358852Y64274D01*
X359032Y64707D01*
X359141Y65162D01*
X359178Y65629D01*
Y68582D01*
X359141Y69049D01*
X359032Y69504D01*
X358852Y69937D01*
X358608Y70337D01*
X358303Y70693D01*
X357947Y70997D01*
X357547Y71242D01*
X357115Y71421D01*
X356659Y71531D01*
X356192Y71567D01*
D02*
G37*
G36*
X289931Y34945D02*
X289322Y34905D01*
X288725Y34786D01*
X288148Y34590D01*
X287601Y34320D01*
X287094Y33982D01*
X286636Y33580D01*
X286234Y33122D01*
X285895Y32615D01*
X285626Y32068D01*
X285430Y31491D01*
X285311Y30893D01*
X285271Y30285D01*
X285311Y29677D01*
X285430Y29079D01*
X285626Y28502D01*
X285895Y27955D01*
X286234Y27448D01*
X286636Y26990D01*
X287094Y26588D01*
X287601Y26250D01*
X288148Y25980D01*
X288725Y25784D01*
X289322Y25665D01*
X289931Y25626D01*
X290539Y25665D01*
X291137Y25784D01*
X291714Y25980D01*
X292261Y26250D01*
X292767Y26588D01*
X293226Y26990D01*
X293627Y27448D01*
X293966Y27955D01*
X294236Y28502D01*
X294431Y29079D01*
X294550Y29677D01*
X294590Y30285D01*
X294550Y30893D01*
X294431Y31491D01*
X294236Y32068D01*
X293966Y32615D01*
X293627Y33122D01*
X293226Y33580D01*
X292767Y33982D01*
X292261Y34320D01*
X291714Y34590D01*
X291137Y34786D01*
X290539Y34905D01*
X289931Y34945D01*
D02*
G37*
G36*
X329301D02*
X328693Y34905D01*
X328095Y34786D01*
X327518Y34590D01*
X326971Y34320D01*
X326464Y33982D01*
X326006Y33580D01*
X325604Y33122D01*
X325266Y32615D01*
X324996Y32068D01*
X324800Y31491D01*
X324681Y30893D01*
X324641Y30285D01*
X324681Y29677D01*
X324800Y29079D01*
X324996Y28502D01*
X325266Y27955D01*
X325604Y27448D01*
X326006Y26990D01*
X326464Y26588D01*
X326971Y26250D01*
X327518Y25980D01*
X328095Y25784D01*
X328693Y25665D01*
X329301Y25626D01*
X329909Y25665D01*
X330507Y25784D01*
X331084Y25980D01*
X331631Y26250D01*
X332137Y26588D01*
X332596Y26990D01*
X332997Y27448D01*
X333336Y27955D01*
X333606Y28502D01*
X333802Y29079D01*
X333921Y29677D01*
X333960Y30285D01*
X333921Y30893D01*
X333802Y31491D01*
X333606Y32068D01*
X333336Y32615D01*
X332997Y33122D01*
X332596Y33580D01*
X332137Y33982D01*
X331631Y34320D01*
X331084Y34590D01*
X330507Y34786D01*
X329909Y34905D01*
X329301Y34945D01*
D02*
G37*
G36*
X275701Y57384D02*
X275084Y57350D01*
X274475Y57246D01*
X273881Y57075D01*
X273311Y56839D01*
X272770Y56540D01*
X272266Y56182D01*
X271806Y55771D01*
X271394Y55310D01*
X271280Y55149D01*
X270280D01*
X270165Y55310D01*
X269754Y55771D01*
X269293Y56182D01*
X268789Y56540D01*
X268248Y56839D01*
X267678Y57075D01*
X267084Y57246D01*
X266475Y57350D01*
X265858Y57384D01*
X265242Y57350D01*
X264633Y57246D01*
X264039Y57075D01*
X263468Y56839D01*
X262928Y56540D01*
X262424Y56182D01*
X261963Y55771D01*
X261551Y55310D01*
X261194Y54806D01*
X260895Y54266D01*
X260659Y53695D01*
X260488Y53101D01*
X260384Y52492D01*
X260350Y51876D01*
Y48065D01*
X260384Y47448D01*
X260488Y46839D01*
X260659Y46245D01*
X260895Y45674D01*
X261194Y45134D01*
X261551Y44630D01*
X261963Y44169D01*
X262424Y43758D01*
X262928Y43400D01*
X263468Y43101D01*
X264039Y42865D01*
X264633Y42694D01*
X265242Y42590D01*
X265858Y42556D01*
X266475Y42590D01*
X267084Y42694D01*
X267678Y42865D01*
X268248Y43101D01*
X268789Y43400D01*
X269293Y43758D01*
X269754Y44169D01*
X270165Y44630D01*
X270280Y44791D01*
X271280D01*
X271394Y44630D01*
X271806Y44169D01*
X272266Y43758D01*
X272770Y43400D01*
X273311Y43101D01*
X273881Y42865D01*
X274475Y42694D01*
X275084Y42590D01*
X275701Y42556D01*
X276318Y42590D01*
X276927Y42694D01*
X277520Y42865D01*
X278091Y43101D01*
X278632Y43400D01*
X279135Y43758D01*
X279596Y44169D01*
X280008Y44630D01*
X280365Y45134D01*
X280664Y45674D01*
X280900Y46245D01*
X281071Y46839D01*
X281175Y47448D01*
X281209Y48065D01*
Y51876D01*
X281175Y52492D01*
X281071Y53101D01*
X280900Y53695D01*
X280664Y54266D01*
X280365Y54806D01*
X280008Y55310D01*
X279596Y55771D01*
X279135Y56182D01*
X278632Y56540D01*
X278091Y56839D01*
X277520Y57075D01*
X276927Y57246D01*
X276318Y57350D01*
X275701Y57384D01*
D02*
G37*
G36*
X40461Y365857D02*
X37509D01*
X37042Y365821D01*
X36586Y365711D01*
X36153Y365532D01*
X35754Y365287D01*
X35398Y364983D01*
X35093Y364627D01*
X34848Y364227D01*
X34669Y363794D01*
X34560Y363339D01*
X34523Y362872D01*
Y359919D01*
X34560Y359452D01*
X34669Y358996D01*
X34848Y358563D01*
X35093Y358164D01*
X35398Y357808D01*
X35754Y357504D01*
X36153Y357259D01*
X36586Y357079D01*
X37042Y356970D01*
X37509Y356933D01*
X38487D01*
X43684Y351736D01*
X44029Y351433D01*
X44411Y351178D01*
X44822Y350975D01*
X44970Y350925D01*
X45257Y350828D01*
X45707Y350738D01*
X46165Y350708D01*
X60420D01*
X60776Y349774D01*
X60505Y349531D01*
X60093Y349071D01*
X59736Y348567D01*
X59437Y348026D01*
X59201Y347456D01*
X59029Y346862D01*
X58926Y346253D01*
X58891Y345636D01*
Y341825D01*
X58926Y341208D01*
X59029Y340599D01*
X59201Y340006D01*
X59437Y339435D01*
X59736Y338894D01*
X60093Y338391D01*
X60505Y337930D01*
X60965Y337518D01*
X61469Y337161D01*
X62010Y336862D01*
X62581Y336626D01*
X63174Y336455D01*
X63783Y336351D01*
X64400Y336316D01*
X65017Y336351D01*
X65626Y336455D01*
X66219Y336626D01*
X66790Y336862D01*
X67331Y337161D01*
X67835Y337518D01*
X68295Y337930D01*
X68707Y338391D01*
X68821Y338552D01*
X69821D01*
X69936Y338391D01*
X70347Y337930D01*
X70808Y337518D01*
X71312Y337161D01*
X71852Y336862D01*
X72423Y336626D01*
X73017Y336455D01*
X73626Y336351D01*
X74243Y336316D01*
X74859Y336351D01*
X75468Y336455D01*
X76062Y336626D01*
X76633Y336862D01*
X77173Y337161D01*
X77677Y337518D01*
X78138Y337930D01*
X78549Y338391D01*
X78907Y338894D01*
X79206Y339435D01*
X79442Y340006D01*
X79613Y340599D01*
X79716Y341208D01*
X79751Y341825D01*
Y345636D01*
X79716Y346253D01*
X79613Y346862D01*
X79442Y347456D01*
X79206Y348026D01*
X78907Y348567D01*
X78549Y349071D01*
X78138Y349531D01*
X77866Y349774D01*
X78223Y350708D01*
X89947D01*
X90304Y349774D01*
X90032Y349531D01*
X89621Y349071D01*
X89263Y348567D01*
X88964Y348026D01*
X88728Y347456D01*
X88557Y346862D01*
X88454Y346253D01*
X88419Y345636D01*
Y341825D01*
X88454Y341208D01*
X88557Y340599D01*
X88728Y340006D01*
X88964Y339435D01*
X89263Y338894D01*
X89621Y338391D01*
X90032Y337930D01*
X90493Y337518D01*
X90997Y337161D01*
X91537Y336862D01*
X92108Y336626D01*
X92702Y336455D01*
X93311Y336351D01*
X93928Y336316D01*
X94544Y336351D01*
X95153Y336455D01*
X95747Y336626D01*
X96318Y336862D01*
X96858Y337161D01*
X97362Y337518D01*
X97823Y337930D01*
X98234Y338391D01*
X98349Y338552D01*
X99349D01*
X99463Y338391D01*
X99875Y337930D01*
X100336Y337518D01*
X100839Y337161D01*
X101380Y336862D01*
X101951Y336626D01*
X102544Y336455D01*
X103153Y336351D01*
X103770Y336316D01*
X104387Y336351D01*
X104996Y336455D01*
X105589Y336626D01*
X106160Y336862D01*
X106701Y337161D01*
X107205Y337518D01*
X107665Y337930D01*
X108077Y338391D01*
X108434Y338894D01*
X108733Y339435D01*
X108970Y340006D01*
X109141Y340599D01*
X109244Y341208D01*
X109279Y341825D01*
Y345636D01*
X109244Y346253D01*
X109141Y346862D01*
X108970Y347456D01*
X108733Y348026D01*
X108434Y348567D01*
X108077Y349071D01*
X107665Y349531D01*
X107205Y349943D01*
X106701Y350301D01*
X106160Y350599D01*
X105822Y350740D01*
X99865Y356696D01*
X99520Y356998D01*
X99139Y357253D01*
X98727Y357456D01*
X98293Y357604D01*
X97843Y357693D01*
X97385Y357723D01*
X47617D01*
X43447Y361894D01*
Y362872D01*
X43410Y363339D01*
X43301Y363794D01*
X43122Y364227D01*
X42877Y364627D01*
X42573Y364983D01*
X42216Y365287D01*
X41817Y365532D01*
X41384Y365711D01*
X40929Y365821D01*
X40461Y365857D01*
D02*
G37*
G36*
X127842Y351145D02*
X127226Y351110D01*
X126617Y351007D01*
X126023Y350836D01*
X125452Y350599D01*
X124912Y350301D01*
X124408Y349943D01*
X123947Y349531D01*
X123536Y349071D01*
X123421Y348910D01*
X122421D01*
X122307Y349071D01*
X121895Y349531D01*
X121435Y349943D01*
X120931Y350301D01*
X120390Y350599D01*
X119819Y350836D01*
X119226Y351007D01*
X118617Y351110D01*
X118000Y351145D01*
X117383Y351110D01*
X116774Y351007D01*
X116181Y350836D01*
X115610Y350599D01*
X115069Y350301D01*
X114565Y349943D01*
X114105Y349531D01*
X113693Y349071D01*
X113336Y348567D01*
X113037Y348026D01*
X112801Y347456D01*
X112629Y346862D01*
X112526Y346253D01*
X112491Y345636D01*
Y341825D01*
X112526Y341208D01*
X112629Y340599D01*
X112801Y340006D01*
X113037Y339435D01*
X113336Y338894D01*
X113693Y338391D01*
X114105Y337930D01*
X114565Y337518D01*
X115069Y337161D01*
X115610Y336862D01*
X116181Y336626D01*
X116774Y336455D01*
X117383Y336351D01*
X118000Y336316D01*
X118617Y336351D01*
X119226Y336455D01*
X119819Y336626D01*
X120390Y336862D01*
X120931Y337161D01*
X121435Y337518D01*
X121895Y337930D01*
X122307Y338391D01*
X122421Y338552D01*
X123421D01*
X123536Y338391D01*
X123947Y337930D01*
X124408Y337518D01*
X124912Y337161D01*
X125452Y336862D01*
X126023Y336626D01*
X126617Y336455D01*
X127226Y336351D01*
X127842Y336316D01*
X128459Y336351D01*
X129068Y336455D01*
X129662Y336626D01*
X130233Y336862D01*
X130773Y337161D01*
X131277Y337518D01*
X131738Y337930D01*
X132149Y338391D01*
X132507Y338894D01*
X132806Y339435D01*
X133042Y340006D01*
X133213Y340599D01*
X133317Y341208D01*
X133351Y341825D01*
Y345636D01*
X133317Y346253D01*
X133213Y346862D01*
X133042Y347456D01*
X132806Y348026D01*
X132507Y348567D01*
X132149Y349071D01*
X131738Y349531D01*
X131277Y349943D01*
X130773Y350301D01*
X130233Y350599D01*
X129662Y350836D01*
X129068Y351007D01*
X128459Y351110D01*
X127842Y351145D01*
D02*
G37*
G36*
X40461Y331057D02*
X37509D01*
X37042Y331020D01*
X36586Y330911D01*
X36153Y330732D01*
X35754Y330487D01*
X35398Y330183D01*
X35093Y329826D01*
X34848Y329427D01*
X34669Y328994D01*
X34560Y328539D01*
X34523Y328072D01*
Y325119D01*
X34560Y324652D01*
X34669Y324196D01*
X34848Y323763D01*
X35093Y323364D01*
X35398Y323008D01*
X35754Y322704D01*
X36153Y322459D01*
X36586Y322279D01*
X37042Y322170D01*
X37509Y322133D01*
X40461D01*
X40929Y322170D01*
X41384Y322279D01*
X41817Y322459D01*
X42216Y322704D01*
X42573Y323008D01*
X42877Y323364D01*
X43122Y323763D01*
X43301Y324196D01*
X43410Y324652D01*
X43447Y325119D01*
Y328072D01*
X43410Y328539D01*
X43301Y328994D01*
X43122Y329427D01*
X42877Y329826D01*
X42573Y330183D01*
X42216Y330487D01*
X41817Y330732D01*
X41384Y330911D01*
X40929Y331020D01*
X40461Y331057D01*
D02*
G37*
G36*
X329301Y254235D02*
X328684Y254200D01*
X328075Y254097D01*
X327481Y253925D01*
X326911Y253689D01*
X326370Y253390D01*
X325866Y253033D01*
X325406Y252621D01*
X324994Y252161D01*
X324880Y251999D01*
X323880D01*
X323765Y252161D01*
X323354Y252621D01*
X322893Y253033D01*
X322389Y253390D01*
X321848Y253689D01*
X321278Y253925D01*
X320684Y254097D01*
X320075Y254200D01*
X319458Y254235D01*
X318842Y254200D01*
X318232Y254097D01*
X317639Y253925D01*
X317068Y253689D01*
X316528Y253390D01*
X316024Y253033D01*
X315563Y252621D01*
X315151Y252161D01*
X314794Y251657D01*
X314495Y251116D01*
X314259Y250545D01*
X314088Y249952D01*
X313984Y249343D01*
X313950Y248726D01*
Y244915D01*
X313984Y244298D01*
X314088Y243689D01*
X314259Y243096D01*
X314495Y242525D01*
X314794Y241984D01*
X315151Y241480D01*
X315563Y241020D01*
X315834Y240777D01*
X315478Y239843D01*
X303754D01*
X303397Y240777D01*
X303668Y241020D01*
X304080Y241480D01*
X304438Y241984D01*
X304736Y242525D01*
X304973Y243096D01*
X305144Y243689D01*
X305247Y244298D01*
X305282Y244915D01*
Y248726D01*
X305247Y249343D01*
X305144Y249952D01*
X304973Y250545D01*
X304736Y251116D01*
X304438Y251657D01*
X304080Y252161D01*
X303668Y252621D01*
X303208Y253033D01*
X302704Y253390D01*
X302163Y253689D01*
X301593Y253925D01*
X300999Y254097D01*
X300390Y254200D01*
X299773Y254235D01*
X299156Y254200D01*
X298547Y254097D01*
X297954Y253925D01*
X297383Y253689D01*
X296842Y253390D01*
X296339Y253033D01*
X295878Y252621D01*
X295466Y252161D01*
X295352Y251999D01*
X294352D01*
X294238Y252161D01*
X293826Y252621D01*
X293365Y253033D01*
X292862Y253390D01*
X292321Y253689D01*
X291750Y253925D01*
X291157Y254097D01*
X290547Y254200D01*
X289931Y254235D01*
X289314Y254200D01*
X288705Y254097D01*
X288111Y253925D01*
X287541Y253689D01*
X287000Y253390D01*
X286496Y253033D01*
X286035Y252621D01*
X285624Y252161D01*
X285266Y251657D01*
X284968Y251116D01*
X284731Y250545D01*
X284560Y249952D01*
X284457Y249343D01*
X284422Y248726D01*
Y244915D01*
X284457Y244298D01*
X284560Y243689D01*
X284731Y243096D01*
X284968Y242525D01*
X285266Y241984D01*
X285624Y241480D01*
X286035Y241020D01*
X286496Y240608D01*
X287000Y240251D01*
X287541Y239952D01*
X287879Y239811D01*
X293836Y233855D01*
X294180Y233553D01*
X294562Y233298D01*
X294973Y233095D01*
X295408Y232947D01*
X295858Y232858D01*
X296316Y232828D01*
X346083D01*
X350254Y228658D01*
Y227679D01*
X350291Y227213D01*
X350400Y226757D01*
X350579Y226324D01*
X350824Y225925D01*
X351128Y225568D01*
X351484Y225264D01*
X351884Y225019D01*
X352317Y224840D01*
X352772Y224731D01*
X353239Y224694D01*
X356192D01*
X356659Y224731D01*
X357115Y224840D01*
X357547Y225019D01*
X357947Y225264D01*
X358303Y225568D01*
X358608Y225925D01*
X358852Y226324D01*
X359032Y226757D01*
X359141Y227213D01*
X359178Y227679D01*
Y230632D01*
X359141Y231099D01*
X359032Y231555D01*
X358852Y231988D01*
X358608Y232387D01*
X358303Y232743D01*
X357947Y233048D01*
X357547Y233293D01*
X357115Y233472D01*
X356659Y233581D01*
X356192Y233618D01*
X355214D01*
X350016Y238816D01*
X349672Y239118D01*
X349290Y239373D01*
X348879Y239576D01*
X348731Y239626D01*
X348444Y239723D01*
X347994Y239813D01*
X347536Y239843D01*
X333281D01*
X332925Y240777D01*
X333196Y241020D01*
X333608Y241480D01*
X333965Y241984D01*
X334264Y242525D01*
X334500Y243096D01*
X334671Y243689D01*
X334775Y244298D01*
X334809Y244915D01*
Y248726D01*
X334775Y249343D01*
X334671Y249952D01*
X334500Y250545D01*
X334264Y251116D01*
X333965Y251657D01*
X333608Y252161D01*
X333196Y252621D01*
X332735Y253033D01*
X332232Y253390D01*
X331691Y253689D01*
X331120Y253925D01*
X330527Y254097D01*
X329918Y254200D01*
X329301Y254235D01*
D02*
G37*
G36*
X356192Y268418D02*
X353239D01*
X352772Y268381D01*
X352317Y268272D01*
X351884Y268092D01*
X351484Y267848D01*
X351128Y267543D01*
X350824Y267187D01*
X350579Y266788D01*
X350400Y266355D01*
X350291Y265899D01*
X350254Y265432D01*
Y262479D01*
X350291Y262013D01*
X350400Y261557D01*
X350579Y261124D01*
X350824Y260725D01*
X351128Y260368D01*
X351484Y260064D01*
X351884Y259819D01*
X352317Y259640D01*
X352772Y259531D01*
X353239Y259494D01*
X356192D01*
X356659Y259531D01*
X357115Y259640D01*
X357547Y259819D01*
X357947Y260064D01*
X358303Y260368D01*
X358608Y260725D01*
X358852Y261124D01*
X359032Y261557D01*
X359141Y262013D01*
X359178Y262479D01*
Y265432D01*
X359141Y265899D01*
X359032Y266355D01*
X358852Y266788D01*
X358608Y267187D01*
X358303Y267543D01*
X357947Y267848D01*
X357547Y268092D01*
X357115Y268272D01*
X356659Y268381D01*
X356192Y268418D01*
D02*
G37*
G36*
X157370Y351145D02*
X156753Y351110D01*
X156144Y351007D01*
X155551Y350836D01*
X154980Y350599D01*
X154439Y350301D01*
X153936Y349943D01*
X153475Y349531D01*
X153063Y349071D01*
X152949Y348910D01*
X151949D01*
X151834Y349071D01*
X151423Y349531D01*
X150962Y349943D01*
X150458Y350301D01*
X149918Y350599D01*
X149347Y350836D01*
X148753Y351007D01*
X148144Y351110D01*
X147528Y351145D01*
X146911Y351110D01*
X146302Y351007D01*
X145708Y350836D01*
X145137Y350599D01*
X144597Y350301D01*
X144093Y349943D01*
X143632Y349531D01*
X143221Y349071D01*
X142863Y348567D01*
X142564Y348026D01*
X142328Y347456D01*
X142157Y346862D01*
X142053Y346253D01*
X142019Y345636D01*
Y341825D01*
X142053Y341208D01*
X142157Y340599D01*
X142328Y340006D01*
X142564Y339435D01*
X142863Y338894D01*
X143221Y338391D01*
X143632Y337930D01*
X144093Y337518D01*
X144597Y337161D01*
X145137Y336862D01*
X145708Y336626D01*
X146302Y336455D01*
X146911Y336351D01*
X147528Y336316D01*
X148144Y336351D01*
X148753Y336455D01*
X149347Y336626D01*
X149918Y336862D01*
X150458Y337161D01*
X150962Y337518D01*
X151423Y337930D01*
X151834Y338391D01*
X151949Y338552D01*
X152949D01*
X153063Y338391D01*
X153475Y337930D01*
X153936Y337518D01*
X154439Y337161D01*
X154980Y336862D01*
X155551Y336626D01*
X156144Y336455D01*
X156753Y336351D01*
X157370Y336316D01*
X157987Y336351D01*
X158596Y336455D01*
X159189Y336626D01*
X159760Y336862D01*
X160301Y337161D01*
X160805Y337518D01*
X161265Y337930D01*
X161677Y338391D01*
X162034Y338894D01*
X162333Y339435D01*
X162570Y340006D01*
X162741Y340599D01*
X162844Y341208D01*
X162879Y341825D01*
Y345636D01*
X162844Y346253D01*
X162741Y346862D01*
X162570Y347456D01*
X162333Y348026D01*
X162034Y348567D01*
X161677Y349071D01*
X161265Y349531D01*
X160805Y349943D01*
X160301Y350301D01*
X159760Y350599D01*
X159189Y350836D01*
X158596Y351007D01*
X157987Y351110D01*
X157370Y351145D01*
D02*
G37*
G36*
Y368075D02*
X156762Y368036D01*
X156164Y367917D01*
X155587Y367721D01*
X155040Y367451D01*
X154534Y367112D01*
X154075Y366711D01*
X153673Y366252D01*
X153335Y365745D01*
X153065Y365199D01*
X152869Y364622D01*
X152750Y364024D01*
X152710Y363416D01*
X152750Y362807D01*
X152869Y362210D01*
X153065Y361633D01*
X153335Y361086D01*
X153673Y360579D01*
X154075Y360121D01*
X154534Y359719D01*
X155040Y359380D01*
X155587Y359111D01*
X156164Y358915D01*
X156762Y358796D01*
X157370Y358756D01*
X157978Y358796D01*
X158576Y358915D01*
X159153Y359111D01*
X159700Y359380D01*
X160207Y359719D01*
X160665Y360121D01*
X161067Y360579D01*
X161405Y361086D01*
X161675Y361633D01*
X161871Y362210D01*
X161990Y362807D01*
X162030Y363416D01*
X161990Y364024D01*
X161871Y364622D01*
X161675Y365199D01*
X161405Y365745D01*
X161067Y366252D01*
X160665Y366711D01*
X160207Y367112D01*
X159700Y367451D01*
X159153Y367721D01*
X158576Y367917D01*
X157978Y368036D01*
X157370Y368075D01*
D02*
G37*
G36*
X300798Y368962D02*
X291498D01*
Y362025D01*
X300798D01*
Y368962D01*
D02*
G37*
G36*
X118000Y368075D02*
X117392Y368036D01*
X116794Y367917D01*
X116217Y367721D01*
X115670Y367451D01*
X115163Y367112D01*
X114705Y366711D01*
X114303Y366252D01*
X113965Y365745D01*
X113695Y365199D01*
X113499Y364622D01*
X113380Y364024D01*
X113340Y363416D01*
X113380Y362807D01*
X113499Y362210D01*
X113695Y361633D01*
X113965Y361086D01*
X114303Y360579D01*
X114705Y360121D01*
X115163Y359719D01*
X115670Y359380D01*
X116217Y359111D01*
X116794Y358915D01*
X117392Y358796D01*
X118000Y358756D01*
X118608Y358796D01*
X119206Y358915D01*
X119783Y359111D01*
X120330Y359380D01*
X120837Y359719D01*
X121295Y360121D01*
X121697Y360579D01*
X122035Y361086D01*
X122305Y361633D01*
X122501Y362210D01*
X122620Y362807D01*
X122660Y363416D01*
X122620Y364024D01*
X122501Y364622D01*
X122305Y365199D01*
X122035Y365745D01*
X121697Y366252D01*
X121295Y366711D01*
X120837Y367112D01*
X120330Y367451D01*
X119783Y367721D01*
X119206Y367917D01*
X118608Y368036D01*
X118000Y368075D01*
D02*
G37*
G36*
X64400D02*
X63792Y368036D01*
X63194Y367917D01*
X62617Y367721D01*
X62070Y367451D01*
X61563Y367112D01*
X61105Y366711D01*
X60703Y366252D01*
X60365Y365745D01*
X60095Y365199D01*
X59899Y364622D01*
X59780Y364024D01*
X59740Y363416D01*
X59780Y362807D01*
X59899Y362210D01*
X60095Y361633D01*
X60365Y361086D01*
X60703Y360579D01*
X61105Y360121D01*
X61563Y359719D01*
X62070Y359380D01*
X62617Y359111D01*
X63194Y358915D01*
X63792Y358796D01*
X64400Y358756D01*
X65008Y358796D01*
X65606Y358915D01*
X66183Y359111D01*
X66730Y359380D01*
X67237Y359719D01*
X67695Y360121D01*
X68097Y360579D01*
X68435Y361086D01*
X68705Y361633D01*
X68901Y362210D01*
X69020Y362807D01*
X69060Y363416D01*
X69020Y364024D01*
X68901Y364622D01*
X68705Y365199D01*
X68435Y365745D01*
X68097Y366252D01*
X67695Y366711D01*
X67237Y367112D01*
X66730Y367451D01*
X66183Y367721D01*
X65606Y367917D01*
X65008Y368036D01*
X64400Y368075D01*
D02*
G37*
G36*
X103770D02*
X103162Y368036D01*
X102564Y367917D01*
X101987Y367721D01*
X101440Y367451D01*
X100934Y367112D01*
X100475Y366711D01*
X100073Y366252D01*
X99735Y365745D01*
X99465Y365199D01*
X99269Y364622D01*
X99150Y364024D01*
X99111Y363416D01*
X99150Y362807D01*
X99269Y362210D01*
X99465Y361633D01*
X99735Y361086D01*
X100073Y360579D01*
X100475Y360121D01*
X100934Y359719D01*
X101440Y359380D01*
X101987Y359111D01*
X102564Y358915D01*
X103162Y358796D01*
X103770Y358756D01*
X104378Y358796D01*
X104976Y358915D01*
X105553Y359111D01*
X106100Y359380D01*
X106607Y359719D01*
X107065Y360121D01*
X107467Y360579D01*
X107805Y361086D01*
X108075Y361633D01*
X108271Y362210D01*
X108390Y362807D01*
X108430Y363416D01*
X108390Y364024D01*
X108271Y364622D01*
X108075Y365199D01*
X107805Y365745D01*
X107467Y366252D01*
X107065Y366711D01*
X106607Y367112D01*
X106100Y367451D01*
X105553Y367721D01*
X104976Y367917D01*
X104378Y368036D01*
X103770Y368075D01*
D02*
G37*
G36*
X275701Y254235D02*
X275084Y254200D01*
X274475Y254097D01*
X273881Y253925D01*
X273311Y253689D01*
X272770Y253390D01*
X272266Y253033D01*
X271806Y252621D01*
X271394Y252161D01*
X271280Y251999D01*
X270280D01*
X270165Y252161D01*
X269754Y252621D01*
X269293Y253033D01*
X268789Y253390D01*
X268248Y253689D01*
X267678Y253925D01*
X267084Y254097D01*
X266475Y254200D01*
X265858Y254235D01*
X265242Y254200D01*
X264633Y254097D01*
X264039Y253925D01*
X263468Y253689D01*
X262928Y253390D01*
X262424Y253033D01*
X261963Y252621D01*
X261551Y252161D01*
X261194Y251657D01*
X260895Y251116D01*
X260659Y250545D01*
X260488Y249952D01*
X260384Y249343D01*
X260350Y248726D01*
Y244915D01*
X260384Y244298D01*
X260488Y243689D01*
X260659Y243096D01*
X260895Y242525D01*
X261194Y241984D01*
X261551Y241480D01*
X261963Y241020D01*
X262424Y240608D01*
X262928Y240251D01*
X263468Y239952D01*
X264039Y239715D01*
X264633Y239544D01*
X265242Y239441D01*
X265858Y239406D01*
X266475Y239441D01*
X267084Y239544D01*
X267678Y239715D01*
X268248Y239952D01*
X268789Y240251D01*
X269293Y240608D01*
X269754Y241020D01*
X270165Y241480D01*
X270280Y241642D01*
X271280D01*
X271394Y241480D01*
X271806Y241020D01*
X272266Y240608D01*
X272770Y240251D01*
X273311Y239952D01*
X273881Y239715D01*
X274475Y239544D01*
X275084Y239441D01*
X275701Y239406D01*
X276318Y239441D01*
X276927Y239544D01*
X277520Y239715D01*
X278091Y239952D01*
X278632Y240251D01*
X279135Y240608D01*
X279596Y241020D01*
X280008Y241480D01*
X280365Y241984D01*
X280664Y242525D01*
X280900Y243096D01*
X281071Y243689D01*
X281175Y244298D01*
X281209Y244915D01*
Y248726D01*
X281175Y249343D01*
X281071Y249952D01*
X280900Y250545D01*
X280664Y251116D01*
X280365Y251657D01*
X280008Y252161D01*
X279596Y252621D01*
X279135Y253033D01*
X278632Y253390D01*
X278091Y253689D01*
X277520Y253925D01*
X276927Y254097D01*
X276318Y254200D01*
X275701Y254235D01*
D02*
G37*
G36*
X157370Y171225D02*
X156762Y171185D01*
X156164Y171066D01*
X155587Y170870D01*
X155040Y170601D01*
X154534Y170262D01*
X154075Y169860D01*
X153673Y169402D01*
X153335Y168895D01*
X153065Y168349D01*
X152869Y167771D01*
X152750Y167174D01*
X152710Y166565D01*
X152750Y165957D01*
X152869Y165359D01*
X153065Y164782D01*
X153335Y164236D01*
X153673Y163729D01*
X154075Y163270D01*
X154534Y162869D01*
X155040Y162530D01*
X155587Y162260D01*
X156164Y162065D01*
X156762Y161946D01*
X157370Y161906D01*
X157978Y161946D01*
X158576Y162065D01*
X159153Y162260D01*
X159700Y162530D01*
X160207Y162869D01*
X160665Y163270D01*
X161067Y163729D01*
X161405Y164236D01*
X161675Y164782D01*
X161871Y165359D01*
X161990Y165957D01*
X162030Y166565D01*
X161990Y167174D01*
X161871Y167771D01*
X161675Y168349D01*
X161405Y168895D01*
X161067Y169402D01*
X160665Y169860D01*
X160207Y170262D01*
X159700Y170601D01*
X159153Y170870D01*
X158576Y171066D01*
X157978Y171185D01*
X157370Y171225D01*
D02*
G37*
G36*
X300798Y172112D02*
X291498D01*
Y165175D01*
X300798D01*
Y172112D01*
D02*
G37*
G36*
X118000Y171225D02*
X117392Y171185D01*
X116794Y171066D01*
X116217Y170870D01*
X115670Y170601D01*
X115163Y170262D01*
X114705Y169860D01*
X114303Y169402D01*
X113965Y168895D01*
X113695Y168349D01*
X113499Y167771D01*
X113380Y167174D01*
X113340Y166565D01*
X113380Y165957D01*
X113499Y165359D01*
X113695Y164782D01*
X113965Y164236D01*
X114303Y163729D01*
X114705Y163270D01*
X115163Y162869D01*
X115670Y162530D01*
X116217Y162260D01*
X116794Y162065D01*
X117392Y161946D01*
X118000Y161906D01*
X118608Y161946D01*
X119206Y162065D01*
X119783Y162260D01*
X120330Y162530D01*
X120837Y162869D01*
X121295Y163270D01*
X121697Y163729D01*
X122035Y164236D01*
X122305Y164782D01*
X122501Y165359D01*
X122620Y165957D01*
X122660Y166565D01*
X122620Y167174D01*
X122501Y167771D01*
X122305Y168349D01*
X122035Y168895D01*
X121697Y169402D01*
X121295Y169860D01*
X120837Y170262D01*
X120330Y170601D01*
X119783Y170870D01*
X119206Y171066D01*
X118608Y171185D01*
X118000Y171225D01*
D02*
G37*
G36*
X64400D02*
X63792Y171185D01*
X63194Y171066D01*
X62617Y170870D01*
X62070Y170601D01*
X61563Y170262D01*
X61105Y169860D01*
X60703Y169402D01*
X60365Y168895D01*
X60095Y168349D01*
X59899Y167771D01*
X59780Y167174D01*
X59740Y166565D01*
X59780Y165957D01*
X59899Y165359D01*
X60095Y164782D01*
X60365Y164236D01*
X60703Y163729D01*
X61105Y163270D01*
X61563Y162869D01*
X62070Y162530D01*
X62617Y162260D01*
X63194Y162065D01*
X63792Y161946D01*
X64400Y161906D01*
X65008Y161946D01*
X65606Y162065D01*
X66183Y162260D01*
X66730Y162530D01*
X67237Y162869D01*
X67695Y163270D01*
X68097Y163729D01*
X68435Y164236D01*
X68705Y164782D01*
X68901Y165359D01*
X69020Y165957D01*
X69060Y166565D01*
X69020Y167174D01*
X68901Y167771D01*
X68705Y168349D01*
X68435Y168895D01*
X68097Y169402D01*
X67695Y169860D01*
X67237Y170262D01*
X66730Y170601D01*
X66183Y170870D01*
X65606Y171066D01*
X65008Y171185D01*
X64400Y171225D01*
D02*
G37*
G36*
X103770D02*
X103162Y171185D01*
X102564Y171066D01*
X101987Y170870D01*
X101440Y170601D01*
X100934Y170262D01*
X100475Y169860D01*
X100073Y169402D01*
X99735Y168895D01*
X99465Y168349D01*
X99269Y167771D01*
X99150Y167174D01*
X99111Y166565D01*
X99150Y165957D01*
X99269Y165359D01*
X99465Y164782D01*
X99735Y164236D01*
X100073Y163729D01*
X100475Y163270D01*
X100934Y162869D01*
X101440Y162530D01*
X101987Y162260D01*
X102564Y162065D01*
X103162Y161946D01*
X103770Y161906D01*
X104378Y161946D01*
X104976Y162065D01*
X105553Y162260D01*
X106100Y162530D01*
X106607Y162869D01*
X107065Y163270D01*
X107467Y163729D01*
X107805Y164236D01*
X108075Y164782D01*
X108271Y165359D01*
X108390Y165957D01*
X108430Y166565D01*
X108390Y167174D01*
X108271Y167771D01*
X108075Y168349D01*
X107805Y168895D01*
X107467Y169402D01*
X107065Y169860D01*
X106607Y170262D01*
X106100Y170601D01*
X105553Y170870D01*
X104976Y171066D01*
X104378Y171185D01*
X103770Y171225D01*
D02*
G37*
G36*
X102202Y228526D02*
X92903D01*
Y221589D01*
X102202D01*
Y228526D01*
D02*
G37*
G36*
X329301Y231795D02*
X328693Y231755D01*
X328095Y231636D01*
X327518Y231440D01*
X326971Y231171D01*
X326464Y230832D01*
X326006Y230430D01*
X325604Y229972D01*
X325266Y229465D01*
X324996Y228919D01*
X324800Y228341D01*
X324681Y227744D01*
X324641Y227135D01*
X324681Y226527D01*
X324800Y225929D01*
X324996Y225352D01*
X325266Y224806D01*
X325604Y224299D01*
X326006Y223841D01*
X326464Y223439D01*
X326971Y223100D01*
X327518Y222831D01*
X328095Y222635D01*
X328693Y222516D01*
X329301Y222476D01*
X329909Y222516D01*
X330507Y222635D01*
X331084Y222831D01*
X331631Y223100D01*
X332137Y223439D01*
X332596Y223841D01*
X332997Y224299D01*
X333336Y224806D01*
X333606Y225352D01*
X333802Y225929D01*
X333921Y226527D01*
X333960Y227135D01*
X333921Y227744D01*
X333802Y228341D01*
X333606Y228919D01*
X333336Y229465D01*
X332997Y229972D01*
X332596Y230430D01*
X332137Y230832D01*
X331631Y231171D01*
X331084Y231440D01*
X330507Y231636D01*
X329909Y231755D01*
X329301Y231795D01*
D02*
G37*
G36*
X246173Y254235D02*
X245556Y254200D01*
X244947Y254097D01*
X244354Y253925D01*
X243783Y253689D01*
X243242Y253390D01*
X242739Y253033D01*
X242278Y252621D01*
X241866Y252161D01*
X241752Y251999D01*
X240752D01*
X240638Y252161D01*
X240226Y252621D01*
X239765Y253033D01*
X239262Y253390D01*
X238721Y253689D01*
X238150Y253925D01*
X237557Y254097D01*
X236947Y254200D01*
X236331Y254235D01*
X235714Y254200D01*
X235105Y254097D01*
X234511Y253925D01*
X233941Y253689D01*
X233400Y253390D01*
X232896Y253033D01*
X232435Y252621D01*
X232024Y252161D01*
X231666Y251657D01*
X231368Y251116D01*
X231131Y250545D01*
X230960Y249952D01*
X230857Y249343D01*
X230822Y248726D01*
Y244915D01*
X230857Y244298D01*
X230960Y243689D01*
X231131Y243096D01*
X231368Y242525D01*
X231666Y241984D01*
X232024Y241480D01*
X232435Y241020D01*
X232896Y240608D01*
X233400Y240251D01*
X233941Y239952D01*
X234511Y239715D01*
X235105Y239544D01*
X235714Y239441D01*
X236331Y239406D01*
X236947Y239441D01*
X237557Y239544D01*
X238150Y239715D01*
X238721Y239952D01*
X239262Y240251D01*
X239765Y240608D01*
X240226Y241020D01*
X240638Y241480D01*
X240752Y241642D01*
X241752D01*
X241866Y241480D01*
X242278Y241020D01*
X242739Y240608D01*
X243242Y240251D01*
X243783Y239952D01*
X244354Y239715D01*
X244947Y239544D01*
X245556Y239441D01*
X246173Y239406D01*
X246790Y239441D01*
X247399Y239544D01*
X247993Y239715D01*
X248563Y239952D01*
X249104Y240251D01*
X249608Y240608D01*
X250068Y241020D01*
X250480Y241480D01*
X250838Y241984D01*
X251136Y242525D01*
X251373Y243096D01*
X251544Y243689D01*
X251647Y244298D01*
X251682Y244915D01*
Y248726D01*
X251647Y249343D01*
X251544Y249952D01*
X251373Y250545D01*
X251136Y251116D01*
X250838Y251657D01*
X250480Y252161D01*
X250068Y252621D01*
X249608Y253033D01*
X249104Y253390D01*
X248563Y253689D01*
X247993Y253925D01*
X247399Y254097D01*
X246790Y254200D01*
X246173Y254235D01*
D02*
G37*
G36*
X289931Y231795D02*
X289322Y231755D01*
X288725Y231636D01*
X288148Y231440D01*
X287601Y231171D01*
X287094Y230832D01*
X286636Y230430D01*
X286234Y229972D01*
X285895Y229465D01*
X285626Y228919D01*
X285430Y228341D01*
X285311Y227744D01*
X285271Y227135D01*
X285311Y226527D01*
X285430Y225929D01*
X285626Y225352D01*
X285895Y224806D01*
X286234Y224299D01*
X286636Y223841D01*
X287094Y223439D01*
X287601Y223100D01*
X288148Y222831D01*
X288725Y222635D01*
X289322Y222516D01*
X289931Y222476D01*
X290539Y222516D01*
X291137Y222635D01*
X291714Y222831D01*
X292261Y223100D01*
X292767Y223439D01*
X293226Y223841D01*
X293627Y224299D01*
X293966Y224806D01*
X294236Y225352D01*
X294431Y225929D01*
X294550Y226527D01*
X294590Y227135D01*
X294550Y227744D01*
X294431Y228341D01*
X294236Y228919D01*
X293966Y229465D01*
X293627Y229972D01*
X293226Y230430D01*
X292767Y230832D01*
X292261Y231171D01*
X291714Y231440D01*
X291137Y231636D01*
X290539Y231755D01*
X289931Y231795D01*
D02*
G37*
G36*
X236331D02*
X235722Y231755D01*
X235125Y231636D01*
X234548Y231440D01*
X234001Y231171D01*
X233494Y230832D01*
X233036Y230430D01*
X232634Y229972D01*
X232295Y229465D01*
X232026Y228919D01*
X231830Y228341D01*
X231711Y227744D01*
X231671Y227135D01*
X231711Y226527D01*
X231830Y225929D01*
X232026Y225352D01*
X232295Y224806D01*
X232634Y224299D01*
X233036Y223841D01*
X233494Y223439D01*
X234001Y223100D01*
X234548Y222831D01*
X235125Y222635D01*
X235722Y222516D01*
X236331Y222476D01*
X236939Y222516D01*
X237537Y222635D01*
X238114Y222831D01*
X238661Y223100D01*
X239167Y223439D01*
X239626Y223841D01*
X240027Y224299D01*
X240366Y224806D01*
X240636Y225352D01*
X240831Y225929D01*
X240950Y226527D01*
X240990Y227135D01*
X240950Y227744D01*
X240831Y228341D01*
X240636Y228919D01*
X240366Y229465D01*
X240027Y229972D01*
X239626Y230430D01*
X239167Y230832D01*
X238661Y231171D01*
X238114Y231440D01*
X237537Y231636D01*
X236939Y231755D01*
X236331Y231795D01*
D02*
G37*
G36*
X275701D02*
X275093Y231755D01*
X274495Y231636D01*
X273918Y231440D01*
X273371Y231171D01*
X272864Y230832D01*
X272406Y230430D01*
X272004Y229972D01*
X271666Y229465D01*
X271396Y228919D01*
X271200Y228341D01*
X271081Y227744D01*
X271041Y227135D01*
X271081Y226527D01*
X271200Y225929D01*
X271396Y225352D01*
X271666Y224806D01*
X272004Y224299D01*
X272406Y223841D01*
X272864Y223439D01*
X273371Y223100D01*
X273918Y222831D01*
X274495Y222635D01*
X275093Y222516D01*
X275701Y222476D01*
X276309Y222516D01*
X276907Y222635D01*
X277484Y222831D01*
X278031Y223100D01*
X278537Y223439D01*
X278996Y223841D01*
X279398Y224299D01*
X279736Y224806D01*
X280006Y225352D01*
X280202Y225929D01*
X280321Y226527D01*
X280360Y227135D01*
X280321Y227744D01*
X280202Y228341D01*
X280006Y228919D01*
X279736Y229465D01*
X279398Y229972D01*
X278996Y230430D01*
X278537Y230832D01*
X278031Y231171D01*
X277484Y231440D01*
X276907Y231636D01*
X276309Y231755D01*
X275701Y231795D01*
D02*
G37*
%LPD*%
D10*
X325516Y160239D02*
D03*
Y166931D02*
D03*
X316016Y160239D02*
D03*
Y166931D02*
D03*
X335016Y160239D02*
D03*
Y166931D02*
D03*
X68185Y36612D02*
D03*
Y29919D02*
D03*
X77685Y36612D02*
D03*
Y29919D02*
D03*
X58685Y36612D02*
D03*
Y29919D02*
D03*
X325516Y357089D02*
D03*
Y363782D02*
D03*
X316016Y357089D02*
D03*
Y363782D02*
D03*
X335016Y357089D02*
D03*
Y363782D02*
D03*
X68185Y233462D02*
D03*
Y226769D02*
D03*
X77685Y233462D02*
D03*
Y226769D02*
D03*
X58685Y233462D02*
D03*
Y226769D02*
D03*
D11*
X296148Y150927D02*
D03*
X262684Y150927D02*
D03*
X296148Y168643D02*
D03*
X262684D02*
D03*
X97553Y45924D02*
D03*
X131017Y45924D02*
D03*
X97553Y28207D02*
D03*
X131017D02*
D03*
X296148Y347777D02*
D03*
X262684Y347777D02*
D03*
X296148Y365494D02*
D03*
X262684D02*
D03*
X97553Y242774D02*
D03*
X131017Y242774D02*
D03*
X97553Y225058D02*
D03*
X131017D02*
D03*
D12*
X352650Y119606D02*
D03*
Y137322D02*
D03*
Y129448D02*
D03*
Y147165D02*
D03*
X41051Y77245D02*
D03*
Y59528D02*
D03*
Y67402D02*
D03*
Y49686D02*
D03*
X352650Y316456D02*
D03*
Y334172D02*
D03*
Y326298D02*
D03*
Y344015D02*
D03*
X41051Y274095D02*
D03*
Y256379D02*
D03*
Y264253D02*
D03*
Y246536D02*
D03*
D13*
X231416Y161985D02*
X236416D01*
X231516Y129485D02*
X236416D01*
X227916Y133085D02*
X231516Y129485D01*
X227916Y133085D02*
Y158485D01*
X231416Y161985D01*
X289931Y45870D02*
Y49970D01*
Y45870D02*
X296316Y39485D01*
X312216Y154185D02*
X335016D01*
X346736Y147165D02*
X352650D01*
X344716Y149185D02*
X346736Y147165D01*
X344716Y149185D02*
Y154185D01*
X338916Y96685D02*
X354716Y80885D01*
X306616Y159785D02*
X312216Y154185D01*
X276891Y159785D02*
X306616D01*
X347536Y39485D02*
X354716Y32305D01*
X296316Y39485D02*
X347536D01*
X276891Y142085D02*
Y159785D01*
Y130185D02*
Y142085D01*
X260616D02*
X276891D01*
X335016Y154185D02*
X344716D01*
X345116Y119606D02*
X352650D01*
X315016Y85785D02*
X354716Y46085D01*
X305990Y85785D02*
X315016D01*
X293416Y86685D02*
X303416Y96685D01*
X338916D01*
X157285Y34865D02*
X162285D01*
X157285Y67365D02*
X162185D01*
X165785Y63765D01*
Y38365D02*
Y63765D01*
X162285Y34865D02*
X165785Y38365D01*
X103770Y146880D02*
Y150980D01*
X97385Y157365D02*
X103770Y150980D01*
X58685Y42665D02*
X81485D01*
X41051Y49686D02*
X46965D01*
X48985Y47665D01*
Y42665D02*
Y47665D01*
X38985Y115965D02*
X54785Y100165D01*
X81485Y42665D02*
X87085Y37065D01*
X116810D01*
X38985Y164545D02*
X46165Y157365D01*
X97385D01*
X116810Y37065D02*
Y54765D01*
Y66665D01*
Y54765D02*
X133085D01*
X48985Y42665D02*
X58685D01*
X41051Y77245D02*
X48585D01*
X38985Y150765D02*
X78685Y111065D01*
X87711D01*
X90285Y100165D02*
X100285Y110165D01*
X54785Y100165D02*
X90285D01*
X231416Y358835D02*
X236416D01*
X231516Y326335D02*
X236416D01*
X227916Y329935D02*
X231516Y326335D01*
X227916Y329935D02*
Y355335D01*
X231416Y358835D01*
X289931Y242721D02*
Y246820D01*
Y242721D02*
X296316Y236335D01*
X312216Y351035D02*
X335016D01*
X346736Y344015D02*
X352650D01*
X344716Y346035D02*
X346736Y344015D01*
X344716Y346035D02*
Y351035D01*
X338916Y293535D02*
X354716Y277735D01*
X306616Y356635D02*
X312216Y351035D01*
X276891Y356635D02*
X306616D01*
X347536Y236335D02*
X354716Y229156D01*
X296316Y236335D02*
X347536D01*
X276891Y338935D02*
Y356635D01*
Y327035D02*
Y338935D01*
X260616D02*
X276891D01*
X335016Y351035D02*
X344716D01*
X345116Y316456D02*
X352650D01*
X315016Y282635D02*
X354716Y242935D01*
X305990Y282635D02*
X315016D01*
X293416Y283535D02*
X303416Y293535D01*
X338916D01*
X157285Y231716D02*
X162285D01*
X157285Y264216D02*
X162185D01*
X165785Y260616D01*
Y235216D02*
Y260616D01*
X162285Y231716D02*
X165785Y235216D01*
X103770Y343731D02*
Y347831D01*
X97385Y354216D02*
X103770Y347831D01*
X58685Y239516D02*
X81485D01*
X41051Y246536D02*
X46965D01*
X48985Y244516D01*
Y239516D02*
Y244516D01*
X38985Y312816D02*
X54785Y297016D01*
X81485Y239516D02*
X87085Y233916D01*
X116810D01*
X38985Y361395D02*
X46165Y354216D01*
X97385D01*
X116810Y233916D02*
Y251616D01*
Y263516D01*
Y251616D02*
X133085D01*
X48985Y239516D02*
X58685D01*
X41051Y274095D02*
X48585D01*
X38985Y347616D02*
X78685Y307916D01*
X87711D01*
X90285Y297016D02*
X100285Y307016D01*
X54785Y297016D02*
X90285D01*
D14*
X343816Y129448D02*
X352650D01*
X343916Y137322D02*
X352650D01*
X325516Y160239D02*
X335016D01*
X316016D02*
X325516D01*
X312516Y166931D02*
X316016D01*
X321769D02*
X325516D01*
X331269D02*
X335016D01*
X255716Y147785D02*
X258857Y150927D01*
X262684D01*
X251916Y161785D02*
X258774Y168643D01*
X262684D01*
X241416Y151985D02*
X248216Y145185D01*
X236416Y151985D02*
X241416D01*
X283691Y100709D02*
X286240D01*
X250816Y89385D02*
X256116Y84085D01*
X246916Y89385D02*
X250816D01*
X269216Y79885D02*
Y81785D01*
X241516Y109485D02*
X269216Y81785D01*
X236416Y109485D02*
X241516D01*
X281741Y97560D02*
X286191D01*
X255716Y128685D02*
Y147785D01*
X287532Y116485D02*
X310816D01*
X281974Y110927D02*
X287532Y116485D01*
X286290Y103859D02*
Y109459D01*
X289716Y112885D01*
X293391Y107909D02*
X294767Y109285D01*
X289716Y112885D02*
X313216D01*
X310816Y116485D02*
X317316Y122985D01*
X325316Y132885D02*
X329716Y137285D01*
X296541Y105610D02*
X318041D01*
X329716Y117285D01*
Y129485D01*
X294767Y109285D02*
X315616D01*
X325316Y118985D01*
Y132885D01*
X313216Y112885D02*
X321416Y121085D01*
Y145485D01*
X317316Y122985D02*
Y146985D01*
X319616Y149285D01*
X321416D01*
X335016Y154185D02*
Y160239D01*
X290057Y79527D02*
X314258D01*
X318809Y74185D02*
X328462Y64531D01*
X294716Y68385D02*
X318016D01*
X289016Y69985D02*
X293216Y74185D01*
X318809D01*
X285816Y75285D02*
X290057Y79527D01*
X283016Y69985D02*
X289016D01*
X290916Y64585D02*
X294716Y68385D01*
X281216Y64585D02*
X290916D01*
X275516Y70285D02*
X281216Y64585D01*
X253116Y70285D02*
X275516D01*
X236416Y129485D02*
X241716D01*
X251916Y127385D02*
Y161785D01*
X281616Y79485D02*
X282416D01*
X241616Y119485D02*
X281616Y79485D01*
X236416Y119485D02*
X241616D01*
X311616Y123085D02*
Y137285D01*
X308516Y140385D02*
X311616Y137285D01*
X291516Y146185D02*
X305666Y132035D01*
Y123635D02*
Y132035D01*
Y123635D02*
X308716Y120585D01*
X254016Y75285D02*
X285816D01*
X242216Y87085D02*
X254016Y75285D01*
X236416Y87085D02*
X242216D01*
X244616Y123837D02*
X278242Y90211D01*
X244616Y123837D02*
Y126585D01*
X241716Y129485D02*
X244616Y126585D01*
X248216Y125885D02*
X288716Y85385D01*
X248216Y125885D02*
Y145185D01*
X251916Y127385D02*
X281741Y97560D01*
X255716Y128685D02*
X283691Y100709D01*
X41051Y67402D02*
X49885D01*
X41051Y59528D02*
X49785D01*
X58685Y36612D02*
X68185D01*
X77685D01*
Y29919D02*
X81185D01*
X68185D02*
X71931D01*
X58685D02*
X62432D01*
X134843Y45924D02*
X137985Y49065D01*
X131017Y45924D02*
X134843D01*
X134927Y28207D02*
X141785Y35065D01*
X131017Y28207D02*
X134927D01*
X145485Y51665D02*
X152285Y44865D01*
X157285D01*
X107461Y96141D02*
X110009D01*
X137585Y112765D02*
X142885Y107465D01*
X146785D01*
X124485Y115065D02*
Y116965D01*
Y115065D02*
X152185Y87365D01*
X157285D01*
X107510Y99291D02*
X111960D01*
X137985Y49065D02*
Y68165D01*
X82885Y80365D02*
X106168D01*
X111727Y85924D01*
X107411Y87391D02*
Y92991D01*
X103985Y83965D02*
X107411Y87391D01*
X98934Y87565D02*
X100310Y88941D01*
X80485Y83965D02*
X103985D01*
X76385Y73865D02*
X82885Y80365D01*
X63985Y59565D02*
X68385Y63965D01*
X75660Y91240D02*
X97160D01*
X63985Y79565D02*
X75660Y91240D01*
X63985Y67365D02*
Y79565D01*
X78085Y87565D02*
X98934D01*
X68385Y77865D02*
X78085Y87565D01*
X68385Y63965D02*
Y77865D01*
X72285Y75765D02*
X80485Y83965D01*
X72285Y51365D02*
Y75765D01*
X76385Y49865D02*
Y73865D01*
X74085Y47565D02*
X76385Y49865D01*
X72285Y47565D02*
X74085D01*
X58685Y36612D02*
Y42665D01*
X79443Y117324D02*
X103643D01*
X65239Y132319D02*
X74892Y122665D01*
X75685Y128465D02*
X98985D01*
X100485Y122665D02*
X104685Y126865D01*
X74892Y122665D02*
X100485D01*
X103643Y117324D02*
X107885Y121565D01*
X104685Y126865D02*
X110685D01*
X98985Y128465D02*
X102785Y132265D01*
X112485D01*
X118185Y126565D01*
X140585D01*
X151985Y67365D02*
X157285D01*
X141785Y35065D02*
Y69465D01*
X111285Y117365D02*
X112085D01*
X152085Y77365D01*
X157285D01*
X82085Y59565D02*
Y73765D01*
Y59565D02*
X85185Y56465D01*
X88035Y64815D02*
X102185Y50665D01*
X88035Y64815D02*
Y73215D01*
X84985Y76265D02*
X88035Y73215D01*
X107885Y121565D02*
X139685D01*
X151485Y109765D01*
X157285D01*
X115459Y106639D02*
X149085Y73013D01*
Y70265D02*
Y73013D01*
Y70265D02*
X151985Y67365D01*
X104985Y111465D02*
X145485Y70965D01*
Y51665D02*
Y70965D01*
X111960Y99291D02*
X141785Y69465D01*
X110009Y96141D02*
X137985Y68165D01*
X343816Y326298D02*
X352650D01*
X343916Y334172D02*
X352650D01*
X325516Y357089D02*
X335016D01*
X316016D02*
X325516D01*
X312516Y363782D02*
X316016D01*
X321769D02*
X325516D01*
X331269D02*
X335016D01*
X255716Y344635D02*
X258857Y347777D01*
X262684D01*
X251916Y358635D02*
X258774Y365494D01*
X262684D01*
X241416Y348835D02*
X248216Y342035D01*
X236416Y348835D02*
X241416D01*
X283691Y297560D02*
X286240D01*
X250816Y286235D02*
X256116Y280935D01*
X246916Y286235D02*
X250816D01*
X269216Y276735D02*
Y278635D01*
X241516Y306335D02*
X269216Y278635D01*
X236416Y306335D02*
X241516D01*
X281741Y294410D02*
X286191D01*
X255716Y325535D02*
Y344635D01*
X287532Y313335D02*
X310816D01*
X281974Y307777D02*
X287532Y313335D01*
X286290Y300710D02*
Y306310D01*
X289716Y309735D01*
X293391Y304760D02*
X294767Y306135D01*
X289716Y309735D02*
X313216D01*
X310816Y313335D02*
X317316Y319835D01*
X325316Y329735D02*
X329716Y334135D01*
X296541Y302461D02*
X318041D01*
X329716Y314135D01*
Y326335D01*
X294767Y306135D02*
X315616D01*
X325316Y315835D01*
Y329735D01*
X313216Y309735D02*
X321416Y317935D01*
Y342335D01*
X317316Y319835D02*
Y343835D01*
X319616Y346135D01*
X321416D01*
X335016Y351035D02*
Y357089D01*
X290057Y276377D02*
X314258D01*
X318809Y271035D02*
X328462Y261382D01*
X294716Y265235D02*
X318016D01*
X289016Y266835D02*
X293216Y271035D01*
X318809D01*
X285816Y272135D02*
X290057Y276377D01*
X283016Y266835D02*
X289016D01*
X290916Y261435D02*
X294716Y265235D01*
X281216Y261435D02*
X290916D01*
X275516Y267135D02*
X281216Y261435D01*
X253116Y267135D02*
X275516D01*
X236416Y326335D02*
X241716D01*
X251916Y324235D02*
Y358635D01*
X281616Y276335D02*
X282416D01*
X241616Y316335D02*
X281616Y276335D01*
X236416Y316335D02*
X241616D01*
X311616Y319935D02*
Y334135D01*
X308516Y337235D02*
X311616Y334135D01*
X291516Y343035D02*
X305666Y328885D01*
Y320485D02*
Y328885D01*
Y320485D02*
X308716Y317435D01*
X254016Y272135D02*
X285816D01*
X242216Y283935D02*
X254016Y272135D01*
X236416Y283935D02*
X242216D01*
X244616Y320687D02*
X278242Y287061D01*
X244616Y320687D02*
Y323435D01*
X241716Y326335D02*
X244616Y323435D01*
X248216Y322735D02*
X288716Y282235D01*
X248216Y322735D02*
Y342035D01*
X251916Y324235D02*
X281741Y294410D01*
X255716Y325535D02*
X283691Y297560D01*
X41051Y264253D02*
X49885D01*
X41051Y256379D02*
X49785D01*
X58685Y233462D02*
X68185D01*
X77685D01*
Y226769D02*
X81185D01*
X68185D02*
X71931D01*
X58685D02*
X62432D01*
X134843Y242774D02*
X137985Y245916D01*
X131017Y242774D02*
X134843D01*
X134927Y225058D02*
X141785Y231916D01*
X131017Y225058D02*
X134927D01*
X145485Y248516D02*
X152285Y241716D01*
X157285D01*
X107461Y292991D02*
X110009D01*
X137585Y309616D02*
X142885Y304316D01*
X146785D01*
X124485Y311916D02*
Y313816D01*
Y311916D02*
X152185Y284216D01*
X157285D01*
X107510Y296141D02*
X111960D01*
X137985Y245916D02*
Y265016D01*
X82885Y277216D02*
X106168D01*
X111727Y282774D01*
X107411Y284242D02*
Y289842D01*
X103985Y280816D02*
X107411Y284242D01*
X98934Y284416D02*
X100310Y285791D01*
X80485Y280816D02*
X103985D01*
X76385Y270716D02*
X82885Y277216D01*
X63985Y256416D02*
X68385Y260816D01*
X75660Y288090D02*
X97160D01*
X63985Y276416D02*
X75660Y288090D01*
X63985Y264216D02*
Y276416D01*
X78085Y284416D02*
X98934D01*
X68385Y274716D02*
X78085Y284416D01*
X68385Y260816D02*
Y274716D01*
X72285Y272616D02*
X80485Y280816D01*
X72285Y248216D02*
Y272616D01*
X76385Y246716D02*
Y270716D01*
X74085Y244416D02*
X76385Y246716D01*
X72285Y244416D02*
X74085D01*
X58685Y233462D02*
Y239516D01*
X79443Y314174D02*
X103643D01*
X65239Y329169D02*
X74892Y319516D01*
X75685Y325316D02*
X98985D01*
X100485Y319516D02*
X104685Y323716D01*
X74892Y319516D02*
X100485D01*
X103643Y314174D02*
X107885Y318416D01*
X104685Y323716D02*
X110685D01*
X98985Y325316D02*
X102785Y329116D01*
X112485D01*
X118185Y323416D01*
X140585D01*
X151985Y264216D02*
X157285D01*
X141785Y231916D02*
Y266316D01*
X111285Y314216D02*
X112085D01*
X152085Y274216D01*
X157285D01*
X82085Y256416D02*
Y270616D01*
Y256416D02*
X85185Y253316D01*
X88035Y261666D02*
X102185Y247516D01*
X88035Y261666D02*
Y270066D01*
X84985Y273116D02*
X88035Y270066D01*
X107885Y318416D02*
X139685D01*
X151485Y306616D01*
X157285D01*
X115459Y303490D02*
X149085Y269864D01*
Y267116D02*
Y269864D01*
Y267116D02*
X151985Y264216D01*
X104985Y308316D02*
X145485Y267816D01*
Y248516D02*
Y267816D01*
X111960Y296141D02*
X141785Y266316D01*
X110009Y292991D02*
X137985Y265016D01*
D15*
X262100Y78185D02*
D03*
X131601Y118665D02*
D03*
X262100Y275035D02*
D03*
X131601Y315516D02*
D03*
D16*
X354716Y67106D02*
D03*
Y32305D02*
D03*
X38985Y129745D02*
D03*
Y164545D02*
D03*
X354716Y263956D02*
D03*
Y229156D02*
D03*
X38985Y326595D02*
D03*
Y361395D02*
D03*
D17*
X354716Y80885D02*
D03*
Y46085D02*
D03*
X38985Y115965D02*
D03*
Y150765D02*
D03*
X354716Y277735D02*
D03*
Y242935D02*
D03*
X38985Y312816D02*
D03*
Y347616D02*
D03*
D18*
X329301Y30285D02*
D03*
X289931D02*
D03*
X309616Y49970D02*
D03*
X275701Y30285D02*
D03*
X236331D02*
D03*
X256016Y49970D02*
D03*
X64400Y166565D02*
D03*
X103770D02*
D03*
X84085Y146880D02*
D03*
X118000Y166565D02*
D03*
X157370D02*
D03*
X137685Y146880D02*
D03*
X329301Y227135D02*
D03*
X289931D02*
D03*
X309616Y246820D02*
D03*
X275701Y227135D02*
D03*
X236331D02*
D03*
X256016Y246820D02*
D03*
X64400Y363416D02*
D03*
X103770D02*
D03*
X84085Y343731D02*
D03*
X118000Y363416D02*
D03*
X157370D02*
D03*
X137685Y343731D02*
D03*
D19*
X309616Y30285D02*
D03*
X256016D02*
D03*
X84085Y166565D02*
D03*
X137685D02*
D03*
X309616Y227135D02*
D03*
X256016D02*
D03*
X84085Y363416D02*
D03*
X137685D02*
D03*
D20*
X319458Y49970D02*
D03*
X289931D02*
D03*
X329301D02*
D03*
X299773D02*
D03*
X265858D02*
D03*
X236331D02*
D03*
X275701D02*
D03*
X246173D02*
D03*
X74243Y146880D02*
D03*
X103770D02*
D03*
X64400D02*
D03*
X93928D02*
D03*
X127842D02*
D03*
X157370D02*
D03*
X118000D02*
D03*
X147528D02*
D03*
X319458Y246820D02*
D03*
X289931D02*
D03*
X329301D02*
D03*
X299773D02*
D03*
X265858D02*
D03*
X236331D02*
D03*
X275701D02*
D03*
X246173D02*
D03*
X74243Y343731D02*
D03*
X103770D02*
D03*
X64400D02*
D03*
X93928D02*
D03*
X127842D02*
D03*
X157370D02*
D03*
X118000D02*
D03*
X147528D02*
D03*
D21*
X236416Y97085D02*
D03*
Y77085D02*
D03*
Y87085D02*
D03*
Y129485D02*
D03*
Y109485D02*
D03*
Y119485D02*
D03*
Y161985D02*
D03*
Y141985D02*
D03*
Y151985D02*
D03*
X157285Y99765D02*
D03*
Y119765D02*
D03*
Y109765D02*
D03*
Y67365D02*
D03*
Y87365D02*
D03*
Y77365D02*
D03*
Y34865D02*
D03*
Y54865D02*
D03*
Y44865D02*
D03*
X236416Y293935D02*
D03*
Y273935D02*
D03*
Y283935D02*
D03*
Y326335D02*
D03*
Y306335D02*
D03*
Y316335D02*
D03*
Y358835D02*
D03*
Y338835D02*
D03*
Y348835D02*
D03*
X157285Y296616D02*
D03*
Y316616D02*
D03*
Y306616D02*
D03*
Y264216D02*
D03*
Y284216D02*
D03*
Y274216D02*
D03*
Y231716D02*
D03*
Y251716D02*
D03*
Y241716D02*
D03*
D22*
X362886Y110944D02*
D03*
Y155826D02*
D03*
X30815Y85906D02*
D03*
Y41024D02*
D03*
X362886Y307794D02*
D03*
Y352676D02*
D03*
X30815Y282757D02*
D03*
Y237875D02*
D03*
D23*
X362886Y124527D02*
D03*
Y142243D02*
D03*
X30815Y72324D02*
D03*
Y54607D02*
D03*
X362886Y321377D02*
D03*
Y339094D02*
D03*
X30815Y269174D02*
D03*
Y251458D02*
D03*
D24*
X343816Y129448D02*
D03*
X343916Y137322D02*
D03*
X312516Y166931D02*
D03*
X321769D02*
D03*
X331269D02*
D03*
X329716Y129485D02*
D03*
Y137285D02*
D03*
X308516Y140385D02*
D03*
X291516Y146185D02*
D03*
X256116Y84085D02*
D03*
X246916Y89385D02*
D03*
X286191Y97560D02*
D03*
X286240Y100709D02*
D03*
X286290Y103859D02*
D03*
X308716Y120585D02*
D03*
X278242Y90211D02*
D03*
X282416Y79485D02*
D03*
X269216Y79885D02*
D03*
X281974Y110927D02*
D03*
X293391Y107909D02*
D03*
X296541Y105610D02*
D03*
X321416Y149285D02*
D03*
Y145485D02*
D03*
X311616Y123085D02*
D03*
X314258Y79527D02*
D03*
X253116Y70285D02*
D03*
X318016Y68385D02*
D03*
X328462Y64531D02*
D03*
X283016Y69985D02*
D03*
X344716Y154185D02*
D03*
Y156685D02*
D03*
X277216Y130185D02*
D03*
Y127685D02*
D03*
X259916Y142785D02*
D03*
Y140285D02*
D03*
X279716Y130185D02*
D03*
X259916Y134185D02*
D03*
X344716Y159185D02*
D03*
X345116Y119606D02*
D03*
Y117085D02*
D03*
X293391Y86685D02*
D03*
X295916D02*
D03*
Y89185D02*
D03*
X293391Y89161D02*
D03*
X289016Y84885D02*
D03*
X305990Y85785D02*
D03*
X308516Y88285D02*
D03*
X306016D02*
D03*
X308516Y85785D02*
D03*
X282216Y130185D02*
D03*
X342616Y119585D02*
D03*
Y117085D02*
D03*
X292716Y99285D02*
D03*
X329716Y144485D02*
D03*
X270516Y39085D02*
D03*
X241216Y39185D02*
D03*
X299616Y32485D02*
D03*
X320116Y32685D02*
D03*
X336416Y83085D02*
D03*
X309616Y60185D02*
D03*
X256016Y57585D02*
D03*
X336216Y107385D02*
D03*
X264916Y86085D02*
D03*
X337116Y46185D02*
D03*
X333116Y59985D02*
D03*
X308016Y101685D02*
D03*
X282516Y59085D02*
D03*
X49885Y67402D02*
D03*
X49785Y59528D02*
D03*
X81185Y29919D02*
D03*
X71931D02*
D03*
X62432D02*
D03*
X63985Y67365D02*
D03*
Y59565D02*
D03*
X85185Y56465D02*
D03*
X102185Y50665D02*
D03*
X137585Y112765D02*
D03*
X146785Y107465D02*
D03*
X107510Y99291D02*
D03*
X107461Y96141D02*
D03*
X107411Y92991D02*
D03*
X84985Y76265D02*
D03*
X115459Y106639D02*
D03*
X111285Y117365D02*
D03*
X124485Y116965D02*
D03*
X111727Y85924D02*
D03*
X100310Y88941D02*
D03*
X97160Y91240D02*
D03*
X72285Y47565D02*
D03*
Y51365D02*
D03*
X82085Y73765D02*
D03*
X79443Y117324D02*
D03*
X140585Y126565D02*
D03*
X75685Y128465D02*
D03*
X65239Y132319D02*
D03*
X110685Y126865D02*
D03*
X48985Y42665D02*
D03*
Y40165D02*
D03*
X116485Y66665D02*
D03*
Y69165D02*
D03*
X133785Y54065D02*
D03*
Y56565D02*
D03*
X113985Y66665D02*
D03*
X133785Y62665D02*
D03*
X48985Y37665D02*
D03*
X48585Y77245D02*
D03*
Y79765D02*
D03*
X100310Y110165D02*
D03*
X97785D02*
D03*
Y107665D02*
D03*
X100310Y107690D02*
D03*
X104685Y111965D02*
D03*
X87711Y111065D02*
D03*
X85185Y108565D02*
D03*
X87685D02*
D03*
X85185Y111065D02*
D03*
X111485Y66665D02*
D03*
X51085Y77265D02*
D03*
Y79765D02*
D03*
X100985Y97565D02*
D03*
X63985Y52365D02*
D03*
X123185Y157765D02*
D03*
X152485Y157665D02*
D03*
X94085Y164365D02*
D03*
X73585Y164165D02*
D03*
X57285Y113765D02*
D03*
X84085Y136665D02*
D03*
X137685Y139265D02*
D03*
X57485Y89465D02*
D03*
X128785Y110765D02*
D03*
X56585Y150665D02*
D03*
X60585Y136865D02*
D03*
X85685Y95165D02*
D03*
X111185Y137765D02*
D03*
X343816Y326298D02*
D03*
X343916Y334172D02*
D03*
X312516Y363782D02*
D03*
X321769D02*
D03*
X331269D02*
D03*
X329716Y326335D02*
D03*
Y334135D02*
D03*
X308516Y337235D02*
D03*
X291516Y343035D02*
D03*
X256116Y280935D02*
D03*
X246916Y286235D02*
D03*
X286191Y294410D02*
D03*
X286240Y297560D02*
D03*
X286290Y300710D02*
D03*
X308716Y317435D02*
D03*
X278242Y287061D02*
D03*
X282416Y276335D02*
D03*
X269216Y276735D02*
D03*
X281974Y307777D02*
D03*
X293391Y304760D02*
D03*
X296541Y302461D02*
D03*
X321416Y346135D02*
D03*
Y342335D02*
D03*
X311616Y319935D02*
D03*
X314258Y276377D02*
D03*
X253116Y267135D02*
D03*
X318016Y265235D02*
D03*
X328462Y261382D02*
D03*
X283016Y266835D02*
D03*
X344716Y351035D02*
D03*
Y353535D02*
D03*
X277216Y327035D02*
D03*
Y324535D02*
D03*
X259916Y339635D02*
D03*
Y337135D02*
D03*
X279716Y327035D02*
D03*
X259916Y331035D02*
D03*
X344716Y356035D02*
D03*
X345116Y316456D02*
D03*
Y313935D02*
D03*
X293391Y283535D02*
D03*
X295916D02*
D03*
Y286035D02*
D03*
X293391Y286011D02*
D03*
X289016Y281735D02*
D03*
X305990Y282635D02*
D03*
X308516Y285135D02*
D03*
X306016D02*
D03*
X308516Y282635D02*
D03*
X282216Y327035D02*
D03*
X342616Y316435D02*
D03*
Y313935D02*
D03*
X292716Y296135D02*
D03*
X329716Y341335D02*
D03*
X270516Y235935D02*
D03*
X241216Y236035D02*
D03*
X299616Y229335D02*
D03*
X320116Y229535D02*
D03*
X336416Y279935D02*
D03*
X309616Y257035D02*
D03*
X256016Y254435D02*
D03*
X336216Y304235D02*
D03*
X264916Y282935D02*
D03*
X337116Y243035D02*
D03*
X333116Y256835D02*
D03*
X308016Y298535D02*
D03*
X282516Y255935D02*
D03*
X49885Y264253D02*
D03*
X49785Y256379D02*
D03*
X81185Y226769D02*
D03*
X71931D02*
D03*
X62432D02*
D03*
X63985Y264216D02*
D03*
Y256416D02*
D03*
X85185Y253316D02*
D03*
X102185Y247516D02*
D03*
X137585Y309616D02*
D03*
X146785Y304316D02*
D03*
X107510Y296141D02*
D03*
X107461Y292991D02*
D03*
X107411Y289842D02*
D03*
X84985Y273116D02*
D03*
X115459Y303490D02*
D03*
X111285Y314216D02*
D03*
X124485Y313816D02*
D03*
X111727Y282774D02*
D03*
X100310Y285791D02*
D03*
X97160Y288090D02*
D03*
X72285Y244416D02*
D03*
Y248216D02*
D03*
X82085Y270616D02*
D03*
X79443Y314174D02*
D03*
X140585Y323416D02*
D03*
X75685Y325316D02*
D03*
X65239Y329169D02*
D03*
X110685Y323716D02*
D03*
X48985Y239516D02*
D03*
Y237016D02*
D03*
X116485Y263516D02*
D03*
Y266016D02*
D03*
X133785Y250916D02*
D03*
Y253416D02*
D03*
X113985Y263516D02*
D03*
X133785Y259516D02*
D03*
X48985Y234516D02*
D03*
X48585Y274095D02*
D03*
Y276616D02*
D03*
X100310Y307016D02*
D03*
X97785D02*
D03*
Y304516D02*
D03*
X100310Y304540D02*
D03*
X104685Y308816D02*
D03*
X87711Y307916D02*
D03*
X85185Y305416D02*
D03*
X87685D02*
D03*
X85185Y307916D02*
D03*
X111485Y263516D02*
D03*
X51085Y274116D02*
D03*
Y276616D02*
D03*
X100985Y294416D02*
D03*
X63985Y249216D02*
D03*
X123185Y354616D02*
D03*
X152485Y354516D02*
D03*
X94085Y361216D02*
D03*
X73585Y361016D02*
D03*
X57285Y310616D02*
D03*
X84085Y333516D02*
D03*
X137685Y336116D02*
D03*
X57485Y286316D02*
D03*
X128785Y307616D02*
D03*
X56585Y347516D02*
D03*
X60585Y333716D02*
D03*
X85685Y292016D02*
D03*
X111185Y334616D02*
D03*
M02*
